<?xml version="1.0" encoding="UTF-8" standalone="no"?>
<!DOCTYPE svg PUBLIC "-//W3C//DTD SVG 1.1//EN"
 "http://www.w3.org/Graphics/SVG/1.1/DTD/svg11.dtd">
<!-- Generated by graphviz version 13.1.2 (20250808.2320)
 -->
<!-- Title: Inventory.ItemInstance Pages: 1 -->
<svg width="115pt" height="354pt"
 viewBox="0.00 0.00 115.00 354.00" xmlns="http://www.w3.org/2000/svg" xmlns:xlink="http://www.w3.org/1999/xlink">
<g id="graph0" class="graph" transform="scale(1 1) rotate(0) translate(4 350.25)">
<title>Inventory.ItemInstance</title>
<!-- Node1 -->
<g id="Node000001" class="node">
<title>Node1</title>
<g id="a_Node000001"><a xlink:title="Data&#45;Class representing an item stack by containing an reference to a scriptable object(item) and the...">
<polygon fill="#999999" stroke="none" points="107,-95.5 0,-95.5 0,0 107,0 107,-95.5"/>
<text xml:space="preserve" text-anchor="start" x="4" y="-82" font-family="Helvetica,sans-Serif" font-size="10.00">Inventory.ItemInstance</text>
<text xml:space="preserve" text-anchor="start" x="10.5" y="-66.75" font-family="Helvetica,sans-Serif" font-size="10.00">+</text>
<text xml:space="preserve" text-anchor="start" x="27" y="-66.75" font-family="Helvetica,sans-Serif" font-size="10.00">itemQuantity</text>
<text xml:space="preserve" text-anchor="start" x="10.5" y="-51.5" font-family="Helvetica,sans-Serif" font-size="10.00">+</text>
<text xml:space="preserve" text-anchor="start" x="27" y="-51.5" font-family="Helvetica,sans-Serif" font-size="10.00">ItemInstance()</text>
<text xml:space="preserve" text-anchor="start" x="10.5" y="-36.25" font-family="Helvetica,sans-Serif" font-size="10.00">+</text>
<text xml:space="preserve" text-anchor="start" x="27" y="-36.25" font-family="Helvetica,sans-Serif" font-size="10.00">ItemInstance()</text>
<text xml:space="preserve" text-anchor="start" x="10.5" y="-21" font-family="Helvetica,sans-Serif" font-size="10.00">+</text>
<text xml:space="preserve" text-anchor="start" x="27" y="-21" font-family="Helvetica,sans-Serif" font-size="10.00">ItemInstance()</text>
<text xml:space="preserve" text-anchor="start" x="10.5" y="-5.75" font-family="Helvetica,sans-Serif" font-size="10.00">+</text>
<text xml:space="preserve" text-anchor="start" x="27" y="-5.75" font-family="Helvetica,sans-Serif" font-size="10.00">ItemInstance()</text>
<polygon fill="#666666" stroke="#666666" points="0,-78.25 0,-78.25 107,-78.25 107,-78.25 0,-78.25"/>
<polygon fill="#666666" stroke="#666666" points="0,-63 0,-63 25,-63 25,-63 0,-63"/>
<polygon fill="#666666" stroke="#666666" points="25,-63 25,-63 107,-63 107,-63 25,-63"/>
<polygon fill="none" stroke="#666666" points="0,0 0,-95.5 107,-95.5 107,0 0,0"/>
</a>
</g>
</g>
<!-- Node2 -->
<g id="Node000002" class="node">
<title>Node2</title>
<g id="a_Node000002"><a xlink:href="class_items_1_1_item.html" target="_top" xlink:title="Abstract Data&#45;Class, which shares all commonalities between different types of Items.">
<polygon fill="white" stroke="none" points="98.12,-259.5 8.88,-259.5 8.88,-148.75 98.12,-148.75 98.12,-259.5"/>
<text xml:space="preserve" text-anchor="start" x="29.88" y="-246" font-family="Helvetica,sans-Serif" font-size="10.00">Items.Item</text>
<text xml:space="preserve" text-anchor="start" x="12.88" y="-230.75" font-family="Helvetica,sans-Serif" font-size="10.00">+</text>
<text xml:space="preserve" text-anchor="start" x="22.88" y="-230.75" font-family="Helvetica,sans-Serif" font-size="10.00">_name</text>
<text xml:space="preserve" text-anchor="start" x="12.88" y="-215.5" font-family="Helvetica,sans-Serif" font-size="10.00">+</text>
<text xml:space="preserve" text-anchor="start" x="22.88" y="-215.5" font-family="Helvetica,sans-Serif" font-size="10.00">_model</text>
<text xml:space="preserve" text-anchor="start" x="12.88" y="-200.25" font-family="Helvetica,sans-Serif" font-size="10.00">+</text>
<text xml:space="preserve" text-anchor="start" x="22.88" y="-200.25" font-family="Helvetica,sans-Serif" font-size="10.00">rarity</text>
<text xml:space="preserve" text-anchor="start" x="12.88" y="-185" font-family="Helvetica,sans-Serif" font-size="10.00">+</text>
<text xml:space="preserve" text-anchor="start" x="22.88" y="-185" font-family="Helvetica,sans-Serif" font-size="10.00">item_icon</text>
<text xml:space="preserve" text-anchor="start" x="12.88" y="-169.75" font-family="Helvetica,sans-Serif" font-size="10.00">+</text>
<text xml:space="preserve" text-anchor="start" x="22.88" y="-169.75" font-family="Helvetica,sans-Serif" font-size="10.00">GetRarityColor()</text>
<text xml:space="preserve" text-anchor="start" x="12.88" y="-154.5" font-family="Helvetica,sans-Serif" font-size="10.00">+</text>
<text xml:space="preserve" text-anchor="start" x="22.88" y="-154.5" font-family="Helvetica,sans-Serif" font-size="10.00">Use()</text>
<polygon fill="#666666" stroke="#666666" points="8.88,-242.25 8.88,-242.25 98.12,-242.25 98.12,-242.25 8.88,-242.25"/>
<polygon fill="#666666" stroke="#666666" points="8.88,-181.25 8.88,-181.25 20.88,-181.25 20.88,-181.25 8.88,-181.25"/>
<polygon fill="#666666" stroke="#666666" points="20.88,-181.25 20.88,-181.25 98.12,-181.25 98.12,-181.25 20.88,-181.25"/>
<polygon fill="none" stroke="#666666" points="8.88,-148.75 8.88,-259.5 98.12,-259.5 98.12,-148.75 8.88,-148.75"/>
</a>
</g>
</g>
<!-- Node2&#45;&gt;Node1 -->
<g id="edge1_Node000001_Node000002" class="edge">
<title>Node2&#45;&gt;Node1</title>
<g id="a_edge1_Node000001_Node000002"><a xlink:title=" ">
<path fill="none" stroke="#63b8ff" d="M53.5,-149.13C53.5,-135.82 53.5,-121.5 53.5,-107.96"/>
<polygon fill="none" stroke="#63b8ff" points="53.5,-108.17 49.5,-102.17 53.5,-96.17 57.5,-102.17 53.5,-108.17"/>
</a>
</g>
<text xml:space="preserve" text-anchor="start" x="56.5" y="-118.25" font-family="Helvetica,sans-Serif" font-size="10.00" fill="grey">+itemData</text>
</g>
<!-- Node3 -->
<g id="Node000003" class="node">
<title>Node3</title>
<g id="a_Node000003"><a xlink:title=" ">
<polygon fill="white" stroke="none" points="93.5,-346.25 13.5,-346.25 13.5,-296.5 93.5,-296.5 93.5,-346.25"/>
<text xml:space="preserve" text-anchor="start" x="17.5" y="-332.75" font-family="Helvetica,sans-Serif" font-size="10.00">ScriptableObject</text>
<text xml:space="preserve" text-anchor="start" x="52" y="-317.5" font-family="Helvetica,sans-Serif" font-size="10.00"> </text>
<text xml:space="preserve" text-anchor="start" x="52" y="-302.25" font-family="Helvetica,sans-Serif" font-size="10.00"> </text>
<polygon fill="#666666" stroke="#666666" points="13.5,-329 13.5,-329 93.5,-329 93.5,-329 13.5,-329"/>
<polygon fill="#666666" stroke="#666666" points="13.5,-313.75 13.5,-313.75 93.5,-313.75 93.5,-313.75 13.5,-313.75"/>
<polygon fill="none" stroke="#666666" points="13.5,-296.5 13.5,-346.25 93.5,-346.25 93.5,-296.5 13.5,-296.5"/>
</a>
</g>
</g>
<!-- Node3&#45;&gt;Node2 -->
<g id="edge2_Node000002_Node000003" class="edge">
<title>Node3&#45;&gt;Node2</title>
<g id="a_edge2_Node000002_Node000003"><a xlink:title=" ">
<path fill="none" stroke="#63b8ff" d="M53.5,-285.29C53.5,-277.03 53.5,-268.03 53.5,-259.14"/>
<polygon fill="none" stroke="#63b8ff" points="50,-285.26 53.5,-295.26 57,-285.26 50,-285.26"/>
</a>
</g>
</g>
</g>
</svg>
