<?xml version="1.0" encoding="UTF-8" standalone="no"?>
<!DOCTYPE svg PUBLIC "-//W3C//DTD SVG 1.1//EN"
 "http://www.w3.org/Graphics/SVG/1.1/DTD/svg11.dtd">
<!-- Generated by graphviz version 13.1.2 (20250808.2320)
 -->
<!-- Title: Items.Item Pages: 1 -->
<svg width="97pt" height="205pt"
 viewBox="0.00 0.00 97.00 205.00" xmlns="http://www.w3.org/2000/svg" xmlns:xlink="http://www.w3.org/1999/xlink">
<g id="graph0" class="graph" transform="scale(1 1) rotate(0) translate(4 200.5)">
<title>Items.Item</title>
<!-- Node1 -->
<g id="Node000001" class="node">
<title>Node1</title>
<g id="a_Node000001"><a xlink:title="Abstract Data&#45;Class, which shares all commonalities between different types of Items.">
<polygon fill="#999999" stroke="none" points="89.25,-110.75 0,-110.75 0,0 89.25,0 89.25,-110.75"/>
<text xml:space="preserve" text-anchor="start" x="21" y="-97.25" font-family="Helvetica,sans-Serif" font-size="10.00">Items.Item</text>
<text xml:space="preserve" text-anchor="start" x="4" y="-82" font-family="Helvetica,sans-Serif" font-size="10.00">+</text>
<text xml:space="preserve" text-anchor="start" x="14" y="-82" font-family="Helvetica,sans-Serif" font-size="10.00">_name</text>
<text xml:space="preserve" text-anchor="start" x="4" y="-66.75" font-family="Helvetica,sans-Serif" font-size="10.00">+</text>
<text xml:space="preserve" text-anchor="start" x="14" y="-66.75" font-family="Helvetica,sans-Serif" font-size="10.00">_model</text>
<text xml:space="preserve" text-anchor="start" x="4" y="-51.5" font-family="Helvetica,sans-Serif" font-size="10.00">+</text>
<text xml:space="preserve" text-anchor="start" x="14" y="-51.5" font-family="Helvetica,sans-Serif" font-size="10.00">rarity</text>
<text xml:space="preserve" text-anchor="start" x="4" y="-36.25" font-family="Helvetica,sans-Serif" font-size="10.00">+</text>
<text xml:space="preserve" text-anchor="start" x="14" y="-36.25" font-family="Helvetica,sans-Serif" font-size="10.00">item_icon</text>
<text xml:space="preserve" text-anchor="start" x="4" y="-21" font-family="Helvetica,sans-Serif" font-size="10.00">+</text>
<text xml:space="preserve" text-anchor="start" x="14" y="-21" font-family="Helvetica,sans-Serif" font-size="10.00">GetRarityColor()</text>
<text xml:space="preserve" text-anchor="start" x="4" y="-5.75" font-family="Helvetica,sans-Serif" font-size="10.00">+</text>
<text xml:space="preserve" text-anchor="start" x="14" y="-5.75" font-family="Helvetica,sans-Serif" font-size="10.00">Use()</text>
<polygon fill="#666666" stroke="#666666" points="0,-93.5 0,-93.5 89.25,-93.5 89.25,-93.5 0,-93.5"/>
<polygon fill="#666666" stroke="#666666" points="0,-32.5 0,-32.5 12,-32.5 12,-32.5 0,-32.5"/>
<polygon fill="#666666" stroke="#666666" points="12,-32.5 12,-32.5 89.25,-32.5 89.25,-32.5 12,-32.5"/>
<polygon fill="none" stroke="#666666" points="0,0 0,-110.75 89.25,-110.75 89.25,0 0,0"/>
</a>
</g>
</g>
<!-- Node2 -->
<g id="Node000002" class="node">
<title>Node2</title>
<g id="a_Node000002"><a xlink:title=" ">
<polygon fill="white" stroke="none" points="84.62,-196.5 4.62,-196.5 4.62,-146.75 84.62,-146.75 84.62,-196.5"/>
<text xml:space="preserve" text-anchor="start" x="8.62" y="-183" font-family="Helvetica,sans-Serif" font-size="10.00">ScriptableObject</text>
<text xml:space="preserve" text-anchor="start" x="43.12" y="-167.75" font-family="Helvetica,sans-Serif" font-size="10.00"> </text>
<text xml:space="preserve" text-anchor="start" x="43.12" y="-152.5" font-family="Helvetica,sans-Serif" font-size="10.00"> </text>
<polygon fill="#666666" stroke="#666666" points="4.62,-179.25 4.62,-179.25 84.62,-179.25 84.62,-179.25 4.62,-179.25"/>
<polygon fill="#666666" stroke="#666666" points="4.62,-164 4.62,-164 84.62,-164 84.62,-164 4.62,-164"/>
<polygon fill="none" stroke="#666666" points="4.62,-146.75 4.62,-196.5 84.62,-196.5 84.62,-146.75 4.62,-146.75"/>
</a>
</g>
</g>
<!-- Node2&#45;&gt;Node1 -->
<g id="edge1_Node000001_Node000002" class="edge">
<title>Node2&#45;&gt;Node1</title>
<g id="a_edge1_Node000001_Node000002"><a xlink:title=" ">
<path fill="none" stroke="#63b8ff" d="M44.62,-135.58C44.62,-127.68 44.62,-119.12 44.62,-110.64"/>
<polygon fill="none" stroke="#63b8ff" points="41.13,-135.44 44.63,-145.44 48.13,-135.44 41.13,-135.44"/>
</a>
</g>
</g>
</g>
</svg>
