<?xml version="1.0" encoding="UTF-8" standalone="no"?>
<!DOCTYPE svg PUBLIC "-//W3C//DTD SVG 1.1//EN"
 "http://www.w3.org/Graphics/SVG/1.1/DTD/svg11.dtd">
<!-- Generated by graphviz version 13.1.2 (20250808.2320)
 -->
<!-- Title: Manager.QuestionManager Pages: 1 -->
<svg width="209pt" height="237pt"
 viewBox="0.00 0.00 209.00 237.00" xmlns="http://www.w3.org/2000/svg" xmlns:xlink="http://www.w3.org/1999/xlink">
<g id="graph0" class="graph" transform="scale(1 1) rotate(0) translate(4 233)">
<title>Manager.QuestionManager</title>
<!-- Node1 -->
<g id="Node000001" class="node">
<title>Node1</title>
<g id="a_Node000001"><a xlink:title="Manages a list of questions, selects a random question, and checks player answers.">
<polygon fill="#999999" stroke="none" points="151.62,-110.75 21.88,-110.75 21.88,0 151.62,0 151.62,-110.75"/>
<text xml:space="preserve" text-anchor="start" x="28.62" y="-97.25" font-family="Helvetica,sans-Serif" font-size="10.00">Manager.QuestionManager</text>
<text xml:space="preserve" text-anchor="start" x="25.88" y="-82" font-family="Helvetica,sans-Serif" font-size="10.00">+</text>
<text xml:space="preserve" text-anchor="start" x="35.88" y="-82" font-family="Helvetica,sans-Serif" font-size="10.00">questions</text>
<text xml:space="preserve" text-anchor="start" x="25.88" y="-66.75" font-family="Helvetica,sans-Serif" font-size="10.00">+</text>
<text xml:space="preserve" text-anchor="start" x="35.88" y="-66.75" font-family="Helvetica,sans-Serif" font-size="10.00">Start()</text>
<text xml:space="preserve" text-anchor="start" x="25.88" y="-51.5" font-family="Helvetica,sans-Serif" font-size="10.00">+</text>
<text xml:space="preserve" text-anchor="start" x="35.88" y="-51.5" font-family="Helvetica,sans-Serif" font-size="10.00">LoadQuestions()</text>
<text xml:space="preserve" text-anchor="start" x="25.88" y="-36.25" font-family="Helvetica,sans-Serif" font-size="10.00">+</text>
<text xml:space="preserve" text-anchor="start" x="35.88" y="-36.25" font-family="Helvetica,sans-Serif" font-size="10.00">AskRandomQuestion()</text>
<text xml:space="preserve" text-anchor="start" x="25.88" y="-21" font-family="Helvetica,sans-Serif" font-size="10.00">+</text>
<text xml:space="preserve" text-anchor="start" x="35.88" y="-21" font-family="Helvetica,sans-Serif" font-size="10.00">CheckAnswer()</text>
<text xml:space="preserve" text-anchor="start" x="25.88" y="-5.75" font-family="Helvetica,sans-Serif" font-size="10.00">+</text>
<text xml:space="preserve" text-anchor="start" x="35.88" y="-5.75" font-family="Helvetica,sans-Serif" font-size="10.00">GetCurrentQuestionText()</text>
<polygon fill="#666666" stroke="#666666" points="21.88,-93.5 21.88,-93.5 151.62,-93.5 151.62,-93.5 21.88,-93.5"/>
<polygon fill="#666666" stroke="#666666" points="21.88,-78.25 21.88,-78.25 33.88,-78.25 33.88,-78.25 21.88,-78.25"/>
<polygon fill="#666666" stroke="#666666" points="33.88,-78.25 33.88,-78.25 151.62,-78.25 151.62,-78.25 33.88,-78.25"/>
<polygon fill="none" stroke="#666666" points="21.88,0 21.88,-110.75 151.62,-110.75 151.62,0 21.88,0"/>
</a>
</g>
</g>
<!-- Node2 -->
<g id="Node000002" class="node">
<title>Node2</title>
<g id="a_Node000002"><a xlink:title=" ">
<polygon fill="white" stroke="none" points="75.5,-221.38 0,-221.38 0,-171.62 75.5,-171.62 75.5,-221.38"/>
<text xml:space="preserve" text-anchor="start" x="4" y="-207.88" font-family="Helvetica,sans-Serif" font-size="10.00">MonoBehaviour</text>
<text xml:space="preserve" text-anchor="start" x="36.25" y="-192.62" font-family="Helvetica,sans-Serif" font-size="10.00"> </text>
<text xml:space="preserve" text-anchor="start" x="36.25" y="-177.38" font-family="Helvetica,sans-Serif" font-size="10.00"> </text>
<polygon fill="#666666" stroke="#666666" points="0,-204.12 0,-204.12 75.5,-204.12 75.5,-204.12 0,-204.12"/>
<polygon fill="#666666" stroke="#666666" points="0,-188.88 0,-188.88 75.5,-188.88 75.5,-188.88 0,-188.88"/>
<polygon fill="none" stroke="#666666" points="0,-171.62 0,-221.38 75.5,-221.38 75.5,-171.62 0,-171.62"/>
</a>
</g>
</g>
<!-- Node2&#45;&gt;Node1 -->
<g id="edge1_Node000001_Node000002" class="edge">
<title>Node2&#45;&gt;Node1</title>
<g id="a_edge1_Node000001_Node000002"><a xlink:title=" ">
<path fill="none" stroke="#63b8ff" d="M49.77,-161.36C55.17,-146.05 61.66,-127.61 67.69,-110.48"/>
<polygon fill="none" stroke="#63b8ff" points="46.59,-159.88 46.56,-170.47 53.19,-162.2 46.59,-159.88"/>
</a>
</g>
</g>
<!-- Node3 -->
<g id="Node000003" class="node">
<title>Node3</title>
<g id="a_Node000003"><a xlink:href="class_manager_1_1_question.html" target="_top" xlink:title="Represents a single question with its text and correct answer.">
<polygon fill="white" stroke="none" points="180.12,-229 93.38,-229 93.38,-164 180.12,-164 180.12,-229"/>
<text xml:space="preserve" text-anchor="start" x="97.38" y="-215.5" font-family="Helvetica,sans-Serif" font-size="10.00">Manager.Question</text>
<text xml:space="preserve" text-anchor="start" x="103.31" y="-200.25" font-family="Helvetica,sans-Serif" font-size="10.00">+</text>
<text xml:space="preserve" text-anchor="start" x="119.25" y="-200.25" font-family="Helvetica,sans-Serif" font-size="10.00">text</text>
<text xml:space="preserve" text-anchor="start" x="103.31" y="-185" font-family="Helvetica,sans-Serif" font-size="10.00">+</text>
<text xml:space="preserve" text-anchor="start" x="119.25" y="-185" font-family="Helvetica,sans-Serif" font-size="10.00">answer</text>
<text xml:space="preserve" text-anchor="start" x="103.31" y="-169.75" font-family="Helvetica,sans-Serif" font-size="10.00">+</text>
<text xml:space="preserve" text-anchor="start" x="119.25" y="-169.75" font-family="Helvetica,sans-Serif" font-size="10.00">Question()</text>
<polygon fill="#666666" stroke="#666666" points="93.38,-211.75 93.38,-211.75 180.12,-211.75 180.12,-211.75 93.38,-211.75"/>
<polygon fill="#666666" stroke="#666666" points="93.38,-181.25 93.38,-181.25 117.25,-181.25 117.25,-181.25 93.38,-181.25"/>
<polygon fill="#666666" stroke="#666666" points="117.25,-181.25 117.25,-181.25 180.12,-181.25 180.12,-181.25 117.25,-181.25"/>
<polygon fill="none" stroke="#666666" points="93.38,-164 93.38,-229 180.12,-229 180.12,-164 93.38,-164"/>
</a>
</g>
</g>
<!-- Node3&#45;&gt;Node1 -->
<g id="edge2_Node000001_Node000003" class="edge">
<title>Node3&#45;&gt;Node1</title>
<g id="a_edge2_Node000001_Node000003"><a xlink:title=" ">
<path fill="none" stroke="#63b8ff" d="M125.53,-164.28C121.1,-151.95 115.83,-137.28 110.62,-122.79"/>
<polygon fill="none" stroke="#63b8ff" points="110.65,-122.87 104.85,-118.57 106.59,-111.57 112.38,-115.87 110.65,-122.87"/>
</a>
</g>
<text xml:space="preserve" text-anchor="start" x="120.7" y="-133.5" font-family="Helvetica,sans-Serif" font-size="10.00" fill="grey">&#45;_currentQuestion</text>
</g>
</g>
</svg>
