<?xml version="1.0" encoding="UTF-8" standalone="no"?>
<!DOCTYPE svg PUBLIC "-//W3C//DTD SVG 1.1//EN"
 "http://www.w3.org/Graphics/SVG/1.1/DTD/svg11.dtd">
<!-- Generated by graphviz version 13.1.2 (20250808.2320)
 -->
<!-- Title: Enemy.BombBehavior Pages: 1 -->
<svg width="119pt" height="159pt"
 viewBox="0.00 0.00 119.00 159.00" xmlns="http://www.w3.org/2000/svg" xmlns:xlink="http://www.w3.org/1999/xlink">
<g id="graph0" class="graph" transform="scale(1 1) rotate(0) translate(4 154.75)">
<title>Enemy.BombBehavior</title>
<!-- Node1 -->
<g id="Node000001" class="node">
<title>Node1</title>
<g id="a_Node000001"><a xlink:title="Controls the behavior of a bomb object in the scene. The bomb explodes when it collides with the grou...">
<polygon fill="#999999" stroke="none" points="111,-65 0,-65 0,0 111,0 111,-65"/>
<text xml:space="preserve" text-anchor="start" x="7.5" y="-51.5" font-family="Helvetica,sans-Serif" font-size="10.00">Enemy.BombBehavior</text>
<text xml:space="preserve" text-anchor="start" x="4" y="-36.25" font-family="Helvetica,sans-Serif" font-size="10.00">&#45;</text>
<text xml:space="preserve" text-anchor="start" x="11" y="-36.25" font-family="Helvetica,sans-Serif" font-size="10.00">explosionEffectPrefab</text>
<text xml:space="preserve" text-anchor="start" x="4" y="-21" font-family="Helvetica,sans-Serif" font-size="10.00">&#45;</text>
<text xml:space="preserve" text-anchor="start" x="11" y="-21" font-family="Helvetica,sans-Serif" font-size="10.00">OnCollisionEnter()</text>
<text xml:space="preserve" text-anchor="start" x="4" y="-5.75" font-family="Helvetica,sans-Serif" font-size="10.00">&#45;</text>
<text xml:space="preserve" text-anchor="start" x="11" y="-5.75" font-family="Helvetica,sans-Serif" font-size="10.00">Explode()</text>
<polygon fill="#666666" stroke="#666666" points="0,-47.75 0,-47.75 111,-47.75 111,-47.75 0,-47.75"/>
<polygon fill="#666666" stroke="#666666" points="0,-32.5 0,-32.5 9,-32.5 9,-32.5 0,-32.5"/>
<polygon fill="#666666" stroke="#666666" points="9,-32.5 9,-32.5 111,-32.5 111,-32.5 9,-32.5"/>
<polygon fill="none" stroke="#666666" points="0,0 0,-65 111,-65 111,0 0,0"/>
</a>
</g>
</g>
<!-- Node2 -->
<g id="Node000002" class="node">
<title>Node2</title>
<g id="a_Node000002"><a xlink:title=" ">
<polygon fill="white" stroke="none" points="93.25,-150.75 17.75,-150.75 17.75,-101 93.25,-101 93.25,-150.75"/>
<text xml:space="preserve" text-anchor="start" x="21.75" y="-137.25" font-family="Helvetica,sans-Serif" font-size="10.00">MonoBehaviour</text>
<text xml:space="preserve" text-anchor="start" x="54" y="-122" font-family="Helvetica,sans-Serif" font-size="10.00"> </text>
<text xml:space="preserve" text-anchor="start" x="54" y="-106.75" font-family="Helvetica,sans-Serif" font-size="10.00"> </text>
<polygon fill="#666666" stroke="#666666" points="17.75,-133.5 17.75,-133.5 93.25,-133.5 93.25,-133.5 17.75,-133.5"/>
<polygon fill="#666666" stroke="#666666" points="17.75,-118.25 17.75,-118.25 93.25,-118.25 93.25,-118.25 17.75,-118.25"/>
<polygon fill="none" stroke="#666666" points="17.75,-101 17.75,-150.75 93.25,-150.75 93.25,-101 17.75,-101"/>
</a>
</g>
</g>
<!-- Node2&#45;&gt;Node1 -->
<g id="edge1_Node000001_Node000002" class="edge">
<title>Node2&#45;&gt;Node1</title>
<g id="a_edge1_Node000001_Node000002"><a xlink:title=" ">
<path fill="none" stroke="#63b8ff" d="M55.5,-90.09C55.5,-81.8 55.5,-73 55.5,-64.88"/>
<polygon fill="none" stroke="#63b8ff" points="52,-89.83 55.5,-99.83 59,-89.83 52,-89.83"/>
</a>
</g>
</g>
</g>
</svg>
