<?xml version="1.0" encoding="UTF-8" standalone="no"?>
<!DOCTYPE svg PUBLIC "-//W3C//DTD SVG 1.1//EN"
 "http://www.w3.org/Graphics/SVG/1.1/DTD/svg11.dtd">
<!-- Generated by graphviz version 13.1.2 (20250808.2320)
 -->
<!-- Title: Shooting.PlayerShooting Pages: 1 -->
<svg width="211pt" height="339pt"
 viewBox="0.00 0.00 211.00 339.00" xmlns="http://www.w3.org/2000/svg" xmlns:xlink="http://www.w3.org/1999/xlink">
<g id="graph0" class="graph" transform="scale(1 1) rotate(0) translate(4 335)">
<title>Shooting.PlayerShooting</title>
<!-- Node1 -->
<g id="Node000001" class="node">
<title>Node1</title>
<g id="a_Node000001"><a xlink:title="Handles player shooting by getting projectiles from a pool and spawning them at the shoot point.">
<polygon fill="#999999" stroke="none" points="115.25,-80.25 0,-80.25 0,0 115.25,0 115.25,-80.25"/>
<text xml:space="preserve" text-anchor="start" x="4" y="-66.75" font-family="Helvetica,sans-Serif" font-size="10.00">Shooting.PlayerShooting</text>
<text xml:space="preserve" text-anchor="start" x="14.06" y="-51.5" font-family="Helvetica,sans-Serif" font-size="10.00">&#45;</text>
<text xml:space="preserve" text-anchor="start" x="31.12" y="-51.5" font-family="Helvetica,sans-Serif" font-size="10.00">shootPoint</text>
<text xml:space="preserve" text-anchor="start" x="12.56" y="-36.25" font-family="Helvetica,sans-Serif" font-size="10.00">+</text>
<text xml:space="preserve" text-anchor="start" x="31.12" y="-36.25" font-family="Helvetica,sans-Serif" font-size="10.00">Init()</text>
<text xml:space="preserve" text-anchor="start" x="14.06" y="-21" font-family="Helvetica,sans-Serif" font-size="10.00">&#45;</text>
<text xml:space="preserve" text-anchor="start" x="31.12" y="-21" font-family="Helvetica,sans-Serif" font-size="10.00">Update()</text>
<text xml:space="preserve" text-anchor="start" x="14.06" y="-5.75" font-family="Helvetica,sans-Serif" font-size="10.00">&#45;</text>
<text xml:space="preserve" text-anchor="start" x="31.12" y="-5.75" font-family="Helvetica,sans-Serif" font-size="10.00">FireProjectile()</text>
<polygon fill="#666666" stroke="#666666" points="0,-63 0,-63 115.25,-63 115.25,-63 0,-63"/>
<polygon fill="#666666" stroke="#666666" points="0,-47.75 0,-47.75 29.12,-47.75 29.12,-47.75 0,-47.75"/>
<polygon fill="#666666" stroke="#666666" points="29.12,-47.75 29.12,-47.75 115.25,-47.75 115.25,-47.75 29.12,-47.75"/>
<polygon fill="none" stroke="#666666" points="0,0 0,-80.25 115.25,-80.25 115.25,0 0,0"/>
</a>
</g>
</g>
<!-- Node2 -->
<g id="Node000002" class="node">
<title>Node2</title>
<g id="a_Node000002"><a xlink:title=" ">
<polygon fill="white" stroke="none" points="91.38,-331 15.88,-331 15.88,-281.25 91.38,-281.25 91.38,-331"/>
<text xml:space="preserve" text-anchor="start" x="19.88" y="-317.5" font-family="Helvetica,sans-Serif" font-size="10.00">MonoBehaviour</text>
<text xml:space="preserve" text-anchor="start" x="52.12" y="-302.25" font-family="Helvetica,sans-Serif" font-size="10.00"> </text>
<text xml:space="preserve" text-anchor="start" x="52.12" y="-287" font-family="Helvetica,sans-Serif" font-size="10.00"> </text>
<polygon fill="#666666" stroke="#666666" points="15.88,-313.75 15.88,-313.75 91.38,-313.75 91.38,-313.75 15.88,-313.75"/>
<polygon fill="#666666" stroke="#666666" points="15.88,-298.5 15.88,-298.5 91.38,-298.5 91.38,-298.5 15.88,-298.5"/>
<polygon fill="none" stroke="#666666" points="15.88,-281.25 15.88,-331 91.38,-331 91.38,-281.25 15.88,-281.25"/>
</a>
</g>
</g>
<!-- Node2&#45;&gt;Node1 -->
<g id="edge1_Node000001_Node000002" class="edge">
<title>Node2&#45;&gt;Node1</title>
<g id="a_edge1_Node000001_Node000002"><a xlink:title=" ">
<path fill="none" stroke="#63b8ff" d="M54.15,-270.4C54.9,-221.22 56.25,-131.55 57.03,-80.13"/>
<polygon fill="none" stroke="#63b8ff" points="50.65,-270.13 54,-280.18 57.65,-270.24 50.65,-270.13"/>
</a>
</g>
</g>
<!-- Node3 -->
<g id="Node000003" class="node">
<title>Node3</title>
<g id="a_Node000003"><a xlink:href="class_manager_1_1_object_pool_manager.html" target="_top" xlink:title="Manages object pool for reusable GameObject instances (e.g., projectiles). Preloads a set of inactive...">
<polygon fill="white" stroke="none" points="203.25,-244.25 70,-244.25 70,-133.5 203.25,-133.5 203.25,-244.25"/>
<text xml:space="preserve" text-anchor="start" x="74" y="-230.75" font-family="Helvetica,sans-Serif" font-size="10.00">Manager.ObjectPoolManager</text>
<text xml:space="preserve" text-anchor="start" x="82.75" y="-215.5" font-family="Helvetica,sans-Serif" font-size="10.00">+</text>
<text xml:space="preserve" text-anchor="start" x="101.5" y="-215.5" font-family="Helvetica,sans-Serif" font-size="10.00">IsReady</text>
<text xml:space="preserve" text-anchor="start" x="84.25" y="-200.25" font-family="Helvetica,sans-Serif" font-size="10.00">&#45;</text>
<text xml:space="preserve" text-anchor="start" x="101.5" y="-200.25" font-family="Helvetica,sans-Serif" font-size="10.00">projectilePrefab</text>
<text xml:space="preserve" text-anchor="start" x="84.25" y="-185" font-family="Helvetica,sans-Serif" font-size="10.00">&#45;</text>
<text xml:space="preserve" text-anchor="start" x="101.5" y="-185" font-family="Helvetica,sans-Serif" font-size="10.00">poolSize</text>
<text xml:space="preserve" text-anchor="start" x="84.25" y="-169.75" font-family="Helvetica,sans-Serif" font-size="10.00">&#45;</text>
<text xml:space="preserve" text-anchor="start" x="101.5" y="-169.75" font-family="Helvetica,sans-Serif" font-size="10.00">_pool</text>
<text xml:space="preserve" text-anchor="start" x="82.75" y="-154.5" font-family="Helvetica,sans-Serif" font-size="10.00">+</text>
<text xml:space="preserve" text-anchor="start" x="101.5" y="-154.5" font-family="Helvetica,sans-Serif" font-size="10.00">GetPooledObject()</text>
<text xml:space="preserve" text-anchor="start" x="84.25" y="-139.25" font-family="Helvetica,sans-Serif" font-size="10.00">&#45;</text>
<text xml:space="preserve" text-anchor="start" x="101.5" y="-139.25" font-family="Helvetica,sans-Serif" font-size="10.00">Awake()</text>
<polygon fill="#666666" stroke="#666666" points="70,-227 70,-227 203.25,-227 203.25,-227 70,-227"/>
<polygon fill="#666666" stroke="#666666" points="70,-166 70,-166 99.5,-166 99.5,-166 70,-166"/>
<polygon fill="#666666" stroke="#666666" points="99.5,-166 99.5,-166 203.25,-166 203.25,-166 99.5,-166"/>
<polygon fill="none" stroke="#666666" points="70,-133.5 70,-244.25 203.25,-244.25 203.25,-133.5 70,-133.5"/>
</a>
</g>
</g>
<!-- Node2&#45;&gt;Node3 -->
<g id="edge3_Node000003_Node000002" class="edge">
<title>Node2&#45;&gt;Node3</title>
<g id="a_edge3_Node000003_Node000002"><a xlink:title=" ">
<path fill="none" stroke="#63b8ff" d="M77.25,-272.33C83.64,-263.45 90.73,-253.6 97.72,-243.89"/>
<polygon fill="none" stroke="#63b8ff" points="74.51,-270.14 71.51,-280.3 80.19,-274.23 74.51,-270.14"/>
</a>
</g>
</g>
<!-- Node3&#45;&gt;Node1 -->
<g id="edge2_Node000001_Node000003" class="edge">
<title>Node3&#45;&gt;Node1</title>
<g id="a_edge2_Node000001_Node000003"><a xlink:title=" ">
<path fill="none" stroke="#63b8ff" d="M107.43,-133.65C99.95,-119.74 91.93,-104.85 84.56,-91.17"/>
<polygon fill="none" stroke="#63b8ff" points="84.67,-91.36 78.3,-87.98 78.98,-80.8 85.35,-84.19 84.67,-91.36"/>
</a>
</g>
<text xml:space="preserve" text-anchor="start" x="100.12" y="-103" font-family="Helvetica,sans-Serif" font-size="10.00" fill="grey">&#45;objectPoolManager</text>
</g>
</g>
</svg>
