<?xml version="1.0" encoding="UTF-8" standalone="no"?>
<!DOCTYPE svg PUBLIC "-//W3C//DTD SVG 1.1//EN"
 "http://www.w3.org/Graphics/SVG/1.1/DTD/svg11.dtd">
<!-- Generated by graphviz version 13.1.2 (20250808.2320)
 -->
<!-- Title: Manager.InventoryManager Pages: 1 -->
<svg width="389pt" height="987pt"
 viewBox="0.00 0.00 389.00 987.00" xmlns="http://www.w3.org/2000/svg" xmlns:xlink="http://www.w3.org/1999/xlink">
<g id="graph0" class="graph" transform="scale(1 1) rotate(0) translate(4 983.25)">
<title>Manager.InventoryManager</title>
<!-- Node1 -->
<g id="Node000001" class="node">
<title>Node1</title>
<g id="a_Node000001"><a xlink:title="Manages the inventory UI and logic, including displaying and updating item slots, handling user inter...">
<polygon fill="#999999" stroke="none" points="205.62,-278.5 79.88,-278.5 79.88,0 205.62,0 205.62,-278.5"/>
<text xml:space="preserve" text-anchor="start" x="83.88" y="-265" font-family="Helvetica,sans-Serif" font-size="10.00">Manager.InventoryManager</text>
<text xml:space="preserve" text-anchor="start" x="94.31" y="-249.75" font-family="Helvetica,sans-Serif" font-size="10.00">&#45;</text>
<text xml:space="preserve" text-anchor="start" x="111.75" y="-249.75" font-family="Helvetica,sans-Serif" font-size="10.00">_player</text>
<text xml:space="preserve" text-anchor="start" x="94.31" y="-234.5" font-family="Helvetica,sans-Serif" font-size="10.00">&#45;</text>
<text xml:space="preserve" text-anchor="start" x="111.75" y="-234.5" font-family="Helvetica,sans-Serif" font-size="10.00">itemUI</text>
<text xml:space="preserve" text-anchor="start" x="94.31" y="-219.25" font-family="Helvetica,sans-Serif" font-size="10.00">&#45;</text>
<text xml:space="preserve" text-anchor="start" x="111.75" y="-219.25" font-family="Helvetica,sans-Serif" font-size="10.00">equipUI</text>
<text xml:space="preserve" text-anchor="start" x="94.31" y="-204" font-family="Helvetica,sans-Serif" font-size="10.00">&#45;</text>
<text xml:space="preserve" text-anchor="start" x="111.75" y="-204" font-family="Helvetica,sans-Serif" font-size="10.00">statText</text>
<text xml:space="preserve" text-anchor="start" x="94.31" y="-188.75" font-family="Helvetica,sans-Serif" font-size="10.00">&#45;</text>
<text xml:space="preserve" text-anchor="start" x="111.75" y="-188.75" font-family="Helvetica,sans-Serif" font-size="10.00">int</text>
<text xml:space="preserve" text-anchor="start" x="94.31" y="-173.5" font-family="Helvetica,sans-Serif" font-size="10.00">&#45;</text>
<text xml:space="preserve" text-anchor="start" x="111.75" y="-173.5" font-family="Helvetica,sans-Serif" font-size="10.00">_selectedSlot</text>
<text xml:space="preserve" text-anchor="start" x="94.31" y="-158.25" font-family="Helvetica,sans-Serif" font-size="10.00">&#45;</text>
<text xml:space="preserve" text-anchor="start" x="111.75" y="-158.25" font-family="Helvetica,sans-Serif" font-size="10.00">helmet</text>
<text xml:space="preserve" text-anchor="start" x="94.31" y="-143" font-family="Helvetica,sans-Serif" font-size="10.00">&#45;</text>
<text xml:space="preserve" text-anchor="start" x="111.75" y="-143" font-family="Helvetica,sans-Serif" font-size="10.00">body</text>
<text xml:space="preserve" text-anchor="start" x="94.31" y="-127.75" font-family="Helvetica,sans-Serif" font-size="10.00">&#45;</text>
<text xml:space="preserve" text-anchor="start" x="111.75" y="-127.75" font-family="Helvetica,sans-Serif" font-size="10.00">legs</text>
<text xml:space="preserve" text-anchor="start" x="94.31" y="-112.5" font-family="Helvetica,sans-Serif" font-size="10.00">&#45;</text>
<text xml:space="preserve" text-anchor="start" x="111.75" y="-112.5" font-family="Helvetica,sans-Serif" font-size="10.00">boots</text>
<text xml:space="preserve" text-anchor="start" x="111.75" y="-97.25" font-family="Helvetica,sans-Serif" font-size="10.00">and 6 more...</text>
<text xml:space="preserve" text-anchor="start" x="92.81" y="-82" font-family="Helvetica,sans-Serif" font-size="10.00">+</text>
<text xml:space="preserve" text-anchor="start" x="111.75" y="-82" font-family="Helvetica,sans-Serif" font-size="10.00">SetPlayer()</text>
<text xml:space="preserve" text-anchor="start" x="92.81" y="-66.75" font-family="Helvetica,sans-Serif" font-size="10.00">+</text>
<text xml:space="preserve" text-anchor="start" x="111.75" y="-66.75" font-family="Helvetica,sans-Serif" font-size="10.00">OnPointerClick()</text>
<text xml:space="preserve" text-anchor="start" x="94.31" y="-51.5" font-family="Helvetica,sans-Serif" font-size="10.00">&#45;</text>
<text xml:space="preserve" text-anchor="start" x="111.75" y="-51.5" font-family="Helvetica,sans-Serif" font-size="10.00">OnEnable()</text>
<text xml:space="preserve" text-anchor="start" x="94.31" y="-36.25" font-family="Helvetica,sans-Serif" font-size="10.00">&#45;</text>
<text xml:space="preserve" text-anchor="start" x="111.75" y="-36.25" font-family="Helvetica,sans-Serif" font-size="10.00">Update()</text>
<text xml:space="preserve" text-anchor="start" x="94.31" y="-21" font-family="Helvetica,sans-Serif" font-size="10.00">&#45;</text>
<text xml:space="preserve" text-anchor="start" x="111.75" y="-21" font-family="Helvetica,sans-Serif" font-size="10.00">SetupUI()</text>
<text xml:space="preserve" text-anchor="start" x="94.31" y="-5.75" font-family="Helvetica,sans-Serif" font-size="10.00">&#45;</text>
<text xml:space="preserve" text-anchor="start" x="111.75" y="-5.75" font-family="Helvetica,sans-Serif" font-size="10.00">UpdateUI()</text>
<polygon fill="#666666" stroke="#666666" points="79.88,-261.25 79.88,-261.25 205.62,-261.25 205.62,-261.25 79.88,-261.25"/>
<polygon fill="#666666" stroke="#666666" points="79.88,-93.5 79.88,-93.5 109.75,-93.5 109.75,-93.5 79.88,-93.5"/>
<polygon fill="#666666" stroke="#666666" points="109.75,-93.5 109.75,-93.5 205.62,-93.5 205.62,-93.5 109.75,-93.5"/>
<polygon fill="none" stroke="#666666" points="79.88,0 79.88,-278.5 205.62,-278.5 205.62,0 79.88,0"/>
</a>
</g>
</g>
<!-- Node2 -->
<g id="Node000002" class="node">
<title>Node2</title>
<g id="a_Node000002"><a xlink:title=" ">
<polygon fill="white" stroke="none" points="75.5,-705.62 0,-705.62 0,-655.88 75.5,-655.88 75.5,-705.62"/>
<text xml:space="preserve" text-anchor="start" x="4" y="-692.12" font-family="Helvetica,sans-Serif" font-size="10.00">MonoBehaviour</text>
<text xml:space="preserve" text-anchor="start" x="36.25" y="-676.88" font-family="Helvetica,sans-Serif" font-size="10.00"> </text>
<text xml:space="preserve" text-anchor="start" x="36.25" y="-661.62" font-family="Helvetica,sans-Serif" font-size="10.00"> </text>
<polygon fill="#666666" stroke="#666666" points="0,-688.38 0,-688.38 75.5,-688.38 75.5,-688.38 0,-688.38"/>
<polygon fill="#666666" stroke="#666666" points="0,-673.12 0,-673.12 75.5,-673.12 75.5,-673.12 0,-673.12"/>
<polygon fill="none" stroke="#666666" points="0,-655.88 0,-705.62 75.5,-705.62 75.5,-655.88 0,-655.88"/>
</a>
</g>
</g>
<!-- Node2&#45;&gt;Node1 -->
<g id="edge1_Node000001_Node000002" class="edge">
<title>Node2&#45;&gt;Node1</title>
<g id="a_edge1_Node000001_Node000002"><a xlink:title=" ">
<path fill="none" stroke="#63b8ff" d="M31.48,-644.67C21.41,-581.04 5.56,-442.92 34.75,-331.75 44.1,-296.12 61.75,-260.15 80.11,-229.14"/>
<polygon fill="none" stroke="#63b8ff" points="28.02,-645.22 33.1,-654.52 34.93,-644.08 28.02,-645.22"/>
</a>
</g>
</g>
<!-- Node7 -->
<g id="Node000007" class="node">
<title>Node7</title>
<g id="a_Node000007"><a xlink:href="class_inventory_1_1_inventory.html" target="_top" xlink:title=" ">
<polygon fill="white" stroke="none" points="141.5,-564.5 44,-564.5 44,-331.75 141.5,-331.75 141.5,-564.5"/>
<text xml:space="preserve" text-anchor="start" x="51.5" y="-551" font-family="Helvetica,sans-Serif" font-size="10.00">Inventory.Inventory</text>
<text xml:space="preserve" text-anchor="start" x="48" y="-535.75" font-family="Helvetica,sans-Serif" font-size="10.00">+</text>
<text xml:space="preserve" text-anchor="start" x="58" y="-535.75" font-family="Helvetica,sans-Serif" font-size="10.00">int</text>
<text xml:space="preserve" text-anchor="start" x="48" y="-520.5" font-family="Helvetica,sans-Serif" font-size="10.00">+</text>
<text xml:space="preserve" text-anchor="start" x="58" y="-520.5" font-family="Helvetica,sans-Serif" font-size="10.00">AddItem()</text>
<text xml:space="preserve" text-anchor="start" x="48" y="-505.25" font-family="Helvetica,sans-Serif" font-size="10.00">+</text>
<text xml:space="preserve" text-anchor="start" x="58" y="-505.25" font-family="Helvetica,sans-Serif" font-size="10.00">RemoveItem()</text>
<text xml:space="preserve" text-anchor="start" x="48" y="-490" font-family="Helvetica,sans-Serif" font-size="10.00">+</text>
<text xml:space="preserve" text-anchor="start" x="58" y="-490" font-family="Helvetica,sans-Serif" font-size="10.00">RemoveItem()</text>
<text xml:space="preserve" text-anchor="start" x="48" y="-474.75" font-family="Helvetica,sans-Serif" font-size="10.00">+</text>
<text xml:space="preserve" text-anchor="start" x="58" y="-474.75" font-family="Helvetica,sans-Serif" font-size="10.00">PrintInventory()</text>
<text xml:space="preserve" text-anchor="start" x="48" y="-459.5" font-family="Helvetica,sans-Serif" font-size="10.00">+</text>
<text xml:space="preserve" text-anchor="start" x="58" y="-459.5" font-family="Helvetica,sans-Serif" font-size="10.00">SetInventory()</text>
<text xml:space="preserve" text-anchor="start" x="48" y="-444.25" font-family="Helvetica,sans-Serif" font-size="10.00">+</text>
<text xml:space="preserve" text-anchor="start" x="58" y="-444.25" font-family="Helvetica,sans-Serif" font-size="10.00">SetEquipment()</text>
<text xml:space="preserve" text-anchor="start" x="48" y="-429" font-family="Helvetica,sans-Serif" font-size="10.00">+</text>
<text xml:space="preserve" text-anchor="start" x="58" y="-429" font-family="Helvetica,sans-Serif" font-size="10.00">GetInventory()</text>
<text xml:space="preserve" text-anchor="start" x="48" y="-413.75" font-family="Helvetica,sans-Serif" font-size="10.00">+</text>
<text xml:space="preserve" text-anchor="start" x="58" y="-413.75" font-family="Helvetica,sans-Serif" font-size="10.00">GetEquipment()</text>
<text xml:space="preserve" text-anchor="start" x="48" y="-398.5" font-family="Helvetica,sans-Serif" font-size="10.00">+</text>
<text xml:space="preserve" text-anchor="start" x="58" y="-398.5" font-family="Helvetica,sans-Serif" font-size="10.00">GetItemByName()</text>
<text xml:space="preserve" text-anchor="start" x="48" y="-383.25" font-family="Helvetica,sans-Serif" font-size="10.00">+</text>
<text xml:space="preserve" text-anchor="start" x="58" y="-383.25" font-family="Helvetica,sans-Serif" font-size="10.00">RemoveEquip()</text>
<text xml:space="preserve" text-anchor="start" x="48" y="-368" font-family="Helvetica,sans-Serif" font-size="10.00">+</text>
<text xml:space="preserve" text-anchor="start" x="58" y="-368" font-family="Helvetica,sans-Serif" font-size="10.00">GetItemByIndex()</text>
<text xml:space="preserve" text-anchor="start" x="48" y="-352.75" font-family="Helvetica,sans-Serif" font-size="10.00">+</text>
<text xml:space="preserve" text-anchor="start" x="58" y="-352.75" font-family="Helvetica,sans-Serif" font-size="10.00">UseItem()</text>
<text xml:space="preserve" text-anchor="start" x="49.5" y="-337.5" font-family="Helvetica,sans-Serif" font-size="10.00">&#45;</text>
<text xml:space="preserve" text-anchor="start" x="58" y="-337.5" font-family="Helvetica,sans-Serif" font-size="10.00">Awake()</text>
<polygon fill="#666666" stroke="#666666" points="44,-547.25 44,-547.25 141.5,-547.25 141.5,-547.25 44,-547.25"/>
<polygon fill="#666666" stroke="#666666" points="44,-532 44,-532 56,-532 56,-532 44,-532"/>
<polygon fill="#666666" stroke="#666666" points="56,-532 56,-532 141.5,-532 141.5,-532 56,-532"/>
<polygon fill="none" stroke="#666666" points="44,-331.75 44,-564.5 141.5,-564.5 141.5,-331.75 44,-331.75"/>
</a>
</g>
</g>
<!-- Node2&#45;&gt;Node7 -->
<g id="edge7_Node000007_Node000002" class="edge">
<title>Node2&#45;&gt;Node7</title>
<g id="a_edge7_Node000007_Node000002"><a xlink:title=" ">
<path fill="none" stroke="#63b8ff" d="M46.04,-644.98C51.24,-623.2 58.26,-593.76 65.27,-564.34"/>
<polygon fill="none" stroke="#63b8ff" points="42.7,-643.93 43.78,-654.47 49.5,-645.55 42.7,-643.93"/>
</a>
</g>
</g>
<!-- Node3 -->
<g id="Node000003" class="node">
<title>Node3</title>
<g id="a_Node000003"><a xlink:title=" ">
<polygon fill="white" stroke="none" points="380.75,-473 282.75,-473 282.75,-423.25 380.75,-423.25 380.75,-473"/>
<text xml:space="preserve" text-anchor="start" x="286.75" y="-459.5" font-family="Helvetica,sans-Serif" font-size="10.00">IPointerClickHandler</text>
<text xml:space="preserve" text-anchor="start" x="330.25" y="-444.25" font-family="Helvetica,sans-Serif" font-size="10.00"> </text>
<text xml:space="preserve" text-anchor="start" x="330.25" y="-429" font-family="Helvetica,sans-Serif" font-size="10.00"> </text>
<polygon fill="#666666" stroke="#666666" points="282.75,-455.75 282.75,-455.75 380.75,-455.75 380.75,-455.75 282.75,-455.75"/>
<polygon fill="#666666" stroke="#666666" points="282.75,-440.5 282.75,-440.5 380.75,-440.5 380.75,-440.5 282.75,-440.5"/>
<polygon fill="none" stroke="#666666" points="282.75,-423.25 282.75,-473 380.75,-473 380.75,-423.25 282.75,-423.25"/>
</a>
</g>
</g>
<!-- Node3&#45;&gt;Node1 -->
<g id="edge2_Node000001_Node000003" class="edge">
<title>Node3&#45;&gt;Node1</title>
<g id="a_edge2_Node000001_Node000003"><a xlink:title=" ">
<path fill="none" stroke="#63b8ff" d="M314.24,-413.33C301.98,-390.11 284.95,-358.73 268.75,-331.75 248.98,-298.83 226.21,-263.51 205.51,-232.29"/>
<polygon fill="none" stroke="#63b8ff" points="311.06,-414.82 318.81,-422.04 317.26,-411.56 311.06,-414.82"/>
</a>
</g>
</g>
<!-- Node4 -->
<g id="Node000004" class="node">
<title>Node4</title>
<g id="a_Node000004"><a xlink:href="class_inventory_1_1_item_instance.html" target="_top" xlink:title="Data&#45;Class representing an item stack by containing an reference to a scriptable object(item) and the...">
<polygon fill="white" stroke="none" points="215.25,-728.5 108.25,-728.5 108.25,-633 215.25,-633 215.25,-728.5"/>
<text xml:space="preserve" text-anchor="start" x="112.25" y="-715" font-family="Helvetica,sans-Serif" font-size="10.00">Inventory.ItemInstance</text>
<text xml:space="preserve" text-anchor="start" x="118.75" y="-699.75" font-family="Helvetica,sans-Serif" font-size="10.00">+</text>
<text xml:space="preserve" text-anchor="start" x="135.25" y="-699.75" font-family="Helvetica,sans-Serif" font-size="10.00">itemQuantity</text>
<text xml:space="preserve" text-anchor="start" x="118.75" y="-684.5" font-family="Helvetica,sans-Serif" font-size="10.00">+</text>
<text xml:space="preserve" text-anchor="start" x="135.25" y="-684.5" font-family="Helvetica,sans-Serif" font-size="10.00">ItemInstance()</text>
<text xml:space="preserve" text-anchor="start" x="118.75" y="-669.25" font-family="Helvetica,sans-Serif" font-size="10.00">+</text>
<text xml:space="preserve" text-anchor="start" x="135.25" y="-669.25" font-family="Helvetica,sans-Serif" font-size="10.00">ItemInstance()</text>
<text xml:space="preserve" text-anchor="start" x="118.75" y="-654" font-family="Helvetica,sans-Serif" font-size="10.00">+</text>
<text xml:space="preserve" text-anchor="start" x="135.25" y="-654" font-family="Helvetica,sans-Serif" font-size="10.00">ItemInstance()</text>
<text xml:space="preserve" text-anchor="start" x="118.75" y="-638.75" font-family="Helvetica,sans-Serif" font-size="10.00">+</text>
<text xml:space="preserve" text-anchor="start" x="135.25" y="-638.75" font-family="Helvetica,sans-Serif" font-size="10.00">ItemInstance()</text>
<polygon fill="#666666" stroke="#666666" points="108.25,-711.25 108.25,-711.25 215.25,-711.25 215.25,-711.25 108.25,-711.25"/>
<polygon fill="#666666" stroke="#666666" points="108.25,-696 108.25,-696 133.25,-696 133.25,-696 108.25,-696"/>
<polygon fill="#666666" stroke="#666666" points="133.25,-696 133.25,-696 215.25,-696 215.25,-696 133.25,-696"/>
<polygon fill="none" stroke="#666666" points="108.25,-633 108.25,-728.5 215.25,-728.5 215.25,-633 108.25,-633"/>
</a>
</g>
</g>
<!-- Node4&#45;&gt;Node1 -->
<g id="edge3_Node000001_Node000004" class="edge">
<title>Node4&#45;&gt;Node1</title>
<g id="a_edge3_Node000001_Node000004"><a xlink:title=" ">
<path fill="none" stroke="#63b8ff" d="M164.15,-633.08C167.39,-560.84 171.86,-417.66 163.75,-296.5 163.63,-294.72 163.5,-292.92 163.37,-291.12"/>
<polygon fill="none" stroke="#63b8ff" points="163.36,-291.03 158.88,-285.38 162.38,-279.08 166.86,-284.73 163.36,-291.03"/>
</a>
</g>
<text xml:space="preserve" text-anchor="start" x="171.33" y="-451.88" font-family="Helvetica,sans-Serif" font-size="10.00" fill="grey">&#45;_playerEquipment</text>
<text xml:space="preserve" text-anchor="start" x="171.33" y="-436.62" font-family="Helvetica,sans-Serif" font-size="10.00" fill="grey">&#45;_playerInventory</text>
</g>
<!-- Node4&#45;&gt;Node7 -->
<g id="edge8_Node000007_Node000004" class="edge">
<title>Node4&#45;&gt;Node7</title>
<g id="a_edge8_Node000007_Node000004"><a xlink:title=" ">
<path fill="none" stroke="#63b8ff" d="M114.77,-633.37C110.73,-627.53 107.17,-621.36 104.5,-615 99.46,-603 95.83,-590.08 93.28,-576.93"/>
<polygon fill="none" stroke="#63b8ff" points="93.29,-577.01 88.35,-571.76 91.29,-565.18 96.23,-570.43 93.29,-577.01"/>
</a>
</g>
<text xml:space="preserve" text-anchor="start" x="107.5" y="-602.5" font-family="Helvetica,sans-Serif" font-size="10.00" fill="grey">&#45;_equipment</text>
<text xml:space="preserve" text-anchor="start" x="107.5" y="-587.25" font-family="Helvetica,sans-Serif" font-size="10.00" fill="grey">&#45;_inventory</text>
</g>
<!-- Node5 -->
<g id="Node000005" class="node">
<title>Node5</title>
<g id="a_Node000005"><a xlink:href="class_items_1_1_item.html" target="_top" xlink:title="Abstract Data&#45;Class, which shares all commonalities between different types of Items.">
<polygon fill="white" stroke="none" points="206.38,-892.5 117.12,-892.5 117.12,-781.75 206.38,-781.75 206.38,-892.5"/>
<text xml:space="preserve" text-anchor="start" x="138.12" y="-879" font-family="Helvetica,sans-Serif" font-size="10.00">Items.Item</text>
<text xml:space="preserve" text-anchor="start" x="121.12" y="-863.75" font-family="Helvetica,sans-Serif" font-size="10.00">+</text>
<text xml:space="preserve" text-anchor="start" x="131.12" y="-863.75" font-family="Helvetica,sans-Serif" font-size="10.00">_name</text>
<text xml:space="preserve" text-anchor="start" x="121.12" y="-848.5" font-family="Helvetica,sans-Serif" font-size="10.00">+</text>
<text xml:space="preserve" text-anchor="start" x="131.12" y="-848.5" font-family="Helvetica,sans-Serif" font-size="10.00">_model</text>
<text xml:space="preserve" text-anchor="start" x="121.12" y="-833.25" font-family="Helvetica,sans-Serif" font-size="10.00">+</text>
<text xml:space="preserve" text-anchor="start" x="131.12" y="-833.25" font-family="Helvetica,sans-Serif" font-size="10.00">rarity</text>
<text xml:space="preserve" text-anchor="start" x="121.12" y="-818" font-family="Helvetica,sans-Serif" font-size="10.00">+</text>
<text xml:space="preserve" text-anchor="start" x="131.12" y="-818" font-family="Helvetica,sans-Serif" font-size="10.00">item_icon</text>
<text xml:space="preserve" text-anchor="start" x="121.12" y="-802.75" font-family="Helvetica,sans-Serif" font-size="10.00">+</text>
<text xml:space="preserve" text-anchor="start" x="131.12" y="-802.75" font-family="Helvetica,sans-Serif" font-size="10.00">GetRarityColor()</text>
<text xml:space="preserve" text-anchor="start" x="121.12" y="-787.5" font-family="Helvetica,sans-Serif" font-size="10.00">+</text>
<text xml:space="preserve" text-anchor="start" x="131.12" y="-787.5" font-family="Helvetica,sans-Serif" font-size="10.00">Use()</text>
<polygon fill="#666666" stroke="#666666" points="117.12,-875.25 117.12,-875.25 206.38,-875.25 206.38,-875.25 117.12,-875.25"/>
<polygon fill="#666666" stroke="#666666" points="117.12,-814.25 117.12,-814.25 129.12,-814.25 129.12,-814.25 117.12,-814.25"/>
<polygon fill="#666666" stroke="#666666" points="129.12,-814.25 129.12,-814.25 206.38,-814.25 206.38,-814.25 129.12,-814.25"/>
<polygon fill="none" stroke="#666666" points="117.12,-781.75 117.12,-892.5 206.38,-892.5 206.38,-781.75 117.12,-781.75"/>
</a>
</g>
</g>
<!-- Node5&#45;&gt;Node4 -->
<g id="edge4_Node000004_Node000005" class="edge">
<title>Node5&#45;&gt;Node4</title>
<g id="a_edge4_Node000004_Node000005"><a xlink:title=" ">
<path fill="none" stroke="#63b8ff" d="M161.75,-782.13C161.75,-768.82 161.75,-754.5 161.75,-740.96"/>
<polygon fill="none" stroke="#63b8ff" points="161.75,-741.17 157.75,-735.17 161.75,-729.17 165.75,-735.17 161.75,-741.17"/>
</a>
</g>
<text xml:space="preserve" text-anchor="start" x="164.75" y="-751.25" font-family="Helvetica,sans-Serif" font-size="10.00" fill="grey">+itemData</text>
</g>
<!-- Node6 -->
<g id="Node000006" class="node">
<title>Node6</title>
<g id="a_Node000006"><a xlink:title=" ">
<polygon fill="white" stroke="none" points="201.75,-979.25 121.75,-979.25 121.75,-929.5 201.75,-929.5 201.75,-979.25"/>
<text xml:space="preserve" text-anchor="start" x="125.75" y="-965.75" font-family="Helvetica,sans-Serif" font-size="10.00">ScriptableObject</text>
<text xml:space="preserve" text-anchor="start" x="160.25" y="-950.5" font-family="Helvetica,sans-Serif" font-size="10.00"> </text>
<text xml:space="preserve" text-anchor="start" x="160.25" y="-935.25" font-family="Helvetica,sans-Serif" font-size="10.00"> </text>
<polygon fill="#666666" stroke="#666666" points="121.75,-962 121.75,-962 201.75,-962 201.75,-962 121.75,-962"/>
<polygon fill="#666666" stroke="#666666" points="121.75,-946.75 121.75,-946.75 201.75,-946.75 201.75,-946.75 121.75,-946.75"/>
<polygon fill="none" stroke="#666666" points="121.75,-929.5 121.75,-979.25 201.75,-979.25 201.75,-929.5 121.75,-929.5"/>
</a>
</g>
</g>
<!-- Node6&#45;&gt;Node5 -->
<g id="edge5_Node000005_Node000006" class="edge">
<title>Node6&#45;&gt;Node5</title>
<g id="a_edge5_Node000005_Node000006"><a xlink:title=" ">
<path fill="none" stroke="#63b8ff" d="M161.75,-918.29C161.75,-910.03 161.75,-901.03 161.75,-892.14"/>
<polygon fill="none" stroke="#63b8ff" points="158.25,-918.26 161.75,-928.26 165.25,-918.26 158.25,-918.26"/>
</a>
</g>
</g>
<!-- Node7&#45;&gt;Node1 -->
<g id="edge6_Node000001_Node000007" class="edge">
<title>Node7&#45;&gt;Node1</title>
<g id="a_edge6_Node000001_Node000007"><a xlink:title=" ">
<path fill="none" stroke="#63b8ff" d="M104.61,-331.84C106.19,-319.88 107.9,-307.93 109.75,-296.5 110.05,-294.62 110.37,-292.73 110.68,-290.82"/>
<polygon fill="none" stroke="#63b8ff" points="110.68,-290.86 107.76,-284.26 112.73,-279.03 115.64,-285.63 110.68,-290.86"/>
</a>
</g>
<text xml:space="preserve" text-anchor="start" x="112.75" y="-301.25" font-family="Helvetica,sans-Serif" font-size="10.00" fill="grey">&#45;_inventory</text>
</g>
</g>
</svg>
