<?xml version="1.0" encoding="UTF-8" standalone="no"?>
<!DOCTYPE svg PUBLIC "-//W3C//DTD SVG 1.1//EN"
 "http://www.w3.org/Graphics/SVG/1.1/DTD/svg11.dtd">
<!-- Generated by graphviz version 13.1.2 (20250808.2320)
 -->
<!-- Title: Spawning.BossSpawnerVoronoi Pages: 1 -->
<svg width="378pt" height="931pt"
 viewBox="0.00 0.00 378.00 931.00" xmlns="http://www.w3.org/2000/svg" xmlns:xlink="http://www.w3.org/1999/xlink">
<g id="graph0" class="graph" transform="scale(1 1) rotate(0) translate(4 927)">
<title>Spawning.BossSpawnerVoronoi</title>
<!-- Node1 -->
<g id="Node000001" class="node">
<title>Node1</title>
<g id="a_Node000001"><a xlink:title="class to manage boss &amp; obstacle spawning, setting the boss active and inactive and also spawning the ...">
<polygon fill="#999999" stroke="none" points="147.5,-217.5 0,-217.5 0,0 147.5,0 147.5,-217.5"/>
<text xml:space="preserve" text-anchor="start" x="4" y="-204" font-family="Helvetica,sans-Serif" font-size="10.00">Spawning.BossSpawnerVoronoi</text>
<text xml:space="preserve" text-anchor="start" x="6.94" y="-188.75" font-family="Helvetica,sans-Serif" font-size="10.00">&#45;</text>
<text xml:space="preserve" text-anchor="start" x="16.88" y="-188.75" font-family="Helvetica,sans-Serif" font-size="10.00">_bossInstancesPerRoom</text>
<text xml:space="preserve" text-anchor="start" x="6.94" y="-173.5" font-family="Helvetica,sans-Serif" font-size="10.00">&#45;</text>
<text xml:space="preserve" text-anchor="start" x="16.88" y="-173.5" font-family="Helvetica,sans-Serif" font-size="10.00">_alivePerRoom</text>
<text xml:space="preserve" text-anchor="start" x="6.94" y="-158.25" font-family="Helvetica,sans-Serif" font-size="10.00">&#45;</text>
<text xml:space="preserve" text-anchor="start" x="16.88" y="-158.25" font-family="Helvetica,sans-Serif" font-size="10.00">_bossRoomId</text>
<text xml:space="preserve" text-anchor="start" x="6.94" y="-143" font-family="Helvetica,sans-Serif" font-size="10.00">&#45;</text>
<text xml:space="preserve" text-anchor="start" x="16.88" y="-143" font-family="Helvetica,sans-Serif" font-size="10.00">_parent</text>
<text xml:space="preserve" text-anchor="start" x="6.94" y="-127.75" font-family="Helvetica,sans-Serif" font-size="10.00">&#45;</text>
<text xml:space="preserve" text-anchor="start" x="16.88" y="-127.75" font-family="Helvetica,sans-Serif" font-size="10.00">_levelExitPrefab</text>
<text xml:space="preserve" text-anchor="start" x="6.94" y="-112.5" font-family="Helvetica,sans-Serif" font-size="10.00">&#45;</text>
<text xml:space="preserve" text-anchor="start" x="16.88" y="-112.5" font-family="Helvetica,sans-Serif" font-size="10.00">_exitSpawned</text>
<text xml:space="preserve" text-anchor="start" x="5.44" y="-97.25" font-family="Helvetica,sans-Serif" font-size="10.00">+</text>
<text xml:space="preserve" text-anchor="start" x="16.88" y="-97.25" font-family="Helvetica,sans-Serif" font-size="10.00">BossSpawnerVoronoi()</text>
<text xml:space="preserve" text-anchor="start" x="5.44" y="-82" font-family="Helvetica,sans-Serif" font-size="10.00">+</text>
<text xml:space="preserve" text-anchor="start" x="16.88" y="-82" font-family="Helvetica,sans-Serif" font-size="10.00">ActivateBossInRoom()</text>
<text xml:space="preserve" text-anchor="start" x="5.44" y="-66.75" font-family="Helvetica,sans-Serif" font-size="10.00">+</text>
<text xml:space="preserve" text-anchor="start" x="16.88" y="-66.75" font-family="Helvetica,sans-Serif" font-size="10.00">RegisterBossMinionSpawn()</text>
<text xml:space="preserve" text-anchor="start" x="5.44" y="-51.5" font-family="Helvetica,sans-Serif" font-size="10.00">+</text>
<text xml:space="preserve" text-anchor="start" x="16.88" y="-51.5" font-family="Helvetica,sans-Serif" font-size="10.00">RegisterBossMinionDeath()</text>
<text xml:space="preserve" text-anchor="start" x="6.94" y="-36.25" font-family="Helvetica,sans-Serif" font-size="10.00">&#45;</text>
<text xml:space="preserve" text-anchor="start" x="16.88" y="-36.25" font-family="Helvetica,sans-Serif" font-size="10.00">OnBossEnemyDied()</text>
<text xml:space="preserve" text-anchor="start" x="6.94" y="-21" font-family="Helvetica,sans-Serif" font-size="10.00">&#45;</text>
<text xml:space="preserve" text-anchor="start" x="16.88" y="-21" font-family="Helvetica,sans-Serif" font-size="10.00">SpawnLevelExit()</text>
<text xml:space="preserve" text-anchor="start" x="6.94" y="-5.75" font-family="Helvetica,sans-Serif" font-size="10.00">&#45;</text>
<text xml:space="preserve" text-anchor="start" x="16.88" y="-5.75" font-family="Helvetica,sans-Serif" font-size="10.00">IncrementAlive()</text>
<polygon fill="#666666" stroke="#666666" points="0,-200.25 0,-200.25 147.5,-200.25 147.5,-200.25 0,-200.25"/>
<polygon fill="#666666" stroke="#666666" points="0,-108.75 0,-108.75 14.88,-108.75 14.88,-108.75 0,-108.75"/>
<polygon fill="#666666" stroke="#666666" points="14.88,-108.75 14.88,-108.75 147.5,-108.75 147.5,-108.75 14.88,-108.75"/>
<polygon fill="none" stroke="#666666" points="0,0 0,-217.5 147.5,-217.5 147.5,0 0,0"/>
</a>
</g>
</g>
<!-- Node2 -->
<g id="Node000002" class="node">
<title>Node2</title>
<g id="a_Node000002"><a xlink:href="class_dungeon_1_1_room.html" target="_top" xlink:title="Represents a room in the dungeon with connections to neighbors and additional metadata.">
<polygon fill="white" stroke="none" points="124.75,-743.75 22.75,-743.75 22.75,-541.5 124.75,-541.5 124.75,-743.75"/>
<text xml:space="preserve" text-anchor="start" x="39.62" y="-730.25" font-family="Helvetica,sans-Serif" font-size="10.00">Dungeon.Room</text>
<text xml:space="preserve" text-anchor="start" x="26.75" y="-715" font-family="Helvetica,sans-Serif" font-size="10.00">+</text>
<text xml:space="preserve" text-anchor="start" x="36.75" y="-715" font-family="Helvetica,sans-Serif" font-size="10.00">ID</text>
<text xml:space="preserve" text-anchor="start" x="26.75" y="-699.75" font-family="Helvetica,sans-Serif" font-size="10.00">+</text>
<text xml:space="preserve" text-anchor="start" x="36.75" y="-699.75" font-family="Helvetica,sans-Serif" font-size="10.00">Neighbors</text>
<text xml:space="preserve" text-anchor="start" x="26.75" y="-684.5" font-family="Helvetica,sans-Serif" font-size="10.00">+</text>
<text xml:space="preserve" text-anchor="start" x="36.75" y="-684.5" font-family="Helvetica,sans-Serif" font-size="10.00">Walls</text>
<text xml:space="preserve" text-anchor="start" x="26.75" y="-669.25" font-family="Helvetica,sans-Serif" font-size="10.00">+</text>
<text xml:space="preserve" text-anchor="start" x="36.75" y="-669.25" font-family="Helvetica,sans-Serif" font-size="10.00">Doors</text>
<text xml:space="preserve" text-anchor="start" x="26.75" y="-654" font-family="Helvetica,sans-Serif" font-size="10.00">+</text>
<text xml:space="preserve" text-anchor="start" x="36.75" y="-654" font-family="Helvetica,sans-Serif" font-size="10.00">Visited</text>
<text xml:space="preserve" text-anchor="start" x="26.75" y="-638.75" font-family="Helvetica,sans-Serif" font-size="10.00">+</text>
<text xml:space="preserve" text-anchor="start" x="36.75" y="-638.75" font-family="Helvetica,sans-Serif" font-size="10.00">Type</text>
<text xml:space="preserve" text-anchor="start" x="26.75" y="-623.5" font-family="Helvetica,sans-Serif" font-size="10.00">+</text>
<text xml:space="preserve" text-anchor="start" x="36.75" y="-623.5" font-family="Helvetica,sans-Serif" font-size="10.00">IncircleRadius</text>
<text xml:space="preserve" text-anchor="start" x="26.75" y="-608.25" font-family="Helvetica,sans-Serif" font-size="10.00">+</text>
<text xml:space="preserve" text-anchor="start" x="36.75" y="-608.25" font-family="Helvetica,sans-Serif" font-size="10.00">Room()</text>
<text xml:space="preserve" text-anchor="start" x="26.75" y="-593" font-family="Helvetica,sans-Serif" font-size="10.00">+</text>
<text xml:space="preserve" text-anchor="start" x="36.75" y="-593" font-family="Helvetica,sans-Serif" font-size="10.00">AddWallEdge()</text>
<text xml:space="preserve" text-anchor="start" x="26.75" y="-577.75" font-family="Helvetica,sans-Serif" font-size="10.00">+</text>
<text xml:space="preserve" text-anchor="start" x="36.75" y="-577.75" font-family="Helvetica,sans-Serif" font-size="10.00">SetIncircleRadius()</text>
<text xml:space="preserve" text-anchor="start" x="26.75" y="-562.5" font-family="Helvetica,sans-Serif" font-size="10.00">+</text>
<text xml:space="preserve" text-anchor="start" x="36.75" y="-562.5" font-family="Helvetica,sans-Serif" font-size="10.00">GetIncircleRadius()</text>
<text xml:space="preserve" text-anchor="start" x="26.75" y="-547.25" font-family="Helvetica,sans-Serif" font-size="10.00">+</text>
<text xml:space="preserve" text-anchor="start" x="36.75" y="-547.25" font-family="Helvetica,sans-Serif" font-size="10.00">AddNeighbors()</text>
<polygon fill="#666666" stroke="#666666" points="22.75,-726.5 22.75,-726.5 124.75,-726.5 124.75,-726.5 22.75,-726.5"/>
<polygon fill="#666666" stroke="#666666" points="22.75,-619.75 22.75,-619.75 34.75,-619.75 34.75,-619.75 22.75,-619.75"/>
<polygon fill="#666666" stroke="#666666" points="34.75,-619.75 34.75,-619.75 124.75,-619.75 124.75,-619.75 34.75,-619.75"/>
<polygon fill="none" stroke="#666666" points="22.75,-541.5 22.75,-743.75 124.75,-743.75 124.75,-541.5 22.75,-541.5"/>
</a>
</g>
</g>
<!-- Node2&#45;&gt;Node1 -->
<g id="edge1_Node000001_Node000002" class="edge">
<title>Node2&#45;&gt;Node1</title>
<g id="a_edge1_Node000001_Node000002"><a xlink:title=" ">
<path fill="none" stroke="#63b8ff" d="M68.35,-541.82C67.58,-523.99 66.91,-505.57 66.5,-488.25 64.22,-391.61 64.33,-367.39 66.5,-270.75 66.8,-257.47 67.24,-243.58 67.75,-229.76"/>
<polygon fill="none" stroke="#63b8ff" points="67.74,-230.01 63.98,-223.86 68.21,-218.02 71.97,-224.17 67.74,-230.01"/>
</a>
</g>
<text xml:space="preserve" text-anchor="start" x="69.5" y="-375.62" font-family="Helvetica,sans-Serif" font-size="10.00" fill="grey">&#45;_bossRoomRef</text>
</g>
<!-- Node4 -->
<g id="Node000004" class="node">
<title>Node4</title>
<g id="a_Node000004"><a xlink:href="class_spawning_1_1_boss_spawner_voronoi.html" target="_top" xlink:title="class to manage boss &amp; obstacle spawning, setting the boss active and inactive and also spawning the ...">
<polygon fill="white" stroke="none" points="300.5,-488.25 153,-488.25 153,-270.75 300.5,-270.75 300.5,-488.25"/>
<text xml:space="preserve" text-anchor="start" x="157" y="-474.75" font-family="Helvetica,sans-Serif" font-size="10.00">Spawning.BossSpawnerVoronoi</text>
<text xml:space="preserve" text-anchor="start" x="159.94" y="-459.5" font-family="Helvetica,sans-Serif" font-size="10.00">&#45;</text>
<text xml:space="preserve" text-anchor="start" x="169.88" y="-459.5" font-family="Helvetica,sans-Serif" font-size="10.00">_bossInstancesPerRoom</text>
<text xml:space="preserve" text-anchor="start" x="159.94" y="-444.25" font-family="Helvetica,sans-Serif" font-size="10.00">&#45;</text>
<text xml:space="preserve" text-anchor="start" x="169.88" y="-444.25" font-family="Helvetica,sans-Serif" font-size="10.00">_alivePerRoom</text>
<text xml:space="preserve" text-anchor="start" x="159.94" y="-429" font-family="Helvetica,sans-Serif" font-size="10.00">&#45;</text>
<text xml:space="preserve" text-anchor="start" x="169.88" y="-429" font-family="Helvetica,sans-Serif" font-size="10.00">_bossRoomId</text>
<text xml:space="preserve" text-anchor="start" x="159.94" y="-413.75" font-family="Helvetica,sans-Serif" font-size="10.00">&#45;</text>
<text xml:space="preserve" text-anchor="start" x="169.88" y="-413.75" font-family="Helvetica,sans-Serif" font-size="10.00">_parent</text>
<text xml:space="preserve" text-anchor="start" x="159.94" y="-398.5" font-family="Helvetica,sans-Serif" font-size="10.00">&#45;</text>
<text xml:space="preserve" text-anchor="start" x="169.88" y="-398.5" font-family="Helvetica,sans-Serif" font-size="10.00">_levelExitPrefab</text>
<text xml:space="preserve" text-anchor="start" x="159.94" y="-383.25" font-family="Helvetica,sans-Serif" font-size="10.00">&#45;</text>
<text xml:space="preserve" text-anchor="start" x="169.88" y="-383.25" font-family="Helvetica,sans-Serif" font-size="10.00">_exitSpawned</text>
<text xml:space="preserve" text-anchor="start" x="158.44" y="-368" font-family="Helvetica,sans-Serif" font-size="10.00">+</text>
<text xml:space="preserve" text-anchor="start" x="169.88" y="-368" font-family="Helvetica,sans-Serif" font-size="10.00">BossSpawnerVoronoi()</text>
<text xml:space="preserve" text-anchor="start" x="158.44" y="-352.75" font-family="Helvetica,sans-Serif" font-size="10.00">+</text>
<text xml:space="preserve" text-anchor="start" x="169.88" y="-352.75" font-family="Helvetica,sans-Serif" font-size="10.00">ActivateBossInRoom()</text>
<text xml:space="preserve" text-anchor="start" x="158.44" y="-337.5" font-family="Helvetica,sans-Serif" font-size="10.00">+</text>
<text xml:space="preserve" text-anchor="start" x="169.88" y="-337.5" font-family="Helvetica,sans-Serif" font-size="10.00">RegisterBossMinionSpawn()</text>
<text xml:space="preserve" text-anchor="start" x="158.44" y="-322.25" font-family="Helvetica,sans-Serif" font-size="10.00">+</text>
<text xml:space="preserve" text-anchor="start" x="169.88" y="-322.25" font-family="Helvetica,sans-Serif" font-size="10.00">RegisterBossMinionDeath()</text>
<text xml:space="preserve" text-anchor="start" x="159.94" y="-307" font-family="Helvetica,sans-Serif" font-size="10.00">&#45;</text>
<text xml:space="preserve" text-anchor="start" x="169.88" y="-307" font-family="Helvetica,sans-Serif" font-size="10.00">OnBossEnemyDied()</text>
<text xml:space="preserve" text-anchor="start" x="159.94" y="-291.75" font-family="Helvetica,sans-Serif" font-size="10.00">&#45;</text>
<text xml:space="preserve" text-anchor="start" x="169.88" y="-291.75" font-family="Helvetica,sans-Serif" font-size="10.00">SpawnLevelExit()</text>
<text xml:space="preserve" text-anchor="start" x="159.94" y="-276.5" font-family="Helvetica,sans-Serif" font-size="10.00">&#45;</text>
<text xml:space="preserve" text-anchor="start" x="169.88" y="-276.5" font-family="Helvetica,sans-Serif" font-size="10.00">IncrementAlive()</text>
<polygon fill="#666666" stroke="#666666" points="153,-471 153,-471 300.5,-471 300.5,-471 153,-471"/>
<polygon fill="#666666" stroke="#666666" points="153,-379.5 153,-379.5 167.88,-379.5 167.88,-379.5 153,-379.5"/>
<polygon fill="#666666" stroke="#666666" points="167.88,-379.5 167.88,-379.5 300.5,-379.5 300.5,-379.5 167.88,-379.5"/>
<polygon fill="none" stroke="#666666" points="153,-270.75 153,-488.25 300.5,-488.25 300.5,-270.75 153,-270.75"/>
</a>
</g>
</g>
<!-- Node2&#45;&gt;Node4 -->
<g id="edge4_Node000004_Node000002" class="edge">
<title>Node2&#45;&gt;Node4</title>
<g id="a_edge4_Node000004_Node000002"><a xlink:title=" ">
<path fill="none" stroke="#63b8ff" d="M124.7,-554.67C135.11,-536.9 146.24,-517.9 157.18,-499.24"/>
<polygon fill="none" stroke="#63b8ff" points="157.25,-499.11 156.83,-491.91 163.32,-488.76 163.74,-495.96 157.25,-499.11"/>
</a>
</g>
<text xml:space="preserve" text-anchor="start" x="153.25" y="-511" font-family="Helvetica,sans-Serif" font-size="10.00" fill="grey">&#45;_bossRoomRef</text>
</g>
<!-- Node3 -->
<g id="Node000003" class="node">
<title>Node3</title>
<g id="a_Node000003"><a xlink:href="class_dungeon_1_1_point.html" target="_top" xlink:title="2D point with X and Y values plus small helpers.">
<polygon fill="white" stroke="none" points="113.12,-923 34.38,-923 34.38,-797 113.12,-797 113.12,-923"/>
<text xml:space="preserve" text-anchor="start" x="41.5" y="-909.5" font-family="Helvetica,sans-Serif" font-size="10.00">Dungeon.Point</text>
<text xml:space="preserve" text-anchor="start" x="38.38" y="-894.25" font-family="Helvetica,sans-Serif" font-size="10.00">+</text>
<text xml:space="preserve" text-anchor="start" x="48.38" y="-894.25" font-family="Helvetica,sans-Serif" font-size="10.00">X</text>
<text xml:space="preserve" text-anchor="start" x="38.38" y="-879" font-family="Helvetica,sans-Serif" font-size="10.00">+</text>
<text xml:space="preserve" text-anchor="start" x="48.38" y="-879" font-family="Helvetica,sans-Serif" font-size="10.00">Y</text>
<text xml:space="preserve" text-anchor="start" x="38.38" y="-863.75" font-family="Helvetica,sans-Serif" font-size="10.00">+</text>
<text xml:space="preserve" text-anchor="start" x="48.38" y="-863.75" font-family="Helvetica,sans-Serif" font-size="10.00">Point()</text>
<text xml:space="preserve" text-anchor="start" x="38.38" y="-848.5" font-family="Helvetica,sans-Serif" font-size="10.00">+</text>
<text xml:space="preserve" text-anchor="start" x="48.38" y="-848.5" font-family="Helvetica,sans-Serif" font-size="10.00">ToVector3()</text>
<text xml:space="preserve" text-anchor="start" x="38.38" y="-833.25" font-family="Helvetica,sans-Serif" font-size="10.00">+</text>
<text xml:space="preserve" text-anchor="start" x="48.38" y="-833.25" font-family="Helvetica,sans-Serif" font-size="10.00">PrintPoint()</text>
<text xml:space="preserve" text-anchor="start" x="38.38" y="-818" font-family="Helvetica,sans-Serif" font-size="10.00">+</text>
<text xml:space="preserve" text-anchor="start" x="48.38" y="-818" font-family="Helvetica,sans-Serif" font-size="10.00">Equals()</text>
<text xml:space="preserve" text-anchor="start" x="38.38" y="-802.75" font-family="Helvetica,sans-Serif" font-size="10.00">+</text>
<text xml:space="preserve" text-anchor="start" x="48.38" y="-802.75" font-family="Helvetica,sans-Serif" font-size="10.00">GetDistance()</text>
<polygon fill="#666666" stroke="#666666" points="34.38,-905.75 34.38,-905.75 113.12,-905.75 113.12,-905.75 34.38,-905.75"/>
<polygon fill="#666666" stroke="#666666" points="34.38,-875.25 34.38,-875.25 46.38,-875.25 46.38,-875.25 34.38,-875.25"/>
<polygon fill="#666666" stroke="#666666" points="46.38,-875.25 46.38,-875.25 113.12,-875.25 113.12,-875.25 46.38,-875.25"/>
<polygon fill="none" stroke="#666666" points="34.38,-797 34.38,-923 113.12,-923 113.12,-797 34.38,-797"/>
</a>
</g>
</g>
<!-- Node3&#45;&gt;Node2 -->
<g id="edge2_Node000002_Node000003" class="edge">
<title>Node3&#45;&gt;Node2</title>
<g id="a_edge2_Node000002_Node000003"><a xlink:title=" ">
<path fill="none" stroke="#63b8ff" d="M73.75,-797.28C73.75,-784.43 73.75,-770.51 73.75,-756.47"/>
<polygon fill="none" stroke="#63b8ff" points="73.75,-756.47 69.75,-750.47 73.75,-744.47 77.75,-750.47 73.75,-756.47"/>
</a>
</g>
<text xml:space="preserve" text-anchor="start" x="76.75" y="-766.5" font-family="Helvetica,sans-Serif" font-size="10.00" fill="grey">+Center</text>
</g>
<!-- Node4&#45;&gt;Node1 -->
<g id="edge3_Node000001_Node000004" class="edge">
<title>Node4&#45;&gt;Node1</title>
<g id="a_edge3_Node000001_Node000004"><a xlink:title=" ">
<path fill="none" stroke="#63b8ff" d="M165.62,-271.12C157.67,-257.17 149.5,-242.8 141.45,-228.67"/>
<polygon fill="none" stroke="#63b8ff" points="141.41,-228.61 134.97,-225.37 135.48,-218.18 141.92,-221.41 141.41,-228.61"/>
</a>
</g>
<text xml:space="preserve" text-anchor="start" x="157.84" y="-240.25" font-family="Helvetica,sans-Serif" font-size="10.00" fill="grey">&#45;_instance</text>
</g>
<!-- Node4&#45;&gt;Node4 -->
<g id="edge5_Node000004_Node000004" class="edge">
<title>Node4&#45;&gt;Node4</title>
<g id="a_edge5_Node000004_Node000004"><a xlink:title=" ">
<path fill="none" stroke="#63b8ff" d="M300.18,-402.53C311.11,-398.94 318.5,-391.27 318.5,-379.5 318.5,-372.51 315.89,-366.97 311.49,-362.87"/>
<polygon fill="none" stroke="#63b8ff" points="311.41,-362.82 304.22,-363.35 300.96,-356.92 308.15,-356.39 311.41,-362.82"/>
</a>
</g>
<text xml:space="preserve" text-anchor="start" x="321.5" y="-375.62" font-family="Helvetica,sans-Serif" font-size="10.00" fill="grey">&#45;_instance</text>
</g>
</g>
</svg>
