<?xml version="1.0" encoding="UTF-8" standalone="no"?>
<!DOCTYPE svg PUBLIC "-//W3C//DTD SVG 1.1//EN"
 "http://www.w3.org/Graphics/SVG/1.1/DTD/svg11.dtd">
<!-- Generated by graphviz version 13.1.2 (20250808.2320)
 -->
<!-- Title: Manager.EventManager Pages: 1 -->
<svg width="136pt" height="235pt"
 viewBox="0.00 0.00 136.00 235.00" xmlns="http://www.w3.org/2000/svg" xmlns:xlink="http://www.w3.org/1999/xlink">
<g id="graph0" class="graph" transform="scale(1 1) rotate(0) translate(4 231)">
<title>Manager.EventManager</title>
<!-- Node1 -->
<g id="Node000001" class="node">
<title>Node1</title>
<g id="a_Node000001"><a xlink:title="Manages global events for opening and closing doors, allowing other scripts to listen and respond to ...">
<polygon fill="#999999" stroke="none" points="128.25,-141.25 0,-141.25 0,0 128.25,0 128.25,-141.25"/>
<text xml:space="preserve" text-anchor="start" x="12.75" y="-127.75" font-family="Helvetica,sans-Serif" font-size="10.00">Manager.EventManager</text>
<text xml:space="preserve" text-anchor="start" x="4" y="-112.5" font-family="Helvetica,sans-Serif" font-size="10.00">+</text>
<text xml:space="preserve" text-anchor="start" x="14" y="-112.5" font-family="Helvetica,sans-Serif" font-size="10.00">Instance</text>
<text xml:space="preserve" text-anchor="start" x="4" y="-97.25" font-family="Helvetica,sans-Serif" font-size="10.00">+</text>
<text xml:space="preserve" text-anchor="start" x="14" y="-97.25" font-family="Helvetica,sans-Serif" font-size="10.00">TriggerCanvasView()</text>
<text xml:space="preserve" text-anchor="start" x="4" y="-82" font-family="Helvetica,sans-Serif" font-size="10.00">+</text>
<text xml:space="preserve" text-anchor="start" x="14" y="-82" font-family="Helvetica,sans-Serif" font-size="10.00">TriggerCloseDoors()</text>
<text xml:space="preserve" text-anchor="start" x="4" y="-66.75" font-family="Helvetica,sans-Serif" font-size="10.00">+</text>
<text xml:space="preserve" text-anchor="start" x="14" y="-66.75" font-family="Helvetica,sans-Serif" font-size="10.00">TriggerOpenDoors()</text>
<text xml:space="preserve" text-anchor="start" x="4" y="-51.5" font-family="Helvetica,sans-Serif" font-size="10.00">+</text>
<text xml:space="preserve" text-anchor="start" x="14" y="-51.5" font-family="Helvetica,sans-Serif" font-size="10.00">TriggerCloseBossDoors()</text>
<text xml:space="preserve" text-anchor="start" x="4" y="-36.25" font-family="Helvetica,sans-Serif" font-size="10.00">+</text>
<text xml:space="preserve" text-anchor="start" x="14" y="-36.25" font-family="Helvetica,sans-Serif" font-size="10.00">TriggerOpenBossDoors()</text>
<text xml:space="preserve" text-anchor="start" x="5.5" y="-21" font-family="Helvetica,sans-Serif" font-size="10.00">&#45;</text>
<text xml:space="preserve" text-anchor="start" x="14" y="-21" font-family="Helvetica,sans-Serif" font-size="10.00">Awake()</text>
<text xml:space="preserve" text-anchor="start" x="5.5" y="-5.75" font-family="Helvetica,sans-Serif" font-size="10.00">&#45;</text>
<text xml:space="preserve" text-anchor="start" x="14" y="-5.75" font-family="Helvetica,sans-Serif" font-size="10.00">Update()</text>
<polygon fill="#666666" stroke="#666666" points="0,-124 0,-124 128.25,-124 128.25,-124 0,-124"/>
<polygon fill="#666666" stroke="#666666" points="0,-108.75 0,-108.75 12,-108.75 12,-108.75 0,-108.75"/>
<polygon fill="#666666" stroke="#666666" points="12,-108.75 12,-108.75 128.25,-108.75 128.25,-108.75 12,-108.75"/>
<polygon fill="none" stroke="#666666" points="0,0 0,-141.25 128.25,-141.25 128.25,0 0,0"/>
</a>
</g>
</g>
<!-- Node2 -->
<g id="Node000002" class="node">
<title>Node2</title>
<g id="a_Node000002"><a xlink:title=" ">
<polygon fill="white" stroke="none" points="101.88,-227 26.38,-227 26.38,-177.25 101.88,-177.25 101.88,-227"/>
<text xml:space="preserve" text-anchor="start" x="30.38" y="-213.5" font-family="Helvetica,sans-Serif" font-size="10.00">MonoBehaviour</text>
<text xml:space="preserve" text-anchor="start" x="62.62" y="-198.25" font-family="Helvetica,sans-Serif" font-size="10.00"> </text>
<text xml:space="preserve" text-anchor="start" x="62.62" y="-183" font-family="Helvetica,sans-Serif" font-size="10.00"> </text>
<polygon fill="#666666" stroke="#666666" points="26.38,-209.75 26.38,-209.75 101.88,-209.75 101.88,-209.75 26.38,-209.75"/>
<polygon fill="#666666" stroke="#666666" points="26.38,-194.5 26.38,-194.5 101.88,-194.5 101.88,-194.5 26.38,-194.5"/>
<polygon fill="none" stroke="#666666" points="26.38,-177.25 26.38,-227 101.88,-227 101.88,-177.25 26.38,-177.25"/>
</a>
</g>
</g>
<!-- Node2&#45;&gt;Node1 -->
<g id="edge1_Node000001_Node000002" class="edge">
<title>Node2&#45;&gt;Node1</title>
<g id="a_edge1_Node000001_Node000002"><a xlink:title=" ">
<path fill="none" stroke="#63b8ff" d="M64.12,-165.92C64.12,-158.21 64.12,-149.78 64.12,-141.24"/>
<polygon fill="none" stroke="#63b8ff" points="60.63,-165.86 64.13,-175.86 67.63,-165.86 60.63,-165.86"/>
</a>
</g>
</g>
</g>
</svg>
