<?xml version="1.0" encoding="UTF-8" standalone="no"?>
<!DOCTYPE svg PUBLIC "-//W3C//DTD SVG 1.1//EN"
 "http://www.w3.org/Graphics/SVG/1.1/DTD/svg11.dtd">
<!-- Generated by graphviz version 13.1.2 (20250808.2320)
 -->
<!-- Title: Enemy.EnemyLevelScaler Pages: 1 -->
<svg width="130pt" height="119pt"
 viewBox="0.00 0.00 130.00 119.00" xmlns="http://www.w3.org/2000/svg" xmlns:xlink="http://www.w3.org/1999/xlink">
<g id="graph0" class="graph" transform="scale(1 1) rotate(0) translate(4 114.75)">
<title>Enemy.EnemyLevelScaler</title>
<!-- Node1 -->
<g id="Node000001" class="node">
<title>Node1</title>
<g id="a_Node000001"><a xlink:title="Applies per&#45;level scaling to enemies/bosses at spawn time. Level 1 = base prefab values,...">
<polygon fill="#999999" stroke="none" points="122,-110.75 0,-110.75 0,0 122,0 122,-110.75"/>
<text xml:space="preserve" text-anchor="start" x="4" y="-97.25" font-family="Helvetica,sans-Serif" font-size="10.00">Enemy.EnemyLevelScaler</text>
<text xml:space="preserve" text-anchor="start" x="9" y="-82" font-family="Helvetica,sans-Serif" font-size="10.00">&#45;</text>
<text xml:space="preserve" text-anchor="start" x="21" y="-82" font-family="Helvetica,sans-Serif" font-size="10.00">EnemyHpPerLevel</text>
<text xml:space="preserve" text-anchor="start" x="9" y="-66.75" font-family="Helvetica,sans-Serif" font-size="10.00">&#45;</text>
<text xml:space="preserve" text-anchor="start" x="21" y="-66.75" font-family="Helvetica,sans-Serif" font-size="10.00">EnemyDmgPerLevel</text>
<text xml:space="preserve" text-anchor="start" x="9" y="-51.5" font-family="Helvetica,sans-Serif" font-size="10.00">&#45;</text>
<text xml:space="preserve" text-anchor="start" x="21" y="-51.5" font-family="Helvetica,sans-Serif" font-size="10.00">BossHpPerLevel</text>
<text xml:space="preserve" text-anchor="start" x="9" y="-36.25" font-family="Helvetica,sans-Serif" font-size="10.00">&#45;</text>
<text xml:space="preserve" text-anchor="start" x="21" y="-36.25" font-family="Helvetica,sans-Serif" font-size="10.00">BossDmgPerLevel</text>
<text xml:space="preserve" text-anchor="start" x="7.5" y="-21" font-family="Helvetica,sans-Serif" font-size="10.00">+</text>
<text xml:space="preserve" text-anchor="start" x="21" y="-21" font-family="Helvetica,sans-Serif" font-size="10.00">Apply()</text>
<text xml:space="preserve" text-anchor="start" x="9" y="-5.75" font-family="Helvetica,sans-Serif" font-size="10.00">&#45;</text>
<text xml:space="preserve" text-anchor="start" x="21" y="-5.75" font-family="Helvetica,sans-Serif" font-size="10.00">EnsureMinSlots()</text>
<polygon fill="#666666" stroke="#666666" points="0,-93.5 0,-93.5 122,-93.5 122,-93.5 0,-93.5"/>
<polygon fill="#666666" stroke="#666666" points="0,-32.5 0,-32.5 19,-32.5 19,-32.5 0,-32.5"/>
<polygon fill="#666666" stroke="#666666" points="19,-32.5 19,-32.5 122,-32.5 122,-32.5 19,-32.5"/>
<polygon fill="none" stroke="#666666" points="0,0 0,-110.75 122,-110.75 122,0 0,0"/>
</a>
</g>
</g>
</g>
</svg>
