<?xml version="1.0" encoding="UTF-8" standalone="no"?>
<!DOCTYPE svg PUBLIC "-//W3C//DTD SVG 1.1//EN"
 "http://www.w3.org/Graphics/SVG/1.1/DTD/svg11.dtd">
<!-- Generated by graphviz version 13.1.2 (20250808.2320)
 -->
<!-- Title: Spawning.MiniGameSpawnerVoronoi Pages: 1 -->
<svg width="148pt" height="216pt"
 viewBox="0.00 0.00 148.00 216.00" xmlns="http://www.w3.org/2000/svg" xmlns:xlink="http://www.w3.org/1999/xlink">
<g id="graph0" class="graph" transform="scale(1 1) rotate(0) translate(4 211.75)">
<title>Spawning.MiniGameSpawnerVoronoi</title>
<!-- Node1 -->
<g id="Node000001" class="node">
<title>Node1</title>
<g id="a_Node000001"><a xlink:title="Spawns minigame prefabs into specified rooms in a Voronoi dungeon. A random prefab is placed in each ...">
<polygon fill="#999999" stroke="none" points="139.5,-122 0,-122 0,0 139.5,0 139.5,-122"/>
<text xml:space="preserve" text-anchor="start" x="5.62" y="-108.5" font-family="Helvetica,sans-Serif" font-size="10.00">Spawning.MiniGameSpawner</text>
<text xml:space="preserve" text-anchor="start" x="53.25" y="-97.25" font-family="Helvetica,sans-Serif" font-size="10.00">Voronoi</text>
<text xml:space="preserve" text-anchor="start" x="5.5" y="-82" font-family="Helvetica,sans-Serif" font-size="10.00">&#45;</text>
<text xml:space="preserve" text-anchor="start" x="14" y="-82" font-family="Helvetica,sans-Serif" font-size="10.00">_rooms</text>
<text xml:space="preserve" text-anchor="start" x="5.5" y="-66.75" font-family="Helvetica,sans-Serif" font-size="10.00">&#45;</text>
<text xml:space="preserve" text-anchor="start" x="14" y="-66.75" font-family="Helvetica,sans-Serif" font-size="10.00">_minigamePrefabs</text>
<text xml:space="preserve" text-anchor="start" x="5.5" y="-51.5" font-family="Helvetica,sans-Serif" font-size="10.00">&#45;</text>
<text xml:space="preserve" text-anchor="start" x="14" y="-51.5" font-family="Helvetica,sans-Serif" font-size="10.00">_parent</text>
<text xml:space="preserve" text-anchor="start" x="5.5" y="-36.25" font-family="Helvetica,sans-Serif" font-size="10.00">&#45;</text>
<text xml:space="preserve" text-anchor="start" x="14" y="-36.25" font-family="Helvetica,sans-Serif" font-size="10.00">_rng</text>
<text xml:space="preserve" text-anchor="start" x="4" y="-21" font-family="Helvetica,sans-Serif" font-size="10.00">+</text>
<text xml:space="preserve" text-anchor="start" x="14" y="-21" font-family="Helvetica,sans-Serif" font-size="10.00">MiniGameSpawnerVoronoi()</text>
<text xml:space="preserve" text-anchor="start" x="4" y="-5.75" font-family="Helvetica,sans-Serif" font-size="10.00">+</text>
<text xml:space="preserve" text-anchor="start" x="14" y="-5.75" font-family="Helvetica,sans-Serif" font-size="10.00">SpawnInRoom()</text>
<polygon fill="#666666" stroke="#666666" points="0,-93.5 0,-93.5 139.5,-93.5 139.5,-93.5 0,-93.5"/>
<polygon fill="#666666" stroke="#666666" points="0,-32.5 0,-32.5 12,-32.5 12,-32.5 0,-32.5"/>
<polygon fill="#666666" stroke="#666666" points="12,-32.5 12,-32.5 139.5,-32.5 139.5,-32.5 12,-32.5"/>
<polygon fill="none" stroke="#666666" points="0,0 0,-122 139.5,-122 139.5,0 0,0"/>
</a>
</g>
</g>
<!-- Node2 -->
<g id="Node000002" class="node">
<title>Node2</title>
<g id="a_Node000002"><a xlink:href="interface_interfaces_1_1_i_spawner_voronoi.html" target="_top" xlink:title="Interface for object spawners in a room in the Voronoi Dungeon. Allows flexibility for spawning diffe...">
<polygon fill="white" stroke="none" points="134.12,-207.75 5.38,-207.75 5.38,-158 134.12,-158 134.12,-207.75"/>
<text xml:space="preserve" text-anchor="start" x="9.38" y="-194.25" font-family="Helvetica,sans-Serif" font-size="10.00">Interfaces.ISpawnerVoronoi</text>
<text xml:space="preserve" text-anchor="start" x="68.25" y="-179" font-family="Helvetica,sans-Serif" font-size="10.00"> </text>
<text xml:space="preserve" text-anchor="start" x="19.44" y="-163.75" font-family="Helvetica,sans-Serif" font-size="10.00">+</text>
<text xml:space="preserve" text-anchor="start" x="39.5" y="-163.75" font-family="Helvetica,sans-Serif" font-size="10.00">SpawnInRoom()</text>
<polygon fill="#666666" stroke="#666666" points="5.38,-190.5 5.38,-190.5 134.12,-190.5 134.12,-190.5 5.38,-190.5"/>
<polygon fill="#666666" stroke="#666666" points="5.38,-175.25 5.38,-175.25 134.12,-175.25 134.12,-175.25 5.38,-175.25"/>
<polygon fill="none" stroke="#666666" points="5.38,-158 5.38,-207.75 134.12,-207.75 134.12,-158 5.38,-158"/>
</a>
</g>
</g>
<!-- Node2&#45;&gt;Node1 -->
<g id="edge1_Node000001_Node000002" class="edge">
<title>Node2&#45;&gt;Node1</title>
<g id="a_edge1_Node000001_Node000002"><a xlink:title=" ">
<path fill="none" stroke="#63b8ff" d="M69.75,-146.89C69.75,-139.02 69.75,-130.47 69.75,-121.91"/>
<polygon fill="none" stroke="#63b8ff" points="66.25,-146.68 69.75,-156.68 73.25,-146.68 66.25,-146.68"/>
</a>
</g>
</g>
</g>
</svg>
