<?xml version="1.0" encoding="UTF-8" standalone="no"?>
<!DOCTYPE svg PUBLIC "-//W3C//DTD SVG 1.1//EN"
 "http://www.w3.org/Graphics/SVG/1.1/DTD/svg11.dtd">
<!-- Generated by graphviz version 13.1.2 (20250808.2320)
 -->
<!-- Title: Manager.CameraManager Pages: 1 -->
<svg width="282pt" height="911pt"
 viewBox="0.00 0.00 282.00 911.00" xmlns="http://www.w3.org/2000/svg" xmlns:xlink="http://www.w3.org/1999/xlink">
<g id="graph0" class="graph" transform="scale(1 1) rotate(0) translate(4 906.75)">
<title>Manager.CameraManager</title>
<!-- Node1 -->
<g id="Node000001" class="node">
<title>Node1</title>
<g id="a_Node000001"><a xlink:title="Manages camera switching between first&#45;person and canvas views and enables the corresponding player m...">
<polygon fill="#999999" stroke="none" points="119.75,-263.25 0,-263.25 0,0 119.75,0 119.75,-263.25"/>
<text xml:space="preserve" text-anchor="start" x="4" y="-249.75" font-family="Helvetica,sans-Serif" font-size="10.00">Manager.CameraManager</text>
<text xml:space="preserve" text-anchor="start" x="6.19" y="-234.5" font-family="Helvetica,sans-Serif" font-size="10.00">+</text>
<text xml:space="preserve" text-anchor="start" x="18.38" y="-234.5" font-family="Helvetica,sans-Serif" font-size="10.00">Instance</text>
<text xml:space="preserve" text-anchor="start" x="6.19" y="-219.25" font-family="Helvetica,sans-Serif" font-size="10.00">+</text>
<text xml:space="preserve" text-anchor="start" x="18.38" y="-219.25" font-family="Helvetica,sans-Serif" font-size="10.00">ActiveCanvasDraw</text>
<text xml:space="preserve" text-anchor="start" x="7.69" y="-204" font-family="Helvetica,sans-Serif" font-size="10.00">&#45;</text>
<text xml:space="preserve" text-anchor="start" x="18.38" y="-204" font-family="Helvetica,sans-Serif" font-size="10.00">switchKey</text>
<text xml:space="preserve" text-anchor="start" x="7.69" y="-188.75" font-family="Helvetica,sans-Serif" font-size="10.00">&#45;</text>
<text xml:space="preserve" text-anchor="start" x="18.38" y="-188.75" font-family="Helvetica,sans-Serif" font-size="10.00">canvCamera</text>
<text xml:space="preserve" text-anchor="start" x="7.69" y="-173.5" font-family="Helvetica,sans-Serif" font-size="10.00">&#45;</text>
<text xml:space="preserve" text-anchor="start" x="18.38" y="-173.5" font-family="Helvetica,sans-Serif" font-size="10.00">_firstPersonCamera</text>
<text xml:space="preserve" text-anchor="start" x="7.69" y="-158.25" font-family="Helvetica,sans-Serif" font-size="10.00">&#45;</text>
<text xml:space="preserve" text-anchor="start" x="18.38" y="-158.25" font-family="Helvetica,sans-Serif" font-size="10.00">_player</text>
<text xml:space="preserve" text-anchor="start" x="6.19" y="-143" font-family="Helvetica,sans-Serif" font-size="10.00">+</text>
<text xml:space="preserve" text-anchor="start" x="18.38" y="-143" font-family="Helvetica,sans-Serif" font-size="10.00">SetActiveCanvas()</text>
<text xml:space="preserve" text-anchor="start" x="6.19" y="-127.75" font-family="Helvetica,sans-Serif" font-size="10.00">+</text>
<text xml:space="preserve" text-anchor="start" x="18.38" y="-127.75" font-family="Helvetica,sans-Serif" font-size="10.00">SetPlayer()</text>
<text xml:space="preserve" text-anchor="start" x="6.19" y="-112.5" font-family="Helvetica,sans-Serif" font-size="10.00">+</text>
<text xml:space="preserve" text-anchor="start" x="18.38" y="-112.5" font-family="Helvetica,sans-Serif" font-size="10.00">SetCanvasTarget()</text>
<text xml:space="preserve" text-anchor="start" x="7.69" y="-97.25" font-family="Helvetica,sans-Serif" font-size="10.00">&#45;</text>
<text xml:space="preserve" text-anchor="start" x="18.38" y="-97.25" font-family="Helvetica,sans-Serif" font-size="10.00">Awake()</text>
<text xml:space="preserve" text-anchor="start" x="7.69" y="-82" font-family="Helvetica,sans-Serif" font-size="10.00">&#45;</text>
<text xml:space="preserve" text-anchor="start" x="18.38" y="-82" font-family="Helvetica,sans-Serif" font-size="10.00">Update()</text>
<text xml:space="preserve" text-anchor="start" x="7.69" y="-66.75" font-family="Helvetica,sans-Serif" font-size="10.00">&#45;</text>
<text xml:space="preserve" text-anchor="start" x="18.38" y="-66.75" font-family="Helvetica,sans-Serif" font-size="10.00">SetFirstPersonView()</text>
<text xml:space="preserve" text-anchor="start" x="7.69" y="-51.5" font-family="Helvetica,sans-Serif" font-size="10.00">&#45;</text>
<text xml:space="preserve" text-anchor="start" x="18.38" y="-51.5" font-family="Helvetica,sans-Serif" font-size="10.00">SetCanvView()</text>
<text xml:space="preserve" text-anchor="start" x="7.69" y="-36.25" font-family="Helvetica,sans-Serif" font-size="10.00">&#45;</text>
<text xml:space="preserve" text-anchor="start" x="18.38" y="-36.25" font-family="Helvetica,sans-Serif" font-size="10.00">SetPlayerVisible()</text>
<text xml:space="preserve" text-anchor="start" x="7.69" y="-21" font-family="Helvetica,sans-Serif" font-size="10.00">&#45;</text>
<text xml:space="preserve" text-anchor="start" x="18.38" y="-21" font-family="Helvetica,sans-Serif" font-size="10.00">OnEnable()</text>
<text xml:space="preserve" text-anchor="start" x="7.69" y="-5.75" font-family="Helvetica,sans-Serif" font-size="10.00">&#45;</text>
<text xml:space="preserve" text-anchor="start" x="18.38" y="-5.75" font-family="Helvetica,sans-Serif" font-size="10.00">OnDisable()</text>
<polygon fill="#666666" stroke="#666666" points="0,-246 0,-246 119.75,-246 119.75,-246 0,-246"/>
<polygon fill="#666666" stroke="#666666" points="0,-154.5 0,-154.5 16.38,-154.5 16.38,-154.5 0,-154.5"/>
<polygon fill="#666666" stroke="#666666" points="16.38,-154.5 16.38,-154.5 119.75,-154.5 119.75,-154.5 16.38,-154.5"/>
<polygon fill="none" stroke="#666666" points="0,0 0,-263.25 119.75,-263.25 119.75,0 0,0"/>
</a>
</g>
</g>
<!-- Node2 -->
<g id="Node000002" class="node">
<title>Node2</title>
<g id="a_Node000002"><a xlink:title=" ">
<polygon fill="white" stroke="none" points="119.62,-902.75 44.12,-902.75 44.12,-853 119.62,-853 119.62,-902.75"/>
<text xml:space="preserve" text-anchor="start" x="48.12" y="-889.25" font-family="Helvetica,sans-Serif" font-size="10.00">MonoBehaviour</text>
<text xml:space="preserve" text-anchor="start" x="80.38" y="-874" font-family="Helvetica,sans-Serif" font-size="10.00"> </text>
<text xml:space="preserve" text-anchor="start" x="80.38" y="-858.75" font-family="Helvetica,sans-Serif" font-size="10.00"> </text>
<polygon fill="#666666" stroke="#666666" points="44.12,-885.5 44.12,-885.5 119.62,-885.5 119.62,-885.5 44.12,-885.5"/>
<polygon fill="#666666" stroke="#666666" points="44.12,-870.25 44.12,-870.25 119.62,-870.25 119.62,-870.25 44.12,-870.25"/>
<polygon fill="none" stroke="#666666" points="44.12,-853 44.12,-902.75 119.62,-902.75 119.62,-853 44.12,-853"/>
</a>
</g>
</g>
<!-- Node2&#45;&gt;Node1 -->
<g id="edge1_Node000001_Node000002" class="edge">
<title>Node2&#45;&gt;Node1</title>
<g id="a_edge1_Node000001_Node000002"><a xlink:title=" ">
<path fill="none" stroke="#63b8ff" d="M78.29,-841.76C73.7,-795.02 65.98,-709.78 62.88,-636.75 57.48,-509.85 57.24,-364.81 58.04,-262.99"/>
<polygon fill="none" stroke="#63b8ff" points="74.79,-841.94 79.26,-851.55 81.76,-841.25 74.79,-841.94"/>
</a>
</g>
</g>
<!-- Node3 -->
<g id="Node000003" class="node">
<title>Node3</title>
<g id="a_Node000003"><a xlink:href="class_controller_1_1_first_person_player_controller.html" target="_top" xlink:title="First&#45;person player controller for movement, looking, and basic interaction checks....">
<polygon fill="white" stroke="none" points="202,-636.75 71.75,-636.75 71.75,-316.5 202,-316.5 202,-636.75"/>
<text xml:space="preserve" text-anchor="start" x="75.75" y="-623.25" font-family="Helvetica,sans-Serif" font-size="10.00">Controller.FirstPersonPlayer</text>
<text xml:space="preserve" text-anchor="start" x="115.88" y="-612" font-family="Helvetica,sans-Serif" font-size="10.00">Controller</text>
<text xml:space="preserve" text-anchor="start" x="78.69" y="-596.75" font-family="Helvetica,sans-Serif" font-size="10.00">&#45;</text>
<text xml:space="preserve" text-anchor="start" x="88.62" y="-596.75" font-family="Helvetica,sans-Serif" font-size="10.00">cameraTransform</text>
<text xml:space="preserve" text-anchor="start" x="78.69" y="-581.5" font-family="Helvetica,sans-Serif" font-size="10.00">&#45;</text>
<text xml:space="preserve" text-anchor="start" x="88.62" y="-581.5" font-family="Helvetica,sans-Serif" font-size="10.00">moveSpeed</text>
<text xml:space="preserve" text-anchor="start" x="78.69" y="-566.25" font-family="Helvetica,sans-Serif" font-size="10.00">&#45;</text>
<text xml:space="preserve" text-anchor="start" x="88.62" y="-566.25" font-family="Helvetica,sans-Serif" font-size="10.00">speedStatIndex</text>
<text xml:space="preserve" text-anchor="start" x="78.69" y="-551" font-family="Helvetica,sans-Serif" font-size="10.00">&#45;</text>
<text xml:space="preserve" text-anchor="start" x="88.62" y="-551" font-family="Helvetica,sans-Serif" font-size="10.00">mouseSensitivity</text>
<text xml:space="preserve" text-anchor="start" x="78.69" y="-535.75" font-family="Helvetica,sans-Serif" font-size="10.00">&#45;</text>
<text xml:space="preserve" text-anchor="start" x="88.62" y="-535.75" font-family="Helvetica,sans-Serif" font-size="10.00">rotationSmoothness</text>
<text xml:space="preserve" text-anchor="start" x="78.69" y="-520.5" font-family="Helvetica,sans-Serif" font-size="10.00">&#45;</text>
<text xml:space="preserve" text-anchor="start" x="88.62" y="-520.5" font-family="Helvetica,sans-Serif" font-size="10.00">allowPitchRotation</text>
<text xml:space="preserve" text-anchor="start" x="78.69" y="-505.25" font-family="Helvetica,sans-Serif" font-size="10.00">&#45;</text>
<text xml:space="preserve" text-anchor="start" x="88.62" y="-505.25" font-family="Helvetica,sans-Serif" font-size="10.00">_stats</text>
<text xml:space="preserve" text-anchor="start" x="78.69" y="-490" font-family="Helvetica,sans-Serif" font-size="10.00">&#45;</text>
<text xml:space="preserve" text-anchor="start" x="88.62" y="-490" font-family="Helvetica,sans-Serif" font-size="10.00">_rotationX</text>
<text xml:space="preserve" text-anchor="start" x="78.69" y="-474.75" font-family="Helvetica,sans-Serif" font-size="10.00">&#45;</text>
<text xml:space="preserve" text-anchor="start" x="88.62" y="-474.75" font-family="Helvetica,sans-Serif" font-size="10.00">_rotationY</text>
<text xml:space="preserve" text-anchor="start" x="78.69" y="-459.5" font-family="Helvetica,sans-Serif" font-size="10.00">&#45;</text>
<text xml:space="preserve" text-anchor="start" x="88.62" y="-459.5" font-family="Helvetica,sans-Serif" font-size="10.00">_currentRotation</text>
<text xml:space="preserve" text-anchor="start" x="78.69" y="-444.25" font-family="Helvetica,sans-Serif" font-size="10.00">&#45;</text>
<text xml:space="preserve" text-anchor="start" x="88.62" y="-444.25" font-family="Helvetica,sans-Serif" font-size="10.00">_currentCameraRotation</text>
<text xml:space="preserve" text-anchor="start" x="78.69" y="-429" font-family="Helvetica,sans-Serif" font-size="10.00">&#45;</text>
<text xml:space="preserve" text-anchor="start" x="88.62" y="-429" font-family="Helvetica,sans-Serif" font-size="10.00">_currentInteractables</text>
<text xml:space="preserve" text-anchor="start" x="77.19" y="-413.75" font-family="Helvetica,sans-Serif" font-size="10.00">+</text>
<text xml:space="preserve" text-anchor="start" x="88.62" y="-413.75" font-family="Helvetica,sans-Serif" font-size="10.00">Init()</text>
<text xml:space="preserve" text-anchor="start" x="77.19" y="-398.5" font-family="Helvetica,sans-Serif" font-size="10.00">+</text>
<text xml:space="preserve" text-anchor="start" x="88.62" y="-398.5" font-family="Helvetica,sans-Serif" font-size="10.00">SyncLoadedRotation()</text>
<text xml:space="preserve" text-anchor="start" x="78.69" y="-383.25" font-family="Helvetica,sans-Serif" font-size="10.00">&#45;</text>
<text xml:space="preserve" text-anchor="start" x="88.62" y="-383.25" font-family="Helvetica,sans-Serif" font-size="10.00">Start()</text>
<text xml:space="preserve" text-anchor="start" x="78.69" y="-368" font-family="Helvetica,sans-Serif" font-size="10.00">&#45;</text>
<text xml:space="preserve" text-anchor="start" x="88.62" y="-368" font-family="Helvetica,sans-Serif" font-size="10.00">Update()</text>
<text xml:space="preserve" text-anchor="start" x="78.69" y="-352.75" font-family="Helvetica,sans-Serif" font-size="10.00">&#45;</text>
<text xml:space="preserve" text-anchor="start" x="88.62" y="-352.75" font-family="Helvetica,sans-Serif" font-size="10.00">HandleMovement()</text>
<text xml:space="preserve" text-anchor="start" x="78.69" y="-337.5" font-family="Helvetica,sans-Serif" font-size="10.00">&#45;</text>
<text xml:space="preserve" text-anchor="start" x="88.62" y="-337.5" font-family="Helvetica,sans-Serif" font-size="10.00">HandleRotation()</text>
<text xml:space="preserve" text-anchor="start" x="78.69" y="-322.25" font-family="Helvetica,sans-Serif" font-size="10.00">&#45;</text>
<text xml:space="preserve" text-anchor="start" x="88.62" y="-322.25" font-family="Helvetica,sans-Serif" font-size="10.00">CheckForObject()</text>
<polygon fill="#666666" stroke="#666666" points="71.75,-608.25 71.75,-608.25 202,-608.25 202,-608.25 71.75,-608.25"/>
<polygon fill="#666666" stroke="#666666" points="71.75,-425.25 71.75,-425.25 86.62,-425.25 86.62,-425.25 71.75,-425.25"/>
<polygon fill="#666666" stroke="#666666" points="86.62,-425.25 86.62,-425.25 202,-425.25 202,-425.25 86.62,-425.25"/>
<polygon fill="none" stroke="#666666" points="71.75,-316.5 71.75,-636.75 202,-636.75 202,-316.5 71.75,-316.5"/>
</a>
</g>
</g>
<!-- Node2&#45;&gt;Node3 -->
<g id="edge3_Node000003_Node000002" class="edge">
<title>Node2&#45;&gt;Node3</title>
<g id="a_edge3_Node000003_Node000002"><a xlink:title=" ">
<path fill="none" stroke="#63b8ff" d="M84.73,-841.89C87.97,-804.28 93.73,-742.78 100.88,-690 103.22,-672.68 105.91,-654.6 108.74,-636.61"/>
<polygon fill="none" stroke="#63b8ff" points="81.26,-841.45 83.9,-851.71 88.23,-842.04 81.26,-841.45"/>
</a>
</g>
</g>
<!-- Node4 -->
<g id="Node000004" class="node">
<title>Node4</title>
<g id="a_Node000004"><a xlink:href="class_manager_1_1_game_input_manager.html" target="_top" xlink:title="Manages player input for movement and camera control using the Input System. Handles input locking an...">
<polygon fill="white" stroke="none" points="273.62,-816 110.12,-816 110.12,-690 273.62,-690 273.62,-816"/>
<text xml:space="preserve" text-anchor="start" x="129.25" y="-802.5" font-family="Helvetica,sans-Serif" font-size="10.00">Manager.GameInputManager</text>
<text xml:space="preserve" text-anchor="start" x="114.12" y="-787.25" font-family="Helvetica,sans-Serif" font-size="10.00">+</text>
<text xml:space="preserve" text-anchor="start" x="124.12" y="-787.25" font-family="Helvetica,sans-Serif" font-size="10.00">Instance</text>
<text xml:space="preserve" text-anchor="start" x="115.62" y="-772" font-family="Helvetica,sans-Serif" font-size="10.00">&#45;</text>
<text xml:space="preserve" text-anchor="start" x="124.12" y="-772" font-family="Helvetica,sans-Serif" font-size="10.00">_inputSystemActions</text>
<text xml:space="preserve" text-anchor="start" x="114.12" y="-756.75" font-family="Helvetica,sans-Serif" font-size="10.00">+</text>
<text xml:space="preserve" text-anchor="start" x="124.12" y="-756.75" font-family="Helvetica,sans-Serif" font-size="10.00">GetMovementVectorNormalized()</text>
<text xml:space="preserve" text-anchor="start" x="114.12" y="-741.5" font-family="Helvetica,sans-Serif" font-size="10.00">+</text>
<text xml:space="preserve" text-anchor="start" x="124.12" y="-741.5" font-family="Helvetica,sans-Serif" font-size="10.00">GetLookDelta()</text>
<text xml:space="preserve" text-anchor="start" x="114.12" y="-726.25" font-family="Helvetica,sans-Serif" font-size="10.00">+</text>
<text xml:space="preserve" text-anchor="start" x="124.12" y="-726.25" font-family="Helvetica,sans-Serif" font-size="10.00">MouseLocked()</text>
<text xml:space="preserve" text-anchor="start" x="115.62" y="-711" font-family="Helvetica,sans-Serif" font-size="10.00">&#45;</text>
<text xml:space="preserve" text-anchor="start" x="124.12" y="-711" font-family="Helvetica,sans-Serif" font-size="10.00">Awake()</text>
<text xml:space="preserve" text-anchor="start" x="115.62" y="-695.75" font-family="Helvetica,sans-Serif" font-size="10.00">&#45;</text>
<text xml:space="preserve" text-anchor="start" x="124.12" y="-695.75" font-family="Helvetica,sans-Serif" font-size="10.00">OnDestroy()</text>
<polygon fill="#666666" stroke="#666666" points="110.12,-798.75 110.12,-798.75 273.62,-798.75 273.62,-798.75 110.12,-798.75"/>
<polygon fill="#666666" stroke="#666666" points="110.12,-768.25 110.12,-768.25 122.12,-768.25 122.12,-768.25 110.12,-768.25"/>
<polygon fill="#666666" stroke="#666666" points="122.12,-768.25 122.12,-768.25 273.62,-768.25 273.62,-768.25 122.12,-768.25"/>
<polygon fill="none" stroke="#666666" points="110.12,-690 110.12,-816 273.62,-816 273.62,-690 110.12,-690"/>
</a>
</g>
</g>
<!-- Node2&#45;&gt;Node4 -->
<g id="edge5_Node000004_Node000002" class="edge">
<title>Node2&#45;&gt;Node4</title>
<g id="a_edge5_Node000004_Node000002"><a xlink:title=" ">
<path fill="none" stroke="#63b8ff" d="M110.68,-844.7C118.63,-835.82 127.53,-825.87 136.45,-815.91"/>
<polygon fill="none" stroke="#63b8ff" points="108.16,-842.27 104.09,-852.06 113.37,-846.94 108.16,-842.27"/>
</a>
</g>
</g>
<!-- Node3&#45;&gt;Node1 -->
<g id="edge2_Node000001_Node000003" class="edge">
<title>Node3&#45;&gt;Node1</title>
<g id="a_edge2_Node000001_Node000003"><a xlink:title=" ">
<path fill="none" stroke="#63b8ff" d="M101.19,-316.68C98.11,-302.92 94.99,-289.06 91.94,-275.45"/>
<polygon fill="none" stroke="#63b8ff" points="91.98,-275.62 86.76,-270.64 89.35,-263.91 94.56,-268.89 91.98,-275.62"/>
</a>
</g>
<text xml:space="preserve" text-anchor="start" x="99.07" y="-286" font-family="Helvetica,sans-Serif" font-size="10.00" fill="grey">&#45;_firstPersonPlayerController</text>
</g>
<!-- Node4&#45;&gt;Node3 -->
<g id="edge4_Node000003_Node000004" class="edge">
<title>Node4&#45;&gt;Node3</title>
<g id="a_edge4_Node000003_Node000004"><a xlink:title=" ">
<path fill="none" stroke="#63b8ff" d="M179.46,-690.08C176.94,-677.49 174.17,-663.67 171.29,-649.32"/>
<polygon fill="none" stroke="#63b8ff" points="171.27,-649.23 166.17,-644.14 168.92,-637.47 174.02,-642.56 171.27,-649.23"/>
</a>
</g>
<text xml:space="preserve" text-anchor="start" x="178.62" y="-659.5" font-family="Helvetica,sans-Serif" font-size="10.00" fill="grey">&#45;gameInput</text>
</g>
</g>
</svg>
