<?xml version="1.0" encoding="UTF-8" standalone="no"?>
<!DOCTYPE svg PUBLIC "-//W3C//DTD SVG 1.1//EN"
 "http://www.w3.org/Graphics/SVG/1.1/DTD/svg11.dtd">
<!-- Generated by graphviz version 13.1.2 (20250808.2320)
 -->
<!-- Title: Manager.QuestionManager Pages: 1 -->
<svg width="138pt" height="220pt"
 viewBox="0.00 0.00 138.00 220.00" xmlns="http://www.w3.org/2000/svg" xmlns:xlink="http://www.w3.org/1999/xlink">
<g id="graph0" class="graph" transform="scale(1 1) rotate(0) translate(4 215.75)">
<title>Manager.QuestionManager</title>
<!-- Node1 -->
<g id="Node000001" class="node">
<title>Node1</title>
<g id="a_Node000001"><a xlink:title="Manages a list of questions, selects a random question, and checks player answers.">
<polygon fill="#999999" stroke="none" points="129.75,-126 0,-126 0,0 129.75,0 129.75,-126"/>
<text xml:space="preserve" text-anchor="start" x="6.75" y="-112.5" font-family="Helvetica,sans-Serif" font-size="10.00">Manager.QuestionManager</text>
<text xml:space="preserve" text-anchor="start" x="4" y="-97.25" font-family="Helvetica,sans-Serif" font-size="10.00">+</text>
<text xml:space="preserve" text-anchor="start" x="14" y="-97.25" font-family="Helvetica,sans-Serif" font-size="10.00">questions</text>
<text xml:space="preserve" text-anchor="start" x="5.5" y="-82" font-family="Helvetica,sans-Serif" font-size="10.00">&#45;</text>
<text xml:space="preserve" text-anchor="start" x="14" y="-82" font-family="Helvetica,sans-Serif" font-size="10.00">_currentQuestion</text>
<text xml:space="preserve" text-anchor="start" x="4" y="-66.75" font-family="Helvetica,sans-Serif" font-size="10.00">+</text>
<text xml:space="preserve" text-anchor="start" x="14" y="-66.75" font-family="Helvetica,sans-Serif" font-size="10.00">Start()</text>
<text xml:space="preserve" text-anchor="start" x="4" y="-51.5" font-family="Helvetica,sans-Serif" font-size="10.00">+</text>
<text xml:space="preserve" text-anchor="start" x="14" y="-51.5" font-family="Helvetica,sans-Serif" font-size="10.00">LoadQuestions()</text>
<text xml:space="preserve" text-anchor="start" x="4" y="-36.25" font-family="Helvetica,sans-Serif" font-size="10.00">+</text>
<text xml:space="preserve" text-anchor="start" x="14" y="-36.25" font-family="Helvetica,sans-Serif" font-size="10.00">AskRandomQuestion()</text>
<text xml:space="preserve" text-anchor="start" x="4" y="-21" font-family="Helvetica,sans-Serif" font-size="10.00">+</text>
<text xml:space="preserve" text-anchor="start" x="14" y="-21" font-family="Helvetica,sans-Serif" font-size="10.00">CheckAnswer()</text>
<text xml:space="preserve" text-anchor="start" x="4" y="-5.75" font-family="Helvetica,sans-Serif" font-size="10.00">+</text>
<text xml:space="preserve" text-anchor="start" x="14" y="-5.75" font-family="Helvetica,sans-Serif" font-size="10.00">GetCurrentQuestionText()</text>
<polygon fill="#666666" stroke="#666666" points="0,-108.75 0,-108.75 129.75,-108.75 129.75,-108.75 0,-108.75"/>
<polygon fill="#666666" stroke="#666666" points="0,-78.25 0,-78.25 12,-78.25 12,-78.25 0,-78.25"/>
<polygon fill="#666666" stroke="#666666" points="12,-78.25 12,-78.25 129.75,-78.25 129.75,-78.25 12,-78.25"/>
<polygon fill="none" stroke="#666666" points="0,0 0,-126 129.75,-126 129.75,0 0,0"/>
</a>
</g>
</g>
<!-- Node2 -->
<g id="Node000002" class="node">
<title>Node2</title>
<g id="a_Node000002"><a xlink:title=" ">
<polygon fill="white" stroke="none" points="102.62,-211.75 27.12,-211.75 27.12,-162 102.62,-162 102.62,-211.75"/>
<text xml:space="preserve" text-anchor="start" x="31.12" y="-198.25" font-family="Helvetica,sans-Serif" font-size="10.00">MonoBehaviour</text>
<text xml:space="preserve" text-anchor="start" x="63.38" y="-183" font-family="Helvetica,sans-Serif" font-size="10.00"> </text>
<text xml:space="preserve" text-anchor="start" x="63.38" y="-167.75" font-family="Helvetica,sans-Serif" font-size="10.00"> </text>
<polygon fill="#666666" stroke="#666666" points="27.12,-194.5 27.12,-194.5 102.62,-194.5 102.62,-194.5 27.12,-194.5"/>
<polygon fill="#666666" stroke="#666666" points="27.12,-179.25 27.12,-179.25 102.62,-179.25 102.62,-179.25 27.12,-179.25"/>
<polygon fill="none" stroke="#666666" points="27.12,-162 27.12,-211.75 102.62,-211.75 102.62,-162 27.12,-162"/>
</a>
</g>
</g>
<!-- Node2&#45;&gt;Node1 -->
<g id="edge1_Node000001_Node000002" class="edge">
<title>Node2&#45;&gt;Node1</title>
<g id="a_edge1_Node000001_Node000002"><a xlink:title=" ">
<path fill="none" stroke="#63b8ff" d="M64.88,-150.83C64.88,-143.01 64.88,-134.48 64.88,-125.92"/>
<polygon fill="none" stroke="#63b8ff" points="61.38,-150.57 64.88,-160.57 68.38,-150.57 61.38,-150.57"/>
</a>
</g>
</g>
</g>
</svg>
