<?xml version="1.0" encoding="UTF-8" standalone="no"?>
<!DOCTYPE svg PUBLIC "-//W3C//DTD SVG 1.1//EN"
 "http://www.w3.org/Graphics/SVG/1.1/DTD/svg11.dtd">
<!-- Generated by graphviz version 13.1.2 (20250808.2320)
 -->
<!-- Title: Stats.Stats Pages: 1 -->
<svg width="141pt" height="296pt"
 viewBox="0.00 0.00 141.00 296.00" xmlns="http://www.w3.org/2000/svg" xmlns:xlink="http://www.w3.org/1999/xlink">
<g id="graph0" class="graph" transform="scale(1 1) rotate(0) translate(4 292)">
<title>Stats.Stats</title>
<!-- Node1 -->
<g id="Node000001" class="node">
<title>Node1</title>
<g id="a_Node000001"><a xlink:title="The Stats&#45;Class is used to keep track of an objects Health, Damage and Speed (and possibly more in th...">
<polygon fill="#999999" stroke="none" points="132.75,-202.25 0,-202.25 0,0 132.75,0 132.75,-202.25"/>
<text xml:space="preserve" text-anchor="start" x="41.62" y="-188.75" font-family="Helvetica,sans-Serif" font-size="10.00">Stats.Stats</text>
<text xml:space="preserve" text-anchor="start" x="5.5" y="-173.5" font-family="Helvetica,sans-Serif" font-size="10.00">&#45;</text>
<text xml:space="preserve" text-anchor="start" x="14" y="-173.5" font-family="Helvetica,sans-Serif" font-size="10.00">maxStats</text>
<text xml:space="preserve" text-anchor="start" x="5.5" y="-158.25" font-family="Helvetica,sans-Serif" font-size="10.00">&#45;</text>
<text xml:space="preserve" text-anchor="start" x="14" y="-158.25" font-family="Helvetica,sans-Serif" font-size="10.00">curStats</text>
<text xml:space="preserve" text-anchor="start" x="4" y="-143" font-family="Helvetica,sans-Serif" font-size="10.00">+</text>
<text xml:space="preserve" text-anchor="start" x="14" y="-143" font-family="Helvetica,sans-Serif" font-size="10.00">GetMaxStatsList()</text>
<text xml:space="preserve" text-anchor="start" x="4" y="-127.75" font-family="Helvetica,sans-Serif" font-size="10.00">+</text>
<text xml:space="preserve" text-anchor="start" x="14" y="-127.75" font-family="Helvetica,sans-Serif" font-size="10.00">GetCurStatsList()</text>
<text xml:space="preserve" text-anchor="start" x="4" y="-112.5" font-family="Helvetica,sans-Serif" font-size="10.00">+</text>
<text xml:space="preserve" text-anchor="start" x="14" y="-112.5" font-family="Helvetica,sans-Serif" font-size="10.00">SetStats()</text>
<text xml:space="preserve" text-anchor="start" x="4" y="-97.25" font-family="Helvetica,sans-Serif" font-size="10.00">+</text>
<text xml:space="preserve" text-anchor="start" x="14" y="-97.25" font-family="Helvetica,sans-Serif" font-size="10.00">GetMaxStats()</text>
<text xml:space="preserve" text-anchor="start" x="4" y="-82" font-family="Helvetica,sans-Serif" font-size="10.00">+</text>
<text xml:space="preserve" text-anchor="start" x="14" y="-82" font-family="Helvetica,sans-Serif" font-size="10.00">GetCurStats()</text>
<text xml:space="preserve" text-anchor="start" x="4" y="-66.75" font-family="Helvetica,sans-Serif" font-size="10.00">+</text>
<text xml:space="preserve" text-anchor="start" x="14" y="-66.75" font-family="Helvetica,sans-Serif" font-size="10.00">IncreaseMaxStat()</text>
<text xml:space="preserve" text-anchor="start" x="4" y="-51.5" font-family="Helvetica,sans-Serif" font-size="10.00">+</text>
<text xml:space="preserve" text-anchor="start" x="14" y="-51.5" font-family="Helvetica,sans-Serif" font-size="10.00">DecreaseMaxStat()</text>
<text xml:space="preserve" text-anchor="start" x="4" y="-36.25" font-family="Helvetica,sans-Serif" font-size="10.00">+</text>
<text xml:space="preserve" text-anchor="start" x="14" y="-36.25" font-family="Helvetica,sans-Serif" font-size="10.00">IncreaseCurStat()</text>
<text xml:space="preserve" text-anchor="start" x="4" y="-21" font-family="Helvetica,sans-Serif" font-size="10.00">+</text>
<text xml:space="preserve" text-anchor="start" x="14" y="-21" font-family="Helvetica,sans-Serif" font-size="10.00">DecreaseCurStat()</text>
<text xml:space="preserve" text-anchor="start" x="4" y="-5.75" font-family="Helvetica,sans-Serif" font-size="10.00">+</text>
<text xml:space="preserve" text-anchor="start" x="14" y="-5.75" font-family="Helvetica,sans-Serif" font-size="10.00">AddToMaxPreserveRatio()</text>
<polygon fill="#666666" stroke="#666666" points="0,-185 0,-185 132.75,-185 132.75,-185 0,-185"/>
<polygon fill="#666666" stroke="#666666" points="0,-154.5 0,-154.5 12,-154.5 12,-154.5 0,-154.5"/>
<polygon fill="#666666" stroke="#666666" points="12,-154.5 12,-154.5 132.75,-154.5 132.75,-154.5 12,-154.5"/>
<polygon fill="none" stroke="#666666" points="0,0 0,-202.25 132.75,-202.25 132.75,0 0,0"/>
</a>
</g>
</g>
<!-- Node2 -->
<g id="Node000002" class="node">
<title>Node2</title>
<g id="a_Node000002"><a xlink:title=" ">
<polygon fill="white" stroke="none" points="104.12,-288 28.62,-288 28.62,-238.25 104.12,-238.25 104.12,-288"/>
<text xml:space="preserve" text-anchor="start" x="32.62" y="-274.5" font-family="Helvetica,sans-Serif" font-size="10.00">MonoBehaviour</text>
<text xml:space="preserve" text-anchor="start" x="64.88" y="-259.25" font-family="Helvetica,sans-Serif" font-size="10.00"> </text>
<text xml:space="preserve" text-anchor="start" x="64.88" y="-244" font-family="Helvetica,sans-Serif" font-size="10.00"> </text>
<polygon fill="#666666" stroke="#666666" points="28.62,-270.75 28.62,-270.75 104.12,-270.75 104.12,-270.75 28.62,-270.75"/>
<polygon fill="#666666" stroke="#666666" points="28.62,-255.5 28.62,-255.5 104.12,-255.5 104.12,-255.5 28.62,-255.5"/>
<polygon fill="none" stroke="#666666" points="28.62,-238.25 28.62,-288 104.12,-288 104.12,-238.25 28.62,-238.25"/>
</a>
</g>
</g>
<!-- Node2&#45;&gt;Node1 -->
<g id="edge1_Node000001_Node000002" class="edge">
<title>Node2&#45;&gt;Node1</title>
<g id="a_edge1_Node000001_Node000002"><a xlink:title=" ">
<path fill="none" stroke="#63b8ff" d="M66.38,-227.22C66.38,-219.56 66.38,-211.08 66.38,-202.24"/>
<polygon fill="none" stroke="#63b8ff" points="62.88,-227 66.38,-237 69.88,-227 62.88,-227"/>
</a>
</g>
</g>
</g>
</svg>
