<?xml version="1.0" encoding="UTF-8" standalone="no"?>
<!DOCTYPE svg PUBLIC "-//W3C//DTD SVG 1.1//EN"
 "http://www.w3.org/Graphics/SVG/1.1/DTD/svg11.dtd">
<!-- Generated by graphviz version 13.1.2 (20250808.2320)
 -->
<!-- Title: Dungeon.Circle Pages: 1 -->
<svg width="89pt" height="237pt"
 viewBox="0.00 0.00 89.00 237.00" xmlns="http://www.w3.org/2000/svg" xmlns:xlink="http://www.w3.org/1999/xlink">
<g id="graph0" class="graph" transform="scale(1 1) rotate(0) translate(4 233)">
<title>Dungeon.Circle</title>
<!-- Node1 -->
<g id="Node000001" class="node">
<title>Node1</title>
<g id="a_Node000001"><a xlink:title="Circle with a center point and radius.">
<polygon fill="#999999" stroke="none" points="77.12,-49.75 1.62,-49.75 1.62,0 77.12,0 77.12,-49.75"/>
<text xml:space="preserve" text-anchor="start" x="5.62" y="-36.25" font-family="Helvetica,sans-Serif" font-size="10.00">Dungeon.Circle</text>
<text xml:space="preserve" text-anchor="start" x="12.12" y="-21" font-family="Helvetica,sans-Serif" font-size="10.00">+</text>
<text xml:space="preserve" text-anchor="start" x="28.62" y="-21" font-family="Helvetica,sans-Serif" font-size="10.00">Radius</text>
<text xml:space="preserve" text-anchor="start" x="12.12" y="-5.75" font-family="Helvetica,sans-Serif" font-size="10.00">+</text>
<text xml:space="preserve" text-anchor="start" x="28.62" y="-5.75" font-family="Helvetica,sans-Serif" font-size="10.00">Circle()</text>
<polygon fill="#666666" stroke="#666666" points="1.62,-32.5 1.62,-32.5 77.12,-32.5 77.12,-32.5 1.62,-32.5"/>
<polygon fill="#666666" stroke="#666666" points="1.62,-17.25 1.62,-17.25 26.62,-17.25 26.62,-17.25 1.62,-17.25"/>
<polygon fill="#666666" stroke="#666666" points="26.62,-17.25 26.62,-17.25 77.12,-17.25 77.12,-17.25 26.62,-17.25"/>
<polygon fill="none" stroke="#666666" points="1.62,0 1.62,-49.75 77.12,-49.75 77.12,0 1.62,0"/>
</a>
</g>
</g>
<!-- Node2 -->
<g id="Node000002" class="node">
<title>Node2</title>
<g id="a_Node000002"><a xlink:href="class_dungeon_1_1_point.html" target="_top" xlink:title="2D point with X and Y values plus small helpers.">
<polygon fill="white" stroke="none" points="78.75,-229 0,-229 0,-103 78.75,-103 78.75,-229"/>
<text xml:space="preserve" text-anchor="start" x="7.12" y="-215.5" font-family="Helvetica,sans-Serif" font-size="10.00">Dungeon.Point</text>
<text xml:space="preserve" text-anchor="start" x="4" y="-200.25" font-family="Helvetica,sans-Serif" font-size="10.00">+</text>
<text xml:space="preserve" text-anchor="start" x="14" y="-200.25" font-family="Helvetica,sans-Serif" font-size="10.00">X</text>
<text xml:space="preserve" text-anchor="start" x="4" y="-185" font-family="Helvetica,sans-Serif" font-size="10.00">+</text>
<text xml:space="preserve" text-anchor="start" x="14" y="-185" font-family="Helvetica,sans-Serif" font-size="10.00">Y</text>
<text xml:space="preserve" text-anchor="start" x="4" y="-169.75" font-family="Helvetica,sans-Serif" font-size="10.00">+</text>
<text xml:space="preserve" text-anchor="start" x="14" y="-169.75" font-family="Helvetica,sans-Serif" font-size="10.00">Point()</text>
<text xml:space="preserve" text-anchor="start" x="4" y="-154.5" font-family="Helvetica,sans-Serif" font-size="10.00">+</text>
<text xml:space="preserve" text-anchor="start" x="14" y="-154.5" font-family="Helvetica,sans-Serif" font-size="10.00">ToVector3()</text>
<text xml:space="preserve" text-anchor="start" x="4" y="-139.25" font-family="Helvetica,sans-Serif" font-size="10.00">+</text>
<text xml:space="preserve" text-anchor="start" x="14" y="-139.25" font-family="Helvetica,sans-Serif" font-size="10.00">PrintPoint()</text>
<text xml:space="preserve" text-anchor="start" x="4" y="-124" font-family="Helvetica,sans-Serif" font-size="10.00">+</text>
<text xml:space="preserve" text-anchor="start" x="14" y="-124" font-family="Helvetica,sans-Serif" font-size="10.00">Equals()</text>
<text xml:space="preserve" text-anchor="start" x="4" y="-108.75" font-family="Helvetica,sans-Serif" font-size="10.00">+</text>
<text xml:space="preserve" text-anchor="start" x="14" y="-108.75" font-family="Helvetica,sans-Serif" font-size="10.00">GetDistance()</text>
<polygon fill="#666666" stroke="#666666" points="0,-211.75 0,-211.75 78.75,-211.75 78.75,-211.75 0,-211.75"/>
<polygon fill="#666666" stroke="#666666" points="0,-181.25 0,-181.25 12,-181.25 12,-181.25 0,-181.25"/>
<polygon fill="#666666" stroke="#666666" points="12,-181.25 12,-181.25 78.75,-181.25 78.75,-181.25 12,-181.25"/>
<polygon fill="none" stroke="#666666" points="0,-103 0,-229 78.75,-229 78.75,-103 0,-103"/>
</a>
</g>
</g>
<!-- Node2&#45;&gt;Node1 -->
<g id="edge1_Node000001_Node000002" class="edge">
<title>Node2&#45;&gt;Node1</title>
<g id="a_edge1_Node000001_Node000002"><a xlink:title=" ">
<path fill="none" stroke="#63b8ff" d="M39.38,-103.17C39.38,-89.2 39.38,-74.82 39.38,-62.3"/>
<polygon fill="none" stroke="#63b8ff" points="39.38,-62.46 35.38,-56.46 39.38,-50.46 43.38,-56.46 39.38,-62.46"/>
</a>
</g>
<text xml:space="preserve" text-anchor="start" x="42.38" y="-72.5" font-family="Helvetica,sans-Serif" font-size="10.00" fill="grey">+Center</text>
</g>
</g>
</svg>
