<?xml version="1.0" encoding="UTF-8" standalone="no"?>
<!DOCTYPE svg PUBLIC "-//W3C//DTD SVG 1.1//EN"
 "http://www.w3.org/Graphics/SVG/1.1/DTD/svg11.dtd">
<!-- Generated by graphviz version 13.1.2 (20250808.2320)
 -->
<!-- Title: Controller.VignetteController Pages: 1 -->
<svg width="138pt" height="250pt"
 viewBox="0.00 0.00 138.00 250.00" xmlns="http://www.w3.org/2000/svg" xmlns:xlink="http://www.w3.org/1999/xlink">
<g id="graph0" class="graph" transform="scale(1 1) rotate(0) translate(4 246.25)">
<title>Controller.VignetteController</title>
<!-- Node1 -->
<g id="Node000001" class="node">
<title>Node1</title>
<g id="a_Node000001"><a xlink:title="Controller for managing the health vignette behaviour depending on health state.">
<polygon fill="#999999" stroke="none" points="130.25,-156.5 0,-156.5 0,0 130.25,0 130.25,-156.5"/>
<text xml:space="preserve" text-anchor="start" x="4" y="-143" font-family="Helvetica,sans-Serif" font-size="10.00">Controller.VignetteController</text>
<text xml:space="preserve" text-anchor="start" x="15.19" y="-127.75" font-family="Helvetica,sans-Serif" font-size="10.00">+</text>
<text xml:space="preserve" text-anchor="start" x="36.38" y="-127.75" font-family="Helvetica,sans-Serif" font-size="10.00">fullHealthColor</text>
<text xml:space="preserve" text-anchor="start" x="15.19" y="-112.5" font-family="Helvetica,sans-Serif" font-size="10.00">+</text>
<text xml:space="preserve" text-anchor="start" x="36.38" y="-112.5" font-family="Helvetica,sans-Serif" font-size="10.00">halfHealthColor</text>
<text xml:space="preserve" text-anchor="start" x="15.19" y="-97.25" font-family="Helvetica,sans-Serif" font-size="10.00">+</text>
<text xml:space="preserve" text-anchor="start" x="36.38" y="-97.25" font-family="Helvetica,sans-Serif" font-size="10.00">lowHealthColor</text>
<text xml:space="preserve" text-anchor="start" x="16.69" y="-82" font-family="Helvetica,sans-Serif" font-size="10.00">&#45;</text>
<text xml:space="preserve" text-anchor="start" x="36.38" y="-82" font-family="Helvetica,sans-Serif" font-size="10.00">lerpSpeed</text>
<text xml:space="preserve" text-anchor="start" x="16.69" y="-66.75" font-family="Helvetica,sans-Serif" font-size="10.00">&#45;</text>
<text xml:space="preserve" text-anchor="start" x="36.38" y="-66.75" font-family="Helvetica,sans-Serif" font-size="10.00">_volume</text>
<text xml:space="preserve" text-anchor="start" x="16.69" y="-51.5" font-family="Helvetica,sans-Serif" font-size="10.00">&#45;</text>
<text xml:space="preserve" text-anchor="start" x="36.38" y="-51.5" font-family="Helvetica,sans-Serif" font-size="10.00">_playerStats</text>
<text xml:space="preserve" text-anchor="start" x="16.69" y="-36.25" font-family="Helvetica,sans-Serif" font-size="10.00">&#45;</text>
<text xml:space="preserve" text-anchor="start" x="36.38" y="-36.25" font-family="Helvetica,sans-Serif" font-size="10.00">_vignette</text>
<text xml:space="preserve" text-anchor="start" x="16.69" y="-21" font-family="Helvetica,sans-Serif" font-size="10.00">&#45;</text>
<text xml:space="preserve" text-anchor="start" x="36.38" y="-21" font-family="Helvetica,sans-Serif" font-size="10.00">Start()</text>
<text xml:space="preserve" text-anchor="start" x="16.69" y="-5.75" font-family="Helvetica,sans-Serif" font-size="10.00">&#45;</text>
<text xml:space="preserve" text-anchor="start" x="36.38" y="-5.75" font-family="Helvetica,sans-Serif" font-size="10.00">Update()</text>
<polygon fill="#666666" stroke="#666666" points="0,-139.25 0,-139.25 130.25,-139.25 130.25,-139.25 0,-139.25"/>
<polygon fill="#666666" stroke="#666666" points="0,-32.5 0,-32.5 34.38,-32.5 34.38,-32.5 0,-32.5"/>
<polygon fill="#666666" stroke="#666666" points="34.38,-32.5 34.38,-32.5 130.25,-32.5 130.25,-32.5 34.38,-32.5"/>
<polygon fill="none" stroke="#666666" points="0,0 0,-156.5 130.25,-156.5 130.25,0 0,0"/>
</a>
</g>
</g>
<!-- Node2 -->
<g id="Node000002" class="node">
<title>Node2</title>
<g id="a_Node000002"><a xlink:title=" ">
<polygon fill="white" stroke="none" points="102.88,-242.25 27.38,-242.25 27.38,-192.5 102.88,-192.5 102.88,-242.25"/>
<text xml:space="preserve" text-anchor="start" x="31.38" y="-228.75" font-family="Helvetica,sans-Serif" font-size="10.00">MonoBehaviour</text>
<text xml:space="preserve" text-anchor="start" x="63.62" y="-213.5" font-family="Helvetica,sans-Serif" font-size="10.00"> </text>
<text xml:space="preserve" text-anchor="start" x="63.62" y="-198.25" font-family="Helvetica,sans-Serif" font-size="10.00"> </text>
<polygon fill="#666666" stroke="#666666" points="27.38,-225 27.38,-225 102.88,-225 102.88,-225 27.38,-225"/>
<polygon fill="#666666" stroke="#666666" points="27.38,-209.75 27.38,-209.75 102.88,-209.75 102.88,-209.75 27.38,-209.75"/>
<polygon fill="none" stroke="#666666" points="27.38,-192.5 27.38,-242.25 102.88,-242.25 102.88,-192.5 27.38,-192.5"/>
</a>
</g>
</g>
<!-- Node2&#45;&gt;Node1 -->
<g id="edge1_Node000001_Node000002" class="edge">
<title>Node2&#45;&gt;Node1</title>
<g id="a_edge1_Node000001_Node000002"><a xlink:title=" ">
<path fill="none" stroke="#63b8ff" d="M65.12,-181.36C65.12,-173.63 65.12,-165.14 65.12,-156.47"/>
<polygon fill="none" stroke="#63b8ff" points="61.63,-181.29 65.13,-191.29 68.63,-181.29 61.63,-181.29"/>
</a>
</g>
</g>
</g>
</svg>
