<?xml version="1.0" encoding="UTF-8" standalone="no"?>
<!DOCTYPE svg PUBLIC "-//W3C//DTD SVG 1.1//EN"
 "http://www.w3.org/Graphics/SVG/1.1/DTD/svg11.dtd">
<!-- Generated by graphviz version 13.1.2 (20250808.2320)
 -->
<!-- Title: Items.Equipment Pages: 1 -->
<svg width="97pt" height="321pt"
 viewBox="0.00 0.00 97.00 321.00" xmlns="http://www.w3.org/2000/svg" xmlns:xlink="http://www.w3.org/1999/xlink">
<g id="graph0" class="graph" transform="scale(1 1) rotate(0) translate(4 316.75)">
<title>Items.Equipment</title>
<!-- Node1 -->
<g id="Node000001" class="node">
<title>Node1</title>
<g id="a_Node000001"><a xlink:title="The Equipment&#45;Class is used for making items usable for wearing by the player (enemies should work to...">
<polygon fill="#999999" stroke="none" points="85.75,-80.25 3.5,-80.25 3.5,0 85.75,0 85.75,-80.25"/>
<text xml:space="preserve" text-anchor="start" x="7.5" y="-66.75" font-family="Helvetica,sans-Serif" font-size="10.00">Items.Equipment</text>
<text xml:space="preserve" text-anchor="start" x="8.75" y="-51.5" font-family="Helvetica,sans-Serif" font-size="10.00">+</text>
<text xml:space="preserve" text-anchor="start" x="20" y="-51.5" font-family="Helvetica,sans-Serif" font-size="10.00">equipSlot</text>
<text xml:space="preserve" text-anchor="start" x="8.75" y="-36.25" font-family="Helvetica,sans-Serif" font-size="10.00">+</text>
<text xml:space="preserve" text-anchor="start" x="20" y="-36.25" font-family="Helvetica,sans-Serif" font-size="10.00">statIncreases</text>
<text xml:space="preserve" text-anchor="start" x="8.75" y="-21" font-family="Helvetica,sans-Serif" font-size="10.00">+</text>
<text xml:space="preserve" text-anchor="start" x="20" y="-21" font-family="Helvetica,sans-Serif" font-size="10.00">toolType</text>
<text xml:space="preserve" text-anchor="start" x="8.75" y="-5.75" font-family="Helvetica,sans-Serif" font-size="10.00">+</text>
<text xml:space="preserve" text-anchor="start" x="20" y="-5.75" font-family="Helvetica,sans-Serif" font-size="10.00">Use()</text>
<polygon fill="#666666" stroke="#666666" points="3.5,-63 3.5,-63 85.75,-63 85.75,-63 3.5,-63"/>
<polygon fill="#666666" stroke="#666666" points="3.5,-17.25 3.5,-17.25 18,-17.25 18,-17.25 3.5,-17.25"/>
<polygon fill="#666666" stroke="#666666" points="18,-17.25 18,-17.25 85.75,-17.25 85.75,-17.25 18,-17.25"/>
<polygon fill="none" stroke="#666666" points="3.5,0 3.5,-80.25 85.75,-80.25 85.75,0 3.5,0"/>
</a>
</g>
</g>
<!-- Node2 -->
<g id="Node000002" class="node">
<title>Node2</title>
<g id="a_Node000002"><a xlink:href="class_items_1_1_item.html" target="_top" xlink:title="Abstract Data&#45;Class, which shares all commonalities between different types of Items.">
<polygon fill="white" stroke="none" points="89.25,-227 0,-227 0,-116.25 89.25,-116.25 89.25,-227"/>
<text xml:space="preserve" text-anchor="start" x="21" y="-213.5" font-family="Helvetica,sans-Serif" font-size="10.00">Items.Item</text>
<text xml:space="preserve" text-anchor="start" x="4" y="-198.25" font-family="Helvetica,sans-Serif" font-size="10.00">+</text>
<text xml:space="preserve" text-anchor="start" x="14" y="-198.25" font-family="Helvetica,sans-Serif" font-size="10.00">_name</text>
<text xml:space="preserve" text-anchor="start" x="4" y="-183" font-family="Helvetica,sans-Serif" font-size="10.00">+</text>
<text xml:space="preserve" text-anchor="start" x="14" y="-183" font-family="Helvetica,sans-Serif" font-size="10.00">_model</text>
<text xml:space="preserve" text-anchor="start" x="4" y="-167.75" font-family="Helvetica,sans-Serif" font-size="10.00">+</text>
<text xml:space="preserve" text-anchor="start" x="14" y="-167.75" font-family="Helvetica,sans-Serif" font-size="10.00">rarity</text>
<text xml:space="preserve" text-anchor="start" x="4" y="-152.5" font-family="Helvetica,sans-Serif" font-size="10.00">+</text>
<text xml:space="preserve" text-anchor="start" x="14" y="-152.5" font-family="Helvetica,sans-Serif" font-size="10.00">item_icon</text>
<text xml:space="preserve" text-anchor="start" x="4" y="-137.25" font-family="Helvetica,sans-Serif" font-size="10.00">+</text>
<text xml:space="preserve" text-anchor="start" x="14" y="-137.25" font-family="Helvetica,sans-Serif" font-size="10.00">GetRarityColor()</text>
<text xml:space="preserve" text-anchor="start" x="4" y="-122" font-family="Helvetica,sans-Serif" font-size="10.00">+</text>
<text xml:space="preserve" text-anchor="start" x="14" y="-122" font-family="Helvetica,sans-Serif" font-size="10.00">Use()</text>
<polygon fill="#666666" stroke="#666666" points="0,-209.75 0,-209.75 89.25,-209.75 89.25,-209.75 0,-209.75"/>
<polygon fill="#666666" stroke="#666666" points="0,-148.75 0,-148.75 12,-148.75 12,-148.75 0,-148.75"/>
<polygon fill="#666666" stroke="#666666" points="12,-148.75 12,-148.75 89.25,-148.75 89.25,-148.75 12,-148.75"/>
<polygon fill="none" stroke="#666666" points="0,-116.25 0,-227 89.25,-227 89.25,-116.25 0,-116.25"/>
</a>
</g>
</g>
<!-- Node2&#45;&gt;Node1 -->
<g id="edge1_Node000001_Node000002" class="edge">
<title>Node2&#45;&gt;Node1</title>
<g id="a_edge1_Node000001_Node000002"><a xlink:title=" ">
<path fill="none" stroke="#63b8ff" d="M44.62,-105.21C44.62,-96.63 44.62,-88.06 44.62,-80.11"/>
<polygon fill="none" stroke="#63b8ff" points="41.13,-104.94 44.63,-114.94 48.13,-104.94 41.13,-104.94"/>
</a>
</g>
</g>
<!-- Node3 -->
<g id="Node000003" class="node">
<title>Node3</title>
<g id="a_Node000003"><a xlink:title=" ">
<polygon fill="white" stroke="none" points="84.62,-312.75 4.62,-312.75 4.62,-263 84.62,-263 84.62,-312.75"/>
<text xml:space="preserve" text-anchor="start" x="8.62" y="-299.25" font-family="Helvetica,sans-Serif" font-size="10.00">ScriptableObject</text>
<text xml:space="preserve" text-anchor="start" x="43.12" y="-284" font-family="Helvetica,sans-Serif" font-size="10.00"> </text>
<text xml:space="preserve" text-anchor="start" x="43.12" y="-268.75" font-family="Helvetica,sans-Serif" font-size="10.00"> </text>
<polygon fill="#666666" stroke="#666666" points="4.62,-295.5 4.62,-295.5 84.62,-295.5 84.62,-295.5 4.62,-295.5"/>
<polygon fill="#666666" stroke="#666666" points="4.62,-280.25 4.62,-280.25 84.62,-280.25 84.62,-280.25 4.62,-280.25"/>
<polygon fill="none" stroke="#666666" points="4.62,-263 4.62,-312.75 84.62,-312.75 84.62,-263 4.62,-263"/>
</a>
</g>
</g>
<!-- Node3&#45;&gt;Node2 -->
<g id="edge2_Node000002_Node000003" class="edge">
<title>Node3&#45;&gt;Node2</title>
<g id="a_edge2_Node000002_Node000003"><a xlink:title=" ">
<path fill="none" stroke="#63b8ff" d="M44.62,-251.83C44.62,-243.93 44.62,-235.37 44.62,-226.89"/>
<polygon fill="none" stroke="#63b8ff" points="41.13,-251.69 44.63,-261.69 48.13,-251.69 41.13,-251.69"/>
</a>
</g>
</g>
</g>
</svg>
