<?xml version="1.0" encoding="UTF-8" standalone="no"?>
<!DOCTYPE svg PUBLIC "-//W3C//DTD SVG 1.1//EN"
 "http://www.w3.org/Graphics/SVG/1.1/DTD/svg11.dtd">
<!-- Generated by graphviz version 13.1.2 (20250808.2320)
 -->
<!-- Title: Saving.SaveData Pages: 1 -->
<svg width="131pt" height="625pt"
 viewBox="0.00 0.00 131.00 625.00" xmlns="http://www.w3.org/2000/svg" xmlns:xlink="http://www.w3.org/1999/xlink">
<g id="graph0" class="graph" transform="scale(1 1) rotate(0) translate(4 621)">
<title>Saving.SaveData</title>
<!-- Node1 -->
<g id="Node000001" class="node">
<title>Node1</title>
<g id="a_Node000001"><a xlink:title="Serializable save container for global state, dungeon state, player state, and inventory.">
<polygon fill="#999999" stroke="none" points="123,-202.25 0,-202.25 0,0 123,0 123,-202.25"/>
<text xml:space="preserve" text-anchor="start" x="23.25" y="-188.75" font-family="Helvetica,sans-Serif" font-size="10.00">Saving.SaveData</text>
<text xml:space="preserve" text-anchor="start" x="4" y="-173.5" font-family="Helvetica,sans-Serif" font-size="10.00">+</text>
<text xml:space="preserve" text-anchor="start" x="14" y="-173.5" font-family="Helvetica,sans-Serif" font-size="10.00">Seed</text>
<text xml:space="preserve" text-anchor="start" x="4" y="-158.25" font-family="Helvetica,sans-Serif" font-size="10.00">+</text>
<text xml:space="preserve" text-anchor="start" x="14" y="-158.25" font-family="Helvetica,sans-Serif" font-size="10.00">Level</text>
<text xml:space="preserve" text-anchor="start" x="4" y="-143" font-family="Helvetica,sans-Serif" font-size="10.00">+</text>
<text xml:space="preserve" text-anchor="start" x="14" y="-143" font-family="Helvetica,sans-Serif" font-size="10.00">CurrentRoomID</text>
<text xml:space="preserve" text-anchor="start" x="4" y="-127.75" font-family="Helvetica,sans-Serif" font-size="10.00">+</text>
<text xml:space="preserve" text-anchor="start" x="14" y="-127.75" font-family="Helvetica,sans-Serif" font-size="10.00">BossRoomOpen</text>
<text xml:space="preserve" text-anchor="start" x="4" y="-112.5" font-family="Helvetica,sans-Serif" font-size="10.00">+</text>
<text xml:space="preserve" text-anchor="start" x="14" y="-112.5" font-family="Helvetica,sans-Serif" font-size="10.00">BossCleared</text>
<text xml:space="preserve" text-anchor="start" x="4" y="-97.25" font-family="Helvetica,sans-Serif" font-size="10.00">+</text>
<text xml:space="preserve" text-anchor="start" x="14" y="-97.25" font-family="Helvetica,sans-Serif" font-size="10.00">VisitedRooms</text>
<text xml:space="preserve" text-anchor="start" x="4" y="-82" font-family="Helvetica,sans-Serif" font-size="10.00">+</text>
<text xml:space="preserve" text-anchor="start" x="14" y="-82" font-family="Helvetica,sans-Serif" font-size="10.00">DestroyableWallsActive</text>
<text xml:space="preserve" text-anchor="start" x="4" y="-66.75" font-family="Helvetica,sans-Serif" font-size="10.00">+</text>
<text xml:space="preserve" text-anchor="start" x="14" y="-66.75" font-family="Helvetica,sans-Serif" font-size="10.00">DestroyableWallsHealth</text>
<text xml:space="preserve" text-anchor="start" x="4" y="-51.5" font-family="Helvetica,sans-Serif" font-size="10.00">+</text>
<text xml:space="preserve" text-anchor="start" x="14" y="-51.5" font-family="Helvetica,sans-Serif" font-size="10.00">DigitMiniGameCleared</text>
<text xml:space="preserve" text-anchor="start" x="4" y="-36.25" font-family="Helvetica,sans-Serif" font-size="10.00">+</text>
<text xml:space="preserve" text-anchor="start" x="14" y="-36.25" font-family="Helvetica,sans-Serif" font-size="10.00">GlyphMiniGameCleared</text>
<text xml:space="preserve" text-anchor="start" x="14" y="-21" font-family="Helvetica,sans-Serif" font-size="10.00">and 6 more...</text>
<text xml:space="preserve" text-anchor="start" x="60" y="-5.75" font-family="Helvetica,sans-Serif" font-size="10.00"> </text>
<polygon fill="#666666" stroke="#666666" points="0,-185 0,-185 123,-185 123,-185 0,-185"/>
<polygon fill="#666666" stroke="#666666" points="0,-17.25 0,-17.25 12,-17.25 12,-17.25 0,-17.25"/>
<polygon fill="#666666" stroke="#666666" points="12,-17.25 12,-17.25 123,-17.25 123,-17.25 12,-17.25"/>
<polygon fill="none" stroke="#666666" points="0,0 0,-202.25 123,-202.25 123,0 0,0"/>
</a>
</g>
</g>
<!-- Node2 -->
<g id="Node000002" class="node">
<title>Node2</title>
<g id="a_Node000002"><a xlink:href="class_inventory_1_1_item_instance.html" target="_top" xlink:title="Data&#45;Class representing an item stack by containing an reference to a scriptable object(item) and the...">
<polygon fill="white" stroke="none" points="115,-366.25 8,-366.25 8,-270.75 115,-270.75 115,-366.25"/>
<text xml:space="preserve" text-anchor="start" x="12" y="-352.75" font-family="Helvetica,sans-Serif" font-size="10.00">Inventory.ItemInstance</text>
<text xml:space="preserve" text-anchor="start" x="18.5" y="-337.5" font-family="Helvetica,sans-Serif" font-size="10.00">+</text>
<text xml:space="preserve" text-anchor="start" x="35" y="-337.5" font-family="Helvetica,sans-Serif" font-size="10.00">itemQuantity</text>
<text xml:space="preserve" text-anchor="start" x="18.5" y="-322.25" font-family="Helvetica,sans-Serif" font-size="10.00">+</text>
<text xml:space="preserve" text-anchor="start" x="35" y="-322.25" font-family="Helvetica,sans-Serif" font-size="10.00">ItemInstance()</text>
<text xml:space="preserve" text-anchor="start" x="18.5" y="-307" font-family="Helvetica,sans-Serif" font-size="10.00">+</text>
<text xml:space="preserve" text-anchor="start" x="35" y="-307" font-family="Helvetica,sans-Serif" font-size="10.00">ItemInstance()</text>
<text xml:space="preserve" text-anchor="start" x="18.5" y="-291.75" font-family="Helvetica,sans-Serif" font-size="10.00">+</text>
<text xml:space="preserve" text-anchor="start" x="35" y="-291.75" font-family="Helvetica,sans-Serif" font-size="10.00">ItemInstance()</text>
<text xml:space="preserve" text-anchor="start" x="18.5" y="-276.5" font-family="Helvetica,sans-Serif" font-size="10.00">+</text>
<text xml:space="preserve" text-anchor="start" x="35" y="-276.5" font-family="Helvetica,sans-Serif" font-size="10.00">ItemInstance()</text>
<polygon fill="#666666" stroke="#666666" points="8,-349 8,-349 115,-349 115,-349 8,-349"/>
<polygon fill="#666666" stroke="#666666" points="8,-333.75 8,-333.75 33,-333.75 33,-333.75 8,-333.75"/>
<polygon fill="#666666" stroke="#666666" points="33,-333.75 33,-333.75 115,-333.75 115,-333.75 33,-333.75"/>
<polygon fill="none" stroke="#666666" points="8,-270.75 8,-366.25 115,-366.25 115,-270.75 8,-270.75"/>
</a>
</g>
</g>
<!-- Node2&#45;&gt;Node1 -->
<g id="edge1_Node000001_Node000002" class="edge">
<title>Node2&#45;&gt;Node1</title>
<g id="a_edge1_Node000001_Node000002"><a xlink:title=" ">
<path fill="none" stroke="#63b8ff" d="M61.5,-270.77C61.5,-254.12 61.5,-234.58 61.5,-214.82"/>
<polygon fill="none" stroke="#63b8ff" points="61.5,-214.72 57.5,-208.72 61.5,-202.72 65.5,-208.72 61.5,-214.72"/>
</a>
</g>
<text xml:space="preserve" text-anchor="start" x="64.5" y="-240.25" font-family="Helvetica,sans-Serif" font-size="10.00" fill="grey">+Equipment</text>
<text xml:space="preserve" text-anchor="start" x="64.5" y="-225" font-family="Helvetica,sans-Serif" font-size="10.00" fill="grey">+Inventory</text>
</g>
<!-- Node3 -->
<g id="Node000003" class="node">
<title>Node3</title>
<g id="a_Node000003"><a xlink:href="class_items_1_1_item.html" target="_top" xlink:title="Abstract Data&#45;Class, which shares all commonalities between different types of Items.">
<polygon fill="white" stroke="none" points="106.12,-530.25 16.88,-530.25 16.88,-419.5 106.12,-419.5 106.12,-530.25"/>
<text xml:space="preserve" text-anchor="start" x="37.88" y="-516.75" font-family="Helvetica,sans-Serif" font-size="10.00">Items.Item</text>
<text xml:space="preserve" text-anchor="start" x="20.88" y="-501.5" font-family="Helvetica,sans-Serif" font-size="10.00">+</text>
<text xml:space="preserve" text-anchor="start" x="30.88" y="-501.5" font-family="Helvetica,sans-Serif" font-size="10.00">_name</text>
<text xml:space="preserve" text-anchor="start" x="20.88" y="-486.25" font-family="Helvetica,sans-Serif" font-size="10.00">+</text>
<text xml:space="preserve" text-anchor="start" x="30.88" y="-486.25" font-family="Helvetica,sans-Serif" font-size="10.00">_model</text>
<text xml:space="preserve" text-anchor="start" x="20.88" y="-471" font-family="Helvetica,sans-Serif" font-size="10.00">+</text>
<text xml:space="preserve" text-anchor="start" x="30.88" y="-471" font-family="Helvetica,sans-Serif" font-size="10.00">rarity</text>
<text xml:space="preserve" text-anchor="start" x="20.88" y="-455.75" font-family="Helvetica,sans-Serif" font-size="10.00">+</text>
<text xml:space="preserve" text-anchor="start" x="30.88" y="-455.75" font-family="Helvetica,sans-Serif" font-size="10.00">item_icon</text>
<text xml:space="preserve" text-anchor="start" x="20.88" y="-440.5" font-family="Helvetica,sans-Serif" font-size="10.00">+</text>
<text xml:space="preserve" text-anchor="start" x="30.88" y="-440.5" font-family="Helvetica,sans-Serif" font-size="10.00">GetRarityColor()</text>
<text xml:space="preserve" text-anchor="start" x="20.88" y="-425.25" font-family="Helvetica,sans-Serif" font-size="10.00">+</text>
<text xml:space="preserve" text-anchor="start" x="30.88" y="-425.25" font-family="Helvetica,sans-Serif" font-size="10.00">Use()</text>
<polygon fill="#666666" stroke="#666666" points="16.88,-513 16.88,-513 106.12,-513 106.12,-513 16.88,-513"/>
<polygon fill="#666666" stroke="#666666" points="16.88,-452 16.88,-452 28.88,-452 28.88,-452 16.88,-452"/>
<polygon fill="#666666" stroke="#666666" points="28.88,-452 28.88,-452 106.12,-452 106.12,-452 28.88,-452"/>
<polygon fill="none" stroke="#666666" points="16.88,-419.5 16.88,-530.25 106.12,-530.25 106.12,-419.5 16.88,-419.5"/>
</a>
</g>
</g>
<!-- Node3&#45;&gt;Node2 -->
<g id="edge2_Node000002_Node000003" class="edge">
<title>Node3&#45;&gt;Node2</title>
<g id="a_edge2_Node000002_Node000003"><a xlink:title=" ">
<path fill="none" stroke="#63b8ff" d="M61.5,-419.88C61.5,-406.57 61.5,-392.25 61.5,-378.71"/>
<polygon fill="none" stroke="#63b8ff" points="61.5,-378.92 57.5,-372.92 61.5,-366.92 65.5,-372.92 61.5,-378.92"/>
</a>
</g>
<text xml:space="preserve" text-anchor="start" x="64.5" y="-389" font-family="Helvetica,sans-Serif" font-size="10.00" fill="grey">+itemData</text>
</g>
<!-- Node4 -->
<g id="Node000004" class="node">
<title>Node4</title>
<g id="a_Node000004"><a xlink:title=" ">
<polygon fill="white" stroke="none" points="101.5,-617 21.5,-617 21.5,-567.25 101.5,-567.25 101.5,-617"/>
<text xml:space="preserve" text-anchor="start" x="25.5" y="-603.5" font-family="Helvetica,sans-Serif" font-size="10.00">ScriptableObject</text>
<text xml:space="preserve" text-anchor="start" x="60" y="-588.25" font-family="Helvetica,sans-Serif" font-size="10.00"> </text>
<text xml:space="preserve" text-anchor="start" x="60" y="-573" font-family="Helvetica,sans-Serif" font-size="10.00"> </text>
<polygon fill="#666666" stroke="#666666" points="21.5,-599.75 21.5,-599.75 101.5,-599.75 101.5,-599.75 21.5,-599.75"/>
<polygon fill="#666666" stroke="#666666" points="21.5,-584.5 21.5,-584.5 101.5,-584.5 101.5,-584.5 21.5,-584.5"/>
<polygon fill="none" stroke="#666666" points="21.5,-567.25 21.5,-617 101.5,-617 101.5,-567.25 21.5,-567.25"/>
</a>
</g>
</g>
<!-- Node4&#45;&gt;Node3 -->
<g id="edge3_Node000003_Node000004" class="edge">
<title>Node4&#45;&gt;Node3</title>
<g id="a_edge3_Node000003_Node000004"><a xlink:title=" ">
<path fill="none" stroke="#63b8ff" d="M61.5,-556.04C61.5,-547.78 61.5,-538.78 61.5,-529.89"/>
<polygon fill="none" stroke="#63b8ff" points="58,-556.01 61.5,-566.01 65,-556.01 58,-556.01"/>
</a>
</g>
</g>
</g>
</svg>
