<?xml version="1.0" encoding="UTF-8" standalone="no"?>
<!DOCTYPE svg PUBLIC "-//W3C//DTD SVG 1.1//EN"
 "http://www.w3.org/Graphics/SVG/1.1/DTD/svg11.dtd">
<!-- Generated by graphviz version 13.1.2 (20250808.2320)
 -->
<!-- Title: Dungeon.Room Pages: 1 -->
<svg width="110pt" height="390pt"
 viewBox="0.00 0.00 110.00 390.00" xmlns="http://www.w3.org/2000/svg" xmlns:xlink="http://www.w3.org/1999/xlink">
<g id="graph0" class="graph" transform="scale(1 1) rotate(0) translate(4 385.5)">
<title>Dungeon.Room</title>
<!-- Node1 -->
<g id="Node000001" class="node">
<title>Node1</title>
<g id="a_Node000001"><a xlink:title="Represents a room in the dungeon with connections to neighbors and additional metadata.">
<polygon fill="#999999" stroke="none" points="102,-202.25 0,-202.25 0,0 102,0 102,-202.25"/>
<text xml:space="preserve" text-anchor="start" x="16.88" y="-188.75" font-family="Helvetica,sans-Serif" font-size="10.00">Dungeon.Room</text>
<text xml:space="preserve" text-anchor="start" x="4" y="-173.5" font-family="Helvetica,sans-Serif" font-size="10.00">+</text>
<text xml:space="preserve" text-anchor="start" x="14" y="-173.5" font-family="Helvetica,sans-Serif" font-size="10.00">ID</text>
<text xml:space="preserve" text-anchor="start" x="4" y="-158.25" font-family="Helvetica,sans-Serif" font-size="10.00">+</text>
<text xml:space="preserve" text-anchor="start" x="14" y="-158.25" font-family="Helvetica,sans-Serif" font-size="10.00">Neighbors</text>
<text xml:space="preserve" text-anchor="start" x="4" y="-143" font-family="Helvetica,sans-Serif" font-size="10.00">+</text>
<text xml:space="preserve" text-anchor="start" x="14" y="-143" font-family="Helvetica,sans-Serif" font-size="10.00">Walls</text>
<text xml:space="preserve" text-anchor="start" x="4" y="-127.75" font-family="Helvetica,sans-Serif" font-size="10.00">+</text>
<text xml:space="preserve" text-anchor="start" x="14" y="-127.75" font-family="Helvetica,sans-Serif" font-size="10.00">Doors</text>
<text xml:space="preserve" text-anchor="start" x="4" y="-112.5" font-family="Helvetica,sans-Serif" font-size="10.00">+</text>
<text xml:space="preserve" text-anchor="start" x="14" y="-112.5" font-family="Helvetica,sans-Serif" font-size="10.00">Visited</text>
<text xml:space="preserve" text-anchor="start" x="4" y="-97.25" font-family="Helvetica,sans-Serif" font-size="10.00">+</text>
<text xml:space="preserve" text-anchor="start" x="14" y="-97.25" font-family="Helvetica,sans-Serif" font-size="10.00">Type</text>
<text xml:space="preserve" text-anchor="start" x="4" y="-82" font-family="Helvetica,sans-Serif" font-size="10.00">+</text>
<text xml:space="preserve" text-anchor="start" x="14" y="-82" font-family="Helvetica,sans-Serif" font-size="10.00">IncircleRadius</text>
<text xml:space="preserve" text-anchor="start" x="4" y="-66.75" font-family="Helvetica,sans-Serif" font-size="10.00">+</text>
<text xml:space="preserve" text-anchor="start" x="14" y="-66.75" font-family="Helvetica,sans-Serif" font-size="10.00">Room()</text>
<text xml:space="preserve" text-anchor="start" x="4" y="-51.5" font-family="Helvetica,sans-Serif" font-size="10.00">+</text>
<text xml:space="preserve" text-anchor="start" x="14" y="-51.5" font-family="Helvetica,sans-Serif" font-size="10.00">AddWallEdge()</text>
<text xml:space="preserve" text-anchor="start" x="4" y="-36.25" font-family="Helvetica,sans-Serif" font-size="10.00">+</text>
<text xml:space="preserve" text-anchor="start" x="14" y="-36.25" font-family="Helvetica,sans-Serif" font-size="10.00">SetIncircleRadius()</text>
<text xml:space="preserve" text-anchor="start" x="4" y="-21" font-family="Helvetica,sans-Serif" font-size="10.00">+</text>
<text xml:space="preserve" text-anchor="start" x="14" y="-21" font-family="Helvetica,sans-Serif" font-size="10.00">GetIncircleRadius()</text>
<text xml:space="preserve" text-anchor="start" x="4" y="-5.75" font-family="Helvetica,sans-Serif" font-size="10.00">+</text>
<text xml:space="preserve" text-anchor="start" x="14" y="-5.75" font-family="Helvetica,sans-Serif" font-size="10.00">AddNeighbors()</text>
<polygon fill="#666666" stroke="#666666" points="0,-185 0,-185 102,-185 102,-185 0,-185"/>
<polygon fill="#666666" stroke="#666666" points="0,-78.25 0,-78.25 12,-78.25 12,-78.25 0,-78.25"/>
<polygon fill="#666666" stroke="#666666" points="12,-78.25 12,-78.25 102,-78.25 102,-78.25 12,-78.25"/>
<polygon fill="none" stroke="#666666" points="0,0 0,-202.25 102,-202.25 102,0 0,0"/>
</a>
</g>
</g>
<!-- Node2 -->
<g id="Node000002" class="node">
<title>Node2</title>
<g id="a_Node000002"><a xlink:href="class_dungeon_1_1_point.html" target="_top" xlink:title="2D point with X and Y values plus small helpers.">
<polygon fill="white" stroke="none" points="90.38,-381.5 11.62,-381.5 11.62,-255.5 90.38,-255.5 90.38,-381.5"/>
<text xml:space="preserve" text-anchor="start" x="18.75" y="-368" font-family="Helvetica,sans-Serif" font-size="10.00">Dungeon.Point</text>
<text xml:space="preserve" text-anchor="start" x="15.62" y="-352.75" font-family="Helvetica,sans-Serif" font-size="10.00">+</text>
<text xml:space="preserve" text-anchor="start" x="25.62" y="-352.75" font-family="Helvetica,sans-Serif" font-size="10.00">X</text>
<text xml:space="preserve" text-anchor="start" x="15.62" y="-337.5" font-family="Helvetica,sans-Serif" font-size="10.00">+</text>
<text xml:space="preserve" text-anchor="start" x="25.62" y="-337.5" font-family="Helvetica,sans-Serif" font-size="10.00">Y</text>
<text xml:space="preserve" text-anchor="start" x="15.62" y="-322.25" font-family="Helvetica,sans-Serif" font-size="10.00">+</text>
<text xml:space="preserve" text-anchor="start" x="25.62" y="-322.25" font-family="Helvetica,sans-Serif" font-size="10.00">Point()</text>
<text xml:space="preserve" text-anchor="start" x="15.62" y="-307" font-family="Helvetica,sans-Serif" font-size="10.00">+</text>
<text xml:space="preserve" text-anchor="start" x="25.62" y="-307" font-family="Helvetica,sans-Serif" font-size="10.00">ToVector3()</text>
<text xml:space="preserve" text-anchor="start" x="15.62" y="-291.75" font-family="Helvetica,sans-Serif" font-size="10.00">+</text>
<text xml:space="preserve" text-anchor="start" x="25.62" y="-291.75" font-family="Helvetica,sans-Serif" font-size="10.00">PrintPoint()</text>
<text xml:space="preserve" text-anchor="start" x="15.62" y="-276.5" font-family="Helvetica,sans-Serif" font-size="10.00">+</text>
<text xml:space="preserve" text-anchor="start" x="25.62" y="-276.5" font-family="Helvetica,sans-Serif" font-size="10.00">Equals()</text>
<text xml:space="preserve" text-anchor="start" x="15.62" y="-261.25" font-family="Helvetica,sans-Serif" font-size="10.00">+</text>
<text xml:space="preserve" text-anchor="start" x="25.62" y="-261.25" font-family="Helvetica,sans-Serif" font-size="10.00">GetDistance()</text>
<polygon fill="#666666" stroke="#666666" points="11.62,-364.25 11.62,-364.25 90.38,-364.25 90.38,-364.25 11.62,-364.25"/>
<polygon fill="#666666" stroke="#666666" points="11.62,-333.75 11.62,-333.75 23.62,-333.75 23.62,-333.75 11.62,-333.75"/>
<polygon fill="#666666" stroke="#666666" points="23.62,-333.75 23.62,-333.75 90.38,-333.75 90.38,-333.75 23.62,-333.75"/>
<polygon fill="none" stroke="#666666" points="11.62,-255.5 11.62,-381.5 90.38,-381.5 90.38,-255.5 11.62,-255.5"/>
</a>
</g>
</g>
<!-- Node2&#45;&gt;Node1 -->
<g id="edge1_Node000001_Node000002" class="edge">
<title>Node2&#45;&gt;Node1</title>
<g id="a_edge1_Node000001_Node000002"><a xlink:title=" ">
<path fill="none" stroke="#63b8ff" d="M51,-255.78C51,-242.93 51,-229.01 51,-214.97"/>
<polygon fill="none" stroke="#63b8ff" points="51,-214.97 47,-208.97 51,-202.97 55,-208.97 51,-214.97"/>
</a>
</g>
<text xml:space="preserve" text-anchor="start" x="54" y="-225" font-family="Helvetica,sans-Serif" font-size="10.00" fill="grey">+Center</text>
</g>
</g>
</svg>
