<?xml version="1.0" encoding="UTF-8" standalone="no"?>
<!DOCTYPE svg PUBLIC "-//W3C//DTD SVG 1.1//EN"
 "http://www.w3.org/Graphics/SVG/1.1/DTD/svg11.dtd">
<!-- Generated by graphviz version 13.1.2 (20250808.2320)
 -->
<!-- Title: Graphical Class Hierarchy Pages: 1 -->
<svg width="228pt" height="212pt"
 viewBox="0.00 0.00 228.00 212.00" xmlns="http://www.w3.org/2000/svg" xmlns:xlink="http://www.w3.org/1999/xlink">
<g id="graph0" class="graph" transform="scale(1 1) rotate(0) translate(4 208.25)">
<title>Graphical Class Hierarchy</title>
<!-- Node0 -->
<g id="Node000000" class="node">
<title>Node0</title>
<g id="a_Node000000"><a xlink:title=" ">
<polygon fill="#e0e0e0" stroke="#999999" points="41.5,-111.25 0,-111.25 0,-92 41.5,-92 41.5,-111.25"/>
<text xml:space="preserve" text-anchor="middle" x="20.75" y="-97.75" font-family="Helvetica,sans-Serif" font-size="10.00">Agent</text>
</a>
</g>
</g>
<!-- Node1 -->
<g id="Node000001" class="node">
<title>Node1</title>
<g id="a_Node000001"><a xlink:href="class_enemy_1_1_agent_shooting.html" target="_top" xlink:title=" ">
<polygon fill="white" stroke="#666666" points="204.5,-204.25 92.5,-204.25 92.5,-185 204.5,-185 204.5,-204.25"/>
<text xml:space="preserve" text-anchor="middle" x="148.5" y="-190.75" font-family="Helvetica,sans-Serif" font-size="10.00">Enemy.AgentShooting</text>
</a>
</g>
</g>
<!-- Node0&#45;&gt;Node1 -->
<g id="edge1_Node000000_Node000001" class="edge">
<title>Node0&#45;&gt;Node1</title>
<g id="a_edge1_Node000000_Node000001"><a xlink:title=" ">
<path fill="none" stroke="#63b8ff" d="M31.63,-121.7C41.09,-138.83 56.95,-162.82 77.5,-176.62 82.19,-179.77 87.39,-182.37 92.78,-184.52"/>
<polygon fill="#63b8ff" stroke="#63b8ff" points="34.79,-120.19 27.06,-112.95 28.59,-123.43 34.79,-120.19"/>
</a>
</g>
</g>
<!-- Node2 -->
<g id="Node000002" class="node">
<title>Node2</title>
<g id="a_Node000002"><a xlink:href="class_enemy_1_1_bomber_agent.html" target="_top" xlink:title="Defines an enemy agent (BomberAgent) trained with Unity ML&#45;Agents.">
<polygon fill="white" stroke="#666666" points="202.25,-167.25 94.75,-167.25 94.75,-148 202.25,-148 202.25,-167.25"/>
<text xml:space="preserve" text-anchor="middle" x="148.5" y="-153.75" font-family="Helvetica,sans-Serif" font-size="10.00">Enemy.BomberAgent</text>
</a>
</g>
</g>
<!-- Node0&#45;&gt;Node2 -->
<g id="edge2_Node000000_Node000002" class="edge">
<title>Node0&#45;&gt;Node2</title>
<g id="a_edge2_Node000000_Node000002"><a xlink:title=" ">
<path fill="none" stroke="#63b8ff" d="M42.95,-118.65C52.95,-125.98 65.33,-134.12 77.5,-139.62 84.36,-142.73 91.85,-145.37 99.3,-147.59"/>
<polygon fill="#63b8ff" stroke="#63b8ff" points="45.12,-115.9 35.05,-112.63 40.88,-121.47 45.12,-115.9"/>
</a>
</g>
</g>
<!-- Node3 -->
<g id="Node000003" class="node">
<title>Node3</title>
<g id="a_Node000003"><a xlink:href="class_enemy_1_1_ghost.html" target="_top" xlink:title="Defines a stealthy and agile enemy agent (GhostAgent) trained with Unity ML&#45;Agents.">
<polygon fill="white" stroke="#666666" points="185.75,-130.25 111.25,-130.25 111.25,-111 185.75,-111 185.75,-130.25"/>
<text xml:space="preserve" text-anchor="middle" x="148.5" y="-116.75" font-family="Helvetica,sans-Serif" font-size="10.00">Enemy.Ghost</text>
</a>
</g>
</g>
<!-- Node0&#45;&gt;Node3 -->
<g id="edge3_Node000000_Node000003" class="edge">
<title>Node0&#45;&gt;Node3</title>
<g id="a_edge3_Node000000_Node000003"><a xlink:title=" ">
<path fill="none" stroke="#63b8ff" d="M53.27,-106.39C70.76,-109.03 92.61,-112.33 110.86,-115.09"/>
<polygon fill="#63b8ff" stroke="#63b8ff" points="53.86,-102.94 43.45,-104.9 52.82,-109.86 53.86,-102.94"/>
</a>
</g>
</g>
<!-- Node4 -->
<g id="Node000004" class="node">
<title>Node4</title>
<g id="a_Node000004"><a xlink:href="class_enemy_1_1_hunter_agent.html" target="_top" xlink:title="Defines a pursuit&#45;type enemy agent (HunterAgent) trained with Unity ML&#45;Agents.">
<polygon fill="white" stroke="#666666" points="200,-93.25 97,-93.25 97,-74 200,-74 200,-93.25"/>
<text xml:space="preserve" text-anchor="middle" x="148.5" y="-79.75" font-family="Helvetica,sans-Serif" font-size="10.00">Enemy.HunterAgent</text>
</a>
</g>
</g>
<!-- Node0&#45;&gt;Node4 -->
<g id="edge4_Node000000_Node000004" class="edge">
<title>Node0&#45;&gt;Node4</title>
<g id="a_edge4_Node000000_Node000004"><a xlink:title=" ">
<path fill="none" stroke="#63b8ff" d="M53.24,-97.12C66.38,-95.24 81.99,-93 96.69,-90.9"/>
<polygon fill="#63b8ff" stroke="#63b8ff" points="52.86,-93.64 43.45,-98.52 53.85,-100.57 52.86,-93.64"/>
</a>
</g>
</g>
<!-- Node5 -->
<g id="Node000005" class="node">
<title>Node5</title>
<g id="a_Node000005"><a xlink:href="class_enemy_1_1_hunter_agent_obstacle.html" target="_top" xlink:title="Defines a navigation&#45;focused enemy agent (HunterAgentObstacle) trained with Unity ML&#45;Agents.">
<polygon fill="white" stroke="#666666" points="219.5,-56.25 77.5,-56.25 77.5,-37 219.5,-37 219.5,-56.25"/>
<text xml:space="preserve" text-anchor="middle" x="148.5" y="-42.75" font-family="Helvetica,sans-Serif" font-size="10.00">Enemy.HunterAgentObstacle</text>
</a>
</g>
</g>
<!-- Node0&#45;&gt;Node5 -->
<g id="edge5_Node000000_Node000005" class="edge">
<title>Node0&#45;&gt;Node5</title>
<g id="a_edge5_Node000000_Node000005"><a xlink:title=" ">
<path fill="none" stroke="#63b8ff" d="M43.01,-85.07C53.02,-77.94 65.4,-70.01 77.5,-64.62 84.38,-61.56 91.88,-58.95 99.33,-56.74"/>
<polygon fill="#63b8ff" stroke="#63b8ff" points="41.06,-82.16 35.11,-90.92 45.23,-87.79 41.06,-82.16"/>
</a>
</g>
</g>
<!-- Node6 -->
<g id="Node000006" class="node">
<title>Node6</title>
<g id="a_Node000006"><a xlink:href="class_enemy_1_1_spawnling.html" target="_top" xlink:title="Defines a summoner&#45;type enemy agent (Spawnling) trained with Unity ML&#45;Agents.">
<polygon fill="white" stroke="#666666" points="195.12,-19.25 101.88,-19.25 101.88,0 195.12,0 195.12,-19.25"/>
<text xml:space="preserve" text-anchor="middle" x="148.5" y="-5.75" font-family="Helvetica,sans-Serif" font-size="10.00">Enemy.Spawnling</text>
</a>
</g>
</g>
<!-- Node0&#45;&gt;Node6 -->
<g id="edge6_Node000000_Node000006" class="edge">
<title>Node0&#45;&gt;Node6</title>
<g id="a_edge6_Node000000_Node000006"><a xlink:title=" ">
<path fill="none" stroke="#63b8ff" d="M31.85,-81.55C41.37,-64.66 57.19,-41.17 77.5,-27.62 84.7,-22.82 93.11,-19.3 101.54,-16.71"/>
<polygon fill="#63b8ff" stroke="#63b8ff" points="28.86,-79.71 27.24,-90.18 35.04,-83.01 28.86,-79.71"/>
</a>
</g>
</g>
</g>
</svg>
