<?xml version="1.0" encoding="UTF-8" standalone="no"?>
<!DOCTYPE svg PUBLIC "-//W3C//DTD SVG 1.1//EN"
 "http://www.w3.org/Graphics/SVG/1.1/DTD/svg11.dtd">
<!-- Generated by graphviz version 13.1.2 (20250808.2320)
 -->
<!-- Title: Interfaces.IInteractable Pages: 1 -->
<svg width="117pt" height="88pt"
 viewBox="0.00 0.00 117.00 88.00" xmlns="http://www.w3.org/2000/svg" xmlns:xlink="http://www.w3.org/1999/xlink">
<g id="graph0" class="graph" transform="scale(1 1) rotate(0) translate(4 84.25)">
<title>Interfaces.IInteractable</title>
<!-- Node1 -->
<g id="Node000001" class="node">
<title>Node1</title>
<g id="a_Node000001"><a xlink:title="Interface for objects that can be interacted with (e.g., when the player is nearby).">
<polygon fill="#999999" stroke="none" points="108.5,-80.25 0,-80.25 0,0 108.5,0 108.5,-80.25"/>
<text xml:space="preserve" text-anchor="start" x="4" y="-66.75" font-family="Helvetica,sans-Serif" font-size="10.00">Interfaces.IInteractable</text>
<text xml:space="preserve" text-anchor="start" x="52.75" y="-51.5" font-family="Helvetica,sans-Serif" font-size="10.00"> </text>
<text xml:space="preserve" text-anchor="start" x="9.75" y="-36.25" font-family="Helvetica,sans-Serif" font-size="10.00">+</text>
<text xml:space="preserve" text-anchor="start" x="25.5" y="-36.25" font-family="Helvetica,sans-Serif" font-size="10.00">Interact()</text>
<text xml:space="preserve" text-anchor="start" x="9.75" y="-21" font-family="Helvetica,sans-Serif" font-size="10.00">+</text>
<text xml:space="preserve" text-anchor="start" x="25.5" y="-21" font-family="Helvetica,sans-Serif" font-size="10.00">OnExit()</text>
<text xml:space="preserve" text-anchor="start" x="9.75" y="-5.75" font-family="Helvetica,sans-Serif" font-size="10.00">+</text>
<text xml:space="preserve" text-anchor="start" x="25.5" y="-5.75" font-family="Helvetica,sans-Serif" font-size="10.00">ShouldRepeat()</text>
<polygon fill="#666666" stroke="#666666" points="0,-63 0,-63 108.5,-63 108.5,-63 0,-63"/>
<polygon fill="#666666" stroke="#666666" points="0,-47.75 0,-47.75 108.5,-47.75 108.5,-47.75 0,-47.75"/>
<polygon fill="none" stroke="#666666" points="0,0 0,-80.25 108.5,-80.25 108.5,0 0,0"/>
</a>
</g>
</g>
</g>
</svg>
