<?xml version="1.0" encoding="UTF-8" standalone="no"?>
<!DOCTYPE svg PUBLIC "-//W3C//DTD SVG 1.1//EN"
 "http://www.w3.org/Graphics/SVG/1.1/DTD/svg11.dtd">
<!-- Generated by graphviz version 13.1.2 (20250808.2320)
 -->
<!-- Title: Interfaces.ISpawnerVoronoi Pages: 1 -->
<svg width="310pt" height="216pt"
 viewBox="0.00 0.00 310.00 216.00" xmlns="http://www.w3.org/2000/svg" xmlns:xlink="http://www.w3.org/1999/xlink">
<g id="graph0" class="graph" transform="scale(1 1) rotate(0) translate(4 211.75)">
<title>Interfaces.ISpawnerVoronoi</title>
<!-- Node1 -->
<g id="Node000001" class="node">
<title>Node1</title>
<g id="a_Node000001"><a xlink:title="Interface for object spawners in a room in the Voronoi Dungeon. Allows flexibility for spawning diffe...">
<polygon fill="#999999" stroke="none" points="216.62,-207.75 87.88,-207.75 87.88,-158 216.62,-158 216.62,-207.75"/>
<text xml:space="preserve" text-anchor="start" x="91.88" y="-194.25" font-family="Helvetica,sans-Serif" font-size="10.00">Interfaces.ISpawnerVoronoi</text>
<text xml:space="preserve" text-anchor="start" x="150.75" y="-179" font-family="Helvetica,sans-Serif" font-size="10.00"> </text>
<text xml:space="preserve" text-anchor="start" x="101.94" y="-163.75" font-family="Helvetica,sans-Serif" font-size="10.00">+</text>
<text xml:space="preserve" text-anchor="start" x="122" y="-163.75" font-family="Helvetica,sans-Serif" font-size="10.00">SpawnInRoom()</text>
<polygon fill="#666666" stroke="#666666" points="87.88,-190.5 87.88,-190.5 216.62,-190.5 216.62,-190.5 87.88,-190.5"/>
<polygon fill="#666666" stroke="#666666" points="87.88,-175.25 87.88,-175.25 216.62,-175.25 216.62,-175.25 87.88,-175.25"/>
<polygon fill="none" stroke="#666666" points="87.88,-158 87.88,-207.75 216.62,-207.75 216.62,-158 87.88,-158"/>
</a>
</g>
</g>
<!-- Node2 -->
<g id="Node000002" class="node">
<title>Node2</title>
<g id="a_Node000002"><a xlink:href="class_spawning_1_1_item_spawner_voronoi.html" target="_top" xlink:title="Handles the spawning of items in rooms, implementing the ISpawner interface. Items are spawned at ran...">
<polygon fill="white" stroke="none" points="144.5,-116.38 0,-116.38 0,-5.62 144.5,-5.62 144.5,-116.38"/>
<text xml:space="preserve" text-anchor="start" x="4" y="-102.88" font-family="Helvetica,sans-Serif" font-size="10.00">Spawning.ItemSpawnerVoronoi</text>
<text xml:space="preserve" text-anchor="start" x="12.94" y="-87.62" font-family="Helvetica,sans-Serif" font-size="10.00">&#45;</text>
<text xml:space="preserve" text-anchor="start" x="28.88" y="-87.62" font-family="Helvetica,sans-Serif" font-size="10.00">_itemsDistributor</text>
<text xml:space="preserve" text-anchor="start" x="12.94" y="-72.38" font-family="Helvetica,sans-Serif" font-size="10.00">&#45;</text>
<text xml:space="preserve" text-anchor="start" x="28.88" y="-72.38" font-family="Helvetica,sans-Serif" font-size="10.00">_rooms</text>
<text xml:space="preserve" text-anchor="start" x="12.94" y="-57.12" font-family="Helvetica,sans-Serif" font-size="10.00">&#45;</text>
<text xml:space="preserve" text-anchor="start" x="28.88" y="-57.12" font-family="Helvetica,sans-Serif" font-size="10.00">_parent</text>
<text xml:space="preserve" text-anchor="start" x="11.44" y="-41.88" font-family="Helvetica,sans-Serif" font-size="10.00">+</text>
<text xml:space="preserve" text-anchor="start" x="28.88" y="-41.88" font-family="Helvetica,sans-Serif" font-size="10.00">ItemSpawnerVoronoi()</text>
<text xml:space="preserve" text-anchor="start" x="11.44" y="-26.62" font-family="Helvetica,sans-Serif" font-size="10.00">+</text>
<text xml:space="preserve" text-anchor="start" x="28.88" y="-26.62" font-family="Helvetica,sans-Serif" font-size="10.00">ItemSpawnerVoronoi()</text>
<text xml:space="preserve" text-anchor="start" x="11.44" y="-11.38" font-family="Helvetica,sans-Serif" font-size="10.00">+</text>
<text xml:space="preserve" text-anchor="start" x="28.88" y="-11.38" font-family="Helvetica,sans-Serif" font-size="10.00">SpawnInRoom()</text>
<polygon fill="#666666" stroke="#666666" points="0,-99.12 0,-99.12 144.5,-99.12 144.5,-99.12 0,-99.12"/>
<polygon fill="#666666" stroke="#666666" points="0,-53.38 0,-53.38 26.88,-53.38 26.88,-53.38 0,-53.38"/>
<polygon fill="#666666" stroke="#666666" points="26.88,-53.38 26.88,-53.38 144.5,-53.38 144.5,-53.38 26.88,-53.38"/>
<polygon fill="none" stroke="#666666" points="0,-5.62 0,-116.38 144.5,-116.38 144.5,-5.62 0,-5.62"/>
</a>
</g>
</g>
<!-- Node1&#45;&gt;Node2 -->
<g id="edge1_Node000001_Node000002" class="edge">
<title>Node1&#45;&gt;Node2</title>
<g id="a_edge1_Node000001_Node000002"><a xlink:title=" ">
<path fill="none" stroke="#63b8ff" d="M130.22,-148.86C123.4,-138.65 115.71,-127.13 108.21,-115.89"/>
<polygon fill="none" stroke="#63b8ff" points="127.14,-150.56 135.6,-156.93 132.96,-146.67 127.14,-150.56"/>
</a>
</g>
</g>
<!-- Node3 -->
<g id="Node000003" class="node">
<title>Node3</title>
<g id="a_Node000003"><a xlink:href="class_spawning_1_1_mini_game_spawner_voronoi.html" target="_top" xlink:title="Spawns minigame prefabs into specified rooms in a Voronoi dungeon. A random prefab is placed in each ...">
<polygon fill="white" stroke="none" points="302,-122 162.5,-122 162.5,0 302,0 302,-122"/>
<text xml:space="preserve" text-anchor="start" x="168.12" y="-108.5" font-family="Helvetica,sans-Serif" font-size="10.00">Spawning.MiniGameSpawner</text>
<text xml:space="preserve" text-anchor="start" x="215.75" y="-97.25" font-family="Helvetica,sans-Serif" font-size="10.00">Voronoi</text>
<text xml:space="preserve" text-anchor="start" x="168" y="-82" font-family="Helvetica,sans-Serif" font-size="10.00">&#45;</text>
<text xml:space="preserve" text-anchor="start" x="176.5" y="-82" font-family="Helvetica,sans-Serif" font-size="10.00">_rooms</text>
<text xml:space="preserve" text-anchor="start" x="168" y="-66.75" font-family="Helvetica,sans-Serif" font-size="10.00">&#45;</text>
<text xml:space="preserve" text-anchor="start" x="176.5" y="-66.75" font-family="Helvetica,sans-Serif" font-size="10.00">_minigamePrefabs</text>
<text xml:space="preserve" text-anchor="start" x="168" y="-51.5" font-family="Helvetica,sans-Serif" font-size="10.00">&#45;</text>
<text xml:space="preserve" text-anchor="start" x="176.5" y="-51.5" font-family="Helvetica,sans-Serif" font-size="10.00">_parent</text>
<text xml:space="preserve" text-anchor="start" x="168" y="-36.25" font-family="Helvetica,sans-Serif" font-size="10.00">&#45;</text>
<text xml:space="preserve" text-anchor="start" x="176.5" y="-36.25" font-family="Helvetica,sans-Serif" font-size="10.00">_rng</text>
<text xml:space="preserve" text-anchor="start" x="166.5" y="-21" font-family="Helvetica,sans-Serif" font-size="10.00">+</text>
<text xml:space="preserve" text-anchor="start" x="176.5" y="-21" font-family="Helvetica,sans-Serif" font-size="10.00">MiniGameSpawnerVoronoi()</text>
<text xml:space="preserve" text-anchor="start" x="166.5" y="-5.75" font-family="Helvetica,sans-Serif" font-size="10.00">+</text>
<text xml:space="preserve" text-anchor="start" x="176.5" y="-5.75" font-family="Helvetica,sans-Serif" font-size="10.00">SpawnInRoom()</text>
<polygon fill="#666666" stroke="#666666" points="162.5,-93.5 162.5,-93.5 302,-93.5 302,-93.5 162.5,-93.5"/>
<polygon fill="#666666" stroke="#666666" points="162.5,-32.5 162.5,-32.5 174.5,-32.5 174.5,-32.5 162.5,-32.5"/>
<polygon fill="#666666" stroke="#666666" points="174.5,-32.5 174.5,-32.5 302,-32.5 302,-32.5 174.5,-32.5"/>
<polygon fill="none" stroke="#666666" points="162.5,0 162.5,-122 302,-122 302,0 162.5,0"/>
</a>
</g>
</g>
<!-- Node1&#45;&gt;Node3 -->
<g id="edge2_Node000001_Node000003" class="edge">
<title>Node1&#45;&gt;Node3</title>
<g id="a_edge2_Node000001_Node000003"><a xlink:title=" ">
<path fill="none" stroke="#63b8ff" d="M174.31,-148.81C179.91,-140.43 186.09,-131.17 192.27,-121.91"/>
<polygon fill="none" stroke="#63b8ff" points="171.54,-146.67 168.9,-156.93 177.36,-150.56 171.54,-146.67"/>
</a>
</g>
</g>
</g>
</svg>
