<?xml version="1.0" encoding="UTF-8" standalone="no"?>
<!DOCTYPE svg PUBLIC "-//W3C//DTD SVG 1.1//EN"
 "http://www.w3.org/Graphics/SVG/1.1/DTD/svg11.dtd">
<!-- Generated by graphviz version 13.1.2 (20250808.2320)
 -->
<!-- Title: Spawning.EnemySpawnerVoronoi Pages: 1 -->
<svg width="233pt" height="344pt"
 viewBox="0.00 0.00 233.00 344.00" xmlns="http://www.w3.org/2000/svg" xmlns:xlink="http://www.w3.org/1999/xlink">
<g id="graph0" class="graph" transform="scale(1 1) rotate(0) translate(4 339.75)">
<title>Spawning.EnemySpawnerVoronoi</title>
<!-- Node1 -->
<g id="Node000001" class="node">
<title>Node1</title>
<g id="a_Node000001"><a xlink:title="Spawns and manages enemies in Voronoi&#45;based dungeon rooms. Enemies are spawned based on the room&#39;s si...">
<polygon fill="#999999" stroke="none" points="155.75,-141.25 0,-141.25 0,0 155.75,0 155.75,-141.25"/>
<text xml:space="preserve" text-anchor="start" x="4" y="-127.75" font-family="Helvetica,sans-Serif" font-size="10.00">Spawning.EnemySpawnerVoronoi</text>
<text xml:space="preserve" text-anchor="start" x="6.94" y="-112.5" font-family="Helvetica,sans-Serif" font-size="10.00">&#45;</text>
<text xml:space="preserve" text-anchor="start" x="16.88" y="-112.5" font-family="Helvetica,sans-Serif" font-size="10.00">_enemyInstancesPerRoom</text>
<text xml:space="preserve" text-anchor="start" x="6.94" y="-97.25" font-family="Helvetica,sans-Serif" font-size="10.00">&#45;</text>
<text xml:space="preserve" text-anchor="start" x="16.88" y="-97.25" font-family="Helvetica,sans-Serif" font-size="10.00">_alivePerRoom</text>
<text xml:space="preserve" text-anchor="start" x="5.44" y="-82" font-family="Helvetica,sans-Serif" font-size="10.00">+</text>
<text xml:space="preserve" text-anchor="start" x="16.88" y="-82" font-family="Helvetica,sans-Serif" font-size="10.00">EnemySpawnerVoronoi()</text>
<text xml:space="preserve" text-anchor="start" x="5.44" y="-66.75" font-family="Helvetica,sans-Serif" font-size="10.00">+</text>
<text xml:space="preserve" text-anchor="start" x="16.88" y="-66.75" font-family="Helvetica,sans-Serif" font-size="10.00">ActivateEnemyInRoom()</text>
<text xml:space="preserve" text-anchor="start" x="5.44" y="-51.5" font-family="Helvetica,sans-Serif" font-size="10.00">+</text>
<text xml:space="preserve" text-anchor="start" x="16.88" y="-51.5" font-family="Helvetica,sans-Serif" font-size="10.00">RegisterEnemyMinionSpawn()</text>
<text xml:space="preserve" text-anchor="start" x="5.44" y="-36.25" font-family="Helvetica,sans-Serif" font-size="10.00">+</text>
<text xml:space="preserve" text-anchor="start" x="16.88" y="-36.25" font-family="Helvetica,sans-Serif" font-size="10.00">RegisterEnemyMinionDeath()</text>
<text xml:space="preserve" text-anchor="start" x="6.94" y="-21" font-family="Helvetica,sans-Serif" font-size="10.00">&#45;</text>
<text xml:space="preserve" text-anchor="start" x="16.88" y="-21" font-family="Helvetica,sans-Serif" font-size="10.00">OnEnemyDied()</text>
<text xml:space="preserve" text-anchor="start" x="6.94" y="-5.75" font-family="Helvetica,sans-Serif" font-size="10.00">&#45;</text>
<text xml:space="preserve" text-anchor="start" x="16.88" y="-5.75" font-family="Helvetica,sans-Serif" font-size="10.00">IncrementAlive()</text>
<polygon fill="#666666" stroke="#666666" points="0,-124 0,-124 155.75,-124 155.75,-124 0,-124"/>
<polygon fill="#666666" stroke="#666666" points="0,-93.5 0,-93.5 14.88,-93.5 14.88,-93.5 0,-93.5"/>
<polygon fill="#666666" stroke="#666666" points="14.88,-93.5 14.88,-93.5 155.75,-93.5 155.75,-93.5 14.88,-93.5"/>
<polygon fill="none" stroke="#666666" points="0,0 0,-141.25 155.75,-141.25 155.75,0 0,0"/>
</a>
</g>
</g>
<!-- Node2 -->
<g id="Node000002" class="node">
<title>Node2</title>
<g id="a_Node000002"><a xlink:href="class_spawning_1_1_enemy_spawner_voronoi.html" target="_top" xlink:title="Spawns and manages enemies in Voronoi&#45;based dungeon rooms. Enemies are spawned based on the room&#39;s si...">
<polygon fill="white" stroke="none" points="155.75,-335.75 0,-335.75 0,-194.5 155.75,-194.5 155.75,-335.75"/>
<text xml:space="preserve" text-anchor="start" x="4" y="-322.25" font-family="Helvetica,sans-Serif" font-size="10.00">Spawning.EnemySpawnerVoronoi</text>
<text xml:space="preserve" text-anchor="start" x="6.94" y="-307" font-family="Helvetica,sans-Serif" font-size="10.00">&#45;</text>
<text xml:space="preserve" text-anchor="start" x="16.88" y="-307" font-family="Helvetica,sans-Serif" font-size="10.00">_enemyInstancesPerRoom</text>
<text xml:space="preserve" text-anchor="start" x="6.94" y="-291.75" font-family="Helvetica,sans-Serif" font-size="10.00">&#45;</text>
<text xml:space="preserve" text-anchor="start" x="16.88" y="-291.75" font-family="Helvetica,sans-Serif" font-size="10.00">_alivePerRoom</text>
<text xml:space="preserve" text-anchor="start" x="5.44" y="-276.5" font-family="Helvetica,sans-Serif" font-size="10.00">+</text>
<text xml:space="preserve" text-anchor="start" x="16.88" y="-276.5" font-family="Helvetica,sans-Serif" font-size="10.00">EnemySpawnerVoronoi()</text>
<text xml:space="preserve" text-anchor="start" x="5.44" y="-261.25" font-family="Helvetica,sans-Serif" font-size="10.00">+</text>
<text xml:space="preserve" text-anchor="start" x="16.88" y="-261.25" font-family="Helvetica,sans-Serif" font-size="10.00">ActivateEnemyInRoom()</text>
<text xml:space="preserve" text-anchor="start" x="5.44" y="-246" font-family="Helvetica,sans-Serif" font-size="10.00">+</text>
<text xml:space="preserve" text-anchor="start" x="16.88" y="-246" font-family="Helvetica,sans-Serif" font-size="10.00">RegisterEnemyMinionSpawn()</text>
<text xml:space="preserve" text-anchor="start" x="5.44" y="-230.75" font-family="Helvetica,sans-Serif" font-size="10.00">+</text>
<text xml:space="preserve" text-anchor="start" x="16.88" y="-230.75" font-family="Helvetica,sans-Serif" font-size="10.00">RegisterEnemyMinionDeath()</text>
<text xml:space="preserve" text-anchor="start" x="6.94" y="-215.5" font-family="Helvetica,sans-Serif" font-size="10.00">&#45;</text>
<text xml:space="preserve" text-anchor="start" x="16.88" y="-215.5" font-family="Helvetica,sans-Serif" font-size="10.00">OnEnemyDied()</text>
<text xml:space="preserve" text-anchor="start" x="6.94" y="-200.25" font-family="Helvetica,sans-Serif" font-size="10.00">&#45;</text>
<text xml:space="preserve" text-anchor="start" x="16.88" y="-200.25" font-family="Helvetica,sans-Serif" font-size="10.00">IncrementAlive()</text>
<polygon fill="#666666" stroke="#666666" points="0,-318.5 0,-318.5 155.75,-318.5 155.75,-318.5 0,-318.5"/>
<polygon fill="#666666" stroke="#666666" points="0,-288 0,-288 14.88,-288 14.88,-288 0,-288"/>
<polygon fill="#666666" stroke="#666666" points="14.88,-288 14.88,-288 155.75,-288 155.75,-288 14.88,-288"/>
<polygon fill="none" stroke="#666666" points="0,-194.5 0,-335.75 155.75,-335.75 155.75,-194.5 0,-194.5"/>
</a>
</g>
</g>
<!-- Node2&#45;&gt;Node1 -->
<g id="edge1_Node000001_Node000002" class="edge">
<title>Node2&#45;&gt;Node1</title>
<g id="a_edge1_Node000001_Node000002"><a xlink:title=" ">
<path fill="none" stroke="#63b8ff" d="M77.88,-194.63C77.88,-181.41 77.88,-167.45 77.88,-153.88"/>
<polygon fill="none" stroke="#63b8ff" points="77.88,-153.92 73.88,-147.92 77.88,-141.92 81.88,-147.92 77.88,-153.92"/>
</a>
</g>
<text xml:space="preserve" text-anchor="start" x="80.88" y="-164" font-family="Helvetica,sans-Serif" font-size="10.00" fill="grey">&#45;_instance</text>
</g>
<!-- Node2&#45;&gt;Node2 -->
<g id="edge2_Node000002_Node000002" class="edge">
<title>Node2&#45;&gt;Node2</title>
<g id="a_edge2_Node000002_Node000002"><a xlink:title=" ">
<path fill="none" stroke="#63b8ff" d="M155.75,-281.4C166.54,-278.72 173.75,-273.29 173.75,-265.12 173.75,-260.53 171.47,-256.8 167.55,-253.95"/>
<polygon fill="none" stroke="#63b8ff" points="167.59,-253.96 160.5,-255.26 156.57,-249.21 163.67,-247.91 167.59,-253.96"/>
</a>
</g>
<text xml:space="preserve" text-anchor="start" x="176.75" y="-261.25" font-family="Helvetica,sans-Serif" font-size="10.00" fill="grey">&#45;_instance</text>
</g>
</g>
</svg>
