<?xml version="1.0" encoding="UTF-8" standalone="no"?>
<!DOCTYPE svg PUBLIC "-//W3C//DTD SVG 1.1//EN"
 "http://www.w3.org/Graphics/SVG/1.1/DTD/svg11.dtd">
<!-- Generated by graphviz version 13.1.2 (20250808.2320)
 -->
<!-- Title: Controller.PlayerPickaxeController Pages: 1 -->
<svg width="454pt" height="922pt"
 viewBox="0.00 0.00 454.00 922.00" xmlns="http://www.w3.org/2000/svg" xmlns:xlink="http://www.w3.org/1999/xlink">
<g id="graph0" class="graph" transform="scale(1 1) rotate(0) translate(4 918)">
<title>Controller.PlayerPickaxeController</title>
<!-- Node1 -->
<g id="Node000001" class="node">
<title>Node1</title>
<g id="a_Node000001"><a xlink:title="Controls the instantiation and simple swing animation of the pickaxe in first&#45;person view....">
<polygon fill="#999999" stroke="none" points="195.42,-274.5 67.17,-274.5 67.17,0 195.42,0 195.42,-274.5"/>
<text xml:space="preserve" text-anchor="start" x="77.67" y="-261" font-family="Helvetica,sans-Serif" font-size="10.00">Controller.PlayerPickaxe</text>
<text xml:space="preserve" text-anchor="start" x="110.29" y="-249.75" font-family="Helvetica,sans-Serif" font-size="10.00">Controller</text>
<text xml:space="preserve" text-anchor="start" x="72.67" y="-234.5" font-family="Helvetica,sans-Serif" font-size="10.00">&#45;</text>
<text xml:space="preserve" text-anchor="start" x="81.17" y="-234.5" font-family="Helvetica,sans-Serif" font-size="10.00">leftHandHolder</text>
<text xml:space="preserve" text-anchor="start" x="72.67" y="-219.25" font-family="Helvetica,sans-Serif" font-size="10.00">&#45;</text>
<text xml:space="preserve" text-anchor="start" x="81.17" y="-219.25" font-family="Helvetica,sans-Serif" font-size="10.00">pickaxePrefab</text>
<text xml:space="preserve" text-anchor="start" x="72.67" y="-204" font-family="Helvetica,sans-Serif" font-size="10.00">&#45;</text>
<text xml:space="preserve" text-anchor="start" x="81.17" y="-204" font-family="Helvetica,sans-Serif" font-size="10.00">swingAngle</text>
<text xml:space="preserve" text-anchor="start" x="72.67" y="-188.75" font-family="Helvetica,sans-Serif" font-size="10.00">&#45;</text>
<text xml:space="preserve" text-anchor="start" x="81.17" y="-188.75" font-family="Helvetica,sans-Serif" font-size="10.00">swingDuration</text>
<text xml:space="preserve" text-anchor="start" x="72.67" y="-173.5" font-family="Helvetica,sans-Serif" font-size="10.00">&#45;</text>
<text xml:space="preserve" text-anchor="start" x="81.17" y="-173.5" font-family="Helvetica,sans-Serif" font-size="10.00">_inv</text>
<text xml:space="preserve" text-anchor="start" x="72.67" y="-158.25" font-family="Helvetica,sans-Serif" font-size="10.00">&#45;</text>
<text xml:space="preserve" text-anchor="start" x="81.17" y="-158.25" font-family="Helvetica,sans-Serif" font-size="10.00">_pickaxeInstance</text>
<text xml:space="preserve" text-anchor="start" x="72.67" y="-143" font-family="Helvetica,sans-Serif" font-size="10.00">&#45;</text>
<text xml:space="preserve" text-anchor="start" x="81.17" y="-143" font-family="Helvetica,sans-Serif" font-size="10.00">_isPickaxeEquipped</text>
<text xml:space="preserve" text-anchor="start" x="72.67" y="-127.75" font-family="Helvetica,sans-Serif" font-size="10.00">&#45;</text>
<text xml:space="preserve" text-anchor="start" x="81.17" y="-127.75" font-family="Helvetica,sans-Serif" font-size="10.00">_holderStartEuler</text>
<text xml:space="preserve" text-anchor="start" x="71.17" y="-112.5" font-family="Helvetica,sans-Serif" font-size="10.00">+</text>
<text xml:space="preserve" text-anchor="start" x="81.17" y="-112.5" font-family="Helvetica,sans-Serif" font-size="10.00">AnimateSwing()</text>
<text xml:space="preserve" text-anchor="start" x="71.17" y="-97.25" font-family="Helvetica,sans-Serif" font-size="10.00">+</text>
<text xml:space="preserve" text-anchor="start" x="81.17" y="-97.25" font-family="Helvetica,sans-Serif" font-size="10.00">SwingTotalDuration()</text>
<text xml:space="preserve" text-anchor="start" x="72.67" y="-82" font-family="Helvetica,sans-Serif" font-size="10.00">&#45;</text>
<text xml:space="preserve" text-anchor="start" x="81.17" y="-82" font-family="Helvetica,sans-Serif" font-size="10.00">Awake()</text>
<text xml:space="preserve" text-anchor="start" x="72.67" y="-66.75" font-family="Helvetica,sans-Serif" font-size="10.00">&#45;</text>
<text xml:space="preserve" text-anchor="start" x="81.17" y="-66.75" font-family="Helvetica,sans-Serif" font-size="10.00">Update()</text>
<text xml:space="preserve" text-anchor="start" x="72.67" y="-51.5" font-family="Helvetica,sans-Serif" font-size="10.00">&#45;</text>
<text xml:space="preserve" text-anchor="start" x="81.17" y="-51.5" font-family="Helvetica,sans-Serif" font-size="10.00">CheckPickaxeEquipped()</text>
<text xml:space="preserve" text-anchor="start" x="72.67" y="-36.25" font-family="Helvetica,sans-Serif" font-size="10.00">&#45;</text>
<text xml:space="preserve" text-anchor="start" x="81.17" y="-36.25" font-family="Helvetica,sans-Serif" font-size="10.00">EquipPickaxe()</text>
<text xml:space="preserve" text-anchor="start" x="72.67" y="-21" font-family="Helvetica,sans-Serif" font-size="10.00">&#45;</text>
<text xml:space="preserve" text-anchor="start" x="81.17" y="-21" font-family="Helvetica,sans-Serif" font-size="10.00">UnequipPickaxe()</text>
<text xml:space="preserve" text-anchor="start" x="72.67" y="-5.75" font-family="Helvetica,sans-Serif" font-size="10.00">&#45;</text>
<text xml:space="preserve" text-anchor="start" x="81.17" y="-5.75" font-family="Helvetica,sans-Serif" font-size="10.00">SwingCoroutine()</text>
<polygon fill="#666666" stroke="#666666" points="67.17,-246 67.17,-246 195.42,-246 195.42,-246 67.17,-246"/>
<polygon fill="#666666" stroke="#666666" points="67.17,-124 67.17,-124 79.17,-124 79.17,-124 67.17,-124"/>
<polygon fill="#666666" stroke="#666666" points="79.17,-124 79.17,-124 195.42,-124 195.42,-124 79.17,-124"/>
<polygon fill="none" stroke="#666666" points="67.17,0 67.17,-274.5 195.42,-274.5 195.42,0 67.17,0"/>
</a>
</g>
</g>
<!-- Node2 -->
<g id="Node000002" class="node">
<title>Node2</title>
<g id="a_Node000002"><a xlink:title=" ">
<polygon fill="white" stroke="none" points="212.04,-914 136.54,-914 136.54,-864.25 212.04,-864.25 212.04,-914"/>
<text xml:space="preserve" text-anchor="start" x="140.54" y="-900.5" font-family="Helvetica,sans-Serif" font-size="10.00">MonoBehaviour</text>
<text xml:space="preserve" text-anchor="start" x="172.79" y="-885.25" font-family="Helvetica,sans-Serif" font-size="10.00"> </text>
<text xml:space="preserve" text-anchor="start" x="172.79" y="-870" font-family="Helvetica,sans-Serif" font-size="10.00"> </text>
<polygon fill="#666666" stroke="#666666" points="136.54,-896.75 136.54,-896.75 212.04,-896.75 212.04,-896.75 136.54,-896.75"/>
<polygon fill="#666666" stroke="#666666" points="136.54,-881.5 136.54,-881.5 212.04,-881.5 212.04,-881.5 136.54,-881.5"/>
<polygon fill="none" stroke="#666666" points="136.54,-864.25 136.54,-914 212.04,-914 212.04,-864.25 136.54,-864.25"/>
</a>
</g>
</g>
<!-- Node2&#45;&gt;Node1 -->
<g id="edge1_Node000001_Node000002" class="edge">
<title>Node2&#45;&gt;Node1</title>
<g id="a_edge1_Node000001_Node000002"><a xlink:title=" ">
<path fill="none" stroke="#63b8ff" d="M126.13,-876.35C100.63,-867.4 71.51,-852.23 56.29,-827.25 -46.78,-658.09 13.73,-421.57 70.05,-274.27"/>
<polygon fill="none" stroke="#63b8ff" points="124.75,-879.58 135.35,-879.35 126.92,-872.92 124.75,-879.58"/>
</a>
</g>
</g>
<!-- Node3 -->
<g id="Node000003" class="node">
<title>Node3</title>
<g id="a_Node000003"><a xlink:href="class_controller_1_1_first_person_player_controller.html" target="_top" xlink:title="First&#45;person player controller for movement, looking, and basic interaction checks....">
<polygon fill="white" stroke="none" points="196.42,-648 66.17,-648 66.17,-327.75 196.42,-327.75 196.42,-648"/>
<text xml:space="preserve" text-anchor="start" x="70.17" y="-634.5" font-family="Helvetica,sans-Serif" font-size="10.00">Controller.FirstPersonPlayer</text>
<text xml:space="preserve" text-anchor="start" x="110.29" y="-623.25" font-family="Helvetica,sans-Serif" font-size="10.00">Controller</text>
<text xml:space="preserve" text-anchor="start" x="73.1" y="-608" font-family="Helvetica,sans-Serif" font-size="10.00">&#45;</text>
<text xml:space="preserve" text-anchor="start" x="83.04" y="-608" font-family="Helvetica,sans-Serif" font-size="10.00">cameraTransform</text>
<text xml:space="preserve" text-anchor="start" x="73.1" y="-592.75" font-family="Helvetica,sans-Serif" font-size="10.00">&#45;</text>
<text xml:space="preserve" text-anchor="start" x="83.04" y="-592.75" font-family="Helvetica,sans-Serif" font-size="10.00">moveSpeed</text>
<text xml:space="preserve" text-anchor="start" x="73.1" y="-577.5" font-family="Helvetica,sans-Serif" font-size="10.00">&#45;</text>
<text xml:space="preserve" text-anchor="start" x="83.04" y="-577.5" font-family="Helvetica,sans-Serif" font-size="10.00">speedStatIndex</text>
<text xml:space="preserve" text-anchor="start" x="73.1" y="-562.25" font-family="Helvetica,sans-Serif" font-size="10.00">&#45;</text>
<text xml:space="preserve" text-anchor="start" x="83.04" y="-562.25" font-family="Helvetica,sans-Serif" font-size="10.00">mouseSensitivity</text>
<text xml:space="preserve" text-anchor="start" x="73.1" y="-547" font-family="Helvetica,sans-Serif" font-size="10.00">&#45;</text>
<text xml:space="preserve" text-anchor="start" x="83.04" y="-547" font-family="Helvetica,sans-Serif" font-size="10.00">rotationSmoothness</text>
<text xml:space="preserve" text-anchor="start" x="73.1" y="-531.75" font-family="Helvetica,sans-Serif" font-size="10.00">&#45;</text>
<text xml:space="preserve" text-anchor="start" x="83.04" y="-531.75" font-family="Helvetica,sans-Serif" font-size="10.00">allowPitchRotation</text>
<text xml:space="preserve" text-anchor="start" x="73.1" y="-516.5" font-family="Helvetica,sans-Serif" font-size="10.00">&#45;</text>
<text xml:space="preserve" text-anchor="start" x="83.04" y="-516.5" font-family="Helvetica,sans-Serif" font-size="10.00">_stats</text>
<text xml:space="preserve" text-anchor="start" x="73.1" y="-501.25" font-family="Helvetica,sans-Serif" font-size="10.00">&#45;</text>
<text xml:space="preserve" text-anchor="start" x="83.04" y="-501.25" font-family="Helvetica,sans-Serif" font-size="10.00">_rotationX</text>
<text xml:space="preserve" text-anchor="start" x="73.1" y="-486" font-family="Helvetica,sans-Serif" font-size="10.00">&#45;</text>
<text xml:space="preserve" text-anchor="start" x="83.04" y="-486" font-family="Helvetica,sans-Serif" font-size="10.00">_rotationY</text>
<text xml:space="preserve" text-anchor="start" x="73.1" y="-470.75" font-family="Helvetica,sans-Serif" font-size="10.00">&#45;</text>
<text xml:space="preserve" text-anchor="start" x="83.04" y="-470.75" font-family="Helvetica,sans-Serif" font-size="10.00">_currentRotation</text>
<text xml:space="preserve" text-anchor="start" x="73.1" y="-455.5" font-family="Helvetica,sans-Serif" font-size="10.00">&#45;</text>
<text xml:space="preserve" text-anchor="start" x="83.04" y="-455.5" font-family="Helvetica,sans-Serif" font-size="10.00">_currentCameraRotation</text>
<text xml:space="preserve" text-anchor="start" x="73.1" y="-440.25" font-family="Helvetica,sans-Serif" font-size="10.00">&#45;</text>
<text xml:space="preserve" text-anchor="start" x="83.04" y="-440.25" font-family="Helvetica,sans-Serif" font-size="10.00">_currentInteractables</text>
<text xml:space="preserve" text-anchor="start" x="71.6" y="-425" font-family="Helvetica,sans-Serif" font-size="10.00">+</text>
<text xml:space="preserve" text-anchor="start" x="83.04" y="-425" font-family="Helvetica,sans-Serif" font-size="10.00">Init()</text>
<text xml:space="preserve" text-anchor="start" x="71.6" y="-409.75" font-family="Helvetica,sans-Serif" font-size="10.00">+</text>
<text xml:space="preserve" text-anchor="start" x="83.04" y="-409.75" font-family="Helvetica,sans-Serif" font-size="10.00">SyncLoadedRotation()</text>
<text xml:space="preserve" text-anchor="start" x="73.1" y="-394.5" font-family="Helvetica,sans-Serif" font-size="10.00">&#45;</text>
<text xml:space="preserve" text-anchor="start" x="83.04" y="-394.5" font-family="Helvetica,sans-Serif" font-size="10.00">Start()</text>
<text xml:space="preserve" text-anchor="start" x="73.1" y="-379.25" font-family="Helvetica,sans-Serif" font-size="10.00">&#45;</text>
<text xml:space="preserve" text-anchor="start" x="83.04" y="-379.25" font-family="Helvetica,sans-Serif" font-size="10.00">Update()</text>
<text xml:space="preserve" text-anchor="start" x="73.1" y="-364" font-family="Helvetica,sans-Serif" font-size="10.00">&#45;</text>
<text xml:space="preserve" text-anchor="start" x="83.04" y="-364" font-family="Helvetica,sans-Serif" font-size="10.00">HandleMovement()</text>
<text xml:space="preserve" text-anchor="start" x="73.1" y="-348.75" font-family="Helvetica,sans-Serif" font-size="10.00">&#45;</text>
<text xml:space="preserve" text-anchor="start" x="83.04" y="-348.75" font-family="Helvetica,sans-Serif" font-size="10.00">HandleRotation()</text>
<text xml:space="preserve" text-anchor="start" x="73.1" y="-333.5" font-family="Helvetica,sans-Serif" font-size="10.00">&#45;</text>
<text xml:space="preserve" text-anchor="start" x="83.04" y="-333.5" font-family="Helvetica,sans-Serif" font-size="10.00">CheckForObject()</text>
<polygon fill="#666666" stroke="#666666" points="66.17,-619.5 66.17,-619.5 196.42,-619.5 196.42,-619.5 66.17,-619.5"/>
<polygon fill="#666666" stroke="#666666" points="66.17,-436.5 66.17,-436.5 81.04,-436.5 81.04,-436.5 66.17,-436.5"/>
<polygon fill="#666666" stroke="#666666" points="81.04,-436.5 81.04,-436.5 196.42,-436.5 196.42,-436.5 81.04,-436.5"/>
<polygon fill="none" stroke="#666666" points="66.17,-327.75 66.17,-648 196.42,-648 196.42,-327.75 66.17,-327.75"/>
</a>
</g>
</g>
<!-- Node2&#45;&gt;Node3 -->
<g id="edge3_Node000003_Node000002" class="edge">
<title>Node2&#45;&gt;Node3</title>
<g id="a_edge3_Node000003_Node000002"><a xlink:title=" ">
<path fill="none" stroke="#63b8ff" d="M127.03,-868.27C110.07,-858.55 92.8,-845.05 83.29,-827.25 54.29,-772.95 56.68,-707.09 69.78,-647.95"/>
<polygon fill="none" stroke="#63b8ff" points="125.12,-871.21 135.59,-872.84 128.42,-865.04 125.12,-871.21"/>
</a>
</g>
</g>
<!-- Node4 -->
<g id="Node000004" class="node">
<title>Node4</title>
<g id="a_Node000004"><a xlink:href="class_manager_1_1_game_input_manager.html" target="_top" xlink:title="Manages player input for movement and camera control using the Input System. Handles input locking an...">
<polygon fill="white" stroke="none" points="256.04,-827.25 92.54,-827.25 92.54,-701.25 256.04,-701.25 256.04,-827.25"/>
<text xml:space="preserve" text-anchor="start" x="111.67" y="-813.75" font-family="Helvetica,sans-Serif" font-size="10.00">Manager.GameInputManager</text>
<text xml:space="preserve" text-anchor="start" x="96.54" y="-798.5" font-family="Helvetica,sans-Serif" font-size="10.00">+</text>
<text xml:space="preserve" text-anchor="start" x="106.54" y="-798.5" font-family="Helvetica,sans-Serif" font-size="10.00">Instance</text>
<text xml:space="preserve" text-anchor="start" x="98.04" y="-783.25" font-family="Helvetica,sans-Serif" font-size="10.00">&#45;</text>
<text xml:space="preserve" text-anchor="start" x="106.54" y="-783.25" font-family="Helvetica,sans-Serif" font-size="10.00">_inputSystemActions</text>
<text xml:space="preserve" text-anchor="start" x="96.54" y="-768" font-family="Helvetica,sans-Serif" font-size="10.00">+</text>
<text xml:space="preserve" text-anchor="start" x="106.54" y="-768" font-family="Helvetica,sans-Serif" font-size="10.00">GetMovementVectorNormalized()</text>
<text xml:space="preserve" text-anchor="start" x="96.54" y="-752.75" font-family="Helvetica,sans-Serif" font-size="10.00">+</text>
<text xml:space="preserve" text-anchor="start" x="106.54" y="-752.75" font-family="Helvetica,sans-Serif" font-size="10.00">GetLookDelta()</text>
<text xml:space="preserve" text-anchor="start" x="96.54" y="-737.5" font-family="Helvetica,sans-Serif" font-size="10.00">+</text>
<text xml:space="preserve" text-anchor="start" x="106.54" y="-737.5" font-family="Helvetica,sans-Serif" font-size="10.00">MouseLocked()</text>
<text xml:space="preserve" text-anchor="start" x="98.04" y="-722.25" font-family="Helvetica,sans-Serif" font-size="10.00">&#45;</text>
<text xml:space="preserve" text-anchor="start" x="106.54" y="-722.25" font-family="Helvetica,sans-Serif" font-size="10.00">Awake()</text>
<text xml:space="preserve" text-anchor="start" x="98.04" y="-707" font-family="Helvetica,sans-Serif" font-size="10.00">&#45;</text>
<text xml:space="preserve" text-anchor="start" x="106.54" y="-707" font-family="Helvetica,sans-Serif" font-size="10.00">OnDestroy()</text>
<polygon fill="#666666" stroke="#666666" points="92.54,-810 92.54,-810 256.04,-810 256.04,-810 92.54,-810"/>
<polygon fill="#666666" stroke="#666666" points="92.54,-779.5 92.54,-779.5 104.54,-779.5 104.54,-779.5 92.54,-779.5"/>
<polygon fill="#666666" stroke="#666666" points="104.54,-779.5 104.54,-779.5 256.04,-779.5 256.04,-779.5 104.54,-779.5"/>
<polygon fill="none" stroke="#666666" points="92.54,-701.25 92.54,-827.25 256.04,-827.25 256.04,-701.25 92.54,-701.25"/>
</a>
</g>
</g>
<!-- Node2&#45;&gt;Node4 -->
<g id="edge5_Node000004_Node000002" class="edge">
<title>Node2&#45;&gt;Node4</title>
<g id="a_edge5_Node000004_Node000002"><a xlink:title=" ">
<path fill="none" stroke="#63b8ff" d="M174.29,-853.14C174.29,-844.99 174.29,-836.08 174.29,-827.16"/>
<polygon fill="none" stroke="#63b8ff" points="170.79,-852.92 174.29,-862.92 177.79,-852.92 170.79,-852.92"/>
</a>
</g>
</g>
<!-- Node5 -->
<g id="Node000005" class="node">
<title>Node5</title>
<g id="a_Node000005"><a xlink:href="class_shooting_1_1_player_shooting.html" target="_top" xlink:title="Handles player shooting by getting projectiles from a pool and spawning them at the shoot point.">
<polygon fill="white" stroke="none" points="341.92,-528 226.67,-528 226.67,-447.75 341.92,-447.75 341.92,-528"/>
<text xml:space="preserve" text-anchor="start" x="230.67" y="-514.5" font-family="Helvetica,sans-Serif" font-size="10.00">Shooting.PlayerShooting</text>
<text xml:space="preserve" text-anchor="start" x="240.73" y="-499.25" font-family="Helvetica,sans-Serif" font-size="10.00">&#45;</text>
<text xml:space="preserve" text-anchor="start" x="257.79" y="-499.25" font-family="Helvetica,sans-Serif" font-size="10.00">shootPoint</text>
<text xml:space="preserve" text-anchor="start" x="239.23" y="-484" font-family="Helvetica,sans-Serif" font-size="10.00">+</text>
<text xml:space="preserve" text-anchor="start" x="257.79" y="-484" font-family="Helvetica,sans-Serif" font-size="10.00">Init()</text>
<text xml:space="preserve" text-anchor="start" x="240.73" y="-468.75" font-family="Helvetica,sans-Serif" font-size="10.00">&#45;</text>
<text xml:space="preserve" text-anchor="start" x="257.79" y="-468.75" font-family="Helvetica,sans-Serif" font-size="10.00">Update()</text>
<text xml:space="preserve" text-anchor="start" x="240.73" y="-453.5" font-family="Helvetica,sans-Serif" font-size="10.00">&#45;</text>
<text xml:space="preserve" text-anchor="start" x="257.79" y="-453.5" font-family="Helvetica,sans-Serif" font-size="10.00">FireProjectile()</text>
<polygon fill="#666666" stroke="#666666" points="226.67,-510.75 226.67,-510.75 341.92,-510.75 341.92,-510.75 226.67,-510.75"/>
<polygon fill="#666666" stroke="#666666" points="226.67,-495.5 226.67,-495.5 255.79,-495.5 255.79,-495.5 226.67,-495.5"/>
<polygon fill="#666666" stroke="#666666" points="255.79,-495.5 255.79,-495.5 341.92,-495.5 341.92,-495.5 255.79,-495.5"/>
<polygon fill="none" stroke="#666666" points="226.67,-447.75 226.67,-528 341.92,-528 341.92,-447.75 226.67,-447.75"/>
</a>
</g>
</g>
<!-- Node2&#45;&gt;Node5 -->
<g id="edge7_Node000005_Node000002" class="edge">
<title>Node2&#45;&gt;Node5</title>
<g id="a_edge7_Node000005_Node000002"><a xlink:title=" ">
<path fill="none" stroke="#63b8ff" d="M221.44,-867.75C238.2,-858.02 255.37,-844.64 265.29,-827.25 320.05,-731.31 304.71,-594.09 292.64,-527.75"/>
<polygon fill="none" stroke="#63b8ff" points="220.12,-864.49 213,-872.34 223.46,-870.64 220.12,-864.49"/>
</a>
</g>
</g>
<!-- Node6 -->
<g id="Node000006" class="node">
<title>Node6</title>
<g id="a_Node000006"><a xlink:href="class_manager_1_1_object_pool_manager.html" target="_top" xlink:title="Manages object pool for reusable GameObject instances (e.g., projectiles). Preloads a set of inactive...">
<polygon fill="white" stroke="none" points="445.92,-819.62 312.67,-819.62 312.67,-708.88 445.92,-708.88 445.92,-819.62"/>
<text xml:space="preserve" text-anchor="start" x="316.67" y="-806.12" font-family="Helvetica,sans-Serif" font-size="10.00">Manager.ObjectPoolManager</text>
<text xml:space="preserve" text-anchor="start" x="325.42" y="-790.88" font-family="Helvetica,sans-Serif" font-size="10.00">+</text>
<text xml:space="preserve" text-anchor="start" x="344.17" y="-790.88" font-family="Helvetica,sans-Serif" font-size="10.00">IsReady</text>
<text xml:space="preserve" text-anchor="start" x="326.92" y="-775.62" font-family="Helvetica,sans-Serif" font-size="10.00">&#45;</text>
<text xml:space="preserve" text-anchor="start" x="344.17" y="-775.62" font-family="Helvetica,sans-Serif" font-size="10.00">projectilePrefab</text>
<text xml:space="preserve" text-anchor="start" x="326.92" y="-760.38" font-family="Helvetica,sans-Serif" font-size="10.00">&#45;</text>
<text xml:space="preserve" text-anchor="start" x="344.17" y="-760.38" font-family="Helvetica,sans-Serif" font-size="10.00">poolSize</text>
<text xml:space="preserve" text-anchor="start" x="326.92" y="-745.12" font-family="Helvetica,sans-Serif" font-size="10.00">&#45;</text>
<text xml:space="preserve" text-anchor="start" x="344.17" y="-745.12" font-family="Helvetica,sans-Serif" font-size="10.00">_pool</text>
<text xml:space="preserve" text-anchor="start" x="325.42" y="-729.88" font-family="Helvetica,sans-Serif" font-size="10.00">+</text>
<text xml:space="preserve" text-anchor="start" x="344.17" y="-729.88" font-family="Helvetica,sans-Serif" font-size="10.00">GetPooledObject()</text>
<text xml:space="preserve" text-anchor="start" x="326.92" y="-714.62" font-family="Helvetica,sans-Serif" font-size="10.00">&#45;</text>
<text xml:space="preserve" text-anchor="start" x="344.17" y="-714.62" font-family="Helvetica,sans-Serif" font-size="10.00">Awake()</text>
<polygon fill="#666666" stroke="#666666" points="312.67,-802.38 312.67,-802.38 445.92,-802.38 445.92,-802.38 312.67,-802.38"/>
<polygon fill="#666666" stroke="#666666" points="312.67,-741.38 312.67,-741.38 342.17,-741.38 342.17,-741.38 312.67,-741.38"/>
<polygon fill="#666666" stroke="#666666" points="342.17,-741.38 342.17,-741.38 445.92,-741.38 445.92,-741.38 342.17,-741.38"/>
<polygon fill="none" stroke="#666666" points="312.67,-708.88 312.67,-819.62 445.92,-819.62 445.92,-708.88 312.67,-708.88"/>
</a>
</g>
</g>
<!-- Node2&#45;&gt;Node6 -->
<g id="edge9_Node000006_Node000002" class="edge">
<title>Node2&#45;&gt;Node6</title>
<g id="a_edge9_Node000006_Node000002"><a xlink:title=" ">
<path fill="none" stroke="#63b8ff" d="M222.74,-877.33C246.64,-870.66 275.21,-860.58 298.29,-846.25 310.29,-838.8 321.86,-829.26 332.32,-819.35"/>
<polygon fill="none" stroke="#63b8ff" points="222.01,-873.9 213.24,-879.86 223.81,-880.67 222.01,-873.9"/>
</a>
</g>
</g>
<!-- Node3&#45;&gt;Node1 -->
<g id="edge2_Node000001_Node000003" class="edge">
<title>Node3&#45;&gt;Node1</title>
<g id="a_edge2_Node000001_Node000003"><a xlink:title=" ">
<path fill="none" stroke="#63b8ff" d="M131.29,-327.87C131.29,-314.32 131.29,-300.66 131.29,-287.2"/>
<polygon fill="none" stroke="#63b8ff" points="131.29,-287.27 127.29,-281.27 131.29,-275.27 135.29,-281.27 131.29,-287.27"/>
</a>
</g>
<text xml:space="preserve" text-anchor="start" x="134.29" y="-297.25" font-family="Helvetica,sans-Serif" font-size="10.00" fill="grey">&#45;_firstPersonController</text>
</g>
<!-- Node4&#45;&gt;Node3 -->
<g id="edge4_Node000003_Node000004" class="edge">
<title>Node4&#45;&gt;Node3</title>
<g id="a_edge4_Node000003_Node000004"><a xlink:title=" ">
<path fill="none" stroke="#63b8ff" d="M164.59,-701.33C162.61,-688.74 160.45,-674.92 158.2,-660.57"/>
<polygon fill="none" stroke="#63b8ff" points="158.2,-660.58 153.32,-655.27 156.34,-648.72 161.22,-654.03 158.2,-660.58"/>
</a>
</g>
<text xml:space="preserve" text-anchor="start" x="164.58" y="-670.75" font-family="Helvetica,sans-Serif" font-size="10.00" fill="grey">&#45;gameInput</text>
</g>
<!-- Node5&#45;&gt;Node1 -->
<g id="edge6_Node000001_Node000005" class="edge">
<title>Node5&#45;&gt;Node1</title>
<g id="a_edge6_Node000001_Node000005"><a xlink:title=" ">
<path fill="none" stroke="#63b8ff" d="M279.44,-447.88C273.44,-407.62 261.1,-343.65 238.29,-292.5 228.67,-270.93 215.92,-249.21 202.59,-229.15"/>
<polygon fill="none" stroke="#63b8ff" points="202.61,-229.18 195.93,-226.46 195.86,-219.25 202.54,-221.97 202.61,-229.18"/>
</a>
</g>
<text xml:space="preserve" text-anchor="start" x="247.52" y="-297.25" font-family="Helvetica,sans-Serif" font-size="10.00" fill="grey">&#45;_playerShooting</text>
</g>
<!-- Node6&#45;&gt;Node5 -->
<g id="edge8_Node000005_Node000006" class="edge">
<title>Node6&#45;&gt;Node5</title>
<g id="a_edge8_Node000005_Node000006"><a xlink:title=" ">
<path fill="none" stroke="#63b8ff" d="M360.52,-709.04C343.55,-660.01 318.73,-588.33 302.07,-540.21"/>
<polygon fill="none" stroke="#63b8ff" points="302.03,-540.1 296.28,-535.74 298.1,-528.76 303.84,-533.12 302.03,-540.1"/>
</a>
</g>
<text xml:space="preserve" text-anchor="start" x="354.22" y="-670.75" font-family="Helvetica,sans-Serif" font-size="10.00" fill="grey">&#45;objectPoolManager</text>
</g>
</g>
</svg>
