<?xml version="1.0" encoding="UTF-8" standalone="no"?>
<!DOCTYPE svg PUBLIC "-//W3C//DTD SVG 1.1//EN"
 "http://www.w3.org/Graphics/SVG/1.1/DTD/svg11.dtd">
<!-- Generated by graphviz version 13.1.2 (20250808.2320)
 -->
<!-- Title: MiniGame.Classifier Pages: 1 -->
<svg width="132pt" height="327pt"
 viewBox="0.00 0.00 132.00 327.00" xmlns="http://www.w3.org/2000/svg" xmlns:xlink="http://www.w3.org/1999/xlink">
<g id="graph0" class="graph" transform="scale(1 1) rotate(0) translate(4 322.5)">
<title>MiniGame.Classifier</title>
<!-- Node1 -->
<g id="Node000001" class="node">
<title>Node1</title>
<g id="a_Node000001"><a xlink:title="Classifier handles digit and glyph prediction using a Unity Sentis AI model.">
<polygon fill="#999999" stroke="none" points="123.75,-232.75 0,-232.75 0,0 123.75,0 123.75,-232.75"/>
<text xml:space="preserve" text-anchor="start" x="17.62" y="-219.25" font-family="Helvetica,sans-Serif" font-size="10.00">MiniGame.Classifier</text>
<text xml:space="preserve" text-anchor="start" x="4" y="-204" font-family="Helvetica,sans-Serif" font-size="10.00">+</text>
<text xml:space="preserve" text-anchor="start" x="14" y="-204" font-family="Helvetica,sans-Serif" font-size="10.00">modelAsset</text>
<text xml:space="preserve" text-anchor="start" x="4" y="-188.75" font-family="Helvetica,sans-Serif" font-size="10.00">+</text>
<text xml:space="preserve" text-anchor="start" x="14" y="-188.75" font-family="Helvetica,sans-Serif" font-size="10.00">outputSize</text>
<text xml:space="preserve" text-anchor="start" x="4" y="-173.5" font-family="Helvetica,sans-Serif" font-size="10.00">+</text>
<text xml:space="preserve" text-anchor="start" x="14" y="-173.5" font-family="Helvetica,sans-Serif" font-size="10.00">int</text>
<text xml:space="preserve" text-anchor="start" x="5.5" y="-158.25" font-family="Helvetica,sans-Serif" font-size="10.00">&#45;</text>
<text xml:space="preserve" text-anchor="start" x="14" y="-158.25" font-family="Helvetica,sans-Serif" font-size="10.00">_engine</text>
<text xml:space="preserve" text-anchor="start" x="5.5" y="-143" font-family="Helvetica,sans-Serif" font-size="10.00">&#45;</text>
<text xml:space="preserve" text-anchor="start" x="14" y="-143" font-family="Helvetica,sans-Serif" font-size="10.00">_outputTensor</text>
<text xml:space="preserve" text-anchor="start" x="5.5" y="-127.75" font-family="Helvetica,sans-Serif" font-size="10.00">&#45;</text>
<text xml:space="preserve" text-anchor="start" x="14" y="-127.75" font-family="Helvetica,sans-Serif" font-size="10.00">_model</text>
<text xml:space="preserve" text-anchor="start" x="5.5" y="-112.5" font-family="Helvetica,sans-Serif" font-size="10.00">&#45;</text>
<text xml:space="preserve" text-anchor="start" x="14" y="-112.5" font-family="Helvetica,sans-Serif" font-size="10.00">maxIndex</text>
<text xml:space="preserve" text-anchor="start" x="5.5" y="-97.25" font-family="Helvetica,sans-Serif" font-size="10.00">&#45;</text>
<text xml:space="preserve" text-anchor="start" x="14" y="-97.25" font-family="Helvetica,sans-Serif" font-size="10.00">BackendType</text>
<text xml:space="preserve" text-anchor="start" x="4" y="-82" font-family="Helvetica,sans-Serif" font-size="10.00">+</text>
<text xml:space="preserve" text-anchor="start" x="14" y="-82" font-family="Helvetica,sans-Serif" font-size="10.00">Classifier()</text>
<text xml:space="preserve" text-anchor="start" x="4" y="-66.75" font-family="Helvetica,sans-Serif" font-size="10.00">+</text>
<text xml:space="preserve" text-anchor="start" x="14" y="-66.75" font-family="Helvetica,sans-Serif" font-size="10.00">PredictDigit()</text>
<text xml:space="preserve" text-anchor="start" x="4" y="-51.5" font-family="Helvetica,sans-Serif" font-size="10.00">+</text>
<text xml:space="preserve" text-anchor="start" x="14" y="-51.5" font-family="Helvetica,sans-Serif" font-size="10.00">PredictGlyph()</text>
<text xml:space="preserve" text-anchor="start" x="5.5" y="-36.25" font-family="Helvetica,sans-Serif" font-size="10.00">&#45;</text>
<text xml:space="preserve" text-anchor="start" x="14" y="-36.25" font-family="Helvetica,sans-Serif" font-size="10.00">Start()</text>
<text xml:space="preserve" text-anchor="start" x="5.5" y="-21" font-family="Helvetica,sans-Serif" font-size="10.00">&#45;</text>
<text xml:space="preserve" text-anchor="start" x="14" y="-21" font-family="Helvetica,sans-Serif" font-size="10.00">GetMaxValueAndIndex()</text>
<text xml:space="preserve" text-anchor="start" x="5.5" y="-5.75" font-family="Helvetica,sans-Serif" font-size="10.00">&#45;</text>
<text xml:space="preserve" text-anchor="start" x="14" y="-5.75" font-family="Helvetica,sans-Serif" font-size="10.00">OnDestroy()</text>
<polygon fill="#666666" stroke="#666666" points="0,-215.5 0,-215.5 123.75,-215.5 123.75,-215.5 0,-215.5"/>
<polygon fill="#666666" stroke="#666666" points="0,-93.5 0,-93.5 12,-93.5 12,-93.5 0,-93.5"/>
<polygon fill="#666666" stroke="#666666" points="12,-93.5 12,-93.5 123.75,-93.5 123.75,-93.5 12,-93.5"/>
<polygon fill="none" stroke="#666666" points="0,0 0,-232.75 123.75,-232.75 123.75,0 0,0"/>
</a>
</g>
</g>
<!-- Node2 -->
<g id="Node000002" class="node">
<title>Node2</title>
<g id="a_Node000002"><a xlink:title=" ">
<polygon fill="white" stroke="none" points="99.62,-318.5 24.12,-318.5 24.12,-268.75 99.62,-268.75 99.62,-318.5"/>
<text xml:space="preserve" text-anchor="start" x="28.12" y="-305" font-family="Helvetica,sans-Serif" font-size="10.00">MonoBehaviour</text>
<text xml:space="preserve" text-anchor="start" x="60.38" y="-289.75" font-family="Helvetica,sans-Serif" font-size="10.00"> </text>
<text xml:space="preserve" text-anchor="start" x="60.38" y="-274.5" font-family="Helvetica,sans-Serif" font-size="10.00"> </text>
<polygon fill="#666666" stroke="#666666" points="24.12,-301.25 24.12,-301.25 99.62,-301.25 99.62,-301.25 24.12,-301.25"/>
<polygon fill="#666666" stroke="#666666" points="24.12,-286 24.12,-286 99.62,-286 99.62,-286 24.12,-286"/>
<polygon fill="none" stroke="#666666" points="24.12,-268.75 24.12,-318.5 99.62,-318.5 99.62,-268.75 24.12,-268.75"/>
</a>
</g>
</g>
<!-- Node2&#45;&gt;Node1 -->
<g id="edge1_Node000001_Node000002" class="edge">
<title>Node2&#45;&gt;Node1</title>
<g id="a_edge1_Node000001_Node000002"><a xlink:title=" ">
<path fill="none" stroke="#63b8ff" d="M61.88,-257.65C61.88,-249.94 61.88,-241.37 61.88,-232.37"/>
<polygon fill="none" stroke="#63b8ff" points="58.38,-257.48 61.88,-267.48 65.38,-257.48 58.38,-257.48"/>
</a>
</g>
</g>
</g>
</svg>
