<?xml version="1.0" encoding="UTF-8" standalone="no"?>
<!DOCTYPE svg PUBLIC "-//W3C//DTD SVG 1.1//EN"
 "http://www.w3.org/Graphics/SVG/1.1/DTD/svg11.dtd">
<!-- Generated by graphviz version 13.1.2 (20250808.2320)
 -->
<!-- Title: Spawning.ItemSpawnerVoronoi Pages: 1 -->
<svg width="153pt" height="205pt"
 viewBox="0.00 0.00 153.00 205.00" xmlns="http://www.w3.org/2000/svg" xmlns:xlink="http://www.w3.org/1999/xlink">
<g id="graph0" class="graph" transform="scale(1 1) rotate(0) translate(4 200.5)">
<title>Spawning.ItemSpawnerVoronoi</title>
<!-- Node1 -->
<g id="Node000001" class="node">
<title>Node1</title>
<g id="a_Node000001"><a xlink:title="Handles the spawning of items in rooms, implementing the ISpawner interface. Items are spawned at ran...">
<polygon fill="#999999" stroke="none" points="144.5,-110.75 0,-110.75 0,0 144.5,0 144.5,-110.75"/>
<text xml:space="preserve" text-anchor="start" x="4" y="-97.25" font-family="Helvetica,sans-Serif" font-size="10.00">Spawning.ItemSpawnerVoronoi</text>
<text xml:space="preserve" text-anchor="start" x="12.94" y="-82" font-family="Helvetica,sans-Serif" font-size="10.00">&#45;</text>
<text xml:space="preserve" text-anchor="start" x="28.88" y="-82" font-family="Helvetica,sans-Serif" font-size="10.00">_itemsDistributor</text>
<text xml:space="preserve" text-anchor="start" x="12.94" y="-66.75" font-family="Helvetica,sans-Serif" font-size="10.00">&#45;</text>
<text xml:space="preserve" text-anchor="start" x="28.88" y="-66.75" font-family="Helvetica,sans-Serif" font-size="10.00">_rooms</text>
<text xml:space="preserve" text-anchor="start" x="12.94" y="-51.5" font-family="Helvetica,sans-Serif" font-size="10.00">&#45;</text>
<text xml:space="preserve" text-anchor="start" x="28.88" y="-51.5" font-family="Helvetica,sans-Serif" font-size="10.00">_parent</text>
<text xml:space="preserve" text-anchor="start" x="11.44" y="-36.25" font-family="Helvetica,sans-Serif" font-size="10.00">+</text>
<text xml:space="preserve" text-anchor="start" x="28.88" y="-36.25" font-family="Helvetica,sans-Serif" font-size="10.00">ItemSpawnerVoronoi()</text>
<text xml:space="preserve" text-anchor="start" x="11.44" y="-21" font-family="Helvetica,sans-Serif" font-size="10.00">+</text>
<text xml:space="preserve" text-anchor="start" x="28.88" y="-21" font-family="Helvetica,sans-Serif" font-size="10.00">ItemSpawnerVoronoi()</text>
<text xml:space="preserve" text-anchor="start" x="11.44" y="-5.75" font-family="Helvetica,sans-Serif" font-size="10.00">+</text>
<text xml:space="preserve" text-anchor="start" x="28.88" y="-5.75" font-family="Helvetica,sans-Serif" font-size="10.00">SpawnInRoom()</text>
<polygon fill="#666666" stroke="#666666" points="0,-93.5 0,-93.5 144.5,-93.5 144.5,-93.5 0,-93.5"/>
<polygon fill="#666666" stroke="#666666" points="0,-47.75 0,-47.75 26.88,-47.75 26.88,-47.75 0,-47.75"/>
<polygon fill="#666666" stroke="#666666" points="26.88,-47.75 26.88,-47.75 144.5,-47.75 144.5,-47.75 26.88,-47.75"/>
<polygon fill="none" stroke="#666666" points="0,0 0,-110.75 144.5,-110.75 144.5,0 0,0"/>
</a>
</g>
</g>
<!-- Node2 -->
<g id="Node000002" class="node">
<title>Node2</title>
<g id="a_Node000002"><a xlink:href="interface_interfaces_1_1_i_spawner_voronoi.html" target="_top" xlink:title="Interface for object spawners in a room in the Voronoi Dungeon. Allows flexibility for spawning diffe...">
<polygon fill="white" stroke="none" points="136.62,-196.5 7.88,-196.5 7.88,-146.75 136.62,-146.75 136.62,-196.5"/>
<text xml:space="preserve" text-anchor="start" x="11.88" y="-183" font-family="Helvetica,sans-Serif" font-size="10.00">Interfaces.ISpawnerVoronoi</text>
<text xml:space="preserve" text-anchor="start" x="70.75" y="-167.75" font-family="Helvetica,sans-Serif" font-size="10.00"> </text>
<text xml:space="preserve" text-anchor="start" x="21.94" y="-152.5" font-family="Helvetica,sans-Serif" font-size="10.00">+</text>
<text xml:space="preserve" text-anchor="start" x="42" y="-152.5" font-family="Helvetica,sans-Serif" font-size="10.00">SpawnInRoom()</text>
<polygon fill="#666666" stroke="#666666" points="7.88,-179.25 7.88,-179.25 136.62,-179.25 136.62,-179.25 7.88,-179.25"/>
<polygon fill="#666666" stroke="#666666" points="7.88,-164 7.88,-164 136.62,-164 136.62,-164 7.88,-164"/>
<polygon fill="none" stroke="#666666" points="7.88,-146.75 7.88,-196.5 136.62,-196.5 136.62,-146.75 7.88,-146.75"/>
</a>
</g>
</g>
<!-- Node2&#45;&gt;Node1 -->
<g id="edge1_Node000001_Node000002" class="edge">
<title>Node2&#45;&gt;Node1</title>
<g id="a_edge1_Node000001_Node000002"><a xlink:title=" ">
<path fill="none" stroke="#63b8ff" d="M72.25,-135.58C72.25,-127.68 72.25,-119.12 72.25,-110.64"/>
<polygon fill="none" stroke="#63b8ff" points="68.75,-135.44 72.25,-145.44 75.75,-135.44 68.75,-135.44"/>
</a>
</g>
</g>
</g>
</svg>
