<?xml version="1.0" encoding="UTF-8" standalone="no"?>
<!DOCTYPE svg PUBLIC "-//W3C//DTD SVG 1.1//EN"
 "http://www.w3.org/Graphics/SVG/1.1/DTD/svg11.dtd">
<!-- Generated by graphviz version 13.1.2 (20250808.2320)
 -->
<!-- Title: Manager.GameInputManager Pages: 1 -->
<svg width="172pt" height="220pt"
 viewBox="0.00 0.00 172.00 220.00" xmlns="http://www.w3.org/2000/svg" xmlns:xlink="http://www.w3.org/1999/xlink">
<g id="graph0" class="graph" transform="scale(1 1) rotate(0) translate(4 215.75)">
<title>Manager.GameInputManager</title>
<!-- Node1 -->
<g id="Node000001" class="node">
<title>Node1</title>
<g id="a_Node000001"><a xlink:title="Manages player input for movement and camera control using the Input System. Handles input locking an...">
<polygon fill="#999999" stroke="none" points="163.5,-126 0,-126 0,0 163.5,0 163.5,-126"/>
<text xml:space="preserve" text-anchor="start" x="19.12" y="-112.5" font-family="Helvetica,sans-Serif" font-size="10.00">Manager.GameInputManager</text>
<text xml:space="preserve" text-anchor="start" x="4" y="-97.25" font-family="Helvetica,sans-Serif" font-size="10.00">+</text>
<text xml:space="preserve" text-anchor="start" x="14" y="-97.25" font-family="Helvetica,sans-Serif" font-size="10.00">Instance</text>
<text xml:space="preserve" text-anchor="start" x="5.5" y="-82" font-family="Helvetica,sans-Serif" font-size="10.00">&#45;</text>
<text xml:space="preserve" text-anchor="start" x="14" y="-82" font-family="Helvetica,sans-Serif" font-size="10.00">_inputSystemActions</text>
<text xml:space="preserve" text-anchor="start" x="4" y="-66.75" font-family="Helvetica,sans-Serif" font-size="10.00">+</text>
<text xml:space="preserve" text-anchor="start" x="14" y="-66.75" font-family="Helvetica,sans-Serif" font-size="10.00">GetMovementVectorNormalized()</text>
<text xml:space="preserve" text-anchor="start" x="4" y="-51.5" font-family="Helvetica,sans-Serif" font-size="10.00">+</text>
<text xml:space="preserve" text-anchor="start" x="14" y="-51.5" font-family="Helvetica,sans-Serif" font-size="10.00">GetLookDelta()</text>
<text xml:space="preserve" text-anchor="start" x="4" y="-36.25" font-family="Helvetica,sans-Serif" font-size="10.00">+</text>
<text xml:space="preserve" text-anchor="start" x="14" y="-36.25" font-family="Helvetica,sans-Serif" font-size="10.00">MouseLocked()</text>
<text xml:space="preserve" text-anchor="start" x="5.5" y="-21" font-family="Helvetica,sans-Serif" font-size="10.00">&#45;</text>
<text xml:space="preserve" text-anchor="start" x="14" y="-21" font-family="Helvetica,sans-Serif" font-size="10.00">Awake()</text>
<text xml:space="preserve" text-anchor="start" x="5.5" y="-5.75" font-family="Helvetica,sans-Serif" font-size="10.00">&#45;</text>
<text xml:space="preserve" text-anchor="start" x="14" y="-5.75" font-family="Helvetica,sans-Serif" font-size="10.00">OnDestroy()</text>
<polygon fill="#666666" stroke="#666666" points="0,-108.75 0,-108.75 163.5,-108.75 163.5,-108.75 0,-108.75"/>
<polygon fill="#666666" stroke="#666666" points="0,-78.25 0,-78.25 12,-78.25 12,-78.25 0,-78.25"/>
<polygon fill="#666666" stroke="#666666" points="12,-78.25 12,-78.25 163.5,-78.25 163.5,-78.25 12,-78.25"/>
<polygon fill="none" stroke="#666666" points="0,0 0,-126 163.5,-126 163.5,0 0,0"/>
</a>
</g>
</g>
<!-- Node2 -->
<g id="Node000002" class="node">
<title>Node2</title>
<g id="a_Node000002"><a xlink:title=" ">
<polygon fill="white" stroke="none" points="119.5,-211.75 44,-211.75 44,-162 119.5,-162 119.5,-211.75"/>
<text xml:space="preserve" text-anchor="start" x="48" y="-198.25" font-family="Helvetica,sans-Serif" font-size="10.00">MonoBehaviour</text>
<text xml:space="preserve" text-anchor="start" x="80.25" y="-183" font-family="Helvetica,sans-Serif" font-size="10.00"> </text>
<text xml:space="preserve" text-anchor="start" x="80.25" y="-167.75" font-family="Helvetica,sans-Serif" font-size="10.00"> </text>
<polygon fill="#666666" stroke="#666666" points="44,-194.5 44,-194.5 119.5,-194.5 119.5,-194.5 44,-194.5"/>
<polygon fill="#666666" stroke="#666666" points="44,-179.25 44,-179.25 119.5,-179.25 119.5,-179.25 44,-179.25"/>
<polygon fill="none" stroke="#666666" points="44,-162 44,-211.75 119.5,-211.75 119.5,-162 44,-162"/>
</a>
</g>
</g>
<!-- Node2&#45;&gt;Node1 -->
<g id="edge1_Node000001_Node000002" class="edge">
<title>Node2&#45;&gt;Node1</title>
<g id="a_edge1_Node000001_Node000002"><a xlink:title=" ">
<path fill="none" stroke="#63b8ff" d="M81.75,-150.83C81.75,-143.01 81.75,-134.48 81.75,-125.92"/>
<polygon fill="none" stroke="#63b8ff" points="78.25,-150.57 81.75,-160.57 85.25,-150.57 78.25,-150.57"/>
</a>
</g>
</g>
</g>
</svg>
