<?xml version="1.0" encoding="UTF-8" standalone="no"?>
<!DOCTYPE svg PUBLIC "-//W3C//DTD SVG 1.1//EN"
 "http://www.w3.org/Graphics/SVG/1.1/DTD/svg11.dtd">
<!-- Generated by graphviz version 13.1.2 (20250808.2320)
 -->
<!-- Title: Dungeon.OpenDoor Pages: 1 -->
<svg width="102pt" height="220pt"
 viewBox="0.00 0.00 102.00 220.00" xmlns="http://www.w3.org/2000/svg" xmlns:xlink="http://www.w3.org/1999/xlink">
<g id="graph0" class="graph" transform="scale(1 1) rotate(0) translate(4 215.75)">
<title>Dungeon.OpenDoor</title>
<!-- Node1 -->
<g id="Node000001" class="node">
<title>Node1</title>
<g id="a_Node000001"><a xlink:title="Listens for open and close events from the EventManager and toggles the door&#39;s state accordingly.">
<polygon fill="#999999" stroke="none" points="94.25,-126 0,-126 0,0 94.25,0 94.25,-126"/>
<text xml:space="preserve" text-anchor="start" x="4" y="-112.5" font-family="Helvetica,sans-Serif" font-size="10.00">Dungeon.OpenDoor</text>
<text xml:space="preserve" text-anchor="start" x="6.75" y="-97.25" font-family="Helvetica,sans-Serif" font-size="10.00">+</text>
<text xml:space="preserve" text-anchor="start" x="19.5" y="-97.25" font-family="Helvetica,sans-Serif" font-size="10.00">isBossDoor</text>
<text xml:space="preserve" text-anchor="start" x="8.25" y="-82" font-family="Helvetica,sans-Serif" font-size="10.00">&#45;</text>
<text xml:space="preserve" text-anchor="start" x="19.5" y="-82" font-family="Helvetica,sans-Serif" font-size="10.00">_parentCollider</text>
<text xml:space="preserve" text-anchor="start" x="8.25" y="-66.75" font-family="Helvetica,sans-Serif" font-size="10.00">&#45;</text>
<text xml:space="preserve" text-anchor="start" x="19.5" y="-66.75" font-family="Helvetica,sans-Serif" font-size="10.00">_doorChild</text>
<text xml:space="preserve" text-anchor="start" x="8.25" y="-51.5" font-family="Helvetica,sans-Serif" font-size="10.00">&#45;</text>
<text xml:space="preserve" text-anchor="start" x="19.5" y="-51.5" font-family="Helvetica,sans-Serif" font-size="10.00">Start()</text>
<text xml:space="preserve" text-anchor="start" x="8.25" y="-36.25" font-family="Helvetica,sans-Serif" font-size="10.00">&#45;</text>
<text xml:space="preserve" text-anchor="start" x="19.5" y="-36.25" font-family="Helvetica,sans-Serif" font-size="10.00">OnDestroy()</text>
<text xml:space="preserve" text-anchor="start" x="8.25" y="-21" font-family="Helvetica,sans-Serif" font-size="10.00">&#45;</text>
<text xml:space="preserve" text-anchor="start" x="19.5" y="-21" font-family="Helvetica,sans-Serif" font-size="10.00">Open()</text>
<text xml:space="preserve" text-anchor="start" x="8.25" y="-5.75" font-family="Helvetica,sans-Serif" font-size="10.00">&#45;</text>
<text xml:space="preserve" text-anchor="start" x="19.5" y="-5.75" font-family="Helvetica,sans-Serif" font-size="10.00">Close()</text>
<polygon fill="#666666" stroke="#666666" points="0,-108.75 0,-108.75 94.25,-108.75 94.25,-108.75 0,-108.75"/>
<polygon fill="#666666" stroke="#666666" points="0,-63 0,-63 17.5,-63 17.5,-63 0,-63"/>
<polygon fill="#666666" stroke="#666666" points="17.5,-63 17.5,-63 94.25,-63 94.25,-63 17.5,-63"/>
<polygon fill="none" stroke="#666666" points="0,0 0,-126 94.25,-126 94.25,0 0,0"/>
</a>
</g>
</g>
<!-- Node2 -->
<g id="Node000002" class="node">
<title>Node2</title>
<g id="a_Node000002"><a xlink:title=" ">
<polygon fill="white" stroke="none" points="84.88,-211.75 9.38,-211.75 9.38,-162 84.88,-162 84.88,-211.75"/>
<text xml:space="preserve" text-anchor="start" x="13.38" y="-198.25" font-family="Helvetica,sans-Serif" font-size="10.00">MonoBehaviour</text>
<text xml:space="preserve" text-anchor="start" x="45.62" y="-183" font-family="Helvetica,sans-Serif" font-size="10.00"> </text>
<text xml:space="preserve" text-anchor="start" x="45.62" y="-167.75" font-family="Helvetica,sans-Serif" font-size="10.00"> </text>
<polygon fill="#666666" stroke="#666666" points="9.38,-194.5 9.38,-194.5 84.88,-194.5 84.88,-194.5 9.38,-194.5"/>
<polygon fill="#666666" stroke="#666666" points="9.38,-179.25 9.38,-179.25 84.88,-179.25 84.88,-179.25 9.38,-179.25"/>
<polygon fill="none" stroke="#666666" points="9.38,-162 9.38,-211.75 84.88,-211.75 84.88,-162 9.38,-162"/>
</a>
</g>
</g>
<!-- Node2&#45;&gt;Node1 -->
<g id="edge1_Node000001_Node000002" class="edge">
<title>Node2&#45;&gt;Node1</title>
<g id="a_edge1_Node000001_Node000002"><a xlink:title=" ">
<path fill="none" stroke="#63b8ff" d="M47.12,-150.83C47.12,-143.01 47.12,-134.48 47.12,-125.92"/>
<polygon fill="none" stroke="#63b8ff" points="43.63,-150.57 47.13,-160.57 50.63,-150.57 43.63,-150.57"/>
</a>
</g>
</g>
</g>
</svg>
