<?xml version="1.0" encoding="UTF-8" standalone="no"?>
<!DOCTYPE svg PUBLIC "-//W3C//DTD SVG 1.1//EN"
 "http://www.w3.org/Graphics/SVG/1.1/DTD/svg11.dtd">
<!-- Generated by graphviz version 13.1.2 (20250808.2320)
 -->
<!-- Title: Inventory.Inventory Pages: 1 -->
<svg width="208pt" height="656pt"
 viewBox="0.00 0.00 208.00 656.00" xmlns="http://www.w3.org/2000/svg" xmlns:xlink="http://www.w3.org/1999/xlink">
<g id="graph0" class="graph" transform="scale(1 1) rotate(0) translate(4 651.5)">
<title>Inventory.Inventory</title>
<!-- Node1 -->
<g id="Node000001" class="node">
<title>Node1</title>
<g id="a_Node000001"><a xlink:title=" ">
<polygon fill="#999999" stroke="none" points="121.5,-232.75 24,-232.75 24,0 121.5,0 121.5,-232.75"/>
<text xml:space="preserve" text-anchor="start" x="31.5" y="-219.25" font-family="Helvetica,sans-Serif" font-size="10.00">Inventory.Inventory</text>
<text xml:space="preserve" text-anchor="start" x="28" y="-204" font-family="Helvetica,sans-Serif" font-size="10.00">+</text>
<text xml:space="preserve" text-anchor="start" x="38" y="-204" font-family="Helvetica,sans-Serif" font-size="10.00">int</text>
<text xml:space="preserve" text-anchor="start" x="28" y="-188.75" font-family="Helvetica,sans-Serif" font-size="10.00">+</text>
<text xml:space="preserve" text-anchor="start" x="38" y="-188.75" font-family="Helvetica,sans-Serif" font-size="10.00">AddItem()</text>
<text xml:space="preserve" text-anchor="start" x="28" y="-173.5" font-family="Helvetica,sans-Serif" font-size="10.00">+</text>
<text xml:space="preserve" text-anchor="start" x="38" y="-173.5" font-family="Helvetica,sans-Serif" font-size="10.00">RemoveItem()</text>
<text xml:space="preserve" text-anchor="start" x="28" y="-158.25" font-family="Helvetica,sans-Serif" font-size="10.00">+</text>
<text xml:space="preserve" text-anchor="start" x="38" y="-158.25" font-family="Helvetica,sans-Serif" font-size="10.00">RemoveItem()</text>
<text xml:space="preserve" text-anchor="start" x="28" y="-143" font-family="Helvetica,sans-Serif" font-size="10.00">+</text>
<text xml:space="preserve" text-anchor="start" x="38" y="-143" font-family="Helvetica,sans-Serif" font-size="10.00">PrintInventory()</text>
<text xml:space="preserve" text-anchor="start" x="28" y="-127.75" font-family="Helvetica,sans-Serif" font-size="10.00">+</text>
<text xml:space="preserve" text-anchor="start" x="38" y="-127.75" font-family="Helvetica,sans-Serif" font-size="10.00">SetInventory()</text>
<text xml:space="preserve" text-anchor="start" x="28" y="-112.5" font-family="Helvetica,sans-Serif" font-size="10.00">+</text>
<text xml:space="preserve" text-anchor="start" x="38" y="-112.5" font-family="Helvetica,sans-Serif" font-size="10.00">SetEquipment()</text>
<text xml:space="preserve" text-anchor="start" x="28" y="-97.25" font-family="Helvetica,sans-Serif" font-size="10.00">+</text>
<text xml:space="preserve" text-anchor="start" x="38" y="-97.25" font-family="Helvetica,sans-Serif" font-size="10.00">GetInventory()</text>
<text xml:space="preserve" text-anchor="start" x="28" y="-82" font-family="Helvetica,sans-Serif" font-size="10.00">+</text>
<text xml:space="preserve" text-anchor="start" x="38" y="-82" font-family="Helvetica,sans-Serif" font-size="10.00">GetEquipment()</text>
<text xml:space="preserve" text-anchor="start" x="28" y="-66.75" font-family="Helvetica,sans-Serif" font-size="10.00">+</text>
<text xml:space="preserve" text-anchor="start" x="38" y="-66.75" font-family="Helvetica,sans-Serif" font-size="10.00">GetItemByName()</text>
<text xml:space="preserve" text-anchor="start" x="28" y="-51.5" font-family="Helvetica,sans-Serif" font-size="10.00">+</text>
<text xml:space="preserve" text-anchor="start" x="38" y="-51.5" font-family="Helvetica,sans-Serif" font-size="10.00">RemoveEquip()</text>
<text xml:space="preserve" text-anchor="start" x="28" y="-36.25" font-family="Helvetica,sans-Serif" font-size="10.00">+</text>
<text xml:space="preserve" text-anchor="start" x="38" y="-36.25" font-family="Helvetica,sans-Serif" font-size="10.00">GetItemByIndex()</text>
<text xml:space="preserve" text-anchor="start" x="28" y="-21" font-family="Helvetica,sans-Serif" font-size="10.00">+</text>
<text xml:space="preserve" text-anchor="start" x="38" y="-21" font-family="Helvetica,sans-Serif" font-size="10.00">UseItem()</text>
<text xml:space="preserve" text-anchor="start" x="29.5" y="-5.75" font-family="Helvetica,sans-Serif" font-size="10.00">&#45;</text>
<text xml:space="preserve" text-anchor="start" x="38" y="-5.75" font-family="Helvetica,sans-Serif" font-size="10.00">Awake()</text>
<polygon fill="#666666" stroke="#666666" points="24,-215.5 24,-215.5 121.5,-215.5 121.5,-215.5 24,-215.5"/>
<polygon fill="#666666" stroke="#666666" points="24,-200.25 24,-200.25 36,-200.25 36,-200.25 24,-200.25"/>
<polygon fill="#666666" stroke="#666666" points="36,-200.25 36,-200.25 121.5,-200.25 121.5,-200.25 36,-200.25"/>
<polygon fill="none" stroke="#666666" points="24,0 24,-232.75 121.5,-232.75 121.5,0 24,0"/>
</a>
</g>
</g>
<!-- Node2 -->
<g id="Node000002" class="node">
<title>Node2</title>
<g id="a_Node000002"><a xlink:title=" ">
<polygon fill="white" stroke="none" points="75.5,-373.88 0,-373.88 0,-324.12 75.5,-324.12 75.5,-373.88"/>
<text xml:space="preserve" text-anchor="start" x="4" y="-360.38" font-family="Helvetica,sans-Serif" font-size="10.00">MonoBehaviour</text>
<text xml:space="preserve" text-anchor="start" x="36.25" y="-345.12" font-family="Helvetica,sans-Serif" font-size="10.00"> </text>
<text xml:space="preserve" text-anchor="start" x="36.25" y="-329.88" font-family="Helvetica,sans-Serif" font-size="10.00"> </text>
<polygon fill="#666666" stroke="#666666" points="0,-356.62 0,-356.62 75.5,-356.62 75.5,-356.62 0,-356.62"/>
<polygon fill="#666666" stroke="#666666" points="0,-341.38 0,-341.38 75.5,-341.38 75.5,-341.38 0,-341.38"/>
<polygon fill="none" stroke="#666666" points="0,-324.12 0,-373.88 75.5,-373.88 75.5,-324.12 0,-324.12"/>
</a>
</g>
</g>
<!-- Node2&#45;&gt;Node1 -->
<g id="edge1_Node000001_Node000002" class="edge">
<title>Node2&#45;&gt;Node1</title>
<g id="a_edge1_Node000001_Node000002"><a xlink:title=" ">
<path fill="none" stroke="#63b8ff" d="M43.07,-312.93C46.37,-291.18 50.82,-261.88 55.27,-232.59"/>
<polygon fill="none" stroke="#63b8ff" points="39.63,-312.28 41.59,-322.69 46.55,-313.33 39.63,-312.28"/>
</a>
</g>
</g>
<!-- Node3 -->
<g id="Node000003" class="node">
<title>Node3</title>
<g id="a_Node000003"><a xlink:href="class_inventory_1_1_item_instance.html" target="_top" xlink:title="Data&#45;Class representing an item stack by containing an reference to a scriptable object(item) and the...">
<polygon fill="white" stroke="none" points="200.25,-396.75 93.25,-396.75 93.25,-301.25 200.25,-301.25 200.25,-396.75"/>
<text xml:space="preserve" text-anchor="start" x="97.25" y="-383.25" font-family="Helvetica,sans-Serif" font-size="10.00">Inventory.ItemInstance</text>
<text xml:space="preserve" text-anchor="start" x="103.75" y="-368" font-family="Helvetica,sans-Serif" font-size="10.00">+</text>
<text xml:space="preserve" text-anchor="start" x="120.25" y="-368" font-family="Helvetica,sans-Serif" font-size="10.00">itemQuantity</text>
<text xml:space="preserve" text-anchor="start" x="103.75" y="-352.75" font-family="Helvetica,sans-Serif" font-size="10.00">+</text>
<text xml:space="preserve" text-anchor="start" x="120.25" y="-352.75" font-family="Helvetica,sans-Serif" font-size="10.00">ItemInstance()</text>
<text xml:space="preserve" text-anchor="start" x="103.75" y="-337.5" font-family="Helvetica,sans-Serif" font-size="10.00">+</text>
<text xml:space="preserve" text-anchor="start" x="120.25" y="-337.5" font-family="Helvetica,sans-Serif" font-size="10.00">ItemInstance()</text>
<text xml:space="preserve" text-anchor="start" x="103.75" y="-322.25" font-family="Helvetica,sans-Serif" font-size="10.00">+</text>
<text xml:space="preserve" text-anchor="start" x="120.25" y="-322.25" font-family="Helvetica,sans-Serif" font-size="10.00">ItemInstance()</text>
<text xml:space="preserve" text-anchor="start" x="103.75" y="-307" font-family="Helvetica,sans-Serif" font-size="10.00">+</text>
<text xml:space="preserve" text-anchor="start" x="120.25" y="-307" font-family="Helvetica,sans-Serif" font-size="10.00">ItemInstance()</text>
<polygon fill="#666666" stroke="#666666" points="93.25,-379.5 93.25,-379.5 200.25,-379.5 200.25,-379.5 93.25,-379.5"/>
<polygon fill="#666666" stroke="#666666" points="93.25,-364.25 93.25,-364.25 118.25,-364.25 118.25,-364.25 93.25,-364.25"/>
<polygon fill="#666666" stroke="#666666" points="118.25,-364.25 118.25,-364.25 200.25,-364.25 200.25,-364.25 118.25,-364.25"/>
<polygon fill="none" stroke="#666666" points="93.25,-301.25 93.25,-396.75 200.25,-396.75 200.25,-301.25 93.25,-301.25"/>
</a>
</g>
</g>
<!-- Node3&#45;&gt;Node1 -->
<g id="edge2_Node000001_Node000003" class="edge">
<title>Node3&#45;&gt;Node1</title>
<g id="a_edge2_Node000001_Node000003"><a xlink:title=" ">
<path fill="none" stroke="#63b8ff" d="M131.77,-301.33C126.43,-284.68 120.13,-265.04 113.67,-244.89"/>
<polygon fill="none" stroke="#63b8ff" points="113.68,-244.93 108.04,-240.44 110.01,-233.5 115.65,-237.99 113.68,-244.93"/>
</a>
</g>
<text xml:space="preserve" text-anchor="start" x="127.88" y="-270.75" font-family="Helvetica,sans-Serif" font-size="10.00" fill="grey">&#45;_equipment</text>
<text xml:space="preserve" text-anchor="start" x="127.88" y="-255.5" font-family="Helvetica,sans-Serif" font-size="10.00" fill="grey">&#45;_inventory</text>
</g>
<!-- Node4 -->
<g id="Node000004" class="node">
<title>Node4</title>
<g id="a_Node000004"><a xlink:href="class_items_1_1_item.html" target="_top" xlink:title="Abstract Data&#45;Class, which shares all commonalities between different types of Items.">
<polygon fill="white" stroke="none" points="191.38,-560.75 102.12,-560.75 102.12,-450 191.38,-450 191.38,-560.75"/>
<text xml:space="preserve" text-anchor="start" x="123.12" y="-547.25" font-family="Helvetica,sans-Serif" font-size="10.00">Items.Item</text>
<text xml:space="preserve" text-anchor="start" x="106.12" y="-532" font-family="Helvetica,sans-Serif" font-size="10.00">+</text>
<text xml:space="preserve" text-anchor="start" x="116.12" y="-532" font-family="Helvetica,sans-Serif" font-size="10.00">_name</text>
<text xml:space="preserve" text-anchor="start" x="106.12" y="-516.75" font-family="Helvetica,sans-Serif" font-size="10.00">+</text>
<text xml:space="preserve" text-anchor="start" x="116.12" y="-516.75" font-family="Helvetica,sans-Serif" font-size="10.00">_model</text>
<text xml:space="preserve" text-anchor="start" x="106.12" y="-501.5" font-family="Helvetica,sans-Serif" font-size="10.00">+</text>
<text xml:space="preserve" text-anchor="start" x="116.12" y="-501.5" font-family="Helvetica,sans-Serif" font-size="10.00">rarity</text>
<text xml:space="preserve" text-anchor="start" x="106.12" y="-486.25" font-family="Helvetica,sans-Serif" font-size="10.00">+</text>
<text xml:space="preserve" text-anchor="start" x="116.12" y="-486.25" font-family="Helvetica,sans-Serif" font-size="10.00">item_icon</text>
<text xml:space="preserve" text-anchor="start" x="106.12" y="-471" font-family="Helvetica,sans-Serif" font-size="10.00">+</text>
<text xml:space="preserve" text-anchor="start" x="116.12" y="-471" font-family="Helvetica,sans-Serif" font-size="10.00">GetRarityColor()</text>
<text xml:space="preserve" text-anchor="start" x="106.12" y="-455.75" font-family="Helvetica,sans-Serif" font-size="10.00">+</text>
<text xml:space="preserve" text-anchor="start" x="116.12" y="-455.75" font-family="Helvetica,sans-Serif" font-size="10.00">Use()</text>
<polygon fill="#666666" stroke="#666666" points="102.12,-543.5 102.12,-543.5 191.38,-543.5 191.38,-543.5 102.12,-543.5"/>
<polygon fill="#666666" stroke="#666666" points="102.12,-482.5 102.12,-482.5 114.12,-482.5 114.12,-482.5 102.12,-482.5"/>
<polygon fill="#666666" stroke="#666666" points="114.12,-482.5 114.12,-482.5 191.38,-482.5 191.38,-482.5 114.12,-482.5"/>
<polygon fill="none" stroke="#666666" points="102.12,-450 102.12,-560.75 191.38,-560.75 191.38,-450 102.12,-450"/>
</a>
</g>
</g>
<!-- Node4&#45;&gt;Node3 -->
<g id="edge3_Node000003_Node000004" class="edge">
<title>Node4&#45;&gt;Node3</title>
<g id="a_edge3_Node000003_Node000004"><a xlink:title=" ">
<path fill="none" stroke="#63b8ff" d="M146.75,-450.38C146.75,-437.07 146.75,-422.75 146.75,-409.21"/>
<polygon fill="none" stroke="#63b8ff" points="146.75,-409.42 142.75,-403.42 146.75,-397.42 150.75,-403.42 146.75,-409.42"/>
</a>
</g>
<text xml:space="preserve" text-anchor="start" x="149.75" y="-419.5" font-family="Helvetica,sans-Serif" font-size="10.00" fill="grey">+itemData</text>
</g>
<!-- Node5 -->
<g id="Node000005" class="node">
<title>Node5</title>
<g id="a_Node000005"><a xlink:title=" ">
<polygon fill="white" stroke="none" points="186.75,-647.5 106.75,-647.5 106.75,-597.75 186.75,-597.75 186.75,-647.5"/>
<text xml:space="preserve" text-anchor="start" x="110.75" y="-634" font-family="Helvetica,sans-Serif" font-size="10.00">ScriptableObject</text>
<text xml:space="preserve" text-anchor="start" x="145.25" y="-618.75" font-family="Helvetica,sans-Serif" font-size="10.00"> </text>
<text xml:space="preserve" text-anchor="start" x="145.25" y="-603.5" font-family="Helvetica,sans-Serif" font-size="10.00"> </text>
<polygon fill="#666666" stroke="#666666" points="106.75,-630.25 106.75,-630.25 186.75,-630.25 186.75,-630.25 106.75,-630.25"/>
<polygon fill="#666666" stroke="#666666" points="106.75,-615 106.75,-615 186.75,-615 186.75,-615 106.75,-615"/>
<polygon fill="none" stroke="#666666" points="106.75,-597.75 106.75,-647.5 186.75,-647.5 186.75,-597.75 106.75,-597.75"/>
</a>
</g>
</g>
<!-- Node5&#45;&gt;Node4 -->
<g id="edge4_Node000004_Node000005" class="edge">
<title>Node5&#45;&gt;Node4</title>
<g id="a_edge4_Node000004_Node000005"><a xlink:title=" ">
<path fill="none" stroke="#63b8ff" d="M146.75,-586.54C146.75,-578.28 146.75,-569.28 146.75,-560.39"/>
<polygon fill="none" stroke="#63b8ff" points="143.25,-586.51 146.75,-596.51 150.25,-586.51 143.25,-586.51"/>
</a>
</g>
</g>
</g>
</svg>
