<?xml version="1.0" encoding="UTF-8" standalone="no"?>
<!DOCTYPE svg PUBLIC "-//W3C//DTD SVG 1.1//EN"
 "http://www.w3.org/Graphics/SVG/1.1/DTD/svg11.dtd">
<!-- Generated by graphviz version 13.1.2 (20250808.2320)
 -->
<!-- Title: Interaction.EnemyInteraction Pages: 1 -->
<svg width="210pt" height="250pt"
 viewBox="0.00 0.00 210.00 250.00" xmlns="http://www.w3.org/2000/svg" xmlns:xlink="http://www.w3.org/1999/xlink">
<g id="graph0" class="graph" transform="scale(1 1) rotate(0) translate(4 246.25)">
<title>Interaction.EnemyInteraction</title>
<!-- Node1 -->
<g id="Node000001" class="node">
<title>Node1</title>
<g id="a_Node000001"><a xlink:title="Handles interactions between the player and an enemy, including applying damage over time when in con...">
<polygon fill="#999999" stroke="none" points="159.38,-126 26.12,-126 26.12,0 159.38,0 159.38,-126"/>
<text xml:space="preserve" text-anchor="start" x="30.12" y="-112.5" font-family="Helvetica,sans-Serif" font-size="10.00">Interaction.EnemyInteraction</text>
<text xml:space="preserve" text-anchor="start" x="40.56" y="-97.25" font-family="Helvetica,sans-Serif" font-size="10.00">&#45;</text>
<text xml:space="preserve" text-anchor="start" x="58" y="-97.25" font-family="Helvetica,sans-Serif" font-size="10.00">lifeText</text>
<text xml:space="preserve" text-anchor="start" x="40.56" y="-82" font-family="Helvetica,sans-Serif" font-size="10.00">&#45;</text>
<text xml:space="preserve" text-anchor="start" x="58" y="-82" font-family="Helvetica,sans-Serif" font-size="10.00">_currentColor</text>
<text xml:space="preserve" text-anchor="start" x="40.56" y="-66.75" font-family="Helvetica,sans-Serif" font-size="10.00">&#45;</text>
<text xml:space="preserve" text-anchor="start" x="58" y="-66.75" font-family="Helvetica,sans-Serif" font-size="10.00">DamageModifier</text>
<text xml:space="preserve" text-anchor="start" x="39.06" y="-51.5" font-family="Helvetica,sans-Serif" font-size="10.00">+</text>
<text xml:space="preserve" text-anchor="start" x="58" y="-51.5" font-family="Helvetica,sans-Serif" font-size="10.00">Interact()</text>
<text xml:space="preserve" text-anchor="start" x="39.06" y="-36.25" font-family="Helvetica,sans-Serif" font-size="10.00">+</text>
<text xml:space="preserve" text-anchor="start" x="58" y="-36.25" font-family="Helvetica,sans-Serif" font-size="10.00">OnExit()</text>
<text xml:space="preserve" text-anchor="start" x="39.06" y="-21" font-family="Helvetica,sans-Serif" font-size="10.00">+</text>
<text xml:space="preserve" text-anchor="start" x="58" y="-21" font-family="Helvetica,sans-Serif" font-size="10.00">ShouldRepeat()</text>
<text xml:space="preserve" text-anchor="start" x="40.56" y="-5.75" font-family="Helvetica,sans-Serif" font-size="10.00">&#45;</text>
<text xml:space="preserve" text-anchor="start" x="58" y="-5.75" font-family="Helvetica,sans-Serif" font-size="10.00">OnCollisionEnter()</text>
<polygon fill="#666666" stroke="#666666" points="26.12,-108.75 26.12,-108.75 159.38,-108.75 159.38,-108.75 26.12,-108.75"/>
<polygon fill="#666666" stroke="#666666" points="26.12,-63 26.12,-63 56,-63 56,-63 26.12,-63"/>
<polygon fill="#666666" stroke="#666666" points="56,-63 56,-63 159.38,-63 159.38,-63 56,-63"/>
<polygon fill="none" stroke="#666666" points="26.12,0 26.12,-126 159.38,-126 159.38,0 26.12,0"/>
</a>
</g>
</g>
<!-- Node2 -->
<g id="Node000002" class="node">
<title>Node2</title>
<g id="a_Node000002"><a xlink:title=" ">
<polygon fill="white" stroke="none" points="75.5,-227 0,-227 0,-177.25 75.5,-177.25 75.5,-227"/>
<text xml:space="preserve" text-anchor="start" x="4" y="-213.5" font-family="Helvetica,sans-Serif" font-size="10.00">MonoBehaviour</text>
<text xml:space="preserve" text-anchor="start" x="36.25" y="-198.25" font-family="Helvetica,sans-Serif" font-size="10.00"> </text>
<text xml:space="preserve" text-anchor="start" x="36.25" y="-183" font-family="Helvetica,sans-Serif" font-size="10.00"> </text>
<polygon fill="#666666" stroke="#666666" points="0,-209.75 0,-209.75 75.5,-209.75 75.5,-209.75 0,-209.75"/>
<polygon fill="#666666" stroke="#666666" points="0,-194.5 0,-194.5 75.5,-194.5 75.5,-194.5 0,-194.5"/>
<polygon fill="none" stroke="#666666" points="0,-177.25 0,-227 75.5,-227 75.5,-177.25 0,-177.25"/>
</a>
</g>
</g>
<!-- Node2&#45;&gt;Node1 -->
<g id="edge1_Node000001_Node000002" class="edge">
<title>Node2&#45;&gt;Node1</title>
<g id="a_edge1_Node000001_Node000002"><a xlink:title=" ">
<path fill="none" stroke="#63b8ff" d="M51.37,-167.16C56.39,-154.65 62.24,-140.07 67.94,-125.87"/>
<polygon fill="none" stroke="#63b8ff" points="48.24,-165.56 47.77,-176.15 54.74,-168.17 48.24,-165.56"/>
</a>
</g>
</g>
<!-- Node3 -->
<g id="Node000003" class="node">
<title>Node3</title>
<g id="a_Node000003"><a xlink:href="interface_interfaces_1_1_i_interactable.html" target="_top" xlink:title="Interface for objects that can be interacted with (e.g., when the player is nearby).">
<polygon fill="white" stroke="none" points="202,-242.25 93.5,-242.25 93.5,-162 202,-162 202,-242.25"/>
<text xml:space="preserve" text-anchor="start" x="97.5" y="-228.75" font-family="Helvetica,sans-Serif" font-size="10.00">Interfaces.IInteractable</text>
<text xml:space="preserve" text-anchor="start" x="146.25" y="-213.5" font-family="Helvetica,sans-Serif" font-size="10.00"> </text>
<text xml:space="preserve" text-anchor="start" x="103.25" y="-198.25" font-family="Helvetica,sans-Serif" font-size="10.00">+</text>
<text xml:space="preserve" text-anchor="start" x="119" y="-198.25" font-family="Helvetica,sans-Serif" font-size="10.00">Interact()</text>
<text xml:space="preserve" text-anchor="start" x="103.25" y="-183" font-family="Helvetica,sans-Serif" font-size="10.00">+</text>
<text xml:space="preserve" text-anchor="start" x="119" y="-183" font-family="Helvetica,sans-Serif" font-size="10.00">OnExit()</text>
<text xml:space="preserve" text-anchor="start" x="103.25" y="-167.75" font-family="Helvetica,sans-Serif" font-size="10.00">+</text>
<text xml:space="preserve" text-anchor="start" x="119" y="-167.75" font-family="Helvetica,sans-Serif" font-size="10.00">ShouldRepeat()</text>
<polygon fill="#666666" stroke="#666666" points="93.5,-225 93.5,-225 202,-225 202,-225 93.5,-225"/>
<polygon fill="#666666" stroke="#666666" points="93.5,-209.75 93.5,-209.75 202,-209.75 202,-209.75 93.5,-209.75"/>
<polygon fill="none" stroke="#666666" points="93.5,-162 93.5,-242.25 202,-242.25 202,-162 93.5,-162"/>
</a>
</g>
</g>
<!-- Node3&#45;&gt;Node1 -->
<g id="edge2_Node000001_Node000003" class="edge">
<title>Node3&#45;&gt;Node1</title>
<g id="a_edge2_Node000001_Node000003"><a xlink:title=" ">
<path fill="none" stroke="#63b8ff" d="M127.85,-151.52C124.51,-143.19 121.01,-134.45 117.56,-125.85"/>
<polygon fill="none" stroke="#63b8ff" points="124.6,-152.81 131.57,-160.79 131.1,-150.21 124.6,-152.81"/>
</a>
</g>
</g>
</g>
</svg>
