<?xml version="1.0" encoding="UTF-8" standalone="no"?>
<!DOCTYPE svg PUBLIC "-//W3C//DTD SVG 1.1//EN"
 "http://www.w3.org/Graphics/SVG/1.1/DTD/svg11.dtd">
<!-- Generated by graphviz version 13.1.2 (20250808.2320)
 -->
<!-- Title: Manager.CameraManager Pages: 1 -->
<svg width="148pt" height="372pt"
 viewBox="0.00 0.00 148.00 372.00" xmlns="http://www.w3.org/2000/svg" xmlns:xlink="http://www.w3.org/1999/xlink">
<g id="graph0" class="graph" transform="scale(1 1) rotate(0) translate(4 368.25)">
<title>Manager.CameraManager</title>
<!-- Node1 -->
<g id="Node000001" class="node">
<title>Node1</title>
<g id="a_Node000001"><a xlink:title="Manages camera switching between first&#45;person and canvas views and enables the corresponding player m...">
<polygon fill="#999999" stroke="none" points="140.25,-278.5 0,-278.5 0,0 140.25,0 140.25,-278.5"/>
<text xml:space="preserve" text-anchor="start" x="14.25" y="-265" font-family="Helvetica,sans-Serif" font-size="10.00">Manager.CameraManager</text>
<text xml:space="preserve" text-anchor="start" x="4" y="-249.75" font-family="Helvetica,sans-Serif" font-size="10.00">+</text>
<text xml:space="preserve" text-anchor="start" x="14" y="-249.75" font-family="Helvetica,sans-Serif" font-size="10.00">Instance</text>
<text xml:space="preserve" text-anchor="start" x="4" y="-234.5" font-family="Helvetica,sans-Serif" font-size="10.00">+</text>
<text xml:space="preserve" text-anchor="start" x="14" y="-234.5" font-family="Helvetica,sans-Serif" font-size="10.00">ActiveCanvasDraw</text>
<text xml:space="preserve" text-anchor="start" x="5.5" y="-219.25" font-family="Helvetica,sans-Serif" font-size="10.00">&#45;</text>
<text xml:space="preserve" text-anchor="start" x="14" y="-219.25" font-family="Helvetica,sans-Serif" font-size="10.00">switchKey</text>
<text xml:space="preserve" text-anchor="start" x="5.5" y="-204" font-family="Helvetica,sans-Serif" font-size="10.00">&#45;</text>
<text xml:space="preserve" text-anchor="start" x="14" y="-204" font-family="Helvetica,sans-Serif" font-size="10.00">canvCamera</text>
<text xml:space="preserve" text-anchor="start" x="5.5" y="-188.75" font-family="Helvetica,sans-Serif" font-size="10.00">&#45;</text>
<text xml:space="preserve" text-anchor="start" x="14" y="-188.75" font-family="Helvetica,sans-Serif" font-size="10.00">_firstPersonCamera</text>
<text xml:space="preserve" text-anchor="start" x="5.5" y="-173.5" font-family="Helvetica,sans-Serif" font-size="10.00">&#45;</text>
<text xml:space="preserve" text-anchor="start" x="14" y="-173.5" font-family="Helvetica,sans-Serif" font-size="10.00">_firstPersonPlayerController</text>
<text xml:space="preserve" text-anchor="start" x="5.5" y="-158.25" font-family="Helvetica,sans-Serif" font-size="10.00">&#45;</text>
<text xml:space="preserve" text-anchor="start" x="14" y="-158.25" font-family="Helvetica,sans-Serif" font-size="10.00">_player</text>
<text xml:space="preserve" text-anchor="start" x="4" y="-143" font-family="Helvetica,sans-Serif" font-size="10.00">+</text>
<text xml:space="preserve" text-anchor="start" x="14" y="-143" font-family="Helvetica,sans-Serif" font-size="10.00">SetActiveCanvas()</text>
<text xml:space="preserve" text-anchor="start" x="4" y="-127.75" font-family="Helvetica,sans-Serif" font-size="10.00">+</text>
<text xml:space="preserve" text-anchor="start" x="14" y="-127.75" font-family="Helvetica,sans-Serif" font-size="10.00">SetPlayer()</text>
<text xml:space="preserve" text-anchor="start" x="4" y="-112.5" font-family="Helvetica,sans-Serif" font-size="10.00">+</text>
<text xml:space="preserve" text-anchor="start" x="14" y="-112.5" font-family="Helvetica,sans-Serif" font-size="10.00">SetCanvasTarget()</text>
<text xml:space="preserve" text-anchor="start" x="5.5" y="-97.25" font-family="Helvetica,sans-Serif" font-size="10.00">&#45;</text>
<text xml:space="preserve" text-anchor="start" x="14" y="-97.25" font-family="Helvetica,sans-Serif" font-size="10.00">Awake()</text>
<text xml:space="preserve" text-anchor="start" x="5.5" y="-82" font-family="Helvetica,sans-Serif" font-size="10.00">&#45;</text>
<text xml:space="preserve" text-anchor="start" x="14" y="-82" font-family="Helvetica,sans-Serif" font-size="10.00">Update()</text>
<text xml:space="preserve" text-anchor="start" x="5.5" y="-66.75" font-family="Helvetica,sans-Serif" font-size="10.00">&#45;</text>
<text xml:space="preserve" text-anchor="start" x="14" y="-66.75" font-family="Helvetica,sans-Serif" font-size="10.00">SetFirstPersonView()</text>
<text xml:space="preserve" text-anchor="start" x="5.5" y="-51.5" font-family="Helvetica,sans-Serif" font-size="10.00">&#45;</text>
<text xml:space="preserve" text-anchor="start" x="14" y="-51.5" font-family="Helvetica,sans-Serif" font-size="10.00">SetCanvView()</text>
<text xml:space="preserve" text-anchor="start" x="5.5" y="-36.25" font-family="Helvetica,sans-Serif" font-size="10.00">&#45;</text>
<text xml:space="preserve" text-anchor="start" x="14" y="-36.25" font-family="Helvetica,sans-Serif" font-size="10.00">SetPlayerVisible()</text>
<text xml:space="preserve" text-anchor="start" x="5.5" y="-21" font-family="Helvetica,sans-Serif" font-size="10.00">&#45;</text>
<text xml:space="preserve" text-anchor="start" x="14" y="-21" font-family="Helvetica,sans-Serif" font-size="10.00">OnEnable()</text>
<text xml:space="preserve" text-anchor="start" x="5.5" y="-5.75" font-family="Helvetica,sans-Serif" font-size="10.00">&#45;</text>
<text xml:space="preserve" text-anchor="start" x="14" y="-5.75" font-family="Helvetica,sans-Serif" font-size="10.00">OnDisable()</text>
<polygon fill="#666666" stroke="#666666" points="0,-261.25 0,-261.25 140.25,-261.25 140.25,-261.25 0,-261.25"/>
<polygon fill="#666666" stroke="#666666" points="0,-154.5 0,-154.5 12,-154.5 12,-154.5 0,-154.5"/>
<polygon fill="#666666" stroke="#666666" points="12,-154.5 12,-154.5 140.25,-154.5 140.25,-154.5 12,-154.5"/>
<polygon fill="none" stroke="#666666" points="0,0 0,-278.5 140.25,-278.5 140.25,0 0,0"/>
</a>
</g>
</g>
<!-- Node2 -->
<g id="Node000002" class="node">
<title>Node2</title>
<g id="a_Node000002"><a xlink:title=" ">
<polygon fill="white" stroke="none" points="107.88,-364.25 32.38,-364.25 32.38,-314.5 107.88,-314.5 107.88,-364.25"/>
<text xml:space="preserve" text-anchor="start" x="36.38" y="-350.75" font-family="Helvetica,sans-Serif" font-size="10.00">MonoBehaviour</text>
<text xml:space="preserve" text-anchor="start" x="68.62" y="-335.5" font-family="Helvetica,sans-Serif" font-size="10.00"> </text>
<text xml:space="preserve" text-anchor="start" x="68.62" y="-320.25" font-family="Helvetica,sans-Serif" font-size="10.00"> </text>
<polygon fill="#666666" stroke="#666666" points="32.38,-347 32.38,-347 107.88,-347 107.88,-347 32.38,-347"/>
<polygon fill="#666666" stroke="#666666" points="32.38,-331.75 32.38,-331.75 107.88,-331.75 107.88,-331.75 32.38,-331.75"/>
<polygon fill="none" stroke="#666666" points="32.38,-314.5 32.38,-364.25 107.88,-364.25 107.88,-314.5 32.38,-314.5"/>
</a>
</g>
</g>
<!-- Node2&#45;&gt;Node1 -->
<g id="edge1_Node000001_Node000002" class="edge">
<title>Node2&#45;&gt;Node1</title>
<g id="a_edge1_Node000001_Node000002"><a xlink:title=" ">
<path fill="none" stroke="#63b8ff" d="M70.12,-303.39C70.12,-295.82 70.12,-287.37 70.12,-278.42"/>
<polygon fill="none" stroke="#63b8ff" points="66.63,-303.36 70.13,-313.36 73.63,-303.36 66.63,-303.36"/>
</a>
</g>
</g>
</g>
</svg>
