<?xml version="1.0" encoding="UTF-8" standalone="no"?>
<!DOCTYPE svg PUBLIC "-//W3C//DTD SVG 1.1//EN"
 "http://www.w3.org/Graphics/SVG/1.1/DTD/svg11.dtd">
<!-- Generated by graphviz version 13.1.2 (20250808.2320)
 -->
<!-- Title: Spawning.ItemSpawnerVoronoi Pages: 1 -->
<svg width="300pt" height="309pt"
 viewBox="0.00 0.00 300.00 309.00" xmlns="http://www.w3.org/2000/svg" xmlns:xlink="http://www.w3.org/1999/xlink">
<g id="graph0" class="graph" transform="scale(1 1) rotate(0) translate(4 305.25)">
<title>Spawning.ItemSpawnerVoronoi</title>
<!-- Node1 -->
<g id="Node000001" class="node">
<title>Node1</title>
<g id="a_Node000001"><a xlink:title="Handles the spawning of items in rooms, implementing the ISpawner interface. Items are spawned at ran...">
<polygon fill="#999999" stroke="none" points="213.62,-95.5 69.12,-95.5 69.12,0 213.62,0 213.62,-95.5"/>
<text xml:space="preserve" text-anchor="start" x="73.12" y="-82" font-family="Helvetica,sans-Serif" font-size="10.00">Spawning.ItemSpawnerVoronoi</text>
<text xml:space="preserve" text-anchor="start" x="82.06" y="-66.75" font-family="Helvetica,sans-Serif" font-size="10.00">&#45;</text>
<text xml:space="preserve" text-anchor="start" x="98" y="-66.75" font-family="Helvetica,sans-Serif" font-size="10.00">_rooms</text>
<text xml:space="preserve" text-anchor="start" x="82.06" y="-51.5" font-family="Helvetica,sans-Serif" font-size="10.00">&#45;</text>
<text xml:space="preserve" text-anchor="start" x="98" y="-51.5" font-family="Helvetica,sans-Serif" font-size="10.00">_parent</text>
<text xml:space="preserve" text-anchor="start" x="80.56" y="-36.25" font-family="Helvetica,sans-Serif" font-size="10.00">+</text>
<text xml:space="preserve" text-anchor="start" x="98" y="-36.25" font-family="Helvetica,sans-Serif" font-size="10.00">ItemSpawnerVoronoi()</text>
<text xml:space="preserve" text-anchor="start" x="80.56" y="-21" font-family="Helvetica,sans-Serif" font-size="10.00">+</text>
<text xml:space="preserve" text-anchor="start" x="98" y="-21" font-family="Helvetica,sans-Serif" font-size="10.00">ItemSpawnerVoronoi()</text>
<text xml:space="preserve" text-anchor="start" x="80.56" y="-5.75" font-family="Helvetica,sans-Serif" font-size="10.00">+</text>
<text xml:space="preserve" text-anchor="start" x="98" y="-5.75" font-family="Helvetica,sans-Serif" font-size="10.00">SpawnInRoom()</text>
<polygon fill="#666666" stroke="#666666" points="69.12,-78.25 69.12,-78.25 213.62,-78.25 213.62,-78.25 69.12,-78.25"/>
<polygon fill="#666666" stroke="#666666" points="69.12,-47.75 69.12,-47.75 96,-47.75 96,-47.75 69.12,-47.75"/>
<polygon fill="#666666" stroke="#666666" points="96,-47.75 96,-47.75 213.62,-47.75 213.62,-47.75 96,-47.75"/>
<polygon fill="none" stroke="#666666" points="69.12,0 69.12,-95.5 213.62,-95.5 213.62,0 69.12,0"/>
</a>
</g>
</g>
<!-- Node2 -->
<g id="Node000002" class="node">
<title>Node2</title>
<g id="a_Node000002"><a xlink:href="interface_interfaces_1_1_i_spawner_voronoi.html" target="_top" xlink:title="Interface for object spawners in a room in the Voronoi Dungeon. Allows flexibility for spawning diffe...">
<polygon fill="white" stroke="none" points="128.75,-249.88 0,-249.88 0,-200.12 128.75,-200.12 128.75,-249.88"/>
<text xml:space="preserve" text-anchor="start" x="4" y="-236.38" font-family="Helvetica,sans-Serif" font-size="10.00">Interfaces.ISpawnerVoronoi</text>
<text xml:space="preserve" text-anchor="start" x="62.88" y="-221.12" font-family="Helvetica,sans-Serif" font-size="10.00"> </text>
<text xml:space="preserve" text-anchor="start" x="14.06" y="-205.88" font-family="Helvetica,sans-Serif" font-size="10.00">+</text>
<text xml:space="preserve" text-anchor="start" x="34.12" y="-205.88" font-family="Helvetica,sans-Serif" font-size="10.00">SpawnInRoom()</text>
<polygon fill="#666666" stroke="#666666" points="0,-232.62 0,-232.62 128.75,-232.62 128.75,-232.62 0,-232.62"/>
<polygon fill="#666666" stroke="#666666" points="0,-217.38 0,-217.38 128.75,-217.38 128.75,-217.38 0,-217.38"/>
<polygon fill="none" stroke="#666666" points="0,-200.12 0,-249.88 128.75,-249.88 128.75,-200.12 0,-200.12"/>
</a>
</g>
</g>
<!-- Node2&#45;&gt;Node1 -->
<g id="edge1_Node000001_Node000002" class="edge">
<title>Node2&#45;&gt;Node1</title>
<g id="a_edge1_Node000001_Node000002"><a xlink:title=" ">
<path fill="none" stroke="#63b8ff" d="M79.36,-189.9C91.2,-162.95 107.85,-125.06 120.91,-95.32"/>
<polygon fill="none" stroke="#63b8ff" points="76.19,-188.42 75.37,-198.98 82.6,-191.23 76.19,-188.42"/>
</a>
</g>
</g>
<!-- Node3 -->
<g id="Node000003" class="node">
<title>Node3</title>
<g id="a_Node000003"><a xlink:href="class_spawning_1_1_distributor-1-g.html" target="_top" xlink:title="Handles the distribution of elements (items, enemies or other distributables) and returns &amp; stores th...">
<polygon fill="white" stroke="none" points="292.12,-301.25 146.62,-301.25 146.62,-148.75 292.12,-148.75 292.12,-301.25"/>
<text xml:space="preserve" text-anchor="start" x="162" y="-287.75" font-family="Helvetica,sans-Serif" font-size="10.00">Spawning.Distributor&lt; T &gt;</text>
<text xml:space="preserve" text-anchor="start" x="150.62" y="-272.5" font-family="Helvetica,sans-Serif" font-size="10.00">+</text>
<text xml:space="preserve" text-anchor="start" x="160.62" y="-272.5" font-family="Helvetica,sans-Serif" font-size="10.00">MustCount</text>
<text xml:space="preserve" text-anchor="start" x="152.12" y="-257.25" font-family="Helvetica,sans-Serif" font-size="10.00">&#45;</text>
<text xml:space="preserve" text-anchor="start" x="160.62" y="-257.25" font-family="Helvetica,sans-Serif" font-size="10.00">_randomElements</text>
<text xml:space="preserve" text-anchor="start" x="152.12" y="-242" font-family="Helvetica,sans-Serif" font-size="10.00">&#45;</text>
<text xml:space="preserve" text-anchor="start" x="160.62" y="-242" font-family="Helvetica,sans-Serif" font-size="10.00">_mustElements</text>
<text xml:space="preserve" text-anchor="start" x="152.12" y="-226.75" font-family="Helvetica,sans-Serif" font-size="10.00">&#45;</text>
<text xml:space="preserve" text-anchor="start" x="160.62" y="-226.75" font-family="Helvetica,sans-Serif" font-size="10.00">_normalizedProbabilities</text>
<text xml:space="preserve" text-anchor="start" x="150.62" y="-211.5" font-family="Helvetica,sans-Serif" font-size="10.00">+</text>
<text xml:space="preserve" text-anchor="start" x="160.62" y="-211.5" font-family="Helvetica,sans-Serif" font-size="10.00">Distributor()</text>
<text xml:space="preserve" text-anchor="start" x="150.62" y="-196.25" font-family="Helvetica,sans-Serif" font-size="10.00">+</text>
<text xml:space="preserve" text-anchor="start" x="160.62" y="-196.25" font-family="Helvetica,sans-Serif" font-size="10.00">Distributor()</text>
<text xml:space="preserve" text-anchor="start" x="150.62" y="-181" font-family="Helvetica,sans-Serif" font-size="10.00">+</text>
<text xml:space="preserve" text-anchor="start" x="160.62" y="-181" font-family="Helvetica,sans-Serif" font-size="10.00">GetRandomElement()</text>
<text xml:space="preserve" text-anchor="start" x="150.62" y="-165.75" font-family="Helvetica,sans-Serif" font-size="10.00">+</text>
<text xml:space="preserve" text-anchor="start" x="160.62" y="-165.75" font-family="Helvetica,sans-Serif" font-size="10.00">GetRandomElementIncluding</text>
<text xml:space="preserve" text-anchor="start" x="160.62" y="-154.5" font-family="Helvetica,sans-Serif" font-size="10.00">Must()</text>
<polygon fill="#666666" stroke="#666666" points="146.62,-284 146.62,-284 292.12,-284 292.12,-284 146.62,-284"/>
<polygon fill="#666666" stroke="#666666" points="146.62,-223 146.62,-223 158.62,-223 158.62,-223 146.62,-223"/>
<polygon fill="#666666" stroke="#666666" points="158.62,-223 158.62,-223 292.12,-223 292.12,-223 158.62,-223"/>
<polygon fill="none" stroke="#666666" points="146.62,-148.75 146.62,-301.25 292.12,-301.25 292.12,-148.75 146.62,-148.75"/>
</a>
</g>
</g>
<!-- Node3&#45;&gt;Node1 -->
<g id="edge2_Node000001_Node000003" class="edge">
<title>Node3&#45;&gt;Node1</title>
<g id="a_edge2_Node000001_Node000003"><a xlink:title=" ">
<path fill="none" stroke="#63b8ff" d="M185.96,-148.92C179.69,-134.83 173.22,-120.31 167.23,-106.84"/>
<polygon fill="none" stroke="#63b8ff" points="167.34,-107.1 161.25,-103.24 162.46,-96.13 168.56,-99.99 167.34,-107.1"/>
</a>
</g>
<text xml:space="preserve" text-anchor="start" x="178.7" y="-118.25" font-family="Helvetica,sans-Serif" font-size="10.00" fill="grey">&#45;_itemsDistributor</text>
</g>
</g>
</svg>
