<?xml version="1.0" encoding="UTF-8" standalone="no"?>
<!DOCTYPE svg PUBLIC "-//W3C//DTD SVG 1.1//EN"
 "http://www.w3.org/Graphics/SVG/1.1/DTD/svg11.dtd">
<!-- Generated by graphviz version 13.1.2 (20250808.2320)
 -->
<!-- Title: Manager.ButtonManager Pages: 1 -->
<svg width="122pt" height="189pt"
 viewBox="0.00 0.00 122.00 189.00" xmlns="http://www.w3.org/2000/svg" xmlns:xlink="http://www.w3.org/1999/xlink">
<g id="graph0" class="graph" transform="scale(1 1) rotate(0) translate(4 185.25)">
<title>Manager.ButtonManager</title>
<!-- Node1 -->
<g id="Node000001" class="node">
<title>Node1</title>
<g id="a_Node000001"><a xlink:title="Handles menu button actions: start, load, save, and exit. Sets a scene&#45;changing flag to avoid enemy d...">
<polygon fill="#999999" stroke="none" points="113.75,-95.5 0,-95.5 0,0 113.75,0 113.75,-95.5"/>
<text xml:space="preserve" text-anchor="start" x="4" y="-82" font-family="Helvetica,sans-Serif" font-size="10.00">Manager.ButtonManager</text>
<text xml:space="preserve" text-anchor="start" x="55.38" y="-66.75" font-family="Helvetica,sans-Serif" font-size="10.00"> </text>
<text xml:space="preserve" text-anchor="start" x="14.25" y="-51.5" font-family="Helvetica,sans-Serif" font-size="10.00">+</text>
<text xml:space="preserve" text-anchor="start" x="34.5" y="-51.5" font-family="Helvetica,sans-Serif" font-size="10.00">StartGame()</text>
<text xml:space="preserve" text-anchor="start" x="14.25" y="-36.25" font-family="Helvetica,sans-Serif" font-size="10.00">+</text>
<text xml:space="preserve" text-anchor="start" x="34.5" y="-36.25" font-family="Helvetica,sans-Serif" font-size="10.00">LoadGame()</text>
<text xml:space="preserve" text-anchor="start" x="14.25" y="-21" font-family="Helvetica,sans-Serif" font-size="10.00">+</text>
<text xml:space="preserve" text-anchor="start" x="34.5" y="-21" font-family="Helvetica,sans-Serif" font-size="10.00">ExitGame()</text>
<text xml:space="preserve" text-anchor="start" x="14.25" y="-5.75" font-family="Helvetica,sans-Serif" font-size="10.00">+</text>
<text xml:space="preserve" text-anchor="start" x="34.5" y="-5.75" font-family="Helvetica,sans-Serif" font-size="10.00">SaveGame()</text>
<polygon fill="#666666" stroke="#666666" points="0,-78.25 0,-78.25 113.75,-78.25 113.75,-78.25 0,-78.25"/>
<polygon fill="#666666" stroke="#666666" points="0,-63 0,-63 113.75,-63 113.75,-63 0,-63"/>
<polygon fill="none" stroke="#666666" points="0,0 0,-95.5 113.75,-95.5 113.75,0 0,0"/>
</a>
</g>
</g>
<!-- Node2 -->
<g id="Node000002" class="node">
<title>Node2</title>
<g id="a_Node000002"><a xlink:title=" ">
<polygon fill="white" stroke="none" points="94.62,-181.25 19.12,-181.25 19.12,-131.5 94.62,-131.5 94.62,-181.25"/>
<text xml:space="preserve" text-anchor="start" x="23.12" y="-167.75" font-family="Helvetica,sans-Serif" font-size="10.00">MonoBehaviour</text>
<text xml:space="preserve" text-anchor="start" x="55.38" y="-152.5" font-family="Helvetica,sans-Serif" font-size="10.00"> </text>
<text xml:space="preserve" text-anchor="start" x="55.38" y="-137.25" font-family="Helvetica,sans-Serif" font-size="10.00"> </text>
<polygon fill="#666666" stroke="#666666" points="19.12,-164 19.12,-164 94.62,-164 94.62,-164 19.12,-164"/>
<polygon fill="#666666" stroke="#666666" points="19.12,-148.75 19.12,-148.75 94.62,-148.75 94.62,-148.75 19.12,-148.75"/>
<polygon fill="none" stroke="#666666" points="19.12,-131.5 19.12,-181.25 94.62,-181.25 94.62,-131.5 19.12,-131.5"/>
</a>
</g>
</g>
<!-- Node2&#45;&gt;Node1 -->
<g id="edge1_Node000001_Node000002" class="edge">
<title>Node2&#45;&gt;Node1</title>
<g id="a_edge1_Node000001_Node000002"><a xlink:title=" ">
<path fill="none" stroke="#63b8ff" d="M56.88,-120.42C56.88,-112.32 56.88,-103.59 56.88,-95.09"/>
<polygon fill="none" stroke="#63b8ff" points="53.38,-120.2 56.88,-130.2 60.38,-120.2 53.38,-120.2"/>
</a>
</g>
</g>
</g>
</svg>
