<?xml version="1.0" encoding="UTF-8" standalone="no"?>
<!DOCTYPE svg PUBLIC "-//W3C//DTD SVG 1.1//EN"
 "http://www.w3.org/Graphics/SVG/1.1/DTD/svg11.dtd">
<!-- Generated by graphviz version 13.1.2 (20250808.2320)
 -->
<!-- Title: Items.Item Pages: 1 -->
<svg width="381pt" height="321pt"
 viewBox="0.00 0.00 381.00 321.00" xmlns="http://www.w3.org/2000/svg" xmlns:xlink="http://www.w3.org/1999/xlink">
<g id="graph0" class="graph" transform="scale(1 1) rotate(0) translate(4 316.75)">
<title>Items.Item</title>
<!-- Node1 -->
<g id="Node000001" class="node">
<title>Node1</title>
<g id="a_Node000001"><a xlink:title="Abstract Data&#45;Class, which shares all commonalities between different types of Items.">
<polygon fill="#999999" stroke="none" points="238.38,-227 149.12,-227 149.12,-116.25 238.38,-116.25 238.38,-227"/>
<text xml:space="preserve" text-anchor="start" x="170.12" y="-213.5" font-family="Helvetica,sans-Serif" font-size="10.00">Items.Item</text>
<text xml:space="preserve" text-anchor="start" x="153.12" y="-198.25" font-family="Helvetica,sans-Serif" font-size="10.00">+</text>
<text xml:space="preserve" text-anchor="start" x="163.12" y="-198.25" font-family="Helvetica,sans-Serif" font-size="10.00">_name</text>
<text xml:space="preserve" text-anchor="start" x="153.12" y="-183" font-family="Helvetica,sans-Serif" font-size="10.00">+</text>
<text xml:space="preserve" text-anchor="start" x="163.12" y="-183" font-family="Helvetica,sans-Serif" font-size="10.00">_model</text>
<text xml:space="preserve" text-anchor="start" x="153.12" y="-167.75" font-family="Helvetica,sans-Serif" font-size="10.00">+</text>
<text xml:space="preserve" text-anchor="start" x="163.12" y="-167.75" font-family="Helvetica,sans-Serif" font-size="10.00">rarity</text>
<text xml:space="preserve" text-anchor="start" x="153.12" y="-152.5" font-family="Helvetica,sans-Serif" font-size="10.00">+</text>
<text xml:space="preserve" text-anchor="start" x="163.12" y="-152.5" font-family="Helvetica,sans-Serif" font-size="10.00">item_icon</text>
<text xml:space="preserve" text-anchor="start" x="153.12" y="-137.25" font-family="Helvetica,sans-Serif" font-size="10.00">+</text>
<text xml:space="preserve" text-anchor="start" x="163.12" y="-137.25" font-family="Helvetica,sans-Serif" font-size="10.00">GetRarityColor()</text>
<text xml:space="preserve" text-anchor="start" x="153.12" y="-122" font-family="Helvetica,sans-Serif" font-size="10.00">+</text>
<text xml:space="preserve" text-anchor="start" x="163.12" y="-122" font-family="Helvetica,sans-Serif" font-size="10.00">Use()</text>
<polygon fill="#666666" stroke="#666666" points="149.12,-209.75 149.12,-209.75 238.38,-209.75 238.38,-209.75 149.12,-209.75"/>
<polygon fill="#666666" stroke="#666666" points="149.12,-148.75 149.12,-148.75 161.12,-148.75 161.12,-148.75 149.12,-148.75"/>
<polygon fill="#666666" stroke="#666666" points="161.12,-148.75 161.12,-148.75 238.38,-148.75 238.38,-148.75 161.12,-148.75"/>
<polygon fill="none" stroke="#666666" points="149.12,-116.25 149.12,-227 238.38,-227 238.38,-116.25 149.12,-116.25"/>
</a>
</g>
</g>
<!-- Node3 -->
<g id="Node000003" class="node">
<title>Node3</title>
<g id="a_Node000003"><a xlink:href="class_items_1_1_boss_key.html" target="_top" xlink:title="The class is used to create the Boss&#45;Room&#45;Key and to be able to open the doors of the boss room on th...">
<polygon fill="white" stroke="none" points="75.5,-65 0,-65 0,-15.25 75.5,-15.25 75.5,-65"/>
<text xml:space="preserve" text-anchor="start" x="4" y="-51.5" font-family="Helvetica,sans-Serif" font-size="10.00">Items.BossKey</text>
<text xml:space="preserve" text-anchor="start" x="36.25" y="-36.25" font-family="Helvetica,sans-Serif" font-size="10.00"> </text>
<text xml:space="preserve" text-anchor="start" x="12.38" y="-21" font-family="Helvetica,sans-Serif" font-size="10.00">+</text>
<text xml:space="preserve" text-anchor="start" x="30.75" y="-21" font-family="Helvetica,sans-Serif" font-size="10.00">Use()</text>
<polygon fill="#666666" stroke="#666666" points="0,-47.75 0,-47.75 75.5,-47.75 75.5,-47.75 0,-47.75"/>
<polygon fill="#666666" stroke="#666666" points="0,-32.5 0,-32.5 75.5,-32.5 75.5,-32.5 0,-32.5"/>
<polygon fill="none" stroke="#666666" points="0,-15.25 0,-65 75.5,-65 75.5,-15.25 0,-15.25"/>
</a>
</g>
</g>
<!-- Node1&#45;&gt;Node3 -->
<g id="edge2_Node000001_Node000003" class="edge">
<title>Node1&#45;&gt;Node3</title>
<g id="a_edge2_Node000001_Node000003"><a xlink:title=" ">
<path fill="none" stroke="#63b8ff" d="M140.51,-127.19C122.44,-112.36 102.16,-95.64 83.75,-80.25 77.8,-75.27 71.44,-69.91 65.42,-64.79"/>
<polygon fill="none" stroke="#63b8ff" points="138.06,-129.71 148.01,-133.34 142.5,-124.29 138.06,-129.71"/>
</a>
</g>
</g>
<!-- Node4 -->
<g id="Node000004" class="node">
<title>Node4</title>
<g id="a_Node000004"><a xlink:href="class_items_1_1_consumable.html" target="_top" xlink:title="Consumable&#45;Class is used to handle all items that increase a players current stats....">
<polygon fill="white" stroke="none" points="188.38,-72.62 93.12,-72.62 93.12,-7.62 188.38,-7.62 188.38,-72.62"/>
<text xml:space="preserve" text-anchor="start" x="99.5" y="-59.12" font-family="Helvetica,sans-Serif" font-size="10.00">Items.Consumable</text>
<text xml:space="preserve" text-anchor="start" x="97.12" y="-43.88" font-family="Helvetica,sans-Serif" font-size="10.00">+</text>
<text xml:space="preserve" text-anchor="start" x="107.12" y="-43.88" font-family="Helvetica,sans-Serif" font-size="10.00">statToRestore</text>
<text xml:space="preserve" text-anchor="start" x="97.12" y="-28.62" font-family="Helvetica,sans-Serif" font-size="10.00">+</text>
<text xml:space="preserve" text-anchor="start" x="107.12" y="-28.62" font-family="Helvetica,sans-Serif" font-size="10.00">amountToRestore</text>
<text xml:space="preserve" text-anchor="start" x="97.12" y="-13.38" font-family="Helvetica,sans-Serif" font-size="10.00">+</text>
<text xml:space="preserve" text-anchor="start" x="107.12" y="-13.38" font-family="Helvetica,sans-Serif" font-size="10.00">Use()</text>
<polygon fill="#666666" stroke="#666666" points="93.12,-55.38 93.12,-55.38 188.38,-55.38 188.38,-55.38 93.12,-55.38"/>
<polygon fill="#666666" stroke="#666666" points="93.12,-24.88 93.12,-24.88 105.12,-24.88 105.12,-24.88 93.12,-24.88"/>
<polygon fill="#666666" stroke="#666666" points="105.12,-24.88 105.12,-24.88 188.38,-24.88 188.38,-24.88 105.12,-24.88"/>
<polygon fill="none" stroke="#666666" points="93.12,-7.62 93.12,-72.62 188.38,-72.62 188.38,-7.62 93.12,-7.62"/>
</a>
</g>
</g>
<!-- Node1&#45;&gt;Node4 -->
<g id="edge3_Node000001_Node000004" class="edge">
<title>Node1&#45;&gt;Node4</title>
<g id="a_edge3_Node000001_Node000004"><a xlink:title=" ">
<path fill="none" stroke="#63b8ff" d="M167.24,-105.84C162.49,-94.24 157.74,-82.64 153.61,-72.54"/>
<polygon fill="none" stroke="#63b8ff" points="163.98,-107.13 171.01,-115.05 170.46,-104.47 163.98,-107.13"/>
</a>
</g>
</g>
<!-- Node5 -->
<g id="Node000005" class="node">
<title>Node5</title>
<g id="a_Node000005"><a xlink:href="class_items_1_1_equipment.html" target="_top" xlink:title="The Equipment&#45;Class is used for making items usable for wearing by the player (enemies should work to...">
<polygon fill="white" stroke="none" points="288.88,-80.25 206.62,-80.25 206.62,0 288.88,0 288.88,-80.25"/>
<text xml:space="preserve" text-anchor="start" x="210.62" y="-66.75" font-family="Helvetica,sans-Serif" font-size="10.00">Items.Equipment</text>
<text xml:space="preserve" text-anchor="start" x="211.88" y="-51.5" font-family="Helvetica,sans-Serif" font-size="10.00">+</text>
<text xml:space="preserve" text-anchor="start" x="223.12" y="-51.5" font-family="Helvetica,sans-Serif" font-size="10.00">equipSlot</text>
<text xml:space="preserve" text-anchor="start" x="211.88" y="-36.25" font-family="Helvetica,sans-Serif" font-size="10.00">+</text>
<text xml:space="preserve" text-anchor="start" x="223.12" y="-36.25" font-family="Helvetica,sans-Serif" font-size="10.00">statIncreases</text>
<text xml:space="preserve" text-anchor="start" x="211.88" y="-21" font-family="Helvetica,sans-Serif" font-size="10.00">+</text>
<text xml:space="preserve" text-anchor="start" x="223.12" y="-21" font-family="Helvetica,sans-Serif" font-size="10.00">toolType</text>
<text xml:space="preserve" text-anchor="start" x="211.88" y="-5.75" font-family="Helvetica,sans-Serif" font-size="10.00">+</text>
<text xml:space="preserve" text-anchor="start" x="223.12" y="-5.75" font-family="Helvetica,sans-Serif" font-size="10.00">Use()</text>
<polygon fill="#666666" stroke="#666666" points="206.62,-63 206.62,-63 288.88,-63 288.88,-63 206.62,-63"/>
<polygon fill="#666666" stroke="#666666" points="206.62,-17.25 206.62,-17.25 221.12,-17.25 221.12,-17.25 206.62,-17.25"/>
<polygon fill="#666666" stroke="#666666" points="221.12,-17.25 221.12,-17.25 288.88,-17.25 288.88,-17.25 221.12,-17.25"/>
<polygon fill="none" stroke="#666666" points="206.62,0 206.62,-80.25 288.88,-80.25 288.88,0 206.62,0"/>
</a>
</g>
</g>
<!-- Node1&#45;&gt;Node5 -->
<g id="edge4_Node000001_Node000005" class="edge">
<title>Node1&#45;&gt;Node5</title>
<g id="a_edge4_Node000001_Node000005"><a xlink:title=" ">
<path fill="none" stroke="#63b8ff" d="M220.66,-106.08C224.36,-97.21 228.07,-88.33 231.49,-80.11"/>
<polygon fill="none" stroke="#63b8ff" points="217.54,-104.48 216.92,-115.06 224,-107.18 217.54,-104.48"/>
</a>
</g>
</g>
<!-- Node6 -->
<g id="Node000006" class="node">
<title>Node6</title>
<g id="a_Node000006"><a xlink:href="class_items_1_1_glyphs.html" target="_top" xlink:title="The Glyphs&#45;Class is only used to create items with the glyphs icon so the player knows how the glyphs...">
<polygon fill="white" stroke="none" points="373,-65 306.5,-65 306.5,-15.25 373,-15.25 373,-65"/>
<text xml:space="preserve" text-anchor="start" x="310.5" y="-51.5" font-family="Helvetica,sans-Serif" font-size="10.00">Items.Glyphs</text>
<text xml:space="preserve" text-anchor="start" x="338.25" y="-36.25" font-family="Helvetica,sans-Serif" font-size="10.00"> </text>
<text xml:space="preserve" text-anchor="start" x="316.62" y="-21" font-family="Helvetica,sans-Serif" font-size="10.00">+</text>
<text xml:space="preserve" text-anchor="start" x="332.75" y="-21" font-family="Helvetica,sans-Serif" font-size="10.00">Use()</text>
<polygon fill="#666666" stroke="#666666" points="306.5,-47.75 306.5,-47.75 373,-47.75 373,-47.75 306.5,-47.75"/>
<polygon fill="#666666" stroke="#666666" points="306.5,-32.5 306.5,-32.5 373,-32.5 373,-32.5 306.5,-32.5"/>
<polygon fill="none" stroke="#666666" points="306.5,-15.25 306.5,-65 373,-65 373,-15.25 306.5,-15.25"/>
</a>
</g>
</g>
<!-- Node1&#45;&gt;Node6 -->
<g id="edge5_Node000001_Node000006" class="edge">
<title>Node1&#45;&gt;Node6</title>
<g id="a_edge5_Node000001_Node000006"><a xlink:title=" ">
<path fill="none" stroke="#63b8ff" d="M246.76,-125.18C263.2,-110.92 281.32,-95.03 297.75,-80.25 303.23,-75.32 309.05,-69.97 314.56,-64.85"/>
<polygon fill="none" stroke="#63b8ff" points="244.74,-122.3 239.47,-131.49 249.32,-127.59 244.74,-122.3"/>
</a>
</g>
</g>
<!-- Node2 -->
<g id="Node000002" class="node">
<title>Node2</title>
<g id="a_Node000002"><a xlink:title=" ">
<polygon fill="white" stroke="none" points="233.75,-312.75 153.75,-312.75 153.75,-263 233.75,-263 233.75,-312.75"/>
<text xml:space="preserve" text-anchor="start" x="157.75" y="-299.25" font-family="Helvetica,sans-Serif" font-size="10.00">ScriptableObject</text>
<text xml:space="preserve" text-anchor="start" x="192.25" y="-284" font-family="Helvetica,sans-Serif" font-size="10.00"> </text>
<text xml:space="preserve" text-anchor="start" x="192.25" y="-268.75" font-family="Helvetica,sans-Serif" font-size="10.00"> </text>
<polygon fill="#666666" stroke="#666666" points="153.75,-295.5 153.75,-295.5 233.75,-295.5 233.75,-295.5 153.75,-295.5"/>
<polygon fill="#666666" stroke="#666666" points="153.75,-280.25 153.75,-280.25 233.75,-280.25 233.75,-280.25 153.75,-280.25"/>
<polygon fill="none" stroke="#666666" points="153.75,-263 153.75,-312.75 233.75,-312.75 233.75,-263 153.75,-263"/>
</a>
</g>
</g>
<!-- Node2&#45;&gt;Node1 -->
<g id="edge1_Node000001_Node000002" class="edge">
<title>Node2&#45;&gt;Node1</title>
<g id="a_edge1_Node000001_Node000002"><a xlink:title=" ">
<path fill="none" stroke="#63b8ff" d="M193.75,-251.83C193.75,-243.93 193.75,-235.37 193.75,-226.89"/>
<polygon fill="none" stroke="#63b8ff" points="190.25,-251.69 193.75,-261.69 197.25,-251.69 190.25,-251.69"/>
</a>
</g>
</g>
</g>
</svg>
