<?xml version="1.0" encoding="UTF-8" standalone="no"?>
<!DOCTYPE svg PUBLIC "-//W3C//DTD SVG 1.1//EN"
 "http://www.w3.org/Graphics/SVG/1.1/DTD/svg11.dtd">
<!-- Generated by graphviz version 13.1.2 (20250808.2320)
 -->
<!-- Title: Items.Consumable Pages: 1 -->
<svg width="103pt" height="306pt"
 viewBox="0.00 0.00 103.00 306.00" xmlns="http://www.w3.org/2000/svg" xmlns:xlink="http://www.w3.org/1999/xlink">
<g id="graph0" class="graph" transform="scale(1 1) rotate(0) translate(4 301.5)">
<title>Items.Consumable</title>
<!-- Node1 -->
<g id="Node000001" class="node">
<title>Node1</title>
<g id="a_Node000001"><a xlink:title="Consumable&#45;Class is used to handle all items that increase a players current stats....">
<polygon fill="#999999" stroke="none" points="95.25,-65 0,-65 0,0 95.25,0 95.25,-65"/>
<text xml:space="preserve" text-anchor="start" x="6.38" y="-51.5" font-family="Helvetica,sans-Serif" font-size="10.00">Items.Consumable</text>
<text xml:space="preserve" text-anchor="start" x="4" y="-36.25" font-family="Helvetica,sans-Serif" font-size="10.00">+</text>
<text xml:space="preserve" text-anchor="start" x="14" y="-36.25" font-family="Helvetica,sans-Serif" font-size="10.00">statToRestore</text>
<text xml:space="preserve" text-anchor="start" x="4" y="-21" font-family="Helvetica,sans-Serif" font-size="10.00">+</text>
<text xml:space="preserve" text-anchor="start" x="14" y="-21" font-family="Helvetica,sans-Serif" font-size="10.00">amountToRestore</text>
<text xml:space="preserve" text-anchor="start" x="4" y="-5.75" font-family="Helvetica,sans-Serif" font-size="10.00">+</text>
<text xml:space="preserve" text-anchor="start" x="14" y="-5.75" font-family="Helvetica,sans-Serif" font-size="10.00">Use()</text>
<polygon fill="#666666" stroke="#666666" points="0,-47.75 0,-47.75 95.25,-47.75 95.25,-47.75 0,-47.75"/>
<polygon fill="#666666" stroke="#666666" points="0,-17.25 0,-17.25 12,-17.25 12,-17.25 0,-17.25"/>
<polygon fill="#666666" stroke="#666666" points="12,-17.25 12,-17.25 95.25,-17.25 95.25,-17.25 12,-17.25"/>
<polygon fill="none" stroke="#666666" points="0,0 0,-65 95.25,-65 95.25,0 0,0"/>
</a>
</g>
</g>
<!-- Node2 -->
<g id="Node000002" class="node">
<title>Node2</title>
<g id="a_Node000002"><a xlink:href="class_items_1_1_item.html" target="_top" xlink:title="Abstract Data&#45;Class, which shares all commonalities between different types of Items.">
<polygon fill="white" stroke="none" points="92.25,-211.75 3,-211.75 3,-101 92.25,-101 92.25,-211.75"/>
<text xml:space="preserve" text-anchor="start" x="24" y="-198.25" font-family="Helvetica,sans-Serif" font-size="10.00">Items.Item</text>
<text xml:space="preserve" text-anchor="start" x="7" y="-183" font-family="Helvetica,sans-Serif" font-size="10.00">+</text>
<text xml:space="preserve" text-anchor="start" x="17" y="-183" font-family="Helvetica,sans-Serif" font-size="10.00">_name</text>
<text xml:space="preserve" text-anchor="start" x="7" y="-167.75" font-family="Helvetica,sans-Serif" font-size="10.00">+</text>
<text xml:space="preserve" text-anchor="start" x="17" y="-167.75" font-family="Helvetica,sans-Serif" font-size="10.00">_model</text>
<text xml:space="preserve" text-anchor="start" x="7" y="-152.5" font-family="Helvetica,sans-Serif" font-size="10.00">+</text>
<text xml:space="preserve" text-anchor="start" x="17" y="-152.5" font-family="Helvetica,sans-Serif" font-size="10.00">rarity</text>
<text xml:space="preserve" text-anchor="start" x="7" y="-137.25" font-family="Helvetica,sans-Serif" font-size="10.00">+</text>
<text xml:space="preserve" text-anchor="start" x="17" y="-137.25" font-family="Helvetica,sans-Serif" font-size="10.00">item_icon</text>
<text xml:space="preserve" text-anchor="start" x="7" y="-122" font-family="Helvetica,sans-Serif" font-size="10.00">+</text>
<text xml:space="preserve" text-anchor="start" x="17" y="-122" font-family="Helvetica,sans-Serif" font-size="10.00">GetRarityColor()</text>
<text xml:space="preserve" text-anchor="start" x="7" y="-106.75" font-family="Helvetica,sans-Serif" font-size="10.00">+</text>
<text xml:space="preserve" text-anchor="start" x="17" y="-106.75" font-family="Helvetica,sans-Serif" font-size="10.00">Use()</text>
<polygon fill="#666666" stroke="#666666" points="3,-194.5 3,-194.5 92.25,-194.5 92.25,-194.5 3,-194.5"/>
<polygon fill="#666666" stroke="#666666" points="3,-133.5 3,-133.5 15,-133.5 15,-133.5 3,-133.5"/>
<polygon fill="#666666" stroke="#666666" points="15,-133.5 15,-133.5 92.25,-133.5 92.25,-133.5 15,-133.5"/>
<polygon fill="none" stroke="#666666" points="3,-101 3,-211.75 92.25,-211.75 92.25,-101 3,-101"/>
</a>
</g>
</g>
<!-- Node2&#45;&gt;Node1 -->
<g id="edge1_Node000001_Node000002" class="edge">
<title>Node2&#45;&gt;Node1</title>
<g id="a_edge1_Node000001_Node000002"><a xlink:title=" ">
<path fill="none" stroke="#63b8ff" d="M47.62,-89.77C47.62,-81.08 47.62,-72.52 47.62,-64.8"/>
<polygon fill="none" stroke="#63b8ff" points="44.13,-89.7 47.63,-99.7 51.13,-89.7 44.13,-89.7"/>
</a>
</g>
</g>
<!-- Node3 -->
<g id="Node000003" class="node">
<title>Node3</title>
<g id="a_Node000003"><a xlink:title=" ">
<polygon fill="white" stroke="none" points="87.62,-297.5 7.62,-297.5 7.62,-247.75 87.62,-247.75 87.62,-297.5"/>
<text xml:space="preserve" text-anchor="start" x="11.62" y="-284" font-family="Helvetica,sans-Serif" font-size="10.00">ScriptableObject</text>
<text xml:space="preserve" text-anchor="start" x="46.12" y="-268.75" font-family="Helvetica,sans-Serif" font-size="10.00"> </text>
<text xml:space="preserve" text-anchor="start" x="46.12" y="-253.5" font-family="Helvetica,sans-Serif" font-size="10.00"> </text>
<polygon fill="#666666" stroke="#666666" points="7.62,-280.25 7.62,-280.25 87.62,-280.25 87.62,-280.25 7.62,-280.25"/>
<polygon fill="#666666" stroke="#666666" points="7.62,-265 7.62,-265 87.62,-265 87.62,-265 7.62,-265"/>
<polygon fill="none" stroke="#666666" points="7.62,-247.75 7.62,-297.5 87.62,-297.5 87.62,-247.75 7.62,-247.75"/>
</a>
</g>
</g>
<!-- Node3&#45;&gt;Node2 -->
<g id="edge2_Node000002_Node000003" class="edge">
<title>Node3&#45;&gt;Node2</title>
<g id="a_edge2_Node000002_Node000003"><a xlink:title=" ">
<path fill="none" stroke="#63b8ff" d="M47.62,-236.58C47.62,-228.68 47.62,-220.12 47.62,-211.64"/>
<polygon fill="none" stroke="#63b8ff" points="44.13,-236.44 47.63,-246.44 51.13,-236.44 44.13,-236.44"/>
</a>
</g>
</g>
</g>
</svg>
