<?xml version="1.0" encoding="UTF-8" standalone="no"?>
<!DOCTYPE svg PUBLIC "-//W3C//DTD SVG 1.1//EN"
 "http://www.w3.org/Graphics/SVG/1.1/DTD/svg11.dtd">
<!-- Generated by graphviz version 13.1.2 (20250808.2320)
 -->
<!-- Title: Manager.ObjectPoolManager Pages: 1 -->
<svg width="141pt" height="205pt"
 viewBox="0.00 0.00 141.00 205.00" xmlns="http://www.w3.org/2000/svg" xmlns:xlink="http://www.w3.org/1999/xlink">
<g id="graph0" class="graph" transform="scale(1 1) rotate(0) translate(4 200.5)">
<title>Manager.ObjectPoolManager</title>
<!-- Node1 -->
<g id="Node000001" class="node">
<title>Node1</title>
<g id="a_Node000001"><a xlink:title="Manages object pool for reusable GameObject instances (e.g., projectiles). Preloads a set of inactive...">
<polygon fill="#999999" stroke="none" points="133.25,-110.75 0,-110.75 0,0 133.25,0 133.25,-110.75"/>
<text xml:space="preserve" text-anchor="start" x="4" y="-97.25" font-family="Helvetica,sans-Serif" font-size="10.00">Manager.ObjectPoolManager</text>
<text xml:space="preserve" text-anchor="start" x="12.75" y="-82" font-family="Helvetica,sans-Serif" font-size="10.00">+</text>
<text xml:space="preserve" text-anchor="start" x="31.5" y="-82" font-family="Helvetica,sans-Serif" font-size="10.00">IsReady</text>
<text xml:space="preserve" text-anchor="start" x="14.25" y="-66.75" font-family="Helvetica,sans-Serif" font-size="10.00">&#45;</text>
<text xml:space="preserve" text-anchor="start" x="31.5" y="-66.75" font-family="Helvetica,sans-Serif" font-size="10.00">projectilePrefab</text>
<text xml:space="preserve" text-anchor="start" x="14.25" y="-51.5" font-family="Helvetica,sans-Serif" font-size="10.00">&#45;</text>
<text xml:space="preserve" text-anchor="start" x="31.5" y="-51.5" font-family="Helvetica,sans-Serif" font-size="10.00">poolSize</text>
<text xml:space="preserve" text-anchor="start" x="14.25" y="-36.25" font-family="Helvetica,sans-Serif" font-size="10.00">&#45;</text>
<text xml:space="preserve" text-anchor="start" x="31.5" y="-36.25" font-family="Helvetica,sans-Serif" font-size="10.00">_pool</text>
<text xml:space="preserve" text-anchor="start" x="12.75" y="-21" font-family="Helvetica,sans-Serif" font-size="10.00">+</text>
<text xml:space="preserve" text-anchor="start" x="31.5" y="-21" font-family="Helvetica,sans-Serif" font-size="10.00">GetPooledObject()</text>
<text xml:space="preserve" text-anchor="start" x="14.25" y="-5.75" font-family="Helvetica,sans-Serif" font-size="10.00">&#45;</text>
<text xml:space="preserve" text-anchor="start" x="31.5" y="-5.75" font-family="Helvetica,sans-Serif" font-size="10.00">Awake()</text>
<polygon fill="#666666" stroke="#666666" points="0,-93.5 0,-93.5 133.25,-93.5 133.25,-93.5 0,-93.5"/>
<polygon fill="#666666" stroke="#666666" points="0,-32.5 0,-32.5 29.5,-32.5 29.5,-32.5 0,-32.5"/>
<polygon fill="#666666" stroke="#666666" points="29.5,-32.5 29.5,-32.5 133.25,-32.5 133.25,-32.5 29.5,-32.5"/>
<polygon fill="none" stroke="#666666" points="0,0 0,-110.75 133.25,-110.75 133.25,0 0,0"/>
</a>
</g>
</g>
<!-- Node2 -->
<g id="Node000002" class="node">
<title>Node2</title>
<g id="a_Node000002"><a xlink:title=" ">
<polygon fill="white" stroke="none" points="104.38,-196.5 28.88,-196.5 28.88,-146.75 104.38,-146.75 104.38,-196.5"/>
<text xml:space="preserve" text-anchor="start" x="32.88" y="-183" font-family="Helvetica,sans-Serif" font-size="10.00">MonoBehaviour</text>
<text xml:space="preserve" text-anchor="start" x="65.12" y="-167.75" font-family="Helvetica,sans-Serif" font-size="10.00"> </text>
<text xml:space="preserve" text-anchor="start" x="65.12" y="-152.5" font-family="Helvetica,sans-Serif" font-size="10.00"> </text>
<polygon fill="#666666" stroke="#666666" points="28.88,-179.25 28.88,-179.25 104.38,-179.25 104.38,-179.25 28.88,-179.25"/>
<polygon fill="#666666" stroke="#666666" points="28.88,-164 28.88,-164 104.38,-164 104.38,-164 28.88,-164"/>
<polygon fill="none" stroke="#666666" points="28.88,-146.75 28.88,-196.5 104.38,-196.5 104.38,-146.75 28.88,-146.75"/>
</a>
</g>
</g>
<!-- Node2&#45;&gt;Node1 -->
<g id="edge1_Node000001_Node000002" class="edge">
<title>Node2&#45;&gt;Node1</title>
<g id="a_edge1_Node000001_Node000002"><a xlink:title=" ">
<path fill="none" stroke="#63b8ff" d="M66.62,-135.58C66.62,-127.68 66.62,-119.12 66.62,-110.64"/>
<polygon fill="none" stroke="#63b8ff" points="63.13,-135.44 66.63,-145.44 70.13,-135.44 63.13,-135.44"/>
</a>
</g>
</g>
</g>
</svg>
