<?xml version="1.0" encoding="UTF-8" standalone="no"?>
<!DOCTYPE svg PUBLIC "-//W3C//DTD SVG 1.1//EN"
 "http://www.w3.org/Graphics/SVG/1.1/DTD/svg11.dtd">
<!-- Generated by graphviz version 13.1.2 (20250808.2320)
 -->
<!-- Title: Items.CollectibleItem Pages: 1 -->
<svg width="317pt" height="370pt"
 viewBox="0.00 0.00 317.00 370.00" xmlns="http://www.w3.org/2000/svg" xmlns:xlink="http://www.w3.org/1999/xlink">
<g id="graph0" class="graph" transform="scale(1 1) rotate(0) translate(4 365.5)">
<title>Items.CollectibleItem</title>
<!-- Node1 -->
<g id="Node000001" class="node">
<title>Node1</title>
<g id="a_Node000001"><a xlink:title="This class implements the IInteractable interface and is used for the ability to collect items of the...">
<polygon fill="#999999" stroke="none" points="198.25,-110.75 97.25,-110.75 97.25,0 198.25,0 198.25,-110.75"/>
<text xml:space="preserve" text-anchor="start" x="101.25" y="-97.25" font-family="Helvetica,sans-Serif" font-size="10.00">Items.CollectibleItem</text>
<text xml:space="preserve" text-anchor="start" x="105.12" y="-82" font-family="Helvetica,sans-Serif" font-size="10.00">+</text>
<text xml:space="preserve" text-anchor="start" x="119" y="-82" font-family="Helvetica,sans-Serif" font-size="10.00">amount</text>
<text xml:space="preserve" text-anchor="start" x="105.12" y="-66.75" font-family="Helvetica,sans-Serif" font-size="10.00">+</text>
<text xml:space="preserve" text-anchor="start" x="119" y="-66.75" font-family="Helvetica,sans-Serif" font-size="10.00">saveIndex</text>
<text xml:space="preserve" text-anchor="start" x="105.12" y="-51.5" font-family="Helvetica,sans-Serif" font-size="10.00">+</text>
<text xml:space="preserve" text-anchor="start" x="119" y="-51.5" font-family="Helvetica,sans-Serif" font-size="10.00">Initialize()</text>
<text xml:space="preserve" text-anchor="start" x="105.12" y="-36.25" font-family="Helvetica,sans-Serif" font-size="10.00">+</text>
<text xml:space="preserve" text-anchor="start" x="119" y="-36.25" font-family="Helvetica,sans-Serif" font-size="10.00">Interact()</text>
<text xml:space="preserve" text-anchor="start" x="105.12" y="-21" font-family="Helvetica,sans-Serif" font-size="10.00">+</text>
<text xml:space="preserve" text-anchor="start" x="119" y="-21" font-family="Helvetica,sans-Serif" font-size="10.00">OnExit()</text>
<text xml:space="preserve" text-anchor="start" x="105.12" y="-5.75" font-family="Helvetica,sans-Serif" font-size="10.00">+</text>
<text xml:space="preserve" text-anchor="start" x="119" y="-5.75" font-family="Helvetica,sans-Serif" font-size="10.00">ShouldRepeat()</text>
<polygon fill="#666666" stroke="#666666" points="97.25,-93.5 97.25,-93.5 198.25,-93.5 198.25,-93.5 97.25,-93.5"/>
<polygon fill="#666666" stroke="#666666" points="97.25,-63 97.25,-63 117,-63 117,-63 97.25,-63"/>
<polygon fill="#666666" stroke="#666666" points="117,-63 117,-63 198.25,-63 198.25,-63 117,-63"/>
<polygon fill="none" stroke="#666666" points="97.25,0 97.25,-110.75 198.25,-110.75 198.25,0 97.25,0"/>
</a>
</g>
</g>
<!-- Node2 -->
<g id="Node000002" class="node">
<title>Node2</title>
<g id="a_Node000002"><a xlink:title=" ">
<polygon fill="white" stroke="none" points="75.5,-244.25 0,-244.25 0,-194.5 75.5,-194.5 75.5,-244.25"/>
<text xml:space="preserve" text-anchor="start" x="4" y="-230.75" font-family="Helvetica,sans-Serif" font-size="10.00">MonoBehaviour</text>
<text xml:space="preserve" text-anchor="start" x="36.25" y="-215.5" font-family="Helvetica,sans-Serif" font-size="10.00"> </text>
<text xml:space="preserve" text-anchor="start" x="36.25" y="-200.25" font-family="Helvetica,sans-Serif" font-size="10.00"> </text>
<polygon fill="#666666" stroke="#666666" points="0,-227 0,-227 75.5,-227 75.5,-227 0,-227"/>
<polygon fill="#666666" stroke="#666666" points="0,-211.75 0,-211.75 75.5,-211.75 75.5,-211.75 0,-211.75"/>
<polygon fill="none" stroke="#666666" points="0,-194.5 0,-244.25 75.5,-244.25 75.5,-194.5 0,-194.5"/>
</a>
</g>
</g>
<!-- Node2&#45;&gt;Node1 -->
<g id="edge1_Node000001_Node000002" class="edge">
<title>Node2&#45;&gt;Node1</title>
<g id="a_edge1_Node000001_Node000002"><a xlink:title=" ">
<path fill="none" stroke="#63b8ff" d="M60.1,-185.46C74.72,-163.93 94.17,-135.29 111.03,-110.45"/>
<polygon fill="none" stroke="#63b8ff" points="57.32,-183.33 54.6,-193.57 63.11,-187.26 57.32,-183.33"/>
</a>
</g>
</g>
<!-- Node3 -->
<g id="Node000003" class="node">
<title>Node3</title>
<g id="a_Node000003"><a xlink:href="interface_interfaces_1_1_i_interactable.html" target="_top" xlink:title="Interface for objects that can be interacted with (e.g., when the player is nearby).">
<polygon fill="white" stroke="none" points="202,-259.5 93.5,-259.5 93.5,-179.25 202,-179.25 202,-259.5"/>
<text xml:space="preserve" text-anchor="start" x="97.5" y="-246" font-family="Helvetica,sans-Serif" font-size="10.00">Interfaces.IInteractable</text>
<text xml:space="preserve" text-anchor="start" x="146.25" y="-230.75" font-family="Helvetica,sans-Serif" font-size="10.00"> </text>
<text xml:space="preserve" text-anchor="start" x="103.25" y="-215.5" font-family="Helvetica,sans-Serif" font-size="10.00">+</text>
<text xml:space="preserve" text-anchor="start" x="119" y="-215.5" font-family="Helvetica,sans-Serif" font-size="10.00">Interact()</text>
<text xml:space="preserve" text-anchor="start" x="103.25" y="-200.25" font-family="Helvetica,sans-Serif" font-size="10.00">+</text>
<text xml:space="preserve" text-anchor="start" x="119" y="-200.25" font-family="Helvetica,sans-Serif" font-size="10.00">OnExit()</text>
<text xml:space="preserve" text-anchor="start" x="103.25" y="-185" font-family="Helvetica,sans-Serif" font-size="10.00">+</text>
<text xml:space="preserve" text-anchor="start" x="119" y="-185" font-family="Helvetica,sans-Serif" font-size="10.00">ShouldRepeat()</text>
<polygon fill="#666666" stroke="#666666" points="93.5,-242.25 93.5,-242.25 202,-242.25 202,-242.25 93.5,-242.25"/>
<polygon fill="#666666" stroke="#666666" points="93.5,-227 93.5,-227 202,-227 202,-227 93.5,-227"/>
<polygon fill="none" stroke="#666666" points="93.5,-179.25 93.5,-259.5 202,-259.5 202,-179.25 93.5,-179.25"/>
</a>
</g>
</g>
<!-- Node3&#45;&gt;Node1 -->
<g id="edge2_Node000001_Node000003" class="edge">
<title>Node3&#45;&gt;Node1</title>
<g id="a_edge2_Node000001_Node000003"><a xlink:title=" ">
<path fill="none" stroke="#63b8ff" d="M147.75,-168.24C147.75,-149.92 147.75,-129.13 147.75,-110.48"/>
<polygon fill="none" stroke="#63b8ff" points="144.25,-168.06 147.75,-178.06 151.25,-168.06 144.25,-168.06"/>
</a>
</g>
</g>
<!-- Node4 -->
<g id="Node000004" class="node">
<title>Node4</title>
<g id="a_Node000004"><a xlink:href="class_items_1_1_item.html" target="_top" xlink:title="Abstract Data&#45;Class, which shares all commonalities between different types of Items.">
<polygon fill="white" stroke="none" points="309.38,-274.75 220.12,-274.75 220.12,-164 309.38,-164 309.38,-274.75"/>
<text xml:space="preserve" text-anchor="start" x="241.12" y="-261.25" font-family="Helvetica,sans-Serif" font-size="10.00">Items.Item</text>
<text xml:space="preserve" text-anchor="start" x="224.12" y="-246" font-family="Helvetica,sans-Serif" font-size="10.00">+</text>
<text xml:space="preserve" text-anchor="start" x="234.12" y="-246" font-family="Helvetica,sans-Serif" font-size="10.00">_name</text>
<text xml:space="preserve" text-anchor="start" x="224.12" y="-230.75" font-family="Helvetica,sans-Serif" font-size="10.00">+</text>
<text xml:space="preserve" text-anchor="start" x="234.12" y="-230.75" font-family="Helvetica,sans-Serif" font-size="10.00">_model</text>
<text xml:space="preserve" text-anchor="start" x="224.12" y="-215.5" font-family="Helvetica,sans-Serif" font-size="10.00">+</text>
<text xml:space="preserve" text-anchor="start" x="234.12" y="-215.5" font-family="Helvetica,sans-Serif" font-size="10.00">rarity</text>
<text xml:space="preserve" text-anchor="start" x="224.12" y="-200.25" font-family="Helvetica,sans-Serif" font-size="10.00">+</text>
<text xml:space="preserve" text-anchor="start" x="234.12" y="-200.25" font-family="Helvetica,sans-Serif" font-size="10.00">item_icon</text>
<text xml:space="preserve" text-anchor="start" x="224.12" y="-185" font-family="Helvetica,sans-Serif" font-size="10.00">+</text>
<text xml:space="preserve" text-anchor="start" x="234.12" y="-185" font-family="Helvetica,sans-Serif" font-size="10.00">GetRarityColor()</text>
<text xml:space="preserve" text-anchor="start" x="224.12" y="-169.75" font-family="Helvetica,sans-Serif" font-size="10.00">+</text>
<text xml:space="preserve" text-anchor="start" x="234.12" y="-169.75" font-family="Helvetica,sans-Serif" font-size="10.00">Use()</text>
<polygon fill="#666666" stroke="#666666" points="220.12,-257.5 220.12,-257.5 309.38,-257.5 309.38,-257.5 220.12,-257.5"/>
<polygon fill="#666666" stroke="#666666" points="220.12,-196.5 220.12,-196.5 232.12,-196.5 232.12,-196.5 220.12,-196.5"/>
<polygon fill="#666666" stroke="#666666" points="232.12,-196.5 232.12,-196.5 309.38,-196.5 309.38,-196.5 232.12,-196.5"/>
<polygon fill="none" stroke="#666666" points="220.12,-164 220.12,-274.75 309.38,-274.75 309.38,-164 220.12,-164"/>
</a>
</g>
</g>
<!-- Node4&#45;&gt;Node1 -->
<g id="edge3_Node000001_Node000004" class="edge">
<title>Node4&#45;&gt;Node1</title>
<g id="a_edge3_Node000001_Node000004"><a xlink:title=" ">
<path fill="none" stroke="#63b8ff" d="M225.79,-164.43C215.73,-150.51 204.81,-135.38 194.4,-120.97"/>
<polygon fill="none" stroke="#63b8ff" points="194.49,-121.09 187.74,-118.57 187.47,-111.37 194.22,-113.89 194.49,-121.09"/>
</a>
</g>
<text xml:space="preserve" text-anchor="start" x="212.76" y="-133.5" font-family="Helvetica,sans-Serif" font-size="10.00" fill="grey">+item</text>
</g>
<!-- Node5 -->
<g id="Node000005" class="node">
<title>Node5</title>
<g id="a_Node000005"><a xlink:title=" ">
<polygon fill="white" stroke="none" points="304.75,-361.5 224.75,-361.5 224.75,-311.75 304.75,-311.75 304.75,-361.5"/>
<text xml:space="preserve" text-anchor="start" x="228.75" y="-348" font-family="Helvetica,sans-Serif" font-size="10.00">ScriptableObject</text>
<text xml:space="preserve" text-anchor="start" x="263.25" y="-332.75" font-family="Helvetica,sans-Serif" font-size="10.00"> </text>
<text xml:space="preserve" text-anchor="start" x="263.25" y="-317.5" font-family="Helvetica,sans-Serif" font-size="10.00"> </text>
<polygon fill="#666666" stroke="#666666" points="224.75,-344.25 224.75,-344.25 304.75,-344.25 304.75,-344.25 224.75,-344.25"/>
<polygon fill="#666666" stroke="#666666" points="224.75,-329 224.75,-329 304.75,-329 304.75,-329 224.75,-329"/>
<polygon fill="none" stroke="#666666" points="224.75,-311.75 224.75,-361.5 304.75,-361.5 304.75,-311.75 224.75,-311.75"/>
</a>
</g>
</g>
<!-- Node5&#45;&gt;Node4 -->
<g id="edge4_Node000004_Node000005" class="edge">
<title>Node5&#45;&gt;Node4</title>
<g id="a_edge4_Node000004_Node000005"><a xlink:title=" ">
<path fill="none" stroke="#63b8ff" d="M264.75,-300.54C264.75,-292.28 264.75,-283.28 264.75,-274.39"/>
<polygon fill="none" stroke="#63b8ff" points="261.25,-300.51 264.75,-310.51 268.25,-300.51 261.25,-300.51"/>
</a>
</g>
</g>
</g>
</svg>
