<?xml version="1.0" encoding="UTF-8" standalone="no"?>
<!DOCTYPE svg PUBLIC "-//W3C//DTD SVG 1.1//EN"
 "http://www.w3.org/Graphics/SVG/1.1/DTD/svg11.dtd">
<!-- Generated by graphviz version 13.1.2 (20250808.2320)
 -->
<!-- Title: Interaction.PlayerInteraction Pages: 1 -->
<svg width="138pt" height="159pt"
 viewBox="0.00 0.00 138.00 159.00" xmlns="http://www.w3.org/2000/svg" xmlns:xlink="http://www.w3.org/1999/xlink">
<g id="graph0" class="graph" transform="scale(1 1) rotate(0) translate(4 154.75)">
<title>Interaction.PlayerInteraction</title>
<!-- Node1 -->
<g id="Node000001" class="node">
<title>Node1</title>
<g id="a_Node000001"><a xlink:title="Handles interaction logic for the player, including reactions to collisions with projectiles and impl...">
<polygon fill="#999999" stroke="none" points="130.25,-65 0,-65 0,0 130.25,0 130.25,-65"/>
<text xml:space="preserve" text-anchor="start" x="4" y="-51.5" font-family="Helvetica,sans-Serif" font-size="10.00">Interaction.PlayerInteraction</text>
<text xml:space="preserve" text-anchor="start" x="12.94" y="-36.25" font-family="Helvetica,sans-Serif" font-size="10.00">&#45;</text>
<text xml:space="preserve" text-anchor="start" x="28.88" y="-36.25" font-family="Helvetica,sans-Serif" font-size="10.00">_healthBar</text>
<text xml:space="preserve" text-anchor="start" x="12.94" y="-21" font-family="Helvetica,sans-Serif" font-size="10.00">&#45;</text>
<text xml:space="preserve" text-anchor="start" x="28.88" y="-21" font-family="Helvetica,sans-Serif" font-size="10.00">Update()</text>
<text xml:space="preserve" text-anchor="start" x="12.94" y="-5.75" font-family="Helvetica,sans-Serif" font-size="10.00">&#45;</text>
<text xml:space="preserve" text-anchor="start" x="28.88" y="-5.75" font-family="Helvetica,sans-Serif" font-size="10.00">OnCollisionEnter()</text>
<polygon fill="#666666" stroke="#666666" points="0,-47.75 0,-47.75 130.25,-47.75 130.25,-47.75 0,-47.75"/>
<polygon fill="#666666" stroke="#666666" points="0,-32.5 0,-32.5 26.88,-32.5 26.88,-32.5 0,-32.5"/>
<polygon fill="#666666" stroke="#666666" points="26.88,-32.5 26.88,-32.5 130.25,-32.5 130.25,-32.5 26.88,-32.5"/>
<polygon fill="none" stroke="#666666" points="0,0 0,-65 130.25,-65 130.25,0 0,0"/>
</a>
</g>
</g>
<!-- Node2 -->
<g id="Node000002" class="node">
<title>Node2</title>
<g id="a_Node000002"><a xlink:title=" ">
<polygon fill="white" stroke="none" points="102.88,-150.75 27.38,-150.75 27.38,-101 102.88,-101 102.88,-150.75"/>
<text xml:space="preserve" text-anchor="start" x="31.38" y="-137.25" font-family="Helvetica,sans-Serif" font-size="10.00">MonoBehaviour</text>
<text xml:space="preserve" text-anchor="start" x="63.62" y="-122" font-family="Helvetica,sans-Serif" font-size="10.00"> </text>
<text xml:space="preserve" text-anchor="start" x="63.62" y="-106.75" font-family="Helvetica,sans-Serif" font-size="10.00"> </text>
<polygon fill="#666666" stroke="#666666" points="27.38,-133.5 27.38,-133.5 102.88,-133.5 102.88,-133.5 27.38,-133.5"/>
<polygon fill="#666666" stroke="#666666" points="27.38,-118.25 27.38,-118.25 102.88,-118.25 102.88,-118.25 27.38,-118.25"/>
<polygon fill="none" stroke="#666666" points="27.38,-101 27.38,-150.75 102.88,-150.75 102.88,-101 27.38,-101"/>
</a>
</g>
</g>
<!-- Node2&#45;&gt;Node1 -->
<g id="edge1_Node000001_Node000002" class="edge">
<title>Node2&#45;&gt;Node1</title>
<g id="a_edge1_Node000001_Node000002"><a xlink:title=" ">
<path fill="none" stroke="#63b8ff" d="M65.12,-90.09C65.12,-81.8 65.12,-73 65.12,-64.88"/>
<polygon fill="none" stroke="#63b8ff" points="61.63,-89.83 65.13,-99.83 68.63,-89.83 61.63,-89.83"/>
</a>
</g>
</g>
</g>
</svg>
