<?xml version="1.0" encoding="UTF-8" standalone="no"?>
<!DOCTYPE svg PUBLIC "-//W3C//DTD SVG 1.1//EN"
 "http://www.w3.org/Graphics/SVG/1.1/DTD/svg11.dtd">
<!-- Generated by graphviz version 13.1.2 (20250808.2320)
 -->
<!-- Title: Inventory.ItemSlotNumber Pages: 1 -->
<svg width="129pt" height="159pt"
 viewBox="0.00 0.00 129.00 159.00" xmlns="http://www.w3.org/2000/svg" xmlns:xlink="http://www.w3.org/1999/xlink">
<g id="graph0" class="graph" transform="scale(1 1) rotate(0) translate(4 154.75)">
<title>Inventory.ItemSlotNumber</title>
<!-- Node1 -->
<g id="Node000001" class="node">
<title>Node1</title>
<g id="a_Node000001"><a xlink:title="Data&#45;Class only to keep track of the row and column of an inventory slot.">
<polygon fill="#999999" stroke="none" points="121.25,-65 0,-65 0,0 121.25,0 121.25,-65"/>
<text xml:space="preserve" text-anchor="start" x="4" y="-51.5" font-family="Helvetica,sans-Serif" font-size="10.00">Inventory.ItemSlotNumber</text>
<text xml:space="preserve" text-anchor="start" x="25.88" y="-36.25" font-family="Helvetica,sans-Serif" font-size="10.00">+</text>
<text xml:space="preserve" text-anchor="start" x="57.75" y="-36.25" font-family="Helvetica,sans-Serif" font-size="10.00">row</text>
<text xml:space="preserve" text-anchor="start" x="25.88" y="-21" font-family="Helvetica,sans-Serif" font-size="10.00">+</text>
<text xml:space="preserve" text-anchor="start" x="57.75" y="-21" font-family="Helvetica,sans-Serif" font-size="10.00">col</text>
<text xml:space="preserve" text-anchor="start" x="59.12" y="-5.75" font-family="Helvetica,sans-Serif" font-size="10.00"> </text>
<polygon fill="#666666" stroke="#666666" points="0,-47.75 0,-47.75 121.25,-47.75 121.25,-47.75 0,-47.75"/>
<polygon fill="#666666" stroke="#666666" points="0,-17.25 0,-17.25 55.75,-17.25 55.75,-17.25 0,-17.25"/>
<polygon fill="#666666" stroke="#666666" points="55.75,-17.25 55.75,-17.25 121.25,-17.25 121.25,-17.25 55.75,-17.25"/>
<polygon fill="none" stroke="#666666" points="0,0 0,-65 121.25,-65 121.25,0 0,0"/>
</a>
</g>
</g>
<!-- Node2 -->
<g id="Node000002" class="node">
<title>Node2</title>
<g id="a_Node000002"><a xlink:title=" ">
<polygon fill="white" stroke="none" points="98.38,-150.75 22.88,-150.75 22.88,-101 98.38,-101 98.38,-150.75"/>
<text xml:space="preserve" text-anchor="start" x="26.88" y="-137.25" font-family="Helvetica,sans-Serif" font-size="10.00">MonoBehaviour</text>
<text xml:space="preserve" text-anchor="start" x="59.12" y="-122" font-family="Helvetica,sans-Serif" font-size="10.00"> </text>
<text xml:space="preserve" text-anchor="start" x="59.12" y="-106.75" font-family="Helvetica,sans-Serif" font-size="10.00"> </text>
<polygon fill="#666666" stroke="#666666" points="22.88,-133.5 22.88,-133.5 98.38,-133.5 98.38,-133.5 22.88,-133.5"/>
<polygon fill="#666666" stroke="#666666" points="22.88,-118.25 22.88,-118.25 98.38,-118.25 98.38,-118.25 22.88,-118.25"/>
<polygon fill="none" stroke="#666666" points="22.88,-101 22.88,-150.75 98.38,-150.75 98.38,-101 22.88,-101"/>
</a>
</g>
</g>
<!-- Node2&#45;&gt;Node1 -->
<g id="edge1_Node000001_Node000002" class="edge">
<title>Node2&#45;&gt;Node1</title>
<g id="a_edge1_Node000001_Node000002"><a xlink:title=" ">
<path fill="none" stroke="#63b8ff" d="M60.62,-90.09C60.62,-81.8 60.62,-73 60.62,-64.88"/>
<polygon fill="none" stroke="#63b8ff" points="57.13,-89.83 60.63,-99.83 64.13,-89.83 57.13,-89.83"/>
</a>
</g>
</g>
</g>
</svg>
