<?xml version="1.0" encoding="UTF-8" standalone="no"?>
<!DOCTYPE svg PUBLIC "-//W3C//DTD SVG 1.1//EN"
 "http://www.w3.org/Graphics/SVG/1.1/DTD/svg11.dtd">
<!-- Generated by graphviz version 13.1.2 (20250808.2320)
 -->
<!-- Title: Controller.FirstPersonPlayerController Pages: 1 -->
<svg width="249pt" height="594pt"
 viewBox="0.00 0.00 249.00 594.00" xmlns="http://www.w3.org/2000/svg" xmlns:xlink="http://www.w3.org/1999/xlink">
<g id="graph0" class="graph" transform="scale(1 1) rotate(0) translate(4 590.25)">
<title>Controller.FirstPersonPlayerController</title>
<!-- Node1 -->
<g id="Node000001" class="node">
<title>Node1</title>
<g id="a_Node000001"><a xlink:title="First&#45;person player controller for movement, looking, and basic interaction checks....">
<polygon fill="#999999" stroke="none" points="130.25,-320.25 0,-320.25 0,0 130.25,0 130.25,-320.25"/>
<text xml:space="preserve" text-anchor="start" x="4" y="-306.75" font-family="Helvetica,sans-Serif" font-size="10.00">Controller.FirstPersonPlayer</text>
<text xml:space="preserve" text-anchor="start" x="44.12" y="-295.5" font-family="Helvetica,sans-Serif" font-size="10.00">Controller</text>
<text xml:space="preserve" text-anchor="start" x="6.94" y="-280.25" font-family="Helvetica,sans-Serif" font-size="10.00">&#45;</text>
<text xml:space="preserve" text-anchor="start" x="16.88" y="-280.25" font-family="Helvetica,sans-Serif" font-size="10.00">cameraTransform</text>
<text xml:space="preserve" text-anchor="start" x="6.94" y="-265" font-family="Helvetica,sans-Serif" font-size="10.00">&#45;</text>
<text xml:space="preserve" text-anchor="start" x="16.88" y="-265" font-family="Helvetica,sans-Serif" font-size="10.00">moveSpeed</text>
<text xml:space="preserve" text-anchor="start" x="6.94" y="-249.75" font-family="Helvetica,sans-Serif" font-size="10.00">&#45;</text>
<text xml:space="preserve" text-anchor="start" x="16.88" y="-249.75" font-family="Helvetica,sans-Serif" font-size="10.00">speedStatIndex</text>
<text xml:space="preserve" text-anchor="start" x="6.94" y="-234.5" font-family="Helvetica,sans-Serif" font-size="10.00">&#45;</text>
<text xml:space="preserve" text-anchor="start" x="16.88" y="-234.5" font-family="Helvetica,sans-Serif" font-size="10.00">mouseSensitivity</text>
<text xml:space="preserve" text-anchor="start" x="6.94" y="-219.25" font-family="Helvetica,sans-Serif" font-size="10.00">&#45;</text>
<text xml:space="preserve" text-anchor="start" x="16.88" y="-219.25" font-family="Helvetica,sans-Serif" font-size="10.00">rotationSmoothness</text>
<text xml:space="preserve" text-anchor="start" x="6.94" y="-204" font-family="Helvetica,sans-Serif" font-size="10.00">&#45;</text>
<text xml:space="preserve" text-anchor="start" x="16.88" y="-204" font-family="Helvetica,sans-Serif" font-size="10.00">allowPitchRotation</text>
<text xml:space="preserve" text-anchor="start" x="6.94" y="-188.75" font-family="Helvetica,sans-Serif" font-size="10.00">&#45;</text>
<text xml:space="preserve" text-anchor="start" x="16.88" y="-188.75" font-family="Helvetica,sans-Serif" font-size="10.00">_stats</text>
<text xml:space="preserve" text-anchor="start" x="6.94" y="-173.5" font-family="Helvetica,sans-Serif" font-size="10.00">&#45;</text>
<text xml:space="preserve" text-anchor="start" x="16.88" y="-173.5" font-family="Helvetica,sans-Serif" font-size="10.00">_rotationX</text>
<text xml:space="preserve" text-anchor="start" x="6.94" y="-158.25" font-family="Helvetica,sans-Serif" font-size="10.00">&#45;</text>
<text xml:space="preserve" text-anchor="start" x="16.88" y="-158.25" font-family="Helvetica,sans-Serif" font-size="10.00">_rotationY</text>
<text xml:space="preserve" text-anchor="start" x="6.94" y="-143" font-family="Helvetica,sans-Serif" font-size="10.00">&#45;</text>
<text xml:space="preserve" text-anchor="start" x="16.88" y="-143" font-family="Helvetica,sans-Serif" font-size="10.00">_currentRotation</text>
<text xml:space="preserve" text-anchor="start" x="6.94" y="-127.75" font-family="Helvetica,sans-Serif" font-size="10.00">&#45;</text>
<text xml:space="preserve" text-anchor="start" x="16.88" y="-127.75" font-family="Helvetica,sans-Serif" font-size="10.00">_currentCameraRotation</text>
<text xml:space="preserve" text-anchor="start" x="6.94" y="-112.5" font-family="Helvetica,sans-Serif" font-size="10.00">&#45;</text>
<text xml:space="preserve" text-anchor="start" x="16.88" y="-112.5" font-family="Helvetica,sans-Serif" font-size="10.00">_currentInteractables</text>
<text xml:space="preserve" text-anchor="start" x="5.44" y="-97.25" font-family="Helvetica,sans-Serif" font-size="10.00">+</text>
<text xml:space="preserve" text-anchor="start" x="16.88" y="-97.25" font-family="Helvetica,sans-Serif" font-size="10.00">Init()</text>
<text xml:space="preserve" text-anchor="start" x="5.44" y="-82" font-family="Helvetica,sans-Serif" font-size="10.00">+</text>
<text xml:space="preserve" text-anchor="start" x="16.88" y="-82" font-family="Helvetica,sans-Serif" font-size="10.00">SyncLoadedRotation()</text>
<text xml:space="preserve" text-anchor="start" x="6.94" y="-66.75" font-family="Helvetica,sans-Serif" font-size="10.00">&#45;</text>
<text xml:space="preserve" text-anchor="start" x="16.88" y="-66.75" font-family="Helvetica,sans-Serif" font-size="10.00">Start()</text>
<text xml:space="preserve" text-anchor="start" x="6.94" y="-51.5" font-family="Helvetica,sans-Serif" font-size="10.00">&#45;</text>
<text xml:space="preserve" text-anchor="start" x="16.88" y="-51.5" font-family="Helvetica,sans-Serif" font-size="10.00">Update()</text>
<text xml:space="preserve" text-anchor="start" x="6.94" y="-36.25" font-family="Helvetica,sans-Serif" font-size="10.00">&#45;</text>
<text xml:space="preserve" text-anchor="start" x="16.88" y="-36.25" font-family="Helvetica,sans-Serif" font-size="10.00">HandleMovement()</text>
<text xml:space="preserve" text-anchor="start" x="6.94" y="-21" font-family="Helvetica,sans-Serif" font-size="10.00">&#45;</text>
<text xml:space="preserve" text-anchor="start" x="16.88" y="-21" font-family="Helvetica,sans-Serif" font-size="10.00">HandleRotation()</text>
<text xml:space="preserve" text-anchor="start" x="6.94" y="-5.75" font-family="Helvetica,sans-Serif" font-size="10.00">&#45;</text>
<text xml:space="preserve" text-anchor="start" x="16.88" y="-5.75" font-family="Helvetica,sans-Serif" font-size="10.00">CheckForObject()</text>
<polygon fill="#666666" stroke="#666666" points="0,-291.75 0,-291.75 130.25,-291.75 130.25,-291.75 0,-291.75"/>
<polygon fill="#666666" stroke="#666666" points="0,-108.75 0,-108.75 14.88,-108.75 14.88,-108.75 0,-108.75"/>
<polygon fill="#666666" stroke="#666666" points="14.88,-108.75 14.88,-108.75 130.25,-108.75 130.25,-108.75 14.88,-108.75"/>
<polygon fill="none" stroke="#666666" points="0,0 0,-320.25 130.25,-320.25 130.25,0 0,0"/>
</a>
</g>
</g>
<!-- Node2 -->
<g id="Node000002" class="node">
<title>Node2</title>
<g id="a_Node000002"><a xlink:title=" ">
<polygon fill="white" stroke="none" points="98.88,-586.25 23.38,-586.25 23.38,-536.5 98.88,-536.5 98.88,-586.25"/>
<text xml:space="preserve" text-anchor="start" x="27.38" y="-572.75" font-family="Helvetica,sans-Serif" font-size="10.00">MonoBehaviour</text>
<text xml:space="preserve" text-anchor="start" x="59.62" y="-557.5" font-family="Helvetica,sans-Serif" font-size="10.00"> </text>
<text xml:space="preserve" text-anchor="start" x="59.62" y="-542.25" font-family="Helvetica,sans-Serif" font-size="10.00"> </text>
<polygon fill="#666666" stroke="#666666" points="23.38,-569 23.38,-569 98.88,-569 98.88,-569 23.38,-569"/>
<polygon fill="#666666" stroke="#666666" points="23.38,-553.75 23.38,-553.75 98.88,-553.75 98.88,-553.75 23.38,-553.75"/>
<polygon fill="none" stroke="#666666" points="23.38,-536.5 23.38,-586.25 98.88,-586.25 98.88,-536.5 23.38,-536.5"/>
</a>
</g>
</g>
<!-- Node2&#45;&gt;Node1 -->
<g id="edge1_Node000001_Node000002" class="edge">
<title>Node2&#45;&gt;Node1</title>
<g id="a_edge1_Node000001_Node000002"><a xlink:title=" ">
<path fill="none" stroke="#63b8ff" d="M61.48,-525.2C61.94,-479.2 62.78,-395.56 63.53,-320.04"/>
<polygon fill="none" stroke="#63b8ff" points="57.98,-525.05 61.38,-535.08 64.98,-525.12 57.98,-525.05"/>
</a>
</g>
</g>
<!-- Node3 -->
<g id="Node000003" class="node">
<title>Node3</title>
<g id="a_Node000003"><a xlink:href="class_manager_1_1_game_input_manager.html" target="_top" xlink:title="Manages player input for movement and camera control using the Input System. Handles input locking an...">
<polygon fill="white" stroke="none" points="240.88,-499.5 77.38,-499.5 77.38,-373.5 240.88,-373.5 240.88,-499.5"/>
<text xml:space="preserve" text-anchor="start" x="96.5" y="-486" font-family="Helvetica,sans-Serif" font-size="10.00">Manager.GameInputManager</text>
<text xml:space="preserve" text-anchor="start" x="81.38" y="-470.75" font-family="Helvetica,sans-Serif" font-size="10.00">+</text>
<text xml:space="preserve" text-anchor="start" x="91.38" y="-470.75" font-family="Helvetica,sans-Serif" font-size="10.00">Instance</text>
<text xml:space="preserve" text-anchor="start" x="82.88" y="-455.5" font-family="Helvetica,sans-Serif" font-size="10.00">&#45;</text>
<text xml:space="preserve" text-anchor="start" x="91.38" y="-455.5" font-family="Helvetica,sans-Serif" font-size="10.00">_inputSystemActions</text>
<text xml:space="preserve" text-anchor="start" x="81.38" y="-440.25" font-family="Helvetica,sans-Serif" font-size="10.00">+</text>
<text xml:space="preserve" text-anchor="start" x="91.38" y="-440.25" font-family="Helvetica,sans-Serif" font-size="10.00">GetMovementVectorNormalized()</text>
<text xml:space="preserve" text-anchor="start" x="81.38" y="-425" font-family="Helvetica,sans-Serif" font-size="10.00">+</text>
<text xml:space="preserve" text-anchor="start" x="91.38" y="-425" font-family="Helvetica,sans-Serif" font-size="10.00">GetLookDelta()</text>
<text xml:space="preserve" text-anchor="start" x="81.38" y="-409.75" font-family="Helvetica,sans-Serif" font-size="10.00">+</text>
<text xml:space="preserve" text-anchor="start" x="91.38" y="-409.75" font-family="Helvetica,sans-Serif" font-size="10.00">MouseLocked()</text>
<text xml:space="preserve" text-anchor="start" x="82.88" y="-394.5" font-family="Helvetica,sans-Serif" font-size="10.00">&#45;</text>
<text xml:space="preserve" text-anchor="start" x="91.38" y="-394.5" font-family="Helvetica,sans-Serif" font-size="10.00">Awake()</text>
<text xml:space="preserve" text-anchor="start" x="82.88" y="-379.25" font-family="Helvetica,sans-Serif" font-size="10.00">&#45;</text>
<text xml:space="preserve" text-anchor="start" x="91.38" y="-379.25" font-family="Helvetica,sans-Serif" font-size="10.00">OnDestroy()</text>
<polygon fill="#666666" stroke="#666666" points="77.38,-482.25 77.38,-482.25 240.88,-482.25 240.88,-482.25 77.38,-482.25"/>
<polygon fill="#666666" stroke="#666666" points="77.38,-451.75 77.38,-451.75 89.38,-451.75 89.38,-451.75 77.38,-451.75"/>
<polygon fill="#666666" stroke="#666666" points="89.38,-451.75 89.38,-451.75 240.88,-451.75 240.88,-451.75 89.38,-451.75"/>
<polygon fill="none" stroke="#666666" points="77.38,-373.5 77.38,-499.5 240.88,-499.5 240.88,-373.5 77.38,-373.5"/>
</a>
</g>
</g>
<!-- Node2&#45;&gt;Node3 -->
<g id="edge3_Node000003_Node000002" class="edge">
<title>Node2&#45;&gt;Node3</title>
<g id="a_edge3_Node000003_Node000002"><a xlink:title=" ">
<path fill="none" stroke="#63b8ff" d="M87.01,-527.92C94.04,-519.11 101.89,-509.27 109.75,-499.41"/>
<polygon fill="none" stroke="#63b8ff" points="84.46,-525.5 80.96,-535.5 89.94,-529.86 84.46,-525.5"/>
</a>
</g>
</g>
<!-- Node3&#45;&gt;Node1 -->
<g id="edge2_Node000001_Node000003" class="edge">
<title>Node3&#45;&gt;Node1</title>
<g id="a_edge2_Node000001_Node000003"><a xlink:title=" ">
<path fill="none" stroke="#63b8ff" d="M137.91,-373.58C133.56,-360.86 128.77,-346.9 123.8,-332.38"/>
<polygon fill="none" stroke="#63b8ff" points="123.76,-332.29 118.04,-327.91 119.88,-320.93 125.6,-325.31 123.76,-332.29"/>
</a>
</g>
<text xml:space="preserve" text-anchor="start" x="134.35" y="-343" font-family="Helvetica,sans-Serif" font-size="10.00" fill="grey">&#45;gameInput</text>
</g>
</g>
</svg>
