<?xml version="1.0" encoding="UTF-8" standalone="no"?>
<!DOCTYPE svg PUBLIC "-//W3C//DTD SVG 1.1//EN"
 "http://www.w3.org/Graphics/SVG/1.1/DTD/svg11.dtd">
<!-- Generated by graphviz version 13.1.2 (20250808.2320)
 -->
<!-- Title: MiniGame.DrawingTrigger Pages: 1 -->
<svg width="210pt" height="205pt"
 viewBox="0.00 0.00 210.00 205.00" xmlns="http://www.w3.org/2000/svg" xmlns:xlink="http://www.w3.org/1999/xlink">
<g id="graph0" class="graph" transform="scale(1 1) rotate(0) translate(4 200.5)">
<title>MiniGame.DrawingTrigger</title>
<!-- Node1 -->
<g id="Node000001" class="node">
<title>Node1</title>
<g id="a_Node000001"><a xlink:title="Handles player interaction with a drawing canvas. Displays instructions, activates the camera for dra...">
<polygon fill="#999999" stroke="none" points="153.38,-80.25 32.12,-80.25 32.12,0 153.38,0 153.38,-80.25"/>
<text xml:space="preserve" text-anchor="start" x="36.12" y="-66.75" font-family="Helvetica,sans-Serif" font-size="10.00">MiniGame.DrawingTrigger</text>
<text xml:space="preserve" text-anchor="start" x="46.56" y="-51.5" font-family="Helvetica,sans-Serif" font-size="10.00">&#45;</text>
<text xml:space="preserve" text-anchor="start" x="64" y="-51.5" font-family="Helvetica,sans-Serif" font-size="10.00">center</text>
<text xml:space="preserve" text-anchor="start" x="45.06" y="-36.25" font-family="Helvetica,sans-Serif" font-size="10.00">+</text>
<text xml:space="preserve" text-anchor="start" x="64" y="-36.25" font-family="Helvetica,sans-Serif" font-size="10.00">Interact()</text>
<text xml:space="preserve" text-anchor="start" x="45.06" y="-21" font-family="Helvetica,sans-Serif" font-size="10.00">+</text>
<text xml:space="preserve" text-anchor="start" x="64" y="-21" font-family="Helvetica,sans-Serif" font-size="10.00">OnExit()</text>
<text xml:space="preserve" text-anchor="start" x="45.06" y="-5.75" font-family="Helvetica,sans-Serif" font-size="10.00">+</text>
<text xml:space="preserve" text-anchor="start" x="64" y="-5.75" font-family="Helvetica,sans-Serif" font-size="10.00">ShouldRepeat()</text>
<polygon fill="#666666" stroke="#666666" points="32.12,-63 32.12,-63 153.38,-63 153.38,-63 32.12,-63"/>
<polygon fill="#666666" stroke="#666666" points="32.12,-47.75 32.12,-47.75 62,-47.75 62,-47.75 32.12,-47.75"/>
<polygon fill="#666666" stroke="#666666" points="62,-47.75 62,-47.75 153.38,-47.75 153.38,-47.75 62,-47.75"/>
<polygon fill="none" stroke="#666666" points="32.12,0 32.12,-80.25 153.38,-80.25 153.38,0 32.12,0"/>
</a>
</g>
</g>
<!-- Node2 -->
<g id="Node000002" class="node">
<title>Node2</title>
<g id="a_Node000002"><a xlink:title=" ">
<polygon fill="white" stroke="none" points="75.5,-181.25 0,-181.25 0,-131.5 75.5,-131.5 75.5,-181.25"/>
<text xml:space="preserve" text-anchor="start" x="4" y="-167.75" font-family="Helvetica,sans-Serif" font-size="10.00">MonoBehaviour</text>
<text xml:space="preserve" text-anchor="start" x="36.25" y="-152.5" font-family="Helvetica,sans-Serif" font-size="10.00"> </text>
<text xml:space="preserve" text-anchor="start" x="36.25" y="-137.25" font-family="Helvetica,sans-Serif" font-size="10.00"> </text>
<polygon fill="#666666" stroke="#666666" points="0,-164 0,-164 75.5,-164 75.5,-164 0,-164"/>
<polygon fill="#666666" stroke="#666666" points="0,-148.75 0,-148.75 75.5,-148.75 75.5,-148.75 0,-148.75"/>
<polygon fill="none" stroke="#666666" points="0,-131.5 0,-181.25 75.5,-181.25 75.5,-131.5 0,-131.5"/>
</a>
</g>
</g>
<!-- Node2&#45;&gt;Node1 -->
<g id="edge1_Node000001_Node000002" class="edge">
<title>Node2&#45;&gt;Node1</title>
<g id="a_edge1_Node000001_Node000002"><a xlink:title=" ">
<path fill="none" stroke="#63b8ff" d="M53.95,-121.71C60.25,-108.64 67.49,-93.59 74.01,-80.06"/>
<polygon fill="none" stroke="#63b8ff" points="50.99,-119.81 49.8,-130.34 57.29,-122.85 50.99,-119.81"/>
</a>
</g>
</g>
<!-- Node3 -->
<g id="Node000003" class="node">
<title>Node3</title>
<g id="a_Node000003"><a xlink:href="interface_interfaces_1_1_i_interactable.html" target="_top" xlink:title="Interface for objects that can be interacted with (e.g., when the player is nearby).">
<polygon fill="white" stroke="none" points="202,-196.5 93.5,-196.5 93.5,-116.25 202,-116.25 202,-196.5"/>
<text xml:space="preserve" text-anchor="start" x="97.5" y="-183" font-family="Helvetica,sans-Serif" font-size="10.00">Interfaces.IInteractable</text>
<text xml:space="preserve" text-anchor="start" x="146.25" y="-167.75" font-family="Helvetica,sans-Serif" font-size="10.00"> </text>
<text xml:space="preserve" text-anchor="start" x="103.25" y="-152.5" font-family="Helvetica,sans-Serif" font-size="10.00">+</text>
<text xml:space="preserve" text-anchor="start" x="119" y="-152.5" font-family="Helvetica,sans-Serif" font-size="10.00">Interact()</text>
<text xml:space="preserve" text-anchor="start" x="103.25" y="-137.25" font-family="Helvetica,sans-Serif" font-size="10.00">+</text>
<text xml:space="preserve" text-anchor="start" x="119" y="-137.25" font-family="Helvetica,sans-Serif" font-size="10.00">OnExit()</text>
<text xml:space="preserve" text-anchor="start" x="103.25" y="-122" font-family="Helvetica,sans-Serif" font-size="10.00">+</text>
<text xml:space="preserve" text-anchor="start" x="119" y="-122" font-family="Helvetica,sans-Serif" font-size="10.00">ShouldRepeat()</text>
<polygon fill="#666666" stroke="#666666" points="93.5,-179.25 93.5,-179.25 202,-179.25 202,-179.25 93.5,-179.25"/>
<polygon fill="#666666" stroke="#666666" points="93.5,-164 93.5,-164 202,-164 202,-164 93.5,-164"/>
<polygon fill="none" stroke="#666666" points="93.5,-116.25 93.5,-196.5 202,-196.5 202,-116.25 93.5,-116.25"/>
</a>
</g>
</g>
<!-- Node3&#45;&gt;Node1 -->
<g id="edge2_Node000001_Node000003" class="edge">
<title>Node3&#45;&gt;Node1</title>
<g id="a_edge2_Node000001_Node000003"><a xlink:title=" ">
<path fill="none" stroke="#63b8ff" d="M124.09,-106.23C119.86,-97.44 115.51,-88.4 111.44,-79.95"/>
<polygon fill="none" stroke="#63b8ff" points="120.83,-107.52 128.32,-115.01 127.14,-104.48 120.83,-107.52"/>
</a>
</g>
</g>
</g>
</svg>
