<?xml version="1.0" encoding="UTF-8" standalone="no"?>
<!DOCTYPE svg PUBLIC "-//W3C//DTD SVG 1.1//EN"
 "http://www.w3.org/Graphics/SVG/1.1/DTD/svg11.dtd">
<!-- Generated by graphviz version 13.1.2 (20250808.2320)
 -->
<!-- Title: Items.Glyphs Pages: 1 -->
<svg width="97pt" height="290pt"
 viewBox="0.00 0.00 97.00 290.00" xmlns="http://www.w3.org/2000/svg" xmlns:xlink="http://www.w3.org/1999/xlink">
<g id="graph0" class="graph" transform="scale(1 1) rotate(0) translate(4 286.25)">
<title>Items.Glyphs</title>
<!-- Node1 -->
<g id="Node000001" class="node">
<title>Node1</title>
<g id="a_Node000001"><a xlink:title="The Glyphs&#45;Class is only used to create items with the glyphs icon so the player knows how the glyphs...">
<polygon fill="#999999" stroke="none" points="77.88,-49.75 11.38,-49.75 11.38,0 77.88,0 77.88,-49.75"/>
<text xml:space="preserve" text-anchor="start" x="15.38" y="-36.25" font-family="Helvetica,sans-Serif" font-size="10.00">Items.Glyphs</text>
<text xml:space="preserve" text-anchor="start" x="43.12" y="-21" font-family="Helvetica,sans-Serif" font-size="10.00"> </text>
<text xml:space="preserve" text-anchor="start" x="21.5" y="-5.75" font-family="Helvetica,sans-Serif" font-size="10.00">+</text>
<text xml:space="preserve" text-anchor="start" x="37.62" y="-5.75" font-family="Helvetica,sans-Serif" font-size="10.00">Use()</text>
<polygon fill="#666666" stroke="#666666" points="11.38,-32.5 11.38,-32.5 77.88,-32.5 77.88,-32.5 11.38,-32.5"/>
<polygon fill="#666666" stroke="#666666" points="11.38,-17.25 11.38,-17.25 77.88,-17.25 77.88,-17.25 11.38,-17.25"/>
<polygon fill="none" stroke="#666666" points="11.38,0 11.38,-49.75 77.88,-49.75 77.88,0 11.38,0"/>
</a>
</g>
</g>
<!-- Node2 -->
<g id="Node000002" class="node">
<title>Node2</title>
<g id="a_Node000002"><a xlink:href="class_items_1_1_item.html" target="_top" xlink:title="Abstract Data&#45;Class, which shares all commonalities between different types of Items.">
<polygon fill="white" stroke="none" points="89.25,-196.5 0,-196.5 0,-85.75 89.25,-85.75 89.25,-196.5"/>
<text xml:space="preserve" text-anchor="start" x="21" y="-183" font-family="Helvetica,sans-Serif" font-size="10.00">Items.Item</text>
<text xml:space="preserve" text-anchor="start" x="4" y="-167.75" font-family="Helvetica,sans-Serif" font-size="10.00">+</text>
<text xml:space="preserve" text-anchor="start" x="14" y="-167.75" font-family="Helvetica,sans-Serif" font-size="10.00">_name</text>
<text xml:space="preserve" text-anchor="start" x="4" y="-152.5" font-family="Helvetica,sans-Serif" font-size="10.00">+</text>
<text xml:space="preserve" text-anchor="start" x="14" y="-152.5" font-family="Helvetica,sans-Serif" font-size="10.00">_model</text>
<text xml:space="preserve" text-anchor="start" x="4" y="-137.25" font-family="Helvetica,sans-Serif" font-size="10.00">+</text>
<text xml:space="preserve" text-anchor="start" x="14" y="-137.25" font-family="Helvetica,sans-Serif" font-size="10.00">rarity</text>
<text xml:space="preserve" text-anchor="start" x="4" y="-122" font-family="Helvetica,sans-Serif" font-size="10.00">+</text>
<text xml:space="preserve" text-anchor="start" x="14" y="-122" font-family="Helvetica,sans-Serif" font-size="10.00">item_icon</text>
<text xml:space="preserve" text-anchor="start" x="4" y="-106.75" font-family="Helvetica,sans-Serif" font-size="10.00">+</text>
<text xml:space="preserve" text-anchor="start" x="14" y="-106.75" font-family="Helvetica,sans-Serif" font-size="10.00">GetRarityColor()</text>
<text xml:space="preserve" text-anchor="start" x="4" y="-91.5" font-family="Helvetica,sans-Serif" font-size="10.00">+</text>
<text xml:space="preserve" text-anchor="start" x="14" y="-91.5" font-family="Helvetica,sans-Serif" font-size="10.00">Use()</text>
<polygon fill="#666666" stroke="#666666" points="0,-179.25 0,-179.25 89.25,-179.25 89.25,-179.25 0,-179.25"/>
<polygon fill="#666666" stroke="#666666" points="0,-118.25 0,-118.25 12,-118.25 12,-118.25 0,-118.25"/>
<polygon fill="#666666" stroke="#666666" points="12,-118.25 12,-118.25 89.25,-118.25 89.25,-118.25 12,-118.25"/>
<polygon fill="none" stroke="#666666" points="0,-85.75 0,-196.5 89.25,-196.5 89.25,-85.75 0,-85.75"/>
</a>
</g>
</g>
<!-- Node2&#45;&gt;Node1 -->
<g id="edge1_Node000001_Node000002" class="edge">
<title>Node2&#45;&gt;Node1</title>
<g id="a_edge1_Node000001_Node000002"><a xlink:title=" ">
<path fill="none" stroke="#63b8ff" d="M44.62,-74.62C44.62,-65.69 44.62,-57.05 44.62,-49.57"/>
<polygon fill="none" stroke="#63b8ff" points="41.13,-74.5 44.63,-84.5 48.13,-74.5 41.13,-74.5"/>
</a>
</g>
</g>
<!-- Node3 -->
<g id="Node000003" class="node">
<title>Node3</title>
<g id="a_Node000003"><a xlink:title=" ">
<polygon fill="white" stroke="none" points="84.62,-282.25 4.62,-282.25 4.62,-232.5 84.62,-232.5 84.62,-282.25"/>
<text xml:space="preserve" text-anchor="start" x="8.62" y="-268.75" font-family="Helvetica,sans-Serif" font-size="10.00">ScriptableObject</text>
<text xml:space="preserve" text-anchor="start" x="43.12" y="-253.5" font-family="Helvetica,sans-Serif" font-size="10.00"> </text>
<text xml:space="preserve" text-anchor="start" x="43.12" y="-238.25" font-family="Helvetica,sans-Serif" font-size="10.00"> </text>
<polygon fill="#666666" stroke="#666666" points="4.62,-265 4.62,-265 84.62,-265 84.62,-265 4.62,-265"/>
<polygon fill="#666666" stroke="#666666" points="4.62,-249.75 4.62,-249.75 84.62,-249.75 84.62,-249.75 4.62,-249.75"/>
<polygon fill="none" stroke="#666666" points="4.62,-232.5 4.62,-282.25 84.62,-282.25 84.62,-232.5 4.62,-232.5"/>
</a>
</g>
</g>
<!-- Node3&#45;&gt;Node2 -->
<g id="edge2_Node000002_Node000003" class="edge">
<title>Node3&#45;&gt;Node2</title>
<g id="a_edge2_Node000002_Node000003"><a xlink:title=" ">
<path fill="none" stroke="#63b8ff" d="M44.62,-221.33C44.62,-213.43 44.62,-204.87 44.62,-196.39"/>
<polygon fill="none" stroke="#63b8ff" points="41.13,-221.19 44.63,-231.19 48.13,-221.19 41.13,-221.19"/>
</a>
</g>
</g>
</g>
</svg>
