<?xml version="1.0" encoding="UTF-8" standalone="no"?>
<!DOCTYPE svg PUBLIC "-//W3C//DTD SVG 1.1//EN"
 "http://www.w3.org/Graphics/SVG/1.1/DTD/svg11.dtd">
<!-- Generated by graphviz version 13.1.2 (20250808.2320)
 -->
<!-- Title: Shooting.PlayerShooting Pages: 1 -->
<svg width="123pt" height="189pt"
 viewBox="0.00 0.00 123.00 189.00" xmlns="http://www.w3.org/2000/svg" xmlns:xlink="http://www.w3.org/1999/xlink">
<g id="graph0" class="graph" transform="scale(1 1) rotate(0) translate(4 185.25)">
<title>Shooting.PlayerShooting</title>
<!-- Node1 -->
<g id="Node000001" class="node">
<title>Node1</title>
<g id="a_Node000001"><a xlink:title="Handles player shooting by getting projectiles from a pool and spawning them at the shoot point.">
<polygon fill="#999999" stroke="none" points="115.25,-95.5 0,-95.5 0,0 115.25,0 115.25,-95.5"/>
<text xml:space="preserve" text-anchor="start" x="4" y="-82" font-family="Helvetica,sans-Serif" font-size="10.00">Shooting.PlayerShooting</text>
<text xml:space="preserve" text-anchor="start" x="9" y="-66.75" font-family="Helvetica,sans-Serif" font-size="10.00">&#45;</text>
<text xml:space="preserve" text-anchor="start" x="21" y="-66.75" font-family="Helvetica,sans-Serif" font-size="10.00">objectPoolManager</text>
<text xml:space="preserve" text-anchor="start" x="9" y="-51.5" font-family="Helvetica,sans-Serif" font-size="10.00">&#45;</text>
<text xml:space="preserve" text-anchor="start" x="21" y="-51.5" font-family="Helvetica,sans-Serif" font-size="10.00">shootPoint</text>
<text xml:space="preserve" text-anchor="start" x="7.5" y="-36.25" font-family="Helvetica,sans-Serif" font-size="10.00">+</text>
<text xml:space="preserve" text-anchor="start" x="21" y="-36.25" font-family="Helvetica,sans-Serif" font-size="10.00">Init()</text>
<text xml:space="preserve" text-anchor="start" x="9" y="-21" font-family="Helvetica,sans-Serif" font-size="10.00">&#45;</text>
<text xml:space="preserve" text-anchor="start" x="21" y="-21" font-family="Helvetica,sans-Serif" font-size="10.00">Update()</text>
<text xml:space="preserve" text-anchor="start" x="9" y="-5.75" font-family="Helvetica,sans-Serif" font-size="10.00">&#45;</text>
<text xml:space="preserve" text-anchor="start" x="21" y="-5.75" font-family="Helvetica,sans-Serif" font-size="10.00">FireProjectile()</text>
<polygon fill="#666666" stroke="#666666" points="0,-78.25 0,-78.25 115.25,-78.25 115.25,-78.25 0,-78.25"/>
<polygon fill="#666666" stroke="#666666" points="0,-47.75 0,-47.75 19,-47.75 19,-47.75 0,-47.75"/>
<polygon fill="#666666" stroke="#666666" points="19,-47.75 19,-47.75 115.25,-47.75 115.25,-47.75 19,-47.75"/>
<polygon fill="none" stroke="#666666" points="0,0 0,-95.5 115.25,-95.5 115.25,0 0,0"/>
</a>
</g>
</g>
<!-- Node2 -->
<g id="Node000002" class="node">
<title>Node2</title>
<g id="a_Node000002"><a xlink:title=" ">
<polygon fill="white" stroke="none" points="95.38,-181.25 19.88,-181.25 19.88,-131.5 95.38,-131.5 95.38,-181.25"/>
<text xml:space="preserve" text-anchor="start" x="23.88" y="-167.75" font-family="Helvetica,sans-Serif" font-size="10.00">MonoBehaviour</text>
<text xml:space="preserve" text-anchor="start" x="56.12" y="-152.5" font-family="Helvetica,sans-Serif" font-size="10.00"> </text>
<text xml:space="preserve" text-anchor="start" x="56.12" y="-137.25" font-family="Helvetica,sans-Serif" font-size="10.00"> </text>
<polygon fill="#666666" stroke="#666666" points="19.88,-164 19.88,-164 95.38,-164 95.38,-164 19.88,-164"/>
<polygon fill="#666666" stroke="#666666" points="19.88,-148.75 19.88,-148.75 95.38,-148.75 95.38,-148.75 19.88,-148.75"/>
<polygon fill="none" stroke="#666666" points="19.88,-131.5 19.88,-181.25 95.38,-181.25 95.38,-131.5 19.88,-131.5"/>
</a>
</g>
</g>
<!-- Node2&#45;&gt;Node1 -->
<g id="edge1_Node000001_Node000002" class="edge">
<title>Node2&#45;&gt;Node1</title>
<g id="a_edge1_Node000001_Node000002"><a xlink:title=" ">
<path fill="none" stroke="#63b8ff" d="M57.62,-120.42C57.62,-112.32 57.62,-103.59 57.62,-95.09"/>
<polygon fill="none" stroke="#63b8ff" points="54.13,-120.2 57.63,-130.2 61.13,-120.2 54.13,-120.2"/>
</a>
</g>
</g>
</g>
</svg>
