<?xml version="1.0" encoding="UTF-8" standalone="no"?>
<!DOCTYPE svg PUBLIC "-//W3C//DTD SVG 1.1//EN"
 "http://www.w3.org/Graphics/SVG/1.1/DTD/svg11.dtd">
<!-- Generated by graphviz version 13.1.2 (20250808.2320)
 -->
<!-- Title: Dungeon.Edge Pages: 1 -->
<svg width="106pt" height="359pt"
 viewBox="0.00 0.00 106.00 359.00" xmlns="http://www.w3.org/2000/svg" xmlns:xlink="http://www.w3.org/1999/xlink">
<g id="graph0" class="graph" transform="scale(1 1) rotate(0) translate(4 355)">
<title>Dungeon.Edge</title>
<!-- Node1 -->
<g id="Node000001" class="node">
<title>Node1</title>
<g id="a_Node000001"><a xlink:title="Line segment between two points, with helpers for ids and intersections.">
<polygon fill="#999999" stroke="none" points="98.25,-126 0,-126 0,0 98.25,0 98.25,-126"/>
<text xml:space="preserve" text-anchor="start" x="16.88" y="-112.5" font-family="Helvetica,sans-Serif" font-size="10.00">Dungeon.Edge</text>
<text xml:space="preserve" text-anchor="start" x="4" y="-97.25" font-family="Helvetica,sans-Serif" font-size="10.00">+</text>
<text xml:space="preserve" text-anchor="start" x="14" y="-97.25" font-family="Helvetica,sans-Serif" font-size="10.00">Id</text>
<text xml:space="preserve" text-anchor="start" x="5.5" y="-82" font-family="Helvetica,sans-Serif" font-size="10.00">&#45;</text>
<text xml:space="preserve" text-anchor="start" x="14" y="-82" font-family="Helvetica,sans-Serif" font-size="10.00">_nextId</text>
<text xml:space="preserve" text-anchor="start" x="4" y="-66.75" font-family="Helvetica,sans-Serif" font-size="10.00">+</text>
<text xml:space="preserve" text-anchor="start" x="14" y="-66.75" font-family="Helvetica,sans-Serif" font-size="10.00">Edge()</text>
<text xml:space="preserve" text-anchor="start" x="4" y="-51.5" font-family="Helvetica,sans-Serif" font-size="10.00">+</text>
<text xml:space="preserve" text-anchor="start" x="14" y="-51.5" font-family="Helvetica,sans-Serif" font-size="10.00">GiveID()</text>
<text xml:space="preserve" text-anchor="start" x="4" y="-36.25" font-family="Helvetica,sans-Serif" font-size="10.00">+</text>
<text xml:space="preserve" text-anchor="start" x="14" y="-36.25" font-family="Helvetica,sans-Serif" font-size="10.00">Intersect()</text>
<text xml:space="preserve" text-anchor="start" x="4" y="-21" font-family="Helvetica,sans-Serif" font-size="10.00">+</text>
<text xml:space="preserve" text-anchor="start" x="14" y="-21" font-family="Helvetica,sans-Serif" font-size="10.00">Equals()</text>
<text xml:space="preserve" text-anchor="start" x="5.5" y="-5.75" font-family="Helvetica,sans-Serif" font-size="10.00">&#45;</text>
<text xml:space="preserve" text-anchor="start" x="14" y="-5.75" font-family="Helvetica,sans-Serif" font-size="10.00">DoLinesIntersect()</text>
<polygon fill="#666666" stroke="#666666" points="0,-108.75 0,-108.75 98.25,-108.75 98.25,-108.75 0,-108.75"/>
<polygon fill="#666666" stroke="#666666" points="0,-78.25 0,-78.25 12,-78.25 12,-78.25 0,-78.25"/>
<polygon fill="#666666" stroke="#666666" points="12,-78.25 12,-78.25 98.25,-78.25 98.25,-78.25 12,-78.25"/>
<polygon fill="none" stroke="#666666" points="0,0 0,-126 98.25,-126 98.25,0 0,0"/>
</a>
</g>
</g>
<!-- Node2 -->
<g id="Node000002" class="node">
<title>Node2</title>
<g id="a_Node000002"><a xlink:href="class_dungeon_1_1_point.html" target="_top" xlink:title="2D point with X and Y values plus small helpers.">
<polygon fill="white" stroke="none" points="88.5,-351 9.75,-351 9.75,-225 88.5,-225 88.5,-351"/>
<text xml:space="preserve" text-anchor="start" x="16.88" y="-337.5" font-family="Helvetica,sans-Serif" font-size="10.00">Dungeon.Point</text>
<text xml:space="preserve" text-anchor="start" x="13.75" y="-322.25" font-family="Helvetica,sans-Serif" font-size="10.00">+</text>
<text xml:space="preserve" text-anchor="start" x="23.75" y="-322.25" font-family="Helvetica,sans-Serif" font-size="10.00">X</text>
<text xml:space="preserve" text-anchor="start" x="13.75" y="-307" font-family="Helvetica,sans-Serif" font-size="10.00">+</text>
<text xml:space="preserve" text-anchor="start" x="23.75" y="-307" font-family="Helvetica,sans-Serif" font-size="10.00">Y</text>
<text xml:space="preserve" text-anchor="start" x="13.75" y="-291.75" font-family="Helvetica,sans-Serif" font-size="10.00">+</text>
<text xml:space="preserve" text-anchor="start" x="23.75" y="-291.75" font-family="Helvetica,sans-Serif" font-size="10.00">Point()</text>
<text xml:space="preserve" text-anchor="start" x="13.75" y="-276.5" font-family="Helvetica,sans-Serif" font-size="10.00">+</text>
<text xml:space="preserve" text-anchor="start" x="23.75" y="-276.5" font-family="Helvetica,sans-Serif" font-size="10.00">ToVector3()</text>
<text xml:space="preserve" text-anchor="start" x="13.75" y="-261.25" font-family="Helvetica,sans-Serif" font-size="10.00">+</text>
<text xml:space="preserve" text-anchor="start" x="23.75" y="-261.25" font-family="Helvetica,sans-Serif" font-size="10.00">PrintPoint()</text>
<text xml:space="preserve" text-anchor="start" x="13.75" y="-246" font-family="Helvetica,sans-Serif" font-size="10.00">+</text>
<text xml:space="preserve" text-anchor="start" x="23.75" y="-246" font-family="Helvetica,sans-Serif" font-size="10.00">Equals()</text>
<text xml:space="preserve" text-anchor="start" x="13.75" y="-230.75" font-family="Helvetica,sans-Serif" font-size="10.00">+</text>
<text xml:space="preserve" text-anchor="start" x="23.75" y="-230.75" font-family="Helvetica,sans-Serif" font-size="10.00">GetDistance()</text>
<polygon fill="#666666" stroke="#666666" points="9.75,-333.75 9.75,-333.75 88.5,-333.75 88.5,-333.75 9.75,-333.75"/>
<polygon fill="#666666" stroke="#666666" points="9.75,-303.25 9.75,-303.25 21.75,-303.25 21.75,-303.25 9.75,-303.25"/>
<polygon fill="#666666" stroke="#666666" points="21.75,-303.25 21.75,-303.25 88.5,-303.25 88.5,-303.25 21.75,-303.25"/>
<polygon fill="none" stroke="#666666" points="9.75,-225 9.75,-351 88.5,-351 88.5,-225 9.75,-225"/>
</a>
</g>
</g>
<!-- Node2&#45;&gt;Node1 -->
<g id="edge1_Node000001_Node000002" class="edge">
<title>Node2&#45;&gt;Node1</title>
<g id="a_edge1_Node000001_Node000002"><a xlink:title=" ">
<path fill="none" stroke="#63b8ff" d="M49.12,-225.18C49.12,-198.47 49.12,-166.99 49.12,-138.96"/>
<polygon fill="none" stroke="#63b8ff" points="49.13,-138.84 45.13,-132.84 49.13,-126.84 53.13,-132.84 49.13,-138.84"/>
</a>
</g>
<text xml:space="preserve" text-anchor="start" x="52.12" y="-194.5" font-family="Helvetica,sans-Serif" font-size="10.00" fill="grey">+A</text>
<text xml:space="preserve" text-anchor="start" x="52.12" y="-179.25" font-family="Helvetica,sans-Serif" font-size="10.00" fill="grey">+B</text>
<text xml:space="preserve" text-anchor="start" x="52.12" y="-164" font-family="Helvetica,sans-Serif" font-size="10.00" fill="grey">+Room1</text>
<text xml:space="preserve" text-anchor="start" x="52.12" y="-148.75" font-family="Helvetica,sans-Serif" font-size="10.00" fill="grey">+Room2</text>
</g>
</g>
</svg>
