<?xml version="1.0" encoding="UTF-8" standalone="no"?>
<!DOCTYPE svg PUBLIC "-//W3C//DTD SVG 1.1//EN"
 "http://www.w3.org/Graphics/SVG/1.1/DTD/svg11.dtd">
<!-- Generated by graphviz version 13.1.2 (20250808.2320)
 -->
<!-- Title: Interaction.DestroyableWallInteraction Pages: 1 -->
<svg width="210pt" height="368pt"
 viewBox="0.00 0.00 210.00 368.00" xmlns="http://www.w3.org/2000/svg" xmlns:xlink="http://www.w3.org/1999/xlink">
<g id="graph0" class="graph" transform="scale(1 1) rotate(0) translate(4 364.25)">
<title>Interaction.DestroyableWallInteraction</title>
<!-- Node1 -->
<g id="Node000001" class="node">
<title>Node1</title>
<g id="a_Node000001"><a xlink:title="Interaction for a breakable wall that can only be damaged with a pickaxe. Shows short feedback,...">
<polygon fill="#999999" stroke="none" points="156.75,-244 28.75,-244 28.75,0 156.75,0 156.75,-244"/>
<text xml:space="preserve" text-anchor="start" x="32.75" y="-230.5" font-family="Helvetica,sans-Serif" font-size="10.00">Interaction.DestroyableWall</text>
<text xml:space="preserve" text-anchor="start" x="69.88" y="-219.25" font-family="Helvetica,sans-Serif" font-size="10.00">Interaction</text>
<text xml:space="preserve" text-anchor="start" x="38.5" y="-204" font-family="Helvetica,sans-Serif" font-size="10.00">+</text>
<text xml:space="preserve" text-anchor="start" x="54.25" y="-204" font-family="Helvetica,sans-Serif" font-size="10.00">edgeID</text>
<text xml:space="preserve" text-anchor="start" x="40" y="-188.75" font-family="Helvetica,sans-Serif" font-size="10.00">&#45;</text>
<text xml:space="preserve" text-anchor="start" x="54.25" y="-188.75" font-family="Helvetica,sans-Serif" font-size="10.00">lifeTextFront</text>
<text xml:space="preserve" text-anchor="start" x="40" y="-173.5" font-family="Helvetica,sans-Serif" font-size="10.00">&#45;</text>
<text xml:space="preserve" text-anchor="start" x="54.25" y="-173.5" font-family="Helvetica,sans-Serif" font-size="10.00">lifeTextBack</text>
<text xml:space="preserve" text-anchor="start" x="40" y="-158.25" font-family="Helvetica,sans-Serif" font-size="10.00">&#45;</text>
<text xml:space="preserve" text-anchor="start" x="54.25" y="-158.25" font-family="Helvetica,sans-Serif" font-size="10.00">_hitPoints</text>
<text xml:space="preserve" text-anchor="start" x="40" y="-143" font-family="Helvetica,sans-Serif" font-size="10.00">&#45;</text>
<text xml:space="preserve" text-anchor="start" x="54.25" y="-143" font-family="Helvetica,sans-Serif" font-size="10.00">_currentColor</text>
<text xml:space="preserve" text-anchor="start" x="40" y="-127.75" font-family="Helvetica,sans-Serif" font-size="10.00">&#45;</text>
<text xml:space="preserve" text-anchor="start" x="54.25" y="-127.75" font-family="Helvetica,sans-Serif" font-size="10.00">_waitingForClick</text>
<text xml:space="preserve" text-anchor="start" x="40" y="-112.5" font-family="Helvetica,sans-Serif" font-size="10.00">&#45;</text>
<text xml:space="preserve" text-anchor="start" x="54.25" y="-112.5" font-family="Helvetica,sans-Serif" font-size="10.00">_nextHitTime</text>
<text xml:space="preserve" text-anchor="start" x="40" y="-97.25" font-family="Helvetica,sans-Serif" font-size="10.00">&#45;</text>
<text xml:space="preserve" text-anchor="start" x="54.25" y="-97.25" font-family="Helvetica,sans-Serif" font-size="10.00">_destroyScheduled</text>
<text xml:space="preserve" text-anchor="start" x="38.5" y="-82" font-family="Helvetica,sans-Serif" font-size="10.00">+</text>
<text xml:space="preserve" text-anchor="start" x="54.25" y="-82" font-family="Helvetica,sans-Serif" font-size="10.00">InitializeFromSave()</text>
<text xml:space="preserve" text-anchor="start" x="38.5" y="-66.75" font-family="Helvetica,sans-Serif" font-size="10.00">+</text>
<text xml:space="preserve" text-anchor="start" x="54.25" y="-66.75" font-family="Helvetica,sans-Serif" font-size="10.00">Interact()</text>
<text xml:space="preserve" text-anchor="start" x="38.5" y="-51.5" font-family="Helvetica,sans-Serif" font-size="10.00">+</text>
<text xml:space="preserve" text-anchor="start" x="54.25" y="-51.5" font-family="Helvetica,sans-Serif" font-size="10.00">OnExit()</text>
<text xml:space="preserve" text-anchor="start" x="38.5" y="-36.25" font-family="Helvetica,sans-Serif" font-size="10.00">+</text>
<text xml:space="preserve" text-anchor="start" x="54.25" y="-36.25" font-family="Helvetica,sans-Serif" font-size="10.00">ShouldRepeat()</text>
<text xml:space="preserve" text-anchor="start" x="40" y="-21" font-family="Helvetica,sans-Serif" font-size="10.00">&#45;</text>
<text xml:space="preserve" text-anchor="start" x="54.25" y="-21" font-family="Helvetica,sans-Serif" font-size="10.00">HideLifeText()</text>
<text xml:space="preserve" text-anchor="start" x="40" y="-5.75" font-family="Helvetica,sans-Serif" font-size="10.00">&#45;</text>
<text xml:space="preserve" text-anchor="start" x="54.25" y="-5.75" font-family="Helvetica,sans-Serif" font-size="10.00">DisableAfterDelay()</text>
<polygon fill="#666666" stroke="#666666" points="28.75,-215.5 28.75,-215.5 156.75,-215.5 156.75,-215.5 28.75,-215.5"/>
<polygon fill="#666666" stroke="#666666" points="28.75,-93.5 28.75,-93.5 52.25,-93.5 52.25,-93.5 28.75,-93.5"/>
<polygon fill="#666666" stroke="#666666" points="52.25,-93.5 52.25,-93.5 156.75,-93.5 156.75,-93.5 52.25,-93.5"/>
<polygon fill="none" stroke="#666666" points="28.75,0 28.75,-244 156.75,-244 156.75,0 28.75,0"/>
</a>
</g>
</g>
<!-- Node2 -->
<g id="Node000002" class="node">
<title>Node2</title>
<g id="a_Node000002"><a xlink:title=" ">
<polygon fill="white" stroke="none" points="75.5,-345 0,-345 0,-295.25 75.5,-295.25 75.5,-345"/>
<text xml:space="preserve" text-anchor="start" x="4" y="-331.5" font-family="Helvetica,sans-Serif" font-size="10.00">MonoBehaviour</text>
<text xml:space="preserve" text-anchor="start" x="36.25" y="-316.25" font-family="Helvetica,sans-Serif" font-size="10.00"> </text>
<text xml:space="preserve" text-anchor="start" x="36.25" y="-301" font-family="Helvetica,sans-Serif" font-size="10.00"> </text>
<polygon fill="#666666" stroke="#666666" points="0,-327.75 0,-327.75 75.5,-327.75 75.5,-327.75 0,-327.75"/>
<polygon fill="#666666" stroke="#666666" points="0,-312.5 0,-312.5 75.5,-312.5 75.5,-312.5 0,-312.5"/>
<polygon fill="none" stroke="#666666" points="0,-295.25 0,-345 75.5,-345 75.5,-295.25 0,-295.25"/>
</a>
</g>
</g>
<!-- Node2&#45;&gt;Node1 -->
<g id="edge1_Node000001_Node000002" class="edge">
<title>Node2&#45;&gt;Node1</title>
<g id="a_edge1_Node000001_Node000002"><a xlink:title=" ">
<path fill="none" stroke="#63b8ff" d="M47.49,-284.41C50.8,-272.58 54.72,-258.59 58.85,-243.89"/>
<polygon fill="none" stroke="#63b8ff" points="44.12,-283.44 44.79,-294.01 50.86,-285.33 44.12,-283.44"/>
</a>
</g>
</g>
<!-- Node3 -->
<g id="Node000003" class="node">
<title>Node3</title>
<g id="a_Node000003"><a xlink:href="interface_interfaces_1_1_i_interactable.html" target="_top" xlink:title="Interface for objects that can be interacted with (e.g., when the player is nearby).">
<polygon fill="white" stroke="none" points="202,-360.25 93.5,-360.25 93.5,-280 202,-280 202,-360.25"/>
<text xml:space="preserve" text-anchor="start" x="97.5" y="-346.75" font-family="Helvetica,sans-Serif" font-size="10.00">Interfaces.IInteractable</text>
<text xml:space="preserve" text-anchor="start" x="146.25" y="-331.5" font-family="Helvetica,sans-Serif" font-size="10.00"> </text>
<text xml:space="preserve" text-anchor="start" x="103.25" y="-316.25" font-family="Helvetica,sans-Serif" font-size="10.00">+</text>
<text xml:space="preserve" text-anchor="start" x="119" y="-316.25" font-family="Helvetica,sans-Serif" font-size="10.00">Interact()</text>
<text xml:space="preserve" text-anchor="start" x="103.25" y="-301" font-family="Helvetica,sans-Serif" font-size="10.00">+</text>
<text xml:space="preserve" text-anchor="start" x="119" y="-301" font-family="Helvetica,sans-Serif" font-size="10.00">OnExit()</text>
<text xml:space="preserve" text-anchor="start" x="103.25" y="-285.75" font-family="Helvetica,sans-Serif" font-size="10.00">+</text>
<text xml:space="preserve" text-anchor="start" x="119" y="-285.75" font-family="Helvetica,sans-Serif" font-size="10.00">ShouldRepeat()</text>
<polygon fill="#666666" stroke="#666666" points="93.5,-343 93.5,-343 202,-343 202,-343 93.5,-343"/>
<polygon fill="#666666" stroke="#666666" points="93.5,-327.75 93.5,-327.75 202,-327.75 202,-327.75 93.5,-327.75"/>
<polygon fill="none" stroke="#666666" points="93.5,-280 93.5,-360.25 202,-360.25 202,-280 93.5,-280"/>
</a>
</g>
</g>
<!-- Node3&#45;&gt;Node1 -->
<g id="edge2_Node000001_Node000003" class="edge">
<title>Node3&#45;&gt;Node1</title>
<g id="a_edge2_Node000001_Node000003"><a xlink:title=" ">
<path fill="none" stroke="#63b8ff" d="M133.81,-269.41C131.55,-261.36 129.13,-252.73 126.63,-243.83"/>
<polygon fill="none" stroke="#63b8ff" points="130.4,-270.24 136.48,-278.92 137.14,-268.35 130.4,-270.24"/>
</a>
</g>
</g>
</g>
</svg>
