<?xml version="1.0" encoding="UTF-8" standalone="no"?>
<!DOCTYPE svg PUBLIC "-//W3C//DTD SVG 1.1//EN"
 "http://www.w3.org/Graphics/SVG/1.1/DTD/svg11.dtd">
<!-- Generated by graphviz version 13.1.2 (20250808.2320)
 -->
<!-- Title: Enemy.EnemyDeathReporter Pages: 1 -->
<svg width="143pt" height="235pt"
 viewBox="0.00 0.00 143.00 235.00" xmlns="http://www.w3.org/2000/svg" xmlns:xlink="http://www.w3.org/1999/xlink">
<g id="graph0" class="graph" transform="scale(1 1) rotate(0) translate(4 231)">
<title>Enemy.EnemyDeathReporter</title>
<!-- Node1 -->
<g id="Node000001" class="node">
<title>Node1</title>
<g id="a_Node000001"><a xlink:title="Reports the death of an enemy to a callback when destroyed. Prevents duplicate reports and avoids rep...">
<polygon fill="#999999" stroke="none" points="134.75,-141.25 0,-141.25 0,0 134.75,0 134.75,-141.25"/>
<text xml:space="preserve" text-anchor="start" x="4" y="-127.75" font-family="Helvetica,sans-Serif" font-size="10.00">Enemy.EnemyDeathReporter</text>
<text xml:space="preserve" text-anchor="start" x="12.19" y="-112.5" font-family="Helvetica,sans-Serif" font-size="10.00">&#45;</text>
<text xml:space="preserve" text-anchor="start" x="27.38" y="-112.5" font-family="Helvetica,sans-Serif" font-size="10.00">_onDeath</text>
<text xml:space="preserve" text-anchor="start" x="12.19" y="-97.25" font-family="Helvetica,sans-Serif" font-size="10.00">&#45;</text>
<text xml:space="preserve" text-anchor="start" x="27.38" y="-97.25" font-family="Helvetica,sans-Serif" font-size="10.00">_roomId</text>
<text xml:space="preserve" text-anchor="start" x="12.19" y="-82" font-family="Helvetica,sans-Serif" font-size="10.00">&#45;</text>
<text xml:space="preserve" text-anchor="start" x="27.38" y="-82" font-family="Helvetica,sans-Serif" font-size="10.00">_reported</text>
<text xml:space="preserve" text-anchor="start" x="12.19" y="-66.75" font-family="Helvetica,sans-Serif" font-size="10.00">&#45;</text>
<text xml:space="preserve" text-anchor="start" x="27.38" y="-66.75" font-family="Helvetica,sans-Serif" font-size="10.00">_sceneChanging</text>
<text xml:space="preserve" text-anchor="start" x="10.69" y="-51.5" font-family="Helvetica,sans-Serif" font-size="10.00">+</text>
<text xml:space="preserve" text-anchor="start" x="27.38" y="-51.5" font-family="Helvetica,sans-Serif" font-size="10.00">Init()</text>
<text xml:space="preserve" text-anchor="start" x="10.69" y="-36.25" font-family="Helvetica,sans-Serif" font-size="10.00">+</text>
<text xml:space="preserve" text-anchor="start" x="27.38" y="-36.25" font-family="Helvetica,sans-Serif" font-size="10.00">ReportDeath()</text>
<text xml:space="preserve" text-anchor="start" x="10.69" y="-21" font-family="Helvetica,sans-Serif" font-size="10.00">+</text>
<text xml:space="preserve" text-anchor="start" x="27.38" y="-21" font-family="Helvetica,sans-Serif" font-size="10.00">SetSceneChanging()</text>
<text xml:space="preserve" text-anchor="start" x="12.19" y="-5.75" font-family="Helvetica,sans-Serif" font-size="10.00">&#45;</text>
<text xml:space="preserve" text-anchor="start" x="27.38" y="-5.75" font-family="Helvetica,sans-Serif" font-size="10.00">OnDestroy()</text>
<polygon fill="#666666" stroke="#666666" points="0,-124 0,-124 134.75,-124 134.75,-124 0,-124"/>
<polygon fill="#666666" stroke="#666666" points="0,-63 0,-63 25.38,-63 25.38,-63 0,-63"/>
<polygon fill="#666666" stroke="#666666" points="25.38,-63 25.38,-63 134.75,-63 134.75,-63 25.38,-63"/>
<polygon fill="none" stroke="#666666" points="0,0 0,-141.25 134.75,-141.25 134.75,0 0,0"/>
</a>
</g>
</g>
<!-- Node2 -->
<g id="Node000002" class="node">
<title>Node2</title>
<g id="a_Node000002"><a xlink:title=" ">
<polygon fill="white" stroke="none" points="105.12,-227 29.62,-227 29.62,-177.25 105.12,-177.25 105.12,-227"/>
<text xml:space="preserve" text-anchor="start" x="33.62" y="-213.5" font-family="Helvetica,sans-Serif" font-size="10.00">MonoBehaviour</text>
<text xml:space="preserve" text-anchor="start" x="65.88" y="-198.25" font-family="Helvetica,sans-Serif" font-size="10.00"> </text>
<text xml:space="preserve" text-anchor="start" x="65.88" y="-183" font-family="Helvetica,sans-Serif" font-size="10.00"> </text>
<polygon fill="#666666" stroke="#666666" points="29.62,-209.75 29.62,-209.75 105.12,-209.75 105.12,-209.75 29.62,-209.75"/>
<polygon fill="#666666" stroke="#666666" points="29.62,-194.5 29.62,-194.5 105.12,-194.5 105.12,-194.5 29.62,-194.5"/>
<polygon fill="none" stroke="#666666" points="29.62,-177.25 29.62,-227 105.12,-227 105.12,-177.25 29.62,-177.25"/>
</a>
</g>
</g>
<!-- Node2&#45;&gt;Node1 -->
<g id="edge1_Node000001_Node000002" class="edge">
<title>Node2&#45;&gt;Node1</title>
<g id="a_edge1_Node000001_Node000002"><a xlink:title=" ">
<path fill="none" stroke="#63b8ff" d="M67.38,-165.92C67.38,-158.21 67.38,-149.78 67.38,-141.24"/>
<polygon fill="none" stroke="#63b8ff" points="63.88,-165.86 67.38,-175.86 70.88,-165.86 63.88,-165.86"/>
</a>
</g>
</g>
</g>
</svg>
