<?xml version="1.0" encoding="UTF-8" standalone="no"?>
<!DOCTYPE svg PUBLIC "-//W3C//DTD SVG 1.1//EN"
 "http://www.w3.org/Graphics/SVG/1.1/DTD/svg11.dtd">
<!-- Generated by graphviz version 13.1.2 (20250808.2320)
 -->
<!-- Title: Enemy.SpawnlingAutoRegister Pages: 1 -->
<svg width="150pt" height="144pt"
 viewBox="0.00 0.00 150.00 144.00" xmlns="http://www.w3.org/2000/svg" xmlns:xlink="http://www.w3.org/1999/xlink">
<g id="graph0" class="graph" transform="scale(1 1) rotate(0) translate(4 139.5)">
<title>Enemy.SpawnlingAutoRegister</title>
<!-- Node1 -->
<g id="Node000001" class="node">
<title>Node1</title>
<g id="a_Node000001"><a xlink:title=" ">
<polygon fill="#999999" stroke="none" points="142.25,-49.75 0,-49.75 0,0 142.25,0 142.25,-49.75"/>
<text xml:space="preserve" text-anchor="start" x="4" y="-36.25" font-family="Helvetica,sans-Serif" font-size="10.00">Enemy.SpawnlingAutoRegister</text>
<text xml:space="preserve" text-anchor="start" x="69.62" y="-21" font-family="Helvetica,sans-Serif" font-size="10.00"> </text>
<text xml:space="preserve" text-anchor="start" x="26.81" y="-5.75" font-family="Helvetica,sans-Serif" font-size="10.00">&#45;</text>
<text xml:space="preserve" text-anchor="start" x="56.62" y="-5.75" font-family="Helvetica,sans-Serif" font-size="10.00">Awake()</text>
<polygon fill="#666666" stroke="#666666" points="0,-32.5 0,-32.5 142.25,-32.5 142.25,-32.5 0,-32.5"/>
<polygon fill="#666666" stroke="#666666" points="0,-17.25 0,-17.25 142.25,-17.25 142.25,-17.25 0,-17.25"/>
<polygon fill="none" stroke="#666666" points="0,0 0,-49.75 142.25,-49.75 142.25,0 0,0"/>
</a>
</g>
</g>
<!-- Node2 -->
<g id="Node000002" class="node">
<title>Node2</title>
<g id="a_Node000002"><a xlink:title=" ">
<polygon fill="white" stroke="none" points="108.88,-135.5 33.38,-135.5 33.38,-85.75 108.88,-85.75 108.88,-135.5"/>
<text xml:space="preserve" text-anchor="start" x="37.38" y="-122" font-family="Helvetica,sans-Serif" font-size="10.00">MonoBehaviour</text>
<text xml:space="preserve" text-anchor="start" x="69.62" y="-106.75" font-family="Helvetica,sans-Serif" font-size="10.00"> </text>
<text xml:space="preserve" text-anchor="start" x="69.62" y="-91.5" font-family="Helvetica,sans-Serif" font-size="10.00"> </text>
<polygon fill="#666666" stroke="#666666" points="33.38,-118.25 33.38,-118.25 108.88,-118.25 108.88,-118.25 33.38,-118.25"/>
<polygon fill="#666666" stroke="#666666" points="33.38,-103 33.38,-103 108.88,-103 108.88,-103 33.38,-103"/>
<polygon fill="none" stroke="#666666" points="33.38,-85.75 33.38,-135.5 108.88,-135.5 108.88,-85.75 33.38,-85.75"/>
</a>
</g>
</g>
<!-- Node2&#45;&gt;Node1 -->
<g id="edge1_Node000001_Node000002" class="edge">
<title>Node2&#45;&gt;Node1</title>
<g id="a_edge1_Node000001_Node000002"><a xlink:title=" ">
<path fill="none" stroke="#63b8ff" d="M71.12,-74.45C71.12,-66.11 71.12,-57.41 71.12,-49.71"/>
<polygon fill="none" stroke="#63b8ff" points="67.63,-74.34 71.13,-84.34 74.63,-74.34 67.63,-74.34"/>
</a>
</g>
</g>
</g>
</svg>
