<?xml version="1.0" encoding="UTF-8" standalone="no"?>
<!DOCTYPE svg PUBLIC "-//W3C//DTD SVG 1.1//EN"
 "http://www.w3.org/Graphics/SVG/1.1/DTD/svg11.dtd">
<!-- Generated by graphviz version 13.1.2 (20250808.2320)
 -->
<!-- Title: Manager.InventoryManager Pages: 1 -->
<svg width="200pt" height="372pt"
 viewBox="0.00 0.00 200.00 372.00" xmlns="http://www.w3.org/2000/svg" xmlns:xlink="http://www.w3.org/1999/xlink">
<g id="graph0" class="graph" transform="scale(1 1) rotate(0) translate(4 368.25)">
<title>Manager.InventoryManager</title>
<!-- Node1 -->
<g id="Node000001" class="node">
<title>Node1</title>
<g id="a_Node000001"><a xlink:title="Manages the inventory UI and logic, including displaying and updating item slots, handling user inter...">
<polygon fill="#999999" stroke="none" points="152.62,-278.5 26.88,-278.5 26.88,0 152.62,0 152.62,-278.5"/>
<text xml:space="preserve" text-anchor="start" x="30.88" y="-265" font-family="Helvetica,sans-Serif" font-size="10.00">Manager.InventoryManager</text>
<text xml:space="preserve" text-anchor="start" x="39.81" y="-249.75" font-family="Helvetica,sans-Serif" font-size="10.00">&#45;</text>
<text xml:space="preserve" text-anchor="start" x="55.75" y="-249.75" font-family="Helvetica,sans-Serif" font-size="10.00">_player</text>
<text xml:space="preserve" text-anchor="start" x="39.81" y="-234.5" font-family="Helvetica,sans-Serif" font-size="10.00">&#45;</text>
<text xml:space="preserve" text-anchor="start" x="55.75" y="-234.5" font-family="Helvetica,sans-Serif" font-size="10.00">_playerInventory</text>
<text xml:space="preserve" text-anchor="start" x="39.81" y="-219.25" font-family="Helvetica,sans-Serif" font-size="10.00">&#45;</text>
<text xml:space="preserve" text-anchor="start" x="55.75" y="-219.25" font-family="Helvetica,sans-Serif" font-size="10.00">_playerEquipment</text>
<text xml:space="preserve" text-anchor="start" x="39.81" y="-204" font-family="Helvetica,sans-Serif" font-size="10.00">&#45;</text>
<text xml:space="preserve" text-anchor="start" x="55.75" y="-204" font-family="Helvetica,sans-Serif" font-size="10.00">_inventory</text>
<text xml:space="preserve" text-anchor="start" x="39.81" y="-188.75" font-family="Helvetica,sans-Serif" font-size="10.00">&#45;</text>
<text xml:space="preserve" text-anchor="start" x="55.75" y="-188.75" font-family="Helvetica,sans-Serif" font-size="10.00">itemUI</text>
<text xml:space="preserve" text-anchor="start" x="39.81" y="-173.5" font-family="Helvetica,sans-Serif" font-size="10.00">&#45;</text>
<text xml:space="preserve" text-anchor="start" x="55.75" y="-173.5" font-family="Helvetica,sans-Serif" font-size="10.00">equipUI</text>
<text xml:space="preserve" text-anchor="start" x="39.81" y="-158.25" font-family="Helvetica,sans-Serif" font-size="10.00">&#45;</text>
<text xml:space="preserve" text-anchor="start" x="55.75" y="-158.25" font-family="Helvetica,sans-Serif" font-size="10.00">statText</text>
<text xml:space="preserve" text-anchor="start" x="39.81" y="-143" font-family="Helvetica,sans-Serif" font-size="10.00">&#45;</text>
<text xml:space="preserve" text-anchor="start" x="55.75" y="-143" font-family="Helvetica,sans-Serif" font-size="10.00">int</text>
<text xml:space="preserve" text-anchor="start" x="39.81" y="-127.75" font-family="Helvetica,sans-Serif" font-size="10.00">&#45;</text>
<text xml:space="preserve" text-anchor="start" x="55.75" y="-127.75" font-family="Helvetica,sans-Serif" font-size="10.00">_selectedSlot</text>
<text xml:space="preserve" text-anchor="start" x="39.81" y="-112.5" font-family="Helvetica,sans-Serif" font-size="10.00">&#45;</text>
<text xml:space="preserve" text-anchor="start" x="55.75" y="-112.5" font-family="Helvetica,sans-Serif" font-size="10.00">helmet</text>
<text xml:space="preserve" text-anchor="start" x="55.75" y="-97.25" font-family="Helvetica,sans-Serif" font-size="10.00">and 9 more...</text>
<text xml:space="preserve" text-anchor="start" x="38.31" y="-82" font-family="Helvetica,sans-Serif" font-size="10.00">+</text>
<text xml:space="preserve" text-anchor="start" x="55.75" y="-82" font-family="Helvetica,sans-Serif" font-size="10.00">SetPlayer()</text>
<text xml:space="preserve" text-anchor="start" x="38.31" y="-66.75" font-family="Helvetica,sans-Serif" font-size="10.00">+</text>
<text xml:space="preserve" text-anchor="start" x="55.75" y="-66.75" font-family="Helvetica,sans-Serif" font-size="10.00">OnPointerClick()</text>
<text xml:space="preserve" text-anchor="start" x="39.81" y="-51.5" font-family="Helvetica,sans-Serif" font-size="10.00">&#45;</text>
<text xml:space="preserve" text-anchor="start" x="55.75" y="-51.5" font-family="Helvetica,sans-Serif" font-size="10.00">OnEnable()</text>
<text xml:space="preserve" text-anchor="start" x="39.81" y="-36.25" font-family="Helvetica,sans-Serif" font-size="10.00">&#45;</text>
<text xml:space="preserve" text-anchor="start" x="55.75" y="-36.25" font-family="Helvetica,sans-Serif" font-size="10.00">Update()</text>
<text xml:space="preserve" text-anchor="start" x="39.81" y="-21" font-family="Helvetica,sans-Serif" font-size="10.00">&#45;</text>
<text xml:space="preserve" text-anchor="start" x="55.75" y="-21" font-family="Helvetica,sans-Serif" font-size="10.00">SetupUI()</text>
<text xml:space="preserve" text-anchor="start" x="39.81" y="-5.75" font-family="Helvetica,sans-Serif" font-size="10.00">&#45;</text>
<text xml:space="preserve" text-anchor="start" x="55.75" y="-5.75" font-family="Helvetica,sans-Serif" font-size="10.00">UpdateUI()</text>
<polygon fill="#666666" stroke="#666666" points="26.88,-261.25 26.88,-261.25 152.62,-261.25 152.62,-261.25 26.88,-261.25"/>
<polygon fill="#666666" stroke="#666666" points="26.88,-93.5 26.88,-93.5 53.75,-93.5 53.75,-93.5 26.88,-93.5"/>
<polygon fill="#666666" stroke="#666666" points="53.75,-93.5 53.75,-93.5 152.62,-93.5 152.62,-93.5 53.75,-93.5"/>
<polygon fill="none" stroke="#666666" points="26.88,0 26.88,-278.5 152.62,-278.5 152.62,0 26.88,0"/>
</a>
</g>
</g>
<!-- Node2 -->
<g id="Node000002" class="node">
<title>Node2</title>
<g id="a_Node000002"><a xlink:title=" ">
<polygon fill="white" stroke="none" points="75.5,-364.25 0,-364.25 0,-314.5 75.5,-314.5 75.5,-364.25"/>
<text xml:space="preserve" text-anchor="start" x="4" y="-350.75" font-family="Helvetica,sans-Serif" font-size="10.00">MonoBehaviour</text>
<text xml:space="preserve" text-anchor="start" x="36.25" y="-335.5" font-family="Helvetica,sans-Serif" font-size="10.00"> </text>
<text xml:space="preserve" text-anchor="start" x="36.25" y="-320.25" font-family="Helvetica,sans-Serif" font-size="10.00"> </text>
<polygon fill="#666666" stroke="#666666" points="0,-347 0,-347 75.5,-347 75.5,-347 0,-347"/>
<polygon fill="#666666" stroke="#666666" points="0,-331.75 0,-331.75 75.5,-331.75 75.5,-331.75 0,-331.75"/>
<polygon fill="none" stroke="#666666" points="0,-314.5 0,-364.25 75.5,-364.25 75.5,-314.5 0,-314.5"/>
</a>
</g>
</g>
<!-- Node2&#45;&gt;Node1 -->
<g id="edge1_Node000001_Node000002" class="edge">
<title>Node2&#45;&gt;Node1</title>
<g id="a_edge1_Node000001_Node000002"><a xlink:title=" ">
<path fill="none" stroke="#63b8ff" d="M46.79,-303.93C48.81,-296.22 51.08,-287.59 53.49,-278.42"/>
<polygon fill="none" stroke="#63b8ff" points="43.46,-302.84 44.3,-313.41 50.23,-304.62 43.46,-302.84"/>
</a>
</g>
</g>
<!-- Node3 -->
<g id="Node000003" class="node">
<title>Node3</title>
<g id="a_Node000003"><a xlink:title=" ">
<polygon fill="white" stroke="none" points="191.75,-364.25 93.75,-364.25 93.75,-314.5 191.75,-314.5 191.75,-364.25"/>
<text xml:space="preserve" text-anchor="start" x="97.75" y="-350.75" font-family="Helvetica,sans-Serif" font-size="10.00">IPointerClickHandler</text>
<text xml:space="preserve" text-anchor="start" x="141.25" y="-335.5" font-family="Helvetica,sans-Serif" font-size="10.00"> </text>
<text xml:space="preserve" text-anchor="start" x="141.25" y="-320.25" font-family="Helvetica,sans-Serif" font-size="10.00"> </text>
<polygon fill="#666666" stroke="#666666" points="93.75,-347 93.75,-347 191.75,-347 191.75,-347 93.75,-347"/>
<polygon fill="#666666" stroke="#666666" points="93.75,-331.75 93.75,-331.75 191.75,-331.75 191.75,-331.75 93.75,-331.75"/>
<polygon fill="none" stroke="#666666" points="93.75,-314.5 93.75,-364.25 191.75,-364.25 191.75,-314.5 93.75,-314.5"/>
</a>
</g>
</g>
<!-- Node3&#45;&gt;Node1 -->
<g id="edge2_Node000001_Node000003" class="edge">
<title>Node3&#45;&gt;Node1</title>
<g id="a_edge2_Node000001_Node000003"><a xlink:title=" ">
<path fill="none" stroke="#63b8ff" d="M133.54,-303.93C131.47,-296.22 129.16,-287.59 126.71,-278.42"/>
<polygon fill="none" stroke="#63b8ff" points="130.11,-304.65 136.07,-313.41 136.87,-302.84 130.11,-304.65"/>
</a>
</g>
</g>
</g>
</svg>
