<?xml version="1.0" encoding="UTF-8" standalone="no"?>
<!DOCTYPE svg PUBLIC "-//W3C//DTD SVG 1.1//EN"
 "http://www.w3.org/Graphics/SVG/1.1/DTD/svg11.dtd">
<!-- Generated by graphviz version 13.1.2 (20250808.2320)
 -->
<!-- Title: Graphical Class Hierarchy Pages: 1 -->
<svg width="330pt" height="138pt"
 viewBox="0.00 0.00 330.00 138.00" xmlns="http://www.w3.org/2000/svg" xmlns:xlink="http://www.w3.org/1999/xlink">
<g id="graph0" class="graph" transform="scale(1 1) rotate(0) translate(4 134.25)">
<title>Graphical Class Hierarchy</title>
<!-- Node0 -->
<g id="Node000000" class="node">
<title>Node0</title>
<g id="a_Node000000"><a xlink:title=" ">
<polygon fill="#e0e0e0" stroke="#999999" points="88,-74.25 0,-74.25 0,-55 88,-55 88,-74.25"/>
<text xml:space="preserve" text-anchor="middle" x="44" y="-60.75" font-family="Helvetica,sans-Serif" font-size="10.00">ScriptableObject</text>
</a>
</g>
</g>
<!-- Node1 -->
<g id="Node000001" class="node">
<title>Node1</title>
<g id="a_Node000001"><a xlink:href="class_items_1_1_item.html" target="_top" xlink:title="Abstract Data&#45;Class, which shares all commonalities between different types of Items.">
<polygon fill="white" stroke="#666666" points="187.25,-74.25 124,-74.25 124,-55 187.25,-55 187.25,-74.25"/>
<text xml:space="preserve" text-anchor="middle" x="155.62" y="-60.75" font-family="Helvetica,sans-Serif" font-size="10.00">Items.Item</text>
</a>
</g>
</g>
<!-- Node0&#45;&gt;Node1 -->
<g id="edge46_Node000000_Node000001" class="edge">
<title>Node0&#45;&gt;Node1</title>
<g id="a_edge46_Node000000_Node000001"><a xlink:title=" ">
<path fill="none" stroke="#63b8ff" d="M99.58,-64.62C107.89,-64.62 116.21,-64.62 123.77,-64.62"/>
<polygon fill="#63b8ff" stroke="#63b8ff" points="99.84,-61.13 89.84,-64.63 99.84,-68.13 99.84,-61.13"/>
</a>
</g>
</g>
<!-- Node2 -->
<g id="Node000002" class="node">
<title>Node2</title>
<g id="a_Node000002"><a xlink:href="class_items_1_1_boss_key.html" target="_top" xlink:title="The class is used to create the Boss&#45;Room&#45;Key and to be able to open the doors of the boss room on th...">
<polygon fill="white" stroke="#666666" points="314.25,-130.25 230.75,-130.25 230.75,-111 314.25,-111 314.25,-130.25"/>
<text xml:space="preserve" text-anchor="middle" x="272.5" y="-116.75" font-family="Helvetica,sans-Serif" font-size="10.00">Items.BossKey</text>
</a>
</g>
</g>
<!-- Node1&#45;&gt;Node2 -->
<g id="edge47_Node000001_Node000002" class="edge">
<title>Node1&#45;&gt;Node2</title>
<g id="a_edge47_Node000001_Node000002"><a xlink:title=" ">
<path fill="none" stroke="#63b8ff" d="M182.17,-80.49C194.37,-87.72 209.3,-96.1 223.25,-102.62 229.24,-105.43 235.8,-108.12 242.1,-110.52"/>
<polygon fill="#63b8ff" stroke="#63b8ff" points="184.33,-77.7 173.96,-75.53 180.71,-83.69 184.33,-77.7"/>
</a>
</g>
</g>
<!-- Node3 -->
<g id="Node000003" class="node">
<title>Node3</title>
<g id="a_Node000003"><a xlink:href="class_items_1_1_consumable.html" target="_top" xlink:title="Consumable&#45;Class is used to handle all items that increase a players current stats....">
<polygon fill="white" stroke="#666666" points="321.75,-93.25 223.25,-93.25 223.25,-74 321.75,-74 321.75,-93.25"/>
<text xml:space="preserve" text-anchor="middle" x="272.5" y="-79.75" font-family="Helvetica,sans-Serif" font-size="10.00">Items.Consumable</text>
</a>
</g>
</g>
<!-- Node1&#45;&gt;Node3 -->
<g id="edge48_Node000001_Node000003" class="edge">
<title>Node1&#45;&gt;Node3</title>
<g id="a_edge48_Node000001_Node000003"><a xlink:title=" ">
<path fill="none" stroke="#63b8ff" d="M198.88,-71.61C206.76,-72.92 215.05,-74.29 223.1,-75.62"/>
<polygon fill="#63b8ff" stroke="#63b8ff" points="199.64,-68.19 189.21,-70.01 198.5,-75.1 199.64,-68.19"/>
</a>
</g>
</g>
<!-- Node4 -->
<g id="Node000004" class="node">
<title>Node4</title>
<g id="a_Node000004"><a xlink:href="class_items_1_1_equipment.html" target="_top" xlink:title="The Equipment&#45;Class is used for making items usable for wearing by the player (enemies should work to...">
<polygon fill="white" stroke="#666666" points="317.62,-56.25 227.38,-56.25 227.38,-37 317.62,-37 317.62,-56.25"/>
<text xml:space="preserve" text-anchor="middle" x="272.5" y="-42.75" font-family="Helvetica,sans-Serif" font-size="10.00">Items.Equipment</text>
</a>
</g>
</g>
<!-- Node1&#45;&gt;Node4 -->
<g id="edge49_Node000001_Node000004" class="edge">
<title>Node1&#45;&gt;Node4</title>
<g id="a_edge49_Node000001_Node000004"><a xlink:title=" ">
<path fill="none" stroke="#63b8ff" d="M198.93,-58C208.08,-56.56 217.79,-55.04 227.02,-53.59"/>
<polygon fill="#63b8ff" stroke="#63b8ff" points="198.54,-54.51 189.21,-59.52 199.63,-61.43 198.54,-54.51"/>
</a>
</g>
</g>
<!-- Node5 -->
<g id="Node000005" class="node">
<title>Node5</title>
<g id="a_Node000005"><a xlink:href="class_items_1_1_glyphs.html" target="_top" xlink:title="The Glyphs&#45;Class is only used to create items with the glyphs icon so the player knows how the glyphs...">
<polygon fill="white" stroke="#666666" points="309.75,-19.25 235.25,-19.25 235.25,0 309.75,0 309.75,-19.25"/>
<text xml:space="preserve" text-anchor="middle" x="272.5" y="-5.75" font-family="Helvetica,sans-Serif" font-size="10.00">Items.Glyphs</text>
</a>
</g>
</g>
<!-- Node1&#45;&gt;Node5 -->
<g id="edge50_Node000001_Node000005" class="edge">
<title>Node1&#45;&gt;Node5</title>
<g id="a_edge50_Node000001_Node000005"><a xlink:title=" ">
<path fill="none" stroke="#63b8ff" d="M182.83,-48.88C194.92,-41.93 209.59,-33.92 223.25,-27.62 229.34,-24.82 236,-22.11 242.38,-19.69"/>
<polygon fill="#63b8ff" stroke="#63b8ff" points="181.14,-45.81 174.28,-53.88 184.67,-51.85 181.14,-45.81"/>
</a>
</g>
</g>
</g>
</svg>
