<?xml version="1.0" encoding="UTF-8" standalone="no"?>
<!DOCTYPE svg PUBLIC "-//W3C//DTD SVG 1.1//EN"
 "http://www.w3.org/Graphics/SVG/1.1/DTD/svg11.dtd">
<!-- Generated by graphviz version 13.1.2 (20250808.2320)
 -->
<!-- Title: Interfaces.IInteractable Pages: 1 -->
<svg width="707pt" height="368pt"
 viewBox="0.00 0.00 707.00 368.00" xmlns="http://www.w3.org/2000/svg" xmlns:xlink="http://www.w3.org/1999/xlink">
<g id="graph0" class="graph" transform="scale(1 1) rotate(0) translate(4 364.25)">
<title>Interfaces.IInteractable</title>
<!-- Node1 -->
<g id="Node000001" class="node">
<title>Node1</title>
<g id="a_Node000001"><a xlink:title="Interface for objects that can be interacted with (e.g., when the player is nearby).">
<polygon fill="#999999" stroke="none" points="423.25,-360.25 314.75,-360.25 314.75,-280 423.25,-280 423.25,-360.25"/>
<text xml:space="preserve" text-anchor="start" x="318.75" y="-346.75" font-family="Helvetica,sans-Serif" font-size="10.00">Interfaces.IInteractable</text>
<text xml:space="preserve" text-anchor="start" x="367.5" y="-331.5" font-family="Helvetica,sans-Serif" font-size="10.00"> </text>
<text xml:space="preserve" text-anchor="start" x="324.5" y="-316.25" font-family="Helvetica,sans-Serif" font-size="10.00">+</text>
<text xml:space="preserve" text-anchor="start" x="340.25" y="-316.25" font-family="Helvetica,sans-Serif" font-size="10.00">Interact()</text>
<text xml:space="preserve" text-anchor="start" x="324.5" y="-301" font-family="Helvetica,sans-Serif" font-size="10.00">+</text>
<text xml:space="preserve" text-anchor="start" x="340.25" y="-301" font-family="Helvetica,sans-Serif" font-size="10.00">OnExit()</text>
<text xml:space="preserve" text-anchor="start" x="324.5" y="-285.75" font-family="Helvetica,sans-Serif" font-size="10.00">+</text>
<text xml:space="preserve" text-anchor="start" x="340.25" y="-285.75" font-family="Helvetica,sans-Serif" font-size="10.00">ShouldRepeat()</text>
<polygon fill="#666666" stroke="#666666" points="314.75,-343 314.75,-343 423.25,-343 423.25,-343 314.75,-343"/>
<polygon fill="#666666" stroke="#666666" points="314.75,-327.75 314.75,-327.75 423.25,-327.75 423.25,-327.75 314.75,-327.75"/>
<polygon fill="none" stroke="#666666" points="314.75,-280 314.75,-360.25 423.25,-360.25 423.25,-280 314.75,-280"/>
</a>
</g>
</g>
<!-- Node2 -->
<g id="Node000002" class="node">
<title>Node2</title>
<g id="a_Node000002"><a xlink:href="class_interaction_1_1_destroyable_wall_interaction.html" target="_top" xlink:title="Interaction for a breakable wall that can only be damaged with a pickaxe. Shows short feedback,...">
<polygon fill="white" stroke="none" points="128,-244 0,-244 0,0 128,0 128,-244"/>
<text xml:space="preserve" text-anchor="start" x="4" y="-230.5" font-family="Helvetica,sans-Serif" font-size="10.00">Interaction.DestroyableWall</text>
<text xml:space="preserve" text-anchor="start" x="41.12" y="-219.25" font-family="Helvetica,sans-Serif" font-size="10.00">Interaction</text>
<text xml:space="preserve" text-anchor="start" x="9.75" y="-204" font-family="Helvetica,sans-Serif" font-size="10.00">+</text>
<text xml:space="preserve" text-anchor="start" x="25.5" y="-204" font-family="Helvetica,sans-Serif" font-size="10.00">edgeID</text>
<text xml:space="preserve" text-anchor="start" x="11.25" y="-188.75" font-family="Helvetica,sans-Serif" font-size="10.00">&#45;</text>
<text xml:space="preserve" text-anchor="start" x="25.5" y="-188.75" font-family="Helvetica,sans-Serif" font-size="10.00">lifeTextFront</text>
<text xml:space="preserve" text-anchor="start" x="11.25" y="-173.5" font-family="Helvetica,sans-Serif" font-size="10.00">&#45;</text>
<text xml:space="preserve" text-anchor="start" x="25.5" y="-173.5" font-family="Helvetica,sans-Serif" font-size="10.00">lifeTextBack</text>
<text xml:space="preserve" text-anchor="start" x="11.25" y="-158.25" font-family="Helvetica,sans-Serif" font-size="10.00">&#45;</text>
<text xml:space="preserve" text-anchor="start" x="25.5" y="-158.25" font-family="Helvetica,sans-Serif" font-size="10.00">_hitPoints</text>
<text xml:space="preserve" text-anchor="start" x="11.25" y="-143" font-family="Helvetica,sans-Serif" font-size="10.00">&#45;</text>
<text xml:space="preserve" text-anchor="start" x="25.5" y="-143" font-family="Helvetica,sans-Serif" font-size="10.00">_currentColor</text>
<text xml:space="preserve" text-anchor="start" x="11.25" y="-127.75" font-family="Helvetica,sans-Serif" font-size="10.00">&#45;</text>
<text xml:space="preserve" text-anchor="start" x="25.5" y="-127.75" font-family="Helvetica,sans-Serif" font-size="10.00">_waitingForClick</text>
<text xml:space="preserve" text-anchor="start" x="11.25" y="-112.5" font-family="Helvetica,sans-Serif" font-size="10.00">&#45;</text>
<text xml:space="preserve" text-anchor="start" x="25.5" y="-112.5" font-family="Helvetica,sans-Serif" font-size="10.00">_nextHitTime</text>
<text xml:space="preserve" text-anchor="start" x="11.25" y="-97.25" font-family="Helvetica,sans-Serif" font-size="10.00">&#45;</text>
<text xml:space="preserve" text-anchor="start" x="25.5" y="-97.25" font-family="Helvetica,sans-Serif" font-size="10.00">_destroyScheduled</text>
<text xml:space="preserve" text-anchor="start" x="9.75" y="-82" font-family="Helvetica,sans-Serif" font-size="10.00">+</text>
<text xml:space="preserve" text-anchor="start" x="25.5" y="-82" font-family="Helvetica,sans-Serif" font-size="10.00">InitializeFromSave()</text>
<text xml:space="preserve" text-anchor="start" x="9.75" y="-66.75" font-family="Helvetica,sans-Serif" font-size="10.00">+</text>
<text xml:space="preserve" text-anchor="start" x="25.5" y="-66.75" font-family="Helvetica,sans-Serif" font-size="10.00">Interact()</text>
<text xml:space="preserve" text-anchor="start" x="9.75" y="-51.5" font-family="Helvetica,sans-Serif" font-size="10.00">+</text>
<text xml:space="preserve" text-anchor="start" x="25.5" y="-51.5" font-family="Helvetica,sans-Serif" font-size="10.00">OnExit()</text>
<text xml:space="preserve" text-anchor="start" x="9.75" y="-36.25" font-family="Helvetica,sans-Serif" font-size="10.00">+</text>
<text xml:space="preserve" text-anchor="start" x="25.5" y="-36.25" font-family="Helvetica,sans-Serif" font-size="10.00">ShouldRepeat()</text>
<text xml:space="preserve" text-anchor="start" x="11.25" y="-21" font-family="Helvetica,sans-Serif" font-size="10.00">&#45;</text>
<text xml:space="preserve" text-anchor="start" x="25.5" y="-21" font-family="Helvetica,sans-Serif" font-size="10.00">HideLifeText()</text>
<text xml:space="preserve" text-anchor="start" x="11.25" y="-5.75" font-family="Helvetica,sans-Serif" font-size="10.00">&#45;</text>
<text xml:space="preserve" text-anchor="start" x="25.5" y="-5.75" font-family="Helvetica,sans-Serif" font-size="10.00">DisableAfterDelay()</text>
<polygon fill="#666666" stroke="#666666" points="0,-215.5 0,-215.5 128,-215.5 128,-215.5 0,-215.5"/>
<polygon fill="#666666" stroke="#666666" points="0,-93.5 0,-93.5 23.5,-93.5 23.5,-93.5 0,-93.5"/>
<polygon fill="#666666" stroke="#666666" points="23.5,-93.5 23.5,-93.5 128,-93.5 128,-93.5 23.5,-93.5"/>
<polygon fill="none" stroke="#666666" points="0,0 0,-244 128,-244 128,0 0,0"/>
</a>
</g>
</g>
<!-- Node1&#45;&gt;Node2 -->
<g id="edge1_Node000001_Node000002" class="edge">
<title>Node1&#45;&gt;Node2</title>
<g id="a_edge1_Node000001_Node000002"><a xlink:title=" ">
<path fill="none" stroke="#63b8ff" d="M303.78,-310.64C253.75,-301.35 185.31,-282.32 137,-244 133.83,-241.48 130.76,-238.79 127.8,-235.95"/>
<polygon fill="none" stroke="#63b8ff" points="303.17,-314.09 313.62,-312.38 304.38,-307.2 303.17,-314.09"/>
</a>
</g>
</g>
<!-- Node3 -->
<g id="Node000003" class="node">
<title>Node3</title>
<g id="a_Node000003"><a xlink:href="class_interaction_1_1_enemy_interaction.html" target="_top" xlink:title="Handles interactions between the player and an enemy, including applying damage over time when in con...">
<polygon fill="white" stroke="none" points="279.62,-185 146.38,-185 146.38,-59 279.62,-59 279.62,-185"/>
<text xml:space="preserve" text-anchor="start" x="150.38" y="-171.5" font-family="Helvetica,sans-Serif" font-size="10.00">Interaction.EnemyInteraction</text>
<text xml:space="preserve" text-anchor="start" x="160.81" y="-156.25" font-family="Helvetica,sans-Serif" font-size="10.00">&#45;</text>
<text xml:space="preserve" text-anchor="start" x="178.25" y="-156.25" font-family="Helvetica,sans-Serif" font-size="10.00">lifeText</text>
<text xml:space="preserve" text-anchor="start" x="160.81" y="-141" font-family="Helvetica,sans-Serif" font-size="10.00">&#45;</text>
<text xml:space="preserve" text-anchor="start" x="178.25" y="-141" font-family="Helvetica,sans-Serif" font-size="10.00">_currentColor</text>
<text xml:space="preserve" text-anchor="start" x="160.81" y="-125.75" font-family="Helvetica,sans-Serif" font-size="10.00">&#45;</text>
<text xml:space="preserve" text-anchor="start" x="178.25" y="-125.75" font-family="Helvetica,sans-Serif" font-size="10.00">DamageModifier</text>
<text xml:space="preserve" text-anchor="start" x="159.31" y="-110.5" font-family="Helvetica,sans-Serif" font-size="10.00">+</text>
<text xml:space="preserve" text-anchor="start" x="178.25" y="-110.5" font-family="Helvetica,sans-Serif" font-size="10.00">Interact()</text>
<text xml:space="preserve" text-anchor="start" x="159.31" y="-95.25" font-family="Helvetica,sans-Serif" font-size="10.00">+</text>
<text xml:space="preserve" text-anchor="start" x="178.25" y="-95.25" font-family="Helvetica,sans-Serif" font-size="10.00">OnExit()</text>
<text xml:space="preserve" text-anchor="start" x="159.31" y="-80" font-family="Helvetica,sans-Serif" font-size="10.00">+</text>
<text xml:space="preserve" text-anchor="start" x="178.25" y="-80" font-family="Helvetica,sans-Serif" font-size="10.00">ShouldRepeat()</text>
<text xml:space="preserve" text-anchor="start" x="160.81" y="-64.75" font-family="Helvetica,sans-Serif" font-size="10.00">&#45;</text>
<text xml:space="preserve" text-anchor="start" x="178.25" y="-64.75" font-family="Helvetica,sans-Serif" font-size="10.00">OnCollisionEnter()</text>
<polygon fill="#666666" stroke="#666666" points="146.38,-167.75 146.38,-167.75 279.62,-167.75 279.62,-167.75 146.38,-167.75"/>
<polygon fill="#666666" stroke="#666666" points="146.38,-122 146.38,-122 176.25,-122 176.25,-122 146.38,-122"/>
<polygon fill="#666666" stroke="#666666" points="176.25,-122 176.25,-122 279.62,-122 279.62,-122 176.25,-122"/>
<polygon fill="none" stroke="#666666" points="146.38,-59 146.38,-185 279.62,-185 279.62,-59 146.38,-59"/>
</a>
</g>
</g>
<!-- Node1&#45;&gt;Node3 -->
<g id="edge2_Node000001_Node000003" class="edge">
<title>Node1&#45;&gt;Node3</title>
<g id="a_edge2_Node000001_Node000003"><a xlink:title=" ">
<path fill="none" stroke="#63b8ff" d="M314.56,-272.45C305.26,-263.42 296.02,-253.73 288,-244 273.07,-225.88 258.9,-204.54 246.97,-184.87"/>
<polygon fill="none" stroke="#63b8ff" points="311.97,-274.81 321.63,-279.15 316.79,-269.73 311.97,-274.81"/>
</a>
</g>
</g>
<!-- Node4 -->
<g id="Node000004" class="node">
<title>Node4</title>
<g id="a_Node000004"><a xlink:href="class_interaction_1_1_level_exit_interaction.html" target="_top" xlink:title="Handles player interaction with the level exit. When the player interacts, the level is advanced,...">
<polygon fill="white" stroke="none" points="440.5,-162.12 297.5,-162.12 297.5,-81.88 440.5,-81.88 440.5,-162.12"/>
<text xml:space="preserve" text-anchor="start" x="301.5" y="-148.62" font-family="Helvetica,sans-Serif" font-size="10.00">Interaction.LevelExitInteraction</text>
<text xml:space="preserve" text-anchor="start" x="367.5" y="-133.38" font-family="Helvetica,sans-Serif" font-size="10.00"> </text>
<text xml:space="preserve" text-anchor="start" x="315.88" y="-118.12" font-family="Helvetica,sans-Serif" font-size="10.00">+</text>
<text xml:space="preserve" text-anchor="start" x="340.25" y="-118.12" font-family="Helvetica,sans-Serif" font-size="10.00">Interact()</text>
<text xml:space="preserve" text-anchor="start" x="315.88" y="-102.88" font-family="Helvetica,sans-Serif" font-size="10.00">+</text>
<text xml:space="preserve" text-anchor="start" x="340.25" y="-102.88" font-family="Helvetica,sans-Serif" font-size="10.00">OnExit()</text>
<text xml:space="preserve" text-anchor="start" x="315.88" y="-87.62" font-family="Helvetica,sans-Serif" font-size="10.00">+</text>
<text xml:space="preserve" text-anchor="start" x="340.25" y="-87.62" font-family="Helvetica,sans-Serif" font-size="10.00">ShouldRepeat()</text>
<polygon fill="#666666" stroke="#666666" points="297.5,-144.88 297.5,-144.88 440.5,-144.88 440.5,-144.88 297.5,-144.88"/>
<polygon fill="#666666" stroke="#666666" points="297.5,-129.62 297.5,-129.62 440.5,-129.62 440.5,-129.62 297.5,-129.62"/>
<polygon fill="none" stroke="#666666" points="297.5,-81.88 297.5,-162.12 440.5,-162.12 440.5,-81.88 297.5,-81.88"/>
</a>
</g>
</g>
<!-- Node1&#45;&gt;Node4 -->
<g id="edge3_Node000001_Node000004" class="edge">
<title>Node1&#45;&gt;Node4</title>
<g id="a_edge3_Node000001_Node000004"><a xlink:title=" ">
<path fill="none" stroke="#63b8ff" d="M369,-269.05C369,-235.78 369,-192.73 369,-162"/>
<polygon fill="none" stroke="#63b8ff" points="365.5,-268.86 369,-278.86 372.5,-268.86 365.5,-268.86"/>
</a>
</g>
</g>
<!-- Node5 -->
<g id="Node000005" class="node">
<title>Node5</title>
<g id="a_Node000005"><a xlink:href="class_items_1_1_collectible_item.html" target="_top" xlink:title="This class implements the IInteractable interface and is used for the ability to collect items of the...">
<polygon fill="white" stroke="none" points="559.5,-185 458.5,-185 458.5,-59 559.5,-59 559.5,-185"/>
<text xml:space="preserve" text-anchor="start" x="462.5" y="-171.5" font-family="Helvetica,sans-Serif" font-size="10.00">Items.CollectibleItem</text>
<text xml:space="preserve" text-anchor="start" x="466.38" y="-156.25" font-family="Helvetica,sans-Serif" font-size="10.00">+</text>
<text xml:space="preserve" text-anchor="start" x="480.25" y="-156.25" font-family="Helvetica,sans-Serif" font-size="10.00">item</text>
<text xml:space="preserve" text-anchor="start" x="466.38" y="-141" font-family="Helvetica,sans-Serif" font-size="10.00">+</text>
<text xml:space="preserve" text-anchor="start" x="480.25" y="-141" font-family="Helvetica,sans-Serif" font-size="10.00">amount</text>
<text xml:space="preserve" text-anchor="start" x="466.38" y="-125.75" font-family="Helvetica,sans-Serif" font-size="10.00">+</text>
<text xml:space="preserve" text-anchor="start" x="480.25" y="-125.75" font-family="Helvetica,sans-Serif" font-size="10.00">saveIndex</text>
<text xml:space="preserve" text-anchor="start" x="466.38" y="-110.5" font-family="Helvetica,sans-Serif" font-size="10.00">+</text>
<text xml:space="preserve" text-anchor="start" x="480.25" y="-110.5" font-family="Helvetica,sans-Serif" font-size="10.00">Initialize()</text>
<text xml:space="preserve" text-anchor="start" x="466.38" y="-95.25" font-family="Helvetica,sans-Serif" font-size="10.00">+</text>
<text xml:space="preserve" text-anchor="start" x="480.25" y="-95.25" font-family="Helvetica,sans-Serif" font-size="10.00">Interact()</text>
<text xml:space="preserve" text-anchor="start" x="466.38" y="-80" font-family="Helvetica,sans-Serif" font-size="10.00">+</text>
<text xml:space="preserve" text-anchor="start" x="480.25" y="-80" font-family="Helvetica,sans-Serif" font-size="10.00">OnExit()</text>
<text xml:space="preserve" text-anchor="start" x="466.38" y="-64.75" font-family="Helvetica,sans-Serif" font-size="10.00">+</text>
<text xml:space="preserve" text-anchor="start" x="480.25" y="-64.75" font-family="Helvetica,sans-Serif" font-size="10.00">ShouldRepeat()</text>
<polygon fill="#666666" stroke="#666666" points="458.5,-167.75 458.5,-167.75 559.5,-167.75 559.5,-167.75 458.5,-167.75"/>
<polygon fill="#666666" stroke="#666666" points="458.5,-122 458.5,-122 478.25,-122 478.25,-122 458.5,-122"/>
<polygon fill="#666666" stroke="#666666" points="478.25,-122 478.25,-122 559.5,-122 559.5,-122 478.25,-122"/>
<polygon fill="none" stroke="#666666" points="458.5,-59 458.5,-185 559.5,-185 559.5,-59 458.5,-59"/>
</a>
</g>
</g>
<!-- Node1&#45;&gt;Node5 -->
<g id="edge4_Node000001_Node000005" class="edge">
<title>Node1&#45;&gt;Node5</title>
<g id="a_edge4_Node000001_Node000005"><a xlink:title=" ">
<path fill="none" stroke="#63b8ff" d="M425.19,-272.18C434.09,-263.35 442.74,-253.79 450,-244 463.3,-226.08 474.89,-204.69 484.19,-184.91"/>
<polygon fill="none" stroke="#63b8ff" points="422.85,-269.58 418.07,-279.04 427.7,-274.62 422.85,-269.58"/>
</a>
</g>
</g>
<!-- Node6 -->
<g id="Node000006" class="node">
<title>Node6</title>
<g id="a_Node000006"><a xlink:href="class_mini_game_1_1_drawing_trigger.html" target="_top" xlink:title="Handles player interaction with a drawing canvas. Displays instructions, activates the camera for dra...">
<polygon fill="white" stroke="none" points="698.62,-162.12 577.38,-162.12 577.38,-81.88 698.62,-81.88 698.62,-162.12"/>
<text xml:space="preserve" text-anchor="start" x="581.38" y="-148.62" font-family="Helvetica,sans-Serif" font-size="10.00">MiniGame.DrawingTrigger</text>
<text xml:space="preserve" text-anchor="start" x="591.81" y="-133.38" font-family="Helvetica,sans-Serif" font-size="10.00">&#45;</text>
<text xml:space="preserve" text-anchor="start" x="609.25" y="-133.38" font-family="Helvetica,sans-Serif" font-size="10.00">center</text>
<text xml:space="preserve" text-anchor="start" x="590.31" y="-118.12" font-family="Helvetica,sans-Serif" font-size="10.00">+</text>
<text xml:space="preserve" text-anchor="start" x="609.25" y="-118.12" font-family="Helvetica,sans-Serif" font-size="10.00">Interact()</text>
<text xml:space="preserve" text-anchor="start" x="590.31" y="-102.88" font-family="Helvetica,sans-Serif" font-size="10.00">+</text>
<text xml:space="preserve" text-anchor="start" x="609.25" y="-102.88" font-family="Helvetica,sans-Serif" font-size="10.00">OnExit()</text>
<text xml:space="preserve" text-anchor="start" x="590.31" y="-87.62" font-family="Helvetica,sans-Serif" font-size="10.00">+</text>
<text xml:space="preserve" text-anchor="start" x="609.25" y="-87.62" font-family="Helvetica,sans-Serif" font-size="10.00">ShouldRepeat()</text>
<polygon fill="#666666" stroke="#666666" points="577.38,-144.88 577.38,-144.88 698.62,-144.88 698.62,-144.88 577.38,-144.88"/>
<polygon fill="#666666" stroke="#666666" points="577.38,-129.62 577.38,-129.62 607.25,-129.62 607.25,-129.62 577.38,-129.62"/>
<polygon fill="#666666" stroke="#666666" points="607.25,-129.62 607.25,-129.62 698.62,-129.62 698.62,-129.62 607.25,-129.62"/>
<polygon fill="none" stroke="#666666" points="577.38,-81.88 577.38,-162.12 698.62,-162.12 698.62,-81.88 577.38,-81.88"/>
</a>
</g>
</g>
<!-- Node1&#45;&gt;Node6 -->
<g id="edge5_Node000001_Node000006" class="edge">
<title>Node1&#45;&gt;Node6</title>
<g id="a_edge5_Node000001_Node000006"><a xlink:title=" ">
<path fill="none" stroke="#63b8ff" d="M434.04,-306.73C476.31,-295.97 530.52,-276.8 569,-244 594.58,-222.19 612.72,-188.39 623.97,-162.06"/>
<polygon fill="none" stroke="#63b8ff" points="433.37,-303.29 424.48,-309.05 435.02,-310.09 433.37,-303.29"/>
</a>
</g>
</g>
</g>
</svg>
